<svg width="50" height="50" viewBox="0 0 50 50" fill="none" xmlns="http://www.w3.org/2000/svg">
<path opacity="0.5" d="M0.221069 20.1669C0.221069 12.2145 -0.276388 3.47323 0.221147 1.38689C0.552455 -0.00241053 3.49661 -0.00195312 9.67915 -0.00195312H14.657C19.9237 -0.00195312 22.3531 -0.00195312 25.1106 -0.00195312C27.046 -0.00195312 36.0728 -0.00147409 43.0045 -0.000849415C46.8699 -0.000501065 50 3.13194 50 6.9974C50 10.9177 50 15.738 50 20.1669V25.4528C50 32.3293 50 38.546 50 43.0028C50 46.8691 46.8755 49.9996 43.0092 49.9992C40.0905 49.9988 35.9532 49.9983 30.0885 49.9976H14.8661C5.47972 49.9976 8.68363 32.6219 0.221147 49.9976C0.221147 39.5724 0.221069 39.0084 0.221069 25.4528V20.1669Z" fill="#1C274C"/>
<path d="M23 36.1C23 37.1493 23.8955 38 25 38C26.1045 38 27 37.1493 27 36.1L27 20.9C27 19.8507 26.1045 19 25 19C23.8955 19 23 19.8507 23 20.9L23 36.1Z" fill="#1C274C"/>
<path d="M23 15.2542C23 15.638 23.8915 15.9492 24.9912 15.9492C26.0908 15.9492 26.9823 15.638 26.9823 15.2542L26.9823 9.69409C26.9823 9.31026 26.0908 8.99908 24.9912 8.99908C23.8915 8.99908 23 9.31026 23 9.69409L23 15.2542Z" fill="#1C274C"/>
</svg>
