<svg width="50" height="50" viewBox="0 0 50 50" fill="none" xmlns="http://www.w3.org/2000/svg">
<path opacity="0.5" d="M0.221069 20.1689C0.221069 12.2165 -0.276388 3.47519 0.221147 1.38884C0.552455 -0.000457406 3.49661 1.98064e-10 9.67915 1.98064e-10H14.657C19.9237 1.98064e-10 22.3531 1.98064e-10 25.1106 1.98064e-10C27.046 1.98064e-10 36.0728 0.000479033 43.0045 0.00110371C46.8699 0.00145206 50 3.13389 50 6.99935C50 10.9197 50 15.74 50 20.1689V25.4548C50 32.3313 50 38.548 50 43.0047C50 46.871 46.8755 50.0016 43.0092 50.0011C40.0905 50.0008 35.9532 50.0003 30.0885 49.9996H14.8661C5.47972 49.9996 8.68363 32.6239 0.221147 49.9996C0.221147 39.5744 0.221069 39.0103 0.221069 25.4548V20.1689Z" fill="#1C274C"/>
<path d="M23 33.1C23 34.1493 23.8955 35 25 35C26.1045 35 27 34.1493 27 33.1L27 17.9C27 16.8507 26.1045 16 25 16C23.8955 16 23 16.8507 23 17.9L23 33.1Z" fill="#1C274C"/>
<path d="M23 13.2542C23 13.638 23.8915 13.9492 24.9912 13.9492C26.0908 13.9492 26.9823 13.638 26.9823 13.2542L26.9823 7.69409C26.9823 7.31026 26.0908 6.99908 24.9912 6.99908C23.8915 6.99908 23 7.31026 23 7.69409L23 13.2542Z" fill="#1C274C"/>
</svg>
