<svg width="50" height="50" viewBox="0 0 50 50" fill="none" xmlns="http://www.w3.org/2000/svg">
<path d="M50 27.5V32.5C50 33.163 49.7366 33.7989 49.2678 34.2678C48.7989 34.7366 48.163 35 47.5 35H42.5C41.837 35 41.2011 34.7366 40.7322 34.2678C40.2634 33.7989 40 33.163 40 32.5V27.5C40 26.837 40.2634 26.2011 40.7322 25.7322C41.2011 25.2634 41.837 25 42.5 25H47.5C48.163 25 48.7989 25.2634 49.2678 25.7322C49.7366 26.2011 50 26.837 50 27.5ZM47.5 10H42.5C41.837 10 41.2011 10.2634 40.7322 10.7322C40.2634 11.2011 40 11.837 40 12.5V17.5C40 18.163 40.2634 18.7989 40.7322 19.2678C41.2011 19.7366 41.837 20 42.5 20H47.5C48.163 20 48.7989 19.7366 49.2678 19.2678C49.7366 18.7989 50 18.163 50 17.5V12.5C50 11.837 49.7366 11.2011 49.2678 10.7322C48.7989 10.2634 48.163 10 47.5 10Z" fill="#1C274C"/>
<path d="M40 0H5C2.23858 0 0 2.23858 0 5V45C0 47.7614 2.23858 50 5 50H40C42.7614 50 45 47.7614 45 45V5C45 2.23858 42.7614 0 40 0Z" fill="#888DA0"/>
<path d="M28.5 24.5C29.4737 23.2018 30 21.6228 30 20C30 18.0109 29.2098 16.1032 27.8033 14.6967C26.3968 13.2902 24.4891 12.5 22.5 12.5C20.5109 12.5 18.6032 13.2902 17.1967 14.6967C15.7902 16.1032 15 18.0109 15 20C15 21.6228 15.5263 23.2018 16.5 24.5C15.258 25.4315 14.25 26.6393 13.5557 28.0279C12.8615 29.4164 12.5 30.9475 12.5 32.5V35C12.5 35.663 12.7634 36.2989 13.2322 36.7678C13.7011 37.2366 14.337 37.5 15 37.5H30C30.663 37.5 31.2989 37.2366 31.7678 36.7678C32.2366 36.2989 32.5 35.663 32.5 35V32.5C32.5 30.9475 32.1386 29.4164 31.4443 28.0279C30.75 26.6393 29.742 25.4315 28.5 24.5Z" fill="#1C274C"/>
</svg>
