<svg width="162" height="132" viewBox="0 0 162 132" fill="none" xmlns="http://www.w3.org/2000/svg">
<circle cx="80.06" cy="66" r="66" fill="#F9F871"/>
<path fill-rule="evenodd" clip-rule="evenodd" d="M119.66 29.2C119.66 26.0175 115.538 24.8854 112.811 24.1365C112.56 24.0677 112.322 24.0021 112.099 23.9385C108.693 22.9654 103.857 22 98.06 22C91.8543 22 86.7376 24.0664 83.224 26.0743C82.6865 26.3815 82.1213 26.8057 81.6105 27.1891C80.9358 27.6957 80.3562 28.1311 80.06 28.1311C79.7637 28.1311 79.1841 27.6957 78.5094 27.1891C77.9986 26.8057 77.4334 26.3815 76.8959 26.0743C73.3823 24.0664 68.2656 22 62.06 22C56.2632 22 51.4266 22.9654 48.021 23.9385C47.8068 23.9997 47.5773 24.0629 47.3365 24.1292C44.6216 24.8768 40.46 26.0227 40.46 29.2V76C40.46 77.2478 41.106 78.4062 42.1673 79.0625C43.8558 80.1058 46.084 79.1925 48.0586 78.3832C48.7475 78.1006 49.4055 77.831 49.999 77.6614C52.8933 76.8345 57.0568 76 62.06 76C66.6006 76 69.9999 77.498 72.5482 79.0661C73.2027 79.469 73.8644 79.9827 74.5433 80.5097C76.2216 81.8133 78.0072 83.2 80.06 83.2C82.1184 83.2 83.895 81.8183 85.5705 80.5155C86.2502 79.9866 86.9133 79.4711 87.5717 79.0661C90.1202 77.498 93.5193 76 98.06 76C103.063 76 107.227 76.8345 110.121 77.6614C110.742 77.8389 111.416 78.1233 112.115 78.4188C114.059 79.24 116.201 80.1447 117.952 79.0625C119.014 78.4062 119.66 77.2478 119.66 76V29.2ZM48.857 31.207C48.1338 31.4378 47.66 32.1188 47.66 32.878V68.4368C47.66 69.6388 48.8152 70.5039 49.9837 70.2224C53.1887 69.4505 57.2999 68.8 62.06 68.8C68.4071 68.8 73.1458 70.9578 76.46 73.0196V34.4404C75.736 33.8653 74.6733 33.0968 73.324 32.3257C70.5377 30.7336 66.6544 29.2 62.06 29.2C56.3543 29.2 51.7276 30.2907 48.857 31.207ZM98.06 68.8C91.7128 68.8 86.9741 70.9578 83.66 73.0196V34.4404C84.3839 33.8653 85.4466 33.0968 86.7959 32.3257C89.5823 30.7336 93.4656 29.2 98.06 29.2C103.766 29.2 108.392 30.2907 111.263 31.207C111.986 31.4378 112.46 32.1188 112.46 32.878V68.4368C112.46 69.6388 111.305 70.5039 110.136 70.2224C106.931 69.4505 102.82 68.8 98.06 68.8Z" fill="#414042"/>
<path d="M44.3745 88.2713C43.5619 86.4569 44.3741 84.3271 46.1886 83.5143C47.8743 82.7651 49.6194 82.1355 51.3745 81.5721C54.2865 80.6379 58.3129 79.6 62.0601 79.6C66.2609 79.6 69.8463 81.864 72.4449 83.5049C72.5783 83.5891 72.7091 83.6716 72.8372 83.7522C75.865 85.6555 77.9015 86.8 80.0601 86.8C82.2161 86.8 84.2404 85.6584 87.2644 83.7537C87.3886 83.6755 87.5149 83.5956 87.6438 83.5139C90.2448 81.8691 93.8326 79.6 98.0601 79.6C101.827 79.6 105.853 80.6371 108.764 81.5728C111.377 82.413 113.316 83.2439 113.814 83.4628C115.636 84.2685 116.58 86.4195 115.743 88.2778C114.932 90.0781 112.769 90.877 110.975 90.0792C109.538 89.4456 108.054 88.9078 106.56 88.4272C103.871 87.5628 100.697 86.8 98.0601 86.8C96.0473 86.8 94.1134 87.9469 90.8849 89.9827C88.2087 91.6704 84.5143 94 80.0601 94C75.6029 94 71.8966 91.6675 69.2127 89.9784C65.9777 87.9423 64.0482 86.8 62.0601 86.8C59.4457 86.8 56.272 87.5621 53.5744 88.4279C52.0714 88.9099 50.5751 89.4463 49.1307 90.0861C47.3163 90.8979 45.187 90.0857 44.3745 88.2713Z" fill="#414042"/>
<path d="M58.1119 37.1761C58.1075 35.5192 56.7608 34.1796 55.104 34.184C53.4471 34.1884 52.1076 35.5351 52.1119 37.1919L58.1119 37.1761ZM61.5 47.4578L64.4719 47.0485C64.2624 45.527 62.9375 44.4094 61.4024 44.4594C59.8673 44.5093 58.6179 45.7106 58.5077 47.2426L61.5 47.4578ZM73.0008 37.8997C73.2867 36.2677 72.1955 34.713 70.5635 34.4271C68.9314 34.1412 67.3767 35.2325 67.0908 36.8645L73.0008 37.8997ZM52.1119 37.1919C52.1214 40.7732 51.9502 46.9987 52.0416 52.0544C52.088 54.6163 52.2017 57.0811 52.4607 58.9813C52.5875 59.9118 52.7692 60.8674 53.0627 61.6764C53.2086 62.0785 53.4312 62.5848 53.7867 63.0604C54.1388 63.5313 54.7933 64.1957 55.8376 64.4539L57.2774 58.6292C58.0548 58.8213 58.4644 59.2967 58.5922 59.4676C58.7235 59.6432 58.7423 59.7384 58.7031 59.6304C58.6264 59.4191 58.513 58.9581 58.4057 58.171C58.1965 56.6361 58.0861 54.4622 58.0406 51.9459C57.9484 46.8451 58.1224 41.1559 58.1119 37.1761L52.1119 37.1919ZM55.8376 64.4539C57.4102 64.8426 58.6531 64.1244 59.3171 63.5578C59.9698 63.0008 60.4461 62.2946 60.7874 61.6994C61.4898 60.4741 62.0872 58.8779 62.5739 57.2959C63.5553 54.1054 64.3086 50.2268 64.4922 47.673L58.5077 47.2426C58.3622 49.2653 57.7125 52.6926 56.8391 55.5318C56.3983 56.9647 55.9553 58.0643 55.5821 58.7152C55.3856 59.058 55.3154 59.085 55.4224 58.9936C55.5408 58.8926 56.239 58.3725 57.2774 58.6292L55.8376 64.4539ZM58.528 47.867C58.9158 50.6832 59.9153 54.8242 60.9872 57.947C61.4997 59.4402 62.1318 61.0155 62.8581 62.0722C63.0537 62.3567 63.3202 62.7001 63.6676 63.0131C63.9914 63.3048 64.5888 63.7552 65.4479 63.9149C66.4533 64.1018 67.4176 63.817 68.1436 63.2444C68.7629 62.7559 69.0952 62.1542 69.2724 61.7615L63.8037 59.2931C63.8264 59.2426 63.9897 58.879 64.4278 58.5335C64.9725 58.1038 65.7431 57.867 66.5445 58.016C67.1995 58.1378 67.5826 58.4643 67.6838 58.5555C67.8086 58.6679 67.8443 58.734 67.8027 58.6735C67.5807 58.3505 67.1651 57.4643 66.6622 55.9992C65.7033 53.2055 64.8016 49.4429 64.4719 47.0485L58.528 47.867ZM69.2724 61.7615C69.7711 60.6567 70.1249 58.8569 70.4118 57.1326C70.7231 55.2624 71.0259 52.9937 71.3189 50.6596C71.9152 45.9099 72.4669 40.948 73.0008 37.8997L67.0908 36.8645C66.5234 40.1039 65.939 45.3456 65.3657 49.9122C65.0739 52.2363 64.7834 54.4039 64.4932 56.1476C64.3481 57.02 64.2082 57.7536 64.0752 58.33C64.0089 58.6171 63.9487 58.8462 63.8958 59.022C63.8697 59.1089 63.8476 59.1754 63.8302 59.2241C63.8123 59.274 63.8029 59.2948 63.8037 59.2931L69.2724 61.7615Z" fill="#414042"/>
<path d="M102.905 40.464C96.4533 40.6243 88.6216 39.8335 89.1506 45.6044C89.8781 53.5423 103.669 48.7999 104.08 53.2883C104.815 61.3035 96.3909 61.1058 91.9024 61.5172" stroke="#414042" stroke-width="6" stroke-linecap="round"/>
<path d="M23.2266 99.1953L20.4141 114.945C20.3516 115.258 20.2109 115.527 19.9922 115.754C19.7734 115.98 19.5078 116.125 19.1953 116.188C18.875 116.242 18.5703 116.207 18.2812 116.082C18 115.957 17.7773 115.762 17.6133 115.496L12.0352 106.332L6.44531 115.496C6.3125 115.723 6.12891 115.898 5.89453 116.023C5.66797 116.148 5.42188 116.211 5.15625 116.211C4.78906 116.211 4.46484 116.094 4.18359 115.859C3.90234 115.625 3.73047 115.32 3.66797 114.945L0.832031 99.1953H3.92578L5.94141 110.293L10.7461 102.629C10.8789 102.402 11.0586 102.227 11.2852 102.102C11.5195 101.977 11.7695 101.914 12.0352 101.914C12.3008 101.914 12.5469 101.977 12.7734 102.102C13 102.227 13.1875 102.402 13.3359 102.629L18.1172 110.293L20.1328 99.1953H23.2266ZM38.9531 111.723C38.9531 112.246 38.8867 112.719 38.7539 113.141C38.6211 113.555 38.4453 113.922 38.2266 114.242C38.0078 114.555 37.7539 114.824 37.4648 115.051C37.1758 115.27 36.8711 115.449 36.5508 115.59C36.2383 115.73 35.918 115.836 35.5898 115.906C35.2695 115.969 34.9648 116 34.6758 116H29.1797C28.7578 116 28.2969 115.926 27.7969 115.777C27.2969 115.629 26.832 115.387 26.4023 115.051C25.9805 114.707 25.625 114.266 25.3359 113.727C25.0547 113.18 24.9141 112.512 24.9141 111.723V107.598C24.9141 106.816 25.0547 106.156 25.3359 105.617C25.625 105.07 25.9805 104.629 26.4023 104.293C26.832 103.949 27.2969 103.703 27.7969 103.555C28.2969 103.406 28.7578 103.332 29.1797 103.332H34.6758C35.457 103.332 36.1211 103.473 36.668 103.754C37.2148 104.035 37.6562 104.391 37.9922 104.82C38.3281 105.242 38.5703 105.703 38.7188 106.203C38.875 106.703 38.9531 107.168 38.9531 107.598V111.723ZM35.9062 107.621C35.9062 107.199 35.8008 106.887 35.5898 106.684C35.3789 106.48 35.0742 106.379 34.6758 106.379H29.2031C28.7969 106.379 28.4883 106.484 28.2773 106.695C28.0664 106.898 27.9609 107.199 27.9609 107.598V111.723C27.9609 112.121 28.0664 112.426 28.2773 112.637C28.4883 112.848 28.7969 112.953 29.2031 112.953H34.6758C35.0898 112.953 35.3984 112.848 35.6016 112.637C35.8047 112.426 35.9062 112.121 35.9062 111.723V107.621ZM52.6406 106.379H45.7852C45.3711 106.379 45.0586 106.484 44.8477 106.695C44.6367 106.898 44.5312 107.199 44.5312 107.598V116H41.4844V107.598C41.4844 107.074 41.5508 106.605 41.6836 106.191C41.8164 105.777 41.9922 105.414 42.2109 105.102C42.4375 104.781 42.6953 104.512 42.9844 104.293C43.2734 104.066 43.5742 103.883 43.8867 103.742C44.207 103.602 44.5273 103.5 44.8477 103.438C45.1758 103.367 45.4805 103.332 45.7617 103.332H52.6406V106.379ZM68.5078 111.723C68.5078 112.246 68.4414 112.719 68.3086 113.141C68.1758 113.555 68 113.922 67.7812 114.242C67.5625 114.555 67.3086 114.824 67.0195 115.051C66.7305 115.27 66.4258 115.449 66.1055 115.59C65.793 115.73 65.4727 115.836 65.1445 115.906C64.8242 115.969 64.5195 116 64.2305 116H58.7344C58.2109 116 57.7422 115.934 57.3281 115.801C56.9141 115.668 56.5469 115.492 56.2266 115.273C55.9141 115.047 55.6445 114.789 55.418 114.5C55.1992 114.211 55.0195 113.91 54.8789 113.598C54.7383 113.277 54.6328 112.957 54.5625 112.637C54.5 112.309 54.4688 112.004 54.4688 111.723V107.598C54.4688 106.816 54.6094 106.156 54.8906 105.617C55.1797 105.07 55.5352 104.629 55.957 104.293C56.3867 103.949 56.8516 103.703 57.3516 103.555C57.8516 103.406 58.3125 103.332 58.7344 103.332H64.2305V106.379H58.7578C58.3516 106.379 58.043 106.484 57.832 106.695C57.6211 106.898 57.5156 107.199 57.5156 107.598V111.699C57.5156 112.113 57.6172 112.426 57.8203 112.637C58.0312 112.848 58.3359 112.953 58.7344 112.953H64.2305C64.6445 112.953 64.9531 112.848 65.1562 112.637C65.3594 112.426 65.4609 112.121 65.4609 111.723V97.9766H68.5078V111.723ZM87.9023 111.055C87.9023 111.656 87.8242 112.199 87.668 112.684C87.5195 113.16 87.3203 113.582 87.0703 113.949C86.8203 114.316 86.5273 114.629 86.1914 114.887C85.8555 115.145 85.5078 115.355 85.1484 115.52C84.7891 115.684 84.4219 115.805 84.0469 115.883C83.6797 115.961 83.332 116 83.0039 116H71.25V112.953H83.0039C83.5898 112.953 84.043 112.781 84.3633 112.438C84.6914 112.094 84.8555 111.633 84.8555 111.055C84.8555 110.773 84.8125 110.516 84.7266 110.281C84.6406 110.047 84.5156 109.844 84.3516 109.672C84.1953 109.5 84 109.367 83.7656 109.273C83.5391 109.18 83.2852 109.133 83.0039 109.133H75.9961C75.5039 109.133 74.9727 109.047 74.4023 108.875C73.832 108.695 73.3008 108.41 72.8086 108.02C72.3242 107.629 71.918 107.117 71.5898 106.484C71.2695 105.852 71.1094 105.078 71.1094 104.164C71.1094 103.25 71.2695 102.48 71.5898 101.855C71.918 101.223 72.3242 100.711 72.8086 100.32C73.3008 99.9219 73.832 99.6367 74.4023 99.4648C74.9727 99.2852 75.5039 99.1953 75.9961 99.1953H86.3672V102.242H75.9961C75.418 102.242 74.9648 102.418 74.6367 102.77C74.3164 103.121 74.1562 103.586 74.1562 104.164C74.1562 104.75 74.3164 105.215 74.6367 105.559C74.9648 105.895 75.418 106.062 75.9961 106.062H83.0039H83.0273C83.3555 106.07 83.7031 106.117 84.0703 106.203C84.4375 106.281 84.8008 106.406 85.1602 106.578C85.5273 106.75 85.875 106.969 86.2031 107.234C86.5312 107.492 86.8203 107.805 87.0703 108.172C87.3281 108.539 87.5312 108.961 87.6797 109.438C87.8281 109.914 87.9023 110.453 87.9023 111.055ZM101.402 116H98.3555V107.598C98.3555 107.199 98.25 106.898 98.0391 106.695C97.8281 106.484 97.5156 106.379 97.1016 106.379H93.1406V116H90.0938V104.844C90.0938 104.633 90.1328 104.438 90.2109 104.258C90.2891 104.07 90.3984 103.91 90.5391 103.777C90.6797 103.637 90.8438 103.527 91.0312 103.449C91.2188 103.371 91.418 103.332 91.6289 103.332H97.125C97.5469 103.332 98 103.406 98.4844 103.555C98.9688 103.703 99.4297 103.941 99.8672 104.27V103.332H103.992C104.281 103.332 104.586 103.367 104.906 103.438C105.227 103.5 105.543 103.602 105.855 103.742C106.176 103.883 106.48 104.066 106.77 104.293C107.059 104.512 107.312 104.781 107.531 105.102C107.75 105.414 107.926 105.777 108.059 106.191C108.191 106.605 108.258 107.074 108.258 107.598V116H105.211V107.598C105.211 107.199 105.109 106.898 104.906 106.695C104.711 106.484 104.406 106.379 103.992 106.379H101.25C101.352 106.754 101.402 107.16 101.402 107.598V116ZM114.164 100.73H111.117V97.9766H114.164V100.73ZM114.164 116H111.117V103.332H114.164V116ZM128.613 106.379H123.293V116H120.211V106.379H116.25V103.332H120.211V99.1953H123.293V103.332H128.613V106.379ZM144.703 116H141.656V107.598C141.656 107.199 141.555 106.898 141.352 106.695C141.148 106.484 140.844 106.379 140.438 106.379H134.941V103.332H140.438C140.727 103.332 141.031 103.367 141.352 103.438C141.672 103.5 141.988 103.602 142.301 103.742C142.621 103.883 142.926 104.066 143.215 104.293C143.504 104.512 143.758 104.781 143.977 105.102C144.195 105.414 144.371 105.777 144.504 106.191C144.637 106.605 144.703 107.074 144.703 107.598V116ZM133.711 116H130.664V97.9766H133.711V116ZM159.738 111.723C159.738 112.246 159.672 112.719 159.539 113.141C159.406 113.555 159.23 113.922 159.012 114.242C158.793 114.555 158.539 114.824 158.25 115.051C157.961 115.27 157.656 115.449 157.336 115.59C157.023 115.73 156.703 115.836 156.375 115.906C156.055 115.969 155.75 116 155.461 116H147.211V112.953H155.438C155.852 112.953 156.164 112.848 156.375 112.637C156.586 112.426 156.691 112.121 156.691 111.723C156.652 110.91 156.242 110.504 155.461 110.504H150.738C150.066 110.504 149.496 110.387 149.027 110.152C148.559 109.918 148.176 109.625 147.879 109.273C147.59 108.922 147.379 108.543 147.246 108.137C147.121 107.73 147.059 107.352 147.059 107C147.059 106.32 147.18 105.75 147.422 105.289C147.664 104.82 147.969 104.441 148.336 104.152C148.703 103.863 149.102 103.656 149.531 103.531C149.961 103.398 150.363 103.332 150.738 103.332H158.227V106.379H150.762C150.605 106.379 150.48 106.398 150.387 106.438C150.301 106.469 150.234 106.516 150.188 106.578C150.148 106.633 150.125 106.695 150.117 106.766C150.109 106.828 150.105 106.891 150.105 106.953C150.113 107.078 150.137 107.176 150.176 107.246C150.215 107.316 150.262 107.367 150.316 107.398C150.379 107.43 150.445 107.449 150.516 107.457C150.594 107.457 150.668 107.457 150.738 107.457H155.461C156.242 107.457 156.906 107.598 157.453 107.879C158 108.16 158.441 108.516 158.777 108.945C159.113 109.367 159.355 109.828 159.504 110.328C159.66 110.828 159.738 111.293 159.738 111.723Z" fill="#414042"/>
</svg>
