<svg width="280" height="186" viewBox="0 0 280 186" fill="none" xmlns="http://www.w3.org/2000/svg">
<line x1="159" y1="172" x2="175" y2="172" stroke="#861657" stroke-width="4" stroke-linecap="round"/>
<g filter="url(#filter0_d_38_40)">
<path d="M112.5 83.6618V87.1618H105.5V83.6618H112.5ZM163.5 171.5V44.8342H170.5V171.5H163.5ZM163.5 44.8342C163.5 35.1662 160.195 28.1215 155.461 23.3831C150.683 18.5998 144.26 15.9808 137.774 15.5601C131.273 15.1386 124.923 16.9356 120.262 20.7013C115.68 24.4031 112.5 30.1826 112.5 38.3139H105.5C105.5 28.1537 109.57 20.3399 115.863 15.2562C122.077 10.2365 130.227 8.05603 138.226 8.57481C146.24 9.09448 154.317 12.3335 160.414 18.4358C166.555 24.5831 170.5 33.4516 170.5 44.8342H163.5ZM109 38.3139C112.5 38.3139 112.5 38.314 112.5 38.3142C112.5 38.3144 112.5 38.3147 112.5 38.3151C112.5 38.3155 112.5 38.316 112.5 38.3166C112.5 38.3172 112.5 38.3179 112.5 38.3187C112.5 38.3195 112.5 38.3204 112.5 38.3214C112.5 38.3224 112.5 38.3235 112.5 38.3247C112.5 38.3259 112.5 38.3272 112.5 38.3286C112.5 38.33 112.5 38.3315 112.5 38.3331C112.5 38.3347 112.5 38.3363 112.5 38.3381C112.5 38.3399 112.5 38.3418 112.5 38.3438C112.5 38.3458 112.5 38.3478 112.5 38.35C112.5 38.3522 112.5 38.3545 112.5 38.3568C112.5 38.3592 112.5 38.3617 112.5 38.3643C112.5 38.3668 112.5 38.3695 112.5 38.3722C112.5 38.375 112.5 38.3779 112.5 38.3808C112.5 38.3838 112.5 38.3868 112.5 38.39C112.5 38.3931 112.5 38.3964 112.5 38.3997C112.5 38.403 112.5 38.4065 112.5 38.41C112.5 38.4135 112.5 38.4172 112.5 38.4209C112.5 38.4246 112.5 38.4284 112.5 38.4323C112.5 38.4363 112.5 38.4403 112.5 38.4444C112.5 38.4485 112.5 38.4527 112.5 38.457C112.5 38.4613 112.5 38.4656 112.5 38.4701C112.5 38.4746 112.5 38.4792 112.5 38.4839C112.5 38.4885 112.5 38.4933 112.5 38.4982C112.5 38.503 112.5 38.508 112.5 38.513C112.5 38.5181 112.5 38.5232 112.5 38.5285C112.5 38.5337 112.5 38.539 112.5 38.5444C112.5 38.5499 112.5 38.5554 112.5 38.561C112.5 38.5666 112.5 38.5723 112.5 38.5781C112.5 38.5839 112.5 38.5898 112.5 38.5958C112.5 38.6017 112.5 38.6078 112.5 38.614C112.5 38.6202 112.5 38.6264 112.5 38.6328C112.5 38.6391 112.5 38.6456 112.5 38.6521C112.5 38.6586 112.5 38.6652 112.5 38.672C112.5 38.6787 112.5 38.6855 112.5 38.6924C112.5 38.6993 112.5 38.7063 112.5 38.7134C112.5 38.7205 112.5 38.7276 112.5 38.7349C112.5 38.7422 112.5 38.7495 112.5 38.757C112.5 38.7644 112.5 38.7719 112.5 38.7796C112.5 38.7872 112.5 38.7949 112.5 38.8027C112.5 38.8105 112.5 38.8184 112.5 38.8264C112.5 38.8344 112.5 38.8425 112.5 38.8506C112.5 38.8588 112.5 38.8671 112.5 38.8754C112.5 38.8838 112.5 38.8922 112.5 38.9007C112.5 38.9093 112.5 38.9179 112.5 38.9266C112.5 38.9353 112.5 38.9441 112.5 38.9529C112.5 38.9618 112.5 38.9708 112.5 38.9798C112.5 38.9889 112.5 38.998 112.5 39.0073C112.5 39.0165 112.5 39.0258 112.5 39.0352C112.5 39.0447 112.5 39.0541 112.5 39.0637C112.5 39.0733 112.5 39.083 112.5 39.0928C112.5 39.1025 112.5 39.1124 112.5 39.1223C112.5 39.1322 112.5 39.1422 112.5 39.1524C112.5 39.1625 112.5 39.1727 112.5 39.1829C112.5 39.1932 112.5 39.2036 112.5 39.214C112.5 39.2245 112.5 39.235 112.5 39.2457C112.5 39.2563 112.5 39.267 112.5 39.2778C112.5 39.2886 112.5 39.2995 112.5 39.3105C112.5 39.3214 112.5 39.3325 112.5 39.3436C112.5 39.3548 112.5 39.366 112.5 39.3773C112.5 39.3886 112.5 39.4 112.5 39.4115C112.5 39.423 112.5 39.4345 112.5 39.4462C112.5 39.4578 112.5 39.4696 112.5 39.4814C112.5 39.4932 112.5 39.5051 112.5 39.5171C112.5 39.5291 112.5 39.5412 112.5 39.5533C112.5 39.5655 112.5 39.5777 112.5 39.59C112.5 39.6024 112.5 39.6148 112.5 39.6273C112.5 39.6397 112.5 39.6523 112.5 39.665C112.5 39.6776 112.5 39.6904 112.5 39.7032C112.5 39.716 112.5 39.7289 112.5 39.7419C112.5 39.7549 112.5 39.768 112.5 39.7811C112.5 39.7943 112.5 39.8075 112.5 39.8208C112.5 39.8342 112.5 39.8475 112.5 39.861C112.5 39.8745 112.5 39.8881 112.5 39.9017C112.5 39.9154 112.5 39.9291 112.5 39.9429C112.5 39.9567 112.5 39.9706 112.5 39.9846C112.5 39.9985 112.5 40.0126 112.5 40.0267C112.5 40.0409 112.5 40.0551 112.5 40.0694C112.5 40.0837 112.5 40.098 112.5 40.1125C112.5 40.1269 112.5 40.1415 112.5 40.1561C112.5 40.1707 112.5 40.1854 112.5 40.2002C112.5 40.2149 112.5 40.2298 112.5 40.2447C112.5 40.2597 112.5 40.2747 112.5 40.2898C112.5 40.3049 112.5 40.32 112.5 40.3353C112.5 40.3505 112.5 40.3659 112.5 40.3813C112.5 40.3967 112.5 40.4122 112.5 40.4277C112.5 40.4433 112.5 40.459 112.5 40.4747C112.5 40.4904 112.5 40.5062 112.5 40.5221C112.5 40.538 112.5 40.5539 112.5 40.57C112.5 40.586 112.5 40.6021 112.5 40.6183C112.5 40.6345 112.5 40.6508 112.5 40.6671C112.5 40.6835 112.5 40.6999 112.5 40.7164C112.5 40.7329 112.5 40.7495 112.5 40.7661C112.5 40.7828 112.5 40.7995 112.5 40.8163C112.5 40.8331 112.5 40.85 112.5 40.867C112.5 40.8839 112.5 40.901 112.5 40.9181C112.5 40.9352 112.5 40.9524 112.5 40.9697C112.5 40.9869 112.5 41.0043 112.5 41.0217C112.5 41.0391 112.5 41.0566 112.5 41.0742C112.5 41.0917 112.5 41.1094 112.5 41.1271C112.5 41.1448 112.5 41.1626 112.5 41.1805C112.5 41.1983 112.5 41.2163 112.5 41.2343C112.5 41.2523 112.5 41.2704 112.5 41.2886C112.5 41.3067 112.5 41.325 112.5 41.3433C112.5 41.3616 112.5 41.38 112.5 41.3985C112.5 41.4169 112.5 41.4355 112.5 41.4541C112.5 41.4727 112.5 41.4914 112.5 41.5101C112.5 41.5289 112.5 41.5477 112.5 41.5666C112.5 41.5855 112.5 41.6045 112.5 41.6235C112.5 41.6426 112.5 41.6617 112.5 41.6809C112.5 41.7001 112.5 41.7194 112.5 41.7387C112.5 41.758 112.5 41.7775 112.5 41.7969C112.5 41.8164 112.5 41.836 112.5 41.8556C112.5 41.8752 112.5 41.8949 112.5 41.9147C112.5 41.9345 112.5 41.9543 112.5 41.9742C112.5 41.9942 112.5 42.0141 112.5 42.0342C112.5 42.0543 112.5 42.0744 112.5 42.0946C112.5 42.1148 112.5 42.1351 112.5 42.1554C112.5 42.1757 112.5 42.1961 112.5 42.2166C112.5 42.2371 112.5 42.2577 112.5 42.2783C112.5 42.2989 112.5 42.3196 112.5 42.3404C112.5 42.3611 112.5 42.3819 112.5 42.4028C112.5 42.4237 112.5 42.4447 112.5 42.4658C112.5 42.4868 112.5 42.5079 112.5 42.5291C112.5 42.5503 112.5 42.5715 112.5 42.5928C112.5 42.6141 112.5 42.6355 112.5 42.657C112.5 42.6784 112.5 42.7 112.5 42.7216C112.5 42.7431 112.5 42.7648 112.5 42.7865C112.5 42.8083 112.5 42.8301 112.5 42.8519C112.5 42.8738 112.5 42.8957 112.5 42.9177C112.5 42.9397 112.5 42.9618 112.5 42.9839C112.5 43.006 112.5 43.0282 112.5 43.0505C112.5 43.0728 112.5 43.0951 112.5 43.1175C112.5 43.1399 112.5 43.1624 112.5 43.1849C112.5 43.2074 112.5 43.2301 112.5 43.2527C112.5 43.2754 112.5 43.2981 112.5 43.3209C112.5 43.3437 112.5 43.3666 112.5 43.3895C112.5 43.4125 112.5 43.4354 112.5 43.4585C112.5 43.4816 112.5 43.5047 112.5 43.5279C112.5 43.5511 112.5 43.5744 112.5 43.5977C112.5 43.621 112.5 43.6444 112.5 43.6679C112.5 43.6913 112.5 43.7148 112.5 43.7384C112.5 43.762 112.5 43.7856 112.5 43.8094C112.5 43.8331 112.5 43.8568 112.5 43.8807C112.5 43.9045 112.5 43.9284 112.5 43.9524C112.5 43.9764 112.5 44.0004 112.5 44.0245C112.5 44.0486 112.5 44.0728 112.5 44.097C112.5 44.1212 112.5 44.1455 112.5 44.1698C112.5 44.1942 112.5 44.2186 112.5 44.2431C112.5 44.2676 112.5 44.2921 112.5 44.3167C112.5 44.3413 112.5 44.366 112.5 44.3907C112.5 44.4154 112.5 44.4402 112.5 44.4651C112.5 44.4899 112.5 44.5148 112.5 44.5398C112.5 44.5648 112.5 44.5898 112.5 44.6149C112.5 44.64 112.5 44.6652 112.5 44.6904C112.5 44.7156 112.5 44.7409 112.5 44.7662C112.5 44.7916 112.5 44.817 112.5 44.8425C112.5 44.8679 112.5 44.8934 112.5 44.919C112.5 44.9446 112.5 44.9703 112.5 44.996C112.5 45.0217 112.5 45.0475 112.5 45.0733C112.5 45.0991 112.5 45.125 112.5 45.1509C112.5 45.1769 112.5 45.2029 112.5 45.229C112.5 45.255 112.5 45.2812 112.5 45.3073C112.5 45.3335 112.5 45.3598 112.5 45.3861C112.5 45.4124 112.5 45.4388 112.5 45.4652C112.5 45.4916 112.5 45.5181 112.5 45.5446C112.5 45.5712 112.5 45.5978 112.5 45.6244C112.5 45.6511 112.5 45.6778 112.5 45.7046C112.5 45.7313 112.5 45.7582 112.5 45.7851C112.5 45.8119 112.5 45.8389 112.5 45.8659C112.5 45.8929 112.5 45.92 112.5 45.9471C112.5 45.9742 112.5 46.0014 112.5 46.0286C112.5 46.0559 112.5 46.0831 112.5 46.1105C112.5 46.1378 112.5 46.1652 112.5 46.1927C112.5 46.2202 112.5 46.2477 112.5 46.2753C112.5 46.3028 112.5 46.3305 112.5 46.3582C112.5 46.3858 112.5 46.4136 112.5 46.4414C112.5 46.4692 112.5 46.497 112.5 46.5249C112.5 46.5529 112.5 46.5808 112.5 46.6088C112.5 46.6369 112.5 46.6649 112.5 46.6931C112.5 46.7212 112.5 46.7494 112.5 46.7776C112.5 46.8059 112.5 46.8342 112.5 46.8625C112.5 46.8909 112.5 46.9193 112.5 46.9477C112.5 46.9762 112.5 47.0047 112.5 47.0333C112.5 47.0618 112.5 47.0905 112.5 47.1191C112.5 47.1478 112.5 47.1765 112.5 47.2053C112.5 47.2341 112.5 47.2629 112.5 47.2918C112.5 47.3207 112.5 47.3497 112.5 47.3787C112.5 47.4077 112.5 47.4367 112.5 47.4658C112.5 47.4949 112.5 47.5241 112.5 47.5533C112.5 47.5825 112.5 47.6118 112.5 47.6411C112.5 47.6704 112.5 47.6997 112.5 47.7292C112.5 47.7586 112.5 47.788 112.5 47.8176C112.5 47.8471 112.5 47.8767 112.5 47.9063C112.5 47.9359 112.5 47.9656 112.5 47.9953C112.5 48.025 112.5 48.0548 112.5 48.0847C112.5 48.1145 112.5 48.1444 112.5 48.1743C112.5 48.2042 112.5 48.2342 112.5 48.2642C112.5 48.2943 112.5 48.3244 112.5 48.3545C112.5 48.3846 112.5 48.4148 112.5 48.445C112.5 48.4753 112.5 48.5056 112.5 48.5359C112.5 48.5662 112.5 48.5966 112.5 48.6271C112.5 48.6575 112.5 48.688 112.5 48.7185C112.5 48.749 112.5 48.7796 112.5 48.8102C112.5 48.8409 112.5 48.8716 112.5 48.9023C112.5 48.933 112.5 48.9638 112.5 48.9946C112.5 49.0254 112.5 49.0563 112.5 49.0872C112.5 49.1182 112.5 49.1491 112.5 49.1802C112.5 49.2112 112.5 49.2422 112.5 49.2734C112.5 49.3045 112.5 49.3356 112.5 49.3669C112.5 49.3981 112.5 49.4293 112.5 49.4606C112.5 49.4919 112.5 49.5233 112.5 49.5547C112.5 49.5861 112.5 49.6175 112.5 49.649C112.5 49.6805 112.5 49.7121 112.5 49.7437C112.5 49.7752 112.5 49.8069 112.5 49.8386C112.5 49.8702 112.5 49.902 112.5 49.9337C112.5 49.9655 112.5 49.9973 112.5 50.0292C112.5 50.0611 112.5 50.093 112.5 50.1249C112.5 50.1569 112.5 50.1889 112.5 50.2209C112.5 50.253 112.5 50.2851 112.5 50.3172C112.5 50.3493 112.5 50.3815 112.5 50.4138C112.5 50.446 112.5 50.4783 112.5 50.5106C112.5 50.5429 112.5 50.5753 112.5 50.6077C112.5 50.6401 112.5 50.6725 112.5 50.705C112.5 50.7375 112.5 50.77 112.5 50.8026C112.5 50.8352 112.5 50.8678 112.5 50.9005C112.5 50.9332 112.5 50.9659 112.5 50.9986C112.5 51.0314 112.5 51.0642 112.5 51.097C112.5 51.1299 112.5 51.1628 112.5 51.1957C112.5 51.2286 112.5 51.2616 112.5 51.2946C112.5 51.3276 112.5 51.3607 112.5 51.3938C112.5 51.4269 112.5 51.46 112.5 51.4932C112.5 51.5264 112.5 51.5596 112.5 51.5929C112.5 51.6261 112.5 51.6595 112.5 51.6928C112.5 51.7262 112.5 51.7595 112.5 51.793C112.5 51.8264 112.5 51.8599 112.5 51.8934C112.5 51.9269 112.5 51.9605 112.5 51.9941C112.5 52.0277 112.5 52.0613 112.5 52.095C112.5 52.1287 112.5 52.1624 112.5 52.1962C112.5 52.2299 112.5 52.2637 112.5 52.2976C112.5 52.3314 112.5 52.3653 112.5 52.3992C112.5 52.4331 112.5 52.4671 112.5 52.5011C112.5 52.5351 112.5 52.5691 112.5 52.6032C112.5 52.6373 112.5 52.6714 112.5 52.7055C112.5 52.7397 112.5 52.7739 112.5 52.8081C112.5 52.8424 112.5 52.8766 112.5 52.911C112.5 52.9453 112.5 52.9796 112.5 53.014C112.5 53.0484 112.5 53.0828 112.5 53.1173C112.5 53.1518 112.5 53.1863 112.5 53.2208C112.5 53.2553 112.5 53.2899 112.5 53.3245C112.5 53.3592 112.5 53.3938 112.5 53.4285C112.5 53.4632 112.5 53.4979 112.5 53.5327C112.5 53.5675 112.5 53.6023 112.5 53.6371C112.5 53.6719 112.5 53.7068 112.5 53.7417C112.5 53.7766 112.5 53.8116 112.5 53.8466C112.5 53.8816 112.5 53.9166 112.5 53.9517C112.5 53.9867 112.5 54.0218 112.5 54.0569C112.5 54.0921 112.5 54.1272 112.5 54.1624C112.5 54.1976 112.5 54.2329 112.5 54.2682C112.5 54.3034 112.5 54.3387 112.5 54.3741C112.5 54.4094 112.5 54.4448 112.5 54.4802C112.5 54.5156 112.5 54.5511 112.5 54.5866C112.5 54.622 112.5 54.6576 112.5 54.6931C112.5 54.7287 112.5 54.7642 112.5 54.7999C112.5 54.8355 112.5 54.8711 112.5 54.9068C112.5 54.9425 112.5 54.9782 112.5 55.014C112.5 55.0497 112.5 55.0855 112.5 55.1214C112.5 55.1572 112.5 55.193 112.5 55.2289C112.5 55.2648 112.5 55.3007 112.5 55.3367C112.5 55.3726 112.5 55.4086 112.5 55.4446C112.5 55.4807 112.5 55.5167 112.5 55.5528C112.5 55.5889 112.5 55.625 112.5 55.6612C112.5 55.6973 112.5 55.7335 112.5 55.7697C112.5 55.8059 112.5 55.8422 112.5 55.8784C112.5 55.9147 112.5 55.951 112.5 55.9874C112.5 56.0237 112.5 56.0601 112.5 56.0965C112.5 56.1329 112.5 56.1693 112.5 56.2058C112.5 56.2422 112.5 56.2787 112.5 56.3153C112.5 56.3518 112.5 56.3883 112.5 56.4249C112.5 56.4615 112.5 56.4981 112.5 56.5348C112.5 56.5714 112.5 56.6081 112.5 56.6448C112.5 56.6815 112.5 56.7182 112.5 56.755C112.5 56.7918 112.5 56.8286 112.5 56.8654C112.5 56.9022 112.5 56.9391 112.5 56.976C112.5 57.0128 112.5 57.0497 112.5 57.0867C112.5 57.1236 112.5 57.1606 112.5 57.1976C112.5 57.2346 112.5 57.2716 112.5 57.3087C112.5 57.3457 112.5 57.3828 112.5 57.4199C112.5 57.457 112.5 57.4942 112.5 57.5313C112.5 57.5685 112.5 57.6057 112.5 57.6429C112.5 57.6801 112.5 57.7174 112.5 57.7547C112.5 57.792 112.5 57.8293 112.5 57.8666C112.5 57.9039 112.5 57.9413 112.5 57.9787C112.5 58.0161 112.5 58.0535 112.5 58.0909C112.5 58.1283 112.5 58.1658 112.5 58.2033C112.5 58.2408 112.5 58.2783 112.5 58.3159C112.5 58.3534 112.5 58.391 112.5 58.4286C112.5 58.4662 112.5 58.5038 112.5 58.5414C112.5 58.5791 112.5 58.6168 112.5 58.6545C112.5 58.6922 112.5 58.7299 112.5 58.7676C112.5 58.8054 112.5 58.8432 112.5 58.881C112.5 58.9188 112.5 58.9566 112.5 58.9944C112.5 59.0323 112.5 59.0701 112.5 59.108C112.5 59.1459 112.5 59.1839 112.5 59.2218C112.5 59.2598 112.5 59.2977 112.5 59.3357C112.5 59.3737 112.5 59.4117 112.5 59.4498C112.5 59.4878 112.5 59.5259 112.5 59.564C112.5 59.602 112.5 59.6402 112.5 59.6783C112.5 59.7164 112.5 59.7546 112.5 59.7928C112.5 59.8309 112.5 59.8691 112.5 59.9074C112.5 59.9456 112.5 59.9838 112.5 60.0221C112.5 60.0604 112.5 60.0987 112.5 60.137C112.5 60.1753 112.5 60.2136 112.5 60.252C112.5 60.2904 112.5 60.3287 112.5 60.3671C112.5 60.4055 112.5 60.444 112.5 60.4824C112.5 60.5209 112.5 60.5593 112.5 60.5978C112.5 60.6363 112.5 60.6748 112.5 60.7133C112.5 60.7519 112.5 60.7904 112.5 60.829C112.5 60.8676 112.5 60.9062 112.5 60.9448C112.5 60.9834 112.5 61.022 112.5 61.0607C112.5 61.0993 112.5 61.138 112.5 61.1767C112.5 61.2154 112.5 61.2541 112.5 61.2928C112.5 61.3315 112.5 61.3703 112.5 61.4091C112.5 61.4478 112.5 61.4866 112.5 61.5254C112.5 61.5642 112.5 61.6031 112.5 61.6419C112.5 61.6808 112.5 61.7196 112.5 61.7585C112.5 61.7974 112.5 61.8363 112.5 61.8752C112.5 61.9141 112.5 61.9531 112.5 61.992C112.5 62.031 112.5 62.07 112.5 62.109C112.5 62.1479 112.5 62.187 112.5 62.226C112.5 62.265 112.5 62.3041 112.5 62.3431C112.5 62.3822 112.5 62.4213 112.5 62.4604C112.5 62.4995 112.5 62.5386 112.5 62.5777C112.5 62.6168 112.5 62.656 112.5 62.6951C112.5 62.7343 112.5 62.7735 112.5 62.8127C112.5 62.8519 112.5 62.8911 112.5 62.9303C112.5 62.9696 112.5 63.0088 112.5 63.0481C112.5 63.0873 112.5 63.1266 112.5 63.1659C112.5 63.2052 112.5 63.2445 112.5 63.2838C112.5 63.3232 112.5 63.3625 112.5 63.4018C112.5 63.4412 112.5 63.4806 112.5 63.52C112.5 63.5593 112.5 63.5987 112.5 63.6381C112.5 63.6776 112.5 63.717 112.5 63.7564C112.5 63.7959 112.5 63.8353 112.5 63.8748C112.5 63.9143 112.5 63.9538 112.5 63.9933C112.5 64.0328 112.5 64.0723 112.5 64.1118C112.5 64.1513 112.5 64.1909 112.5 64.2304C112.5 64.27 112.5 64.3095 112.5 64.3491C112.5 64.3887 112.5 64.4283 112.5 64.4679C112.5 64.5075 112.5 64.5471 112.5 64.5868C112.5 64.6264 112.5 64.666 112.5 64.7057C112.5 64.7453 112.5 64.785 112.5 64.8247C112.5 64.8644 112.5 64.9041 112.5 64.9438C112.5 64.9835 112.5 65.0232 112.5 65.0629C112.5 65.1026 112.5 65.1424 112.5 65.1821C112.5 65.2219 112.5 65.2616 112.5 65.3014C112.5 65.3412 112.5 65.381 112.5 65.4208C112.5 65.4605 112.5 65.5004 112.5 65.5402C112.5 65.58 112.5 65.6198 112.5 65.6596C112.5 65.6995 112.5 65.7393 112.5 65.7792C112.5 65.819 112.5 65.8589 112.5 65.8988C112.5 65.9387 112.5 65.9786 112.5 66.0185C112.5 66.0583 112.5 66.0983 112.5 66.1382C112.5 66.1781 112.5 66.218 112.5 66.2579C112.5 66.2979 112.5 66.3378 112.5 66.3778C112.5 66.4177 112.5 66.4577 112.5 66.4977C112.5 66.5376 112.5 66.5776 112.5 66.6176C112.5 66.6576 112.5 66.6976 112.5 66.7376C112.5 66.7776 112.5 66.8176 112.5 66.8576C112.5 66.8976 112.5 66.9376 112.5 66.9777C112.5 67.0177 112.5 67.0577 112.5 67.0978C112.5 67.1378 112.5 67.1779 112.5 67.218C112.5 67.258 112.5 67.2981 112.5 67.3382C112.5 67.3782 112.5 67.4183 112.5 67.4584C112.5 67.4985 112.5 67.5386 112.5 67.5787C112.5 67.6188 112.5 67.6589 112.5 67.699C112.5 67.7391 112.5 67.7793 112.5 67.8194C112.5 67.8595 112.5 67.8997 112.5 67.9398C112.5 67.9799 112.5 68.0201 112.5 68.0602C112.5 68.1004 112.5 68.1405 112.5 68.1807C112.5 68.2208 112.5 68.261 112.5 68.3012C112.5 68.3414 112.5 68.3815 112.5 68.4217C112.5 68.4619 112.5 68.5021 112.5 68.5423C112.5 68.5824 112.5 68.6226 112.5 68.6628C112.5 68.703 112.5 68.7432 112.5 68.7834C112.5 68.8236 112.5 68.8638 112.5 68.9041C112.5 68.9443 112.5 68.9845 112.5 69.0247C112.5 69.0649 112.5 69.1051 112.5 69.1454C112.5 69.1856 112.5 69.2258 112.5 69.266C112.5 69.3063 112.5 69.3465 112.5 69.3867C112.5 69.427 112.5 69.4672 112.5 69.5075C112.5 69.5477 112.5 69.5879 112.5 69.6282C112.5 69.6684 112.5 69.7087 112.5 69.7489C112.5 69.7892 112.5 69.8294 112.5 69.8697C112.5 69.9099 112.5 69.9502 112.5 69.9904C112.5 70.0307 112.5 70.071 112.5 70.1112C112.5 70.1515 112.5 70.1917 112.5 70.232C112.5 70.2722 112.5 70.3125 112.5 70.3528C112.5 70.393 112.5 70.4333 112.5 70.4735C112.5 70.5138 112.5 70.5541 112.5 70.5943C112.5 70.6346 112.5 70.6749 112.5 70.7151C112.5 70.7554 112.5 70.7956 112.5 70.8359C112.5 70.8762 112.5 70.9164 112.5 70.9567C112.5 70.9969 112.5 71.0372 112.5 71.0775C112.5 71.1177 112.5 71.158 112.5 71.1982C112.5 71.2385 112.5 71.2788 112.5 71.319C112.5 71.3593 112.5 71.3995 112.5 71.4398C112.5 71.48 112.5 71.5203 112.5 71.5605C112.5 71.6008 112.5 71.641 112.5 71.6812C112.5 71.7215 112.5 71.7617 112.5 71.802C112.5 71.8422 112.5 71.8824 112.5 71.9227C112.5 71.9629 112.5 72.0031 112.5 72.0434C112.5 72.0836 112.5 72.1238 112.5 72.164C112.5 72.2043 112.5 72.2445 112.5 72.2847C112.5 72.3249 112.5 72.3651 112.5 72.4053C112.5 72.4455 112.5 72.4857 112.5 72.5259C112.5 72.5661 112.5 72.6063 112.5 72.6465C112.5 72.6867 112.5 72.7269 112.5 72.7671C112.5 72.8073 112.5 72.8474 112.5 72.8876C112.5 72.9278 112.5 72.968 112.5 73.0081C112.5 73.0483 112.5 73.0885 112.5 73.1286C112.5 73.1688 112.5 73.2089 112.5 73.2491C112.5 73.2892 112.5 73.3293 112.5 73.3695C112.5 73.4096 112.5 73.4497 112.5 73.4898C112.5 73.53 112.5 73.5701 112.5 73.6102C112.5 73.6503 112.5 73.6904 112.5 73.7305C112.5 73.7706 112.5 73.8107 112.5 73.8508C112.5 73.8909 112.5 73.9309 112.5 73.971C112.5 74.0111 112.5 74.0511 112.5 74.0912C112.5 74.1312 112.5 74.1713 112.5 74.2113C112.5 74.2514 112.5 74.2914 112.5 74.3314C112.5 74.3715 112.5 74.4115 112.5 74.4515C112.5 74.4915 112.5 74.5315 112.5 74.5715C112.5 74.6115 112.5 74.6515 112.5 74.6914C112.5 74.7314 112.5 74.7714 112.5 74.8113C112.5 74.8513 112.5 74.8913 112.5 74.9312C112.5 74.9711 112.5 75.0111 112.5 75.051C112.5 75.0909 112.5 75.1308 112.5 75.1707C112.5 75.2106 112.5 75.2505 112.5 75.2904C112.5 75.3303 112.5 75.3702 112.5 75.4101C112.5 75.4499 112.5 75.4898 112.5 75.5296C112.5 75.5695 112.5 75.6093 112.5 75.6491C112.5 75.689 112.5 75.7288 112.5 75.7686C112.5 75.8084 112.5 75.8482 112.5 75.888C112.5 75.9277 112.5 75.9675 112.5 76.0073C112.5 76.047 112.5 76.0868 112.5 76.1265C112.5 76.1663 112.5 76.206 112.5 76.2457C112.5 76.2854 112.5 76.3251 112.5 76.3648C112.5 76.4045 112.5 76.4442 112.5 76.4839C112.5 76.5235 112.5 76.5632 112.5 76.6028C112.5 76.6425 112.5 76.6821 112.5 76.7217C112.5 76.7613 112.5 76.8009 112.5 76.8405C112.5 76.8801 112.5 76.9197 112.5 76.9593C112.5 76.9988 112.5 77.0384 112.5 77.0779C112.5 77.1175 112.5 77.157 112.5 77.1965C112.5 77.236 112.5 77.2755 112.5 77.315C112.5 77.3545 112.5 77.394 112.5 77.4334C112.5 77.4729 112.5 77.5123 112.5 77.5517C112.5 77.5912 112.5 77.6306 112.5 77.67C112.5 77.7094 112.5 77.7488 112.5 77.7881C112.5 77.8275 112.5 77.8669 112.5 77.9062C112.5 77.9455 112.5 77.9849 112.5 78.0242C112.5 78.0635 112.5 78.1028 112.5 78.142C112.5 78.1813 112.5 78.2206 112.5 78.2598C112.5 78.2991 112.5 78.3383 112.5 78.3775C112.5 78.4167 112.5 78.4559 112.5 78.4951C112.5 78.5343 112.5 78.5734 112.5 78.6126C112.5 78.6517 112.5 78.6909 112.5 78.73C112.5 78.7691 112.5 78.8082 112.5 78.8473C112.5 78.8864 112.5 78.9254 112.5 78.9645C112.5 79.0035 112.5 79.0425 112.5 79.0816C112.5 79.1206 112.5 79.1596 112.5 79.1985C112.5 79.2375 112.5 79.2765 112.5 79.3154C112.5 79.3543 112.5 79.3932 112.5 79.4322C112.5 79.4711 112.5 79.5099 112.5 79.5488C112.5 79.5877 112.5 79.6265 112.5 79.6653C112.5 79.7042 112.5 79.743 112.5 79.7818C112.5 79.8205 112.5 79.8593 112.5 79.8981C112.5 79.9368 112.5 79.9755 112.5 80.0143C112.5 80.053 112.5 80.0917 112.5 80.1303C112.5 80.169 112.5 80.2077 112.5 80.2463C112.5 80.2849 112.5 80.3235 112.5 80.3621C112.5 80.4007 112.5 80.4393 112.5 80.4778C112.5 80.5164 112.5 80.5549 112.5 80.5934C112.5 80.6319 112.5 80.6704 112.5 80.7089C112.5 80.7473 112.5 80.7858 112.5 80.8242C112.5 80.8626 112.5 80.901 112.5 80.9394C112.5 80.9778 112.5 81.0162 112.5 81.0545C112.5 81.0928 112.5 81.1311 112.5 81.1694C112.5 81.2077 112.5 81.246 112.5 81.2842C112.5 81.3225 112.5 81.3607 112.5 81.3989C112.5 81.4371 112.5 81.4753 112.5 81.5135C112.5 81.5516 112.5 81.5897 112.5 81.6278C112.5 81.666 112.5 81.704 112.5 81.7421C112.5 81.7802 112.5 81.8182 112.5 81.8562C112.5 81.8942 112.5 81.9322 112.5 81.9702C112.5 82.0082 112.5 82.0461 112.5 82.084C112.5 82.122 112.5 82.1599 112.5 82.1977C112.5 82.2356 112.5 82.2735 112.5 82.3113C112.5 82.3491 112.5 82.3869 112.5 82.4247C112.5 82.4624 112.5 82.5002 112.5 82.5379C112.5 82.5756 112.5 82.6133 112.5 82.651C112.5 82.6887 112.5 82.7263 112.5 82.7639C112.5 82.8016 112.5 82.8392 112.5 82.8767C112.5 82.9143 112.5 82.9518 112.5 82.9894C112.5 83.0269 112.5 83.0644 112.5 83.1018C112.5 83.1393 112.5 83.1767 112.5 83.2141C112.5 83.2516 112.5 83.2889 112.5 83.3263C112.5 83.3637 112.5 83.401 112.5 83.4383C112.5 83.4756 112.5 83.5129 112.5 83.5501C112.5 83.5874 112.5 83.6246 112.5 83.6618H105.5C105.5 83.6246 105.5 83.5874 105.5 83.5501C105.5 83.5129 105.5 83.4756 105.5 83.4383C105.5 83.401 105.5 83.3637 105.5 83.3263C105.5 83.2889 105.5 83.2516 105.5 83.2141C105.5 83.1767 105.5 83.1393 105.5 83.1018C105.5 83.0644 105.5 83.0269 105.5 82.9894C105.5 82.9518 105.5 82.9143 105.5 82.8767C105.5 82.8392 105.5 82.8016 105.5 82.7639C105.5 82.7263 105.5 82.6887 105.5 82.651C105.5 82.6133 105.5 82.5756 105.5 82.5379C105.5 82.5002 105.5 82.4624 105.5 82.4247C105.5 82.3869 105.5 82.3491 105.5 82.3113C105.5 82.2735 105.5 82.2356 105.5 82.1977C105.5 82.1599 105.5 82.122 105.5 82.084C105.5 82.0461 105.5 82.0082 105.5 81.9702C105.5 81.9322 105.5 81.8942 105.5 81.8562C105.5 81.8182 105.5 81.7802 105.5 81.7421C105.5 81.704 105.5 81.666 105.5 81.6278C105.5 81.5897 105.5 81.5516 105.5 81.5135C105.5 81.4753 105.5 81.4371 105.5 81.3989C105.5 81.3607 105.5 81.3225 105.5 81.2842C105.5 81.246 105.5 81.2077 105.5 81.1694C105.5 81.1311 105.5 81.0928 105.5 81.0545C105.5 81.0162 105.5 80.9778 105.5 80.9394C105.5 80.901 105.5 80.8626 105.5 80.8242C105.5 80.7858 105.5 80.7473 105.5 80.7089C105.5 80.6704 105.5 80.6319 105.5 80.5934C105.5 80.5549 105.5 80.5164 105.5 80.4778C105.5 80.4393 105.5 80.4007 105.5 80.3621C105.5 80.3235 105.5 80.2849 105.5 80.2463C105.5 80.2077 105.5 80.169 105.5 80.1303C105.5 80.0917 105.5 80.053 105.5 80.0143C105.5 79.9755 105.5 79.9368 105.5 79.8981C105.5 79.8593 105.5 79.8205 105.5 79.7818C105.5 79.743 105.5 79.7042 105.5 79.6653C105.5 79.6265 105.5 79.5877 105.5 79.5488C105.5 79.5099 105.5 79.4711 105.5 79.4322C105.5 79.3932 105.5 79.3543 105.5 79.3154C105.5 79.2765 105.5 79.2375 105.5 79.1985C105.5 79.1596 105.5 79.1206 105.5 79.0816C105.5 79.0425 105.5 79.0035 105.5 78.9645C105.5 78.9254 105.5 78.8864 105.5 78.8473C105.5 78.8082 105.5 78.7691 105.5 78.73C105.5 78.6909 105.5 78.6517 105.5 78.6126C105.5 78.5734 105.5 78.5343 105.5 78.4951C105.5 78.4559 105.5 78.4167 105.5 78.3775C105.5 78.3383 105.5 78.2991 105.5 78.2598C105.5 78.2206 105.5 78.1813 105.5 78.142C105.5 78.1028 105.5 78.0635 105.5 78.0242C105.5 77.9849 105.5 77.9455 105.5 77.9062C105.5 77.8669 105.5 77.8275 105.5 77.7881C105.5 77.7488 105.5 77.7094 105.5 77.67C105.5 77.6306 105.5 77.5912 105.5 77.5517C105.5 77.5123 105.5 77.4729 105.5 77.4334C105.5 77.394 105.5 77.3545 105.5 77.315C105.5 77.2755 105.5 77.236 105.5 77.1965C105.5 77.157 105.5 77.1175 105.5 77.0779C105.5 77.0384 105.5 76.9988 105.5 76.9593C105.5 76.9197 105.5 76.8801 105.5 76.8405C105.5 76.8009 105.5 76.7613 105.5 76.7217C105.5 76.6821 105.5 76.6425 105.5 76.6028C105.5 76.5632 105.5 76.5235 105.5 76.4839C105.5 76.4442 105.5 76.4045 105.5 76.3648C105.5 76.3251 105.5 76.2854 105.5 76.2457C105.5 76.206 105.5 76.1663 105.5 76.1265C105.5 76.0868 105.5 76.047 105.5 76.0073C105.5 75.9675 105.5 75.9277 105.5 75.888C105.5 75.8482 105.5 75.8084 105.5 75.7686C105.5 75.7288 105.5 75.689 105.5 75.6491C105.5 75.6093 105.5 75.5695 105.5 75.5296C105.5 75.4898 105.5 75.4499 105.5 75.4101C105.5 75.3702 105.5 75.3303 105.5 75.2904C105.5 75.2505 105.5 75.2106 105.5 75.1707C105.5 75.1308 105.5 75.0909 105.5 75.051C105.5 75.0111 105.5 74.9711 105.5 74.9312C105.5 74.8913 105.5 74.8513 105.5 74.8113C105.5 74.7714 105.5 74.7314 105.5 74.6914C105.5 74.6515 105.5 74.6115 105.5 74.5715C105.5 74.5315 105.5 74.4915 105.5 74.4515C105.5 74.4115 105.5 74.3715 105.5 74.3314C105.5 74.2914 105.5 74.2514 105.5 74.2113C105.5 74.1713 105.5 74.1312 105.5 74.0912C105.5 74.0511 105.5 74.0111 105.5 73.971C105.5 73.9309 105.5 73.8909 105.5 73.8508C105.5 73.8107 105.5 73.7706 105.5 73.7305C105.5 73.6904 105.5 73.6503 105.5 73.6102C105.5 73.5701 105.5 73.53 105.5 73.4898C105.5 73.4497 105.5 73.4096 105.5 73.3695C105.5 73.3293 105.5 73.2892 105.5 73.2491C105.5 73.2089 105.5 73.1688 105.5 73.1286C105.5 73.0885 105.5 73.0483 105.5 73.0081C105.5 72.968 105.5 72.9278 105.5 72.8876C105.5 72.8474 105.5 72.8073 105.5 72.7671C105.5 72.7269 105.5 72.6867 105.5 72.6465C105.5 72.6063 105.5 72.5661 105.5 72.5259C105.5 72.4857 105.5 72.4455 105.5 72.4053C105.5 72.3651 105.5 72.3249 105.5 72.2847C105.5 72.2445 105.5 72.2043 105.5 72.164C105.5 72.1238 105.5 72.0836 105.5 72.0434C105.5 72.0031 105.5 71.9629 105.5 71.9227C105.5 71.8824 105.5 71.8422 105.5 71.802C105.5 71.7617 105.5 71.7215 105.5 71.6812C105.5 71.641 105.5 71.6008 105.5 71.5605C105.5 71.5203 105.5 71.48 105.5 71.4398C105.5 71.3995 105.5 71.3593 105.5 71.319C105.5 71.2788 105.5 71.2385 105.5 71.1982C105.5 71.158 105.5 71.1177 105.5 71.0775C105.5 71.0372 105.5 70.9969 105.5 70.9567C105.5 70.9164 105.5 70.8762 105.5 70.8359C105.5 70.7956 105.5 70.7554 105.5 70.7151C105.5 70.6749 105.5 70.6346 105.5 70.5943C105.5 70.5541 105.5 70.5138 105.5 70.4735C105.5 70.4333 105.5 70.393 105.5 70.3528C105.5 70.3125 105.5 70.2722 105.5 70.232C105.5 70.1917 105.5 70.1515 105.5 70.1112C105.5 70.071 105.5 70.0307 105.5 69.9904C105.5 69.9502 105.5 69.9099 105.5 69.8697C105.5 69.8294 105.5 69.7892 105.5 69.7489C105.5 69.7087 105.5 69.6684 105.5 69.6282C105.5 69.5879 105.5 69.5477 105.5 69.5075C105.5 69.4672 105.5 69.427 105.5 69.3867C105.5 69.3465 105.5 69.3063 105.5 69.266C105.5 69.2258 105.5 69.1856 105.5 69.1454C105.5 69.1051 105.5 69.0649 105.5 69.0247C105.5 68.9845 105.5 68.9443 105.5 68.9041C105.5 68.8638 105.5 68.8236 105.5 68.7834C105.5 68.7432 105.5 68.703 105.5 68.6628C105.5 68.6226 105.5 68.5824 105.5 68.5423C105.5 68.5021 105.5 68.4619 105.5 68.4217C105.5 68.3815 105.5 68.3414 105.5 68.3012C105.5 68.261 105.5 68.2208 105.5 68.1807C105.5 68.1405 105.5 68.1004 105.5 68.0602C105.5 68.0201 105.5 67.9799 105.5 67.9398C105.5 67.8997 105.5 67.8595 105.5 67.8194C105.5 67.7793 105.5 67.7391 105.5 67.699C105.5 67.6589 105.5 67.6188 105.5 67.5787C105.5 67.5386 105.5 67.4985 105.5 67.4584C105.5 67.4183 105.5 67.3782 105.5 67.3382C105.5 67.2981 105.5 67.258 105.5 67.218C105.5 67.1779 105.5 67.1378 105.5 67.0978C105.5 67.0577 105.5 67.0177 105.5 66.9777C105.5 66.9376 105.5 66.8976 105.5 66.8576C105.5 66.8176 105.5 66.7776 105.5 66.7376C105.5 66.6976 105.5 66.6576 105.5 66.6176C105.5 66.5776 105.5 66.5376 105.5 66.4977C105.5 66.4577 105.5 66.4177 105.5 66.3778C105.5 66.3378 105.5 66.2979 105.5 66.2579C105.5 66.218 105.5 66.1781 105.5 66.1382C105.5 66.0983 105.5 66.0583 105.5 66.0185C105.5 65.9786 105.5 65.9387 105.5 65.8988C105.5 65.8589 105.5 65.819 105.5 65.7792C105.5 65.7393 105.5 65.6995 105.5 65.6596C105.5 65.6198 105.5 65.58 105.5 65.5402C105.5 65.5004 105.5 65.4605 105.5 65.4208C105.5 65.381 105.5 65.3412 105.5 65.3014C105.5 65.2616 105.5 65.2219 105.5 65.1821C105.5 65.1424 105.5 65.1026 105.5 65.0629C105.5 65.0232 105.5 64.9835 105.5 64.9438C105.5 64.9041 105.5 64.8644 105.5 64.8247C105.5 64.785 105.5 64.7453 105.5 64.7057C105.5 64.666 105.5 64.6264 105.5 64.5868C105.5 64.5471 105.5 64.5075 105.5 64.4679C105.5 64.4283 105.5 64.3887 105.5 64.3491C105.5 64.3095 105.5 64.27 105.5 64.2304C105.5 64.1909 105.5 64.1513 105.5 64.1118C105.5 64.0723 105.5 64.0328 105.5 63.9933C105.5 63.9538 105.5 63.9143 105.5 63.8748C105.5 63.8353 105.5 63.7959 105.5 63.7564C105.5 63.717 105.5 63.6776 105.5 63.6381C105.5 63.5987 105.5 63.5593 105.5 63.52C105.5 63.4806 105.5 63.4412 105.5 63.4018C105.5 63.3625 105.5 63.3232 105.5 63.2838C105.5 63.2445 105.5 63.2052 105.5 63.1659C105.5 63.1266 105.5 63.0873 105.5 63.0481C105.5 63.0088 105.5 62.9696 105.5 62.9303C105.5 62.8911 105.5 62.8519 105.5 62.8127C105.5 62.7735 105.5 62.7343 105.5 62.6951C105.5 62.656 105.5 62.6168 105.5 62.5777C105.5 62.5386 105.5 62.4995 105.5 62.4604C105.5 62.4213 105.5 62.3822 105.5 62.3431C105.5 62.3041 105.5 62.265 105.5 62.226C105.5 62.187 105.5 62.1479 105.5 62.109C105.5 62.07 105.5 62.031 105.5 61.992C105.5 61.9531 105.5 61.9141 105.5 61.8752C105.5 61.8363 105.5 61.7974 105.5 61.7585C105.5 61.7196 105.5 61.6808 105.5 61.6419C105.5 61.6031 105.5 61.5642 105.5 61.5254C105.5 61.4866 105.5 61.4478 105.5 61.4091C105.5 61.3703 105.5 61.3315 105.5 61.2928C105.5 61.2541 105.5 61.2154 105.5 61.1767C105.5 61.138 105.5 61.0993 105.5 61.0607C105.5 61.022 105.5 60.9834 105.5 60.9448C105.5 60.9062 105.5 60.8676 105.5 60.829C105.5 60.7904 105.5 60.7519 105.5 60.7133C105.5 60.6748 105.5 60.6363 105.5 60.5978C105.5 60.5593 105.5 60.5209 105.5 60.4824C105.5 60.444 105.5 60.4055 105.5 60.3671C105.5 60.3287 105.5 60.2904 105.5 60.252C105.5 60.2136 105.5 60.1753 105.5 60.137C105.5 60.0987 105.5 60.0604 105.5 60.0221C105.5 59.9838 105.5 59.9456 105.5 59.9074C105.5 59.8691 105.5 59.8309 105.5 59.7928C105.5 59.7546 105.5 59.7164 105.5 59.6783C105.5 59.6402 105.5 59.602 105.5 59.564C105.5 59.5259 105.5 59.4878 105.5 59.4498C105.5 59.4117 105.5 59.3737 105.5 59.3357C105.5 59.2977 105.5 59.2598 105.5 59.2218C105.5 59.1839 105.5 59.1459 105.5 59.108C105.5 59.0701 105.5 59.0323 105.5 58.9944C105.5 58.9566 105.5 58.9188 105.5 58.881C105.5 58.8432 105.5 58.8054 105.5 58.7676C105.5 58.7299 105.5 58.6922 105.5 58.6545C105.5 58.6168 105.5 58.5791 105.5 58.5414C105.5 58.5038 105.5 58.4662 105.5 58.4286C105.5 58.391 105.5 58.3534 105.5 58.3159C105.5 58.2783 105.5 58.2408 105.5 58.2033C105.5 58.1658 105.5 58.1283 105.5 58.0909C105.5 58.0535 105.5 58.0161 105.5 57.9787C105.5 57.9413 105.5 57.9039 105.5 57.8666C105.5 57.8293 105.5 57.792 105.5 57.7547C105.5 57.7174 105.5 57.6801 105.5 57.6429C105.5 57.6057 105.5 57.5685 105.5 57.5313C105.5 57.4942 105.5 57.457 105.5 57.4199C105.5 57.3828 105.5 57.3457 105.5 57.3087C105.5 57.2716 105.5 57.2346 105.5 57.1976C105.5 57.1606 105.5 57.1236 105.5 57.0867C105.5 57.0497 105.5 57.0128 105.5 56.976C105.5 56.9391 105.5 56.9022 105.5 56.8654C105.5 56.8286 105.5 56.7918 105.5 56.755C105.5 56.7182 105.5 56.6815 105.5 56.6448C105.5 56.6081 105.5 56.5714 105.5 56.5348C105.5 56.4981 105.5 56.4615 105.5 56.4249C105.5 56.3883 105.5 56.3518 105.5 56.3153C105.5 56.2787 105.5 56.2422 105.5 56.2058C105.5 56.1693 105.5 56.1329 105.5 56.0965C105.5 56.0601 105.5 56.0237 105.5 55.9874C105.5 55.951 105.5 55.9147 105.5 55.8784C105.5 55.8422 105.5 55.8059 105.5 55.7697C105.5 55.7335 105.5 55.6973 105.5 55.6612C105.5 55.625 105.5 55.5889 105.5 55.5528C105.5 55.5167 105.5 55.4807 105.5 55.4446C105.5 55.4086 105.5 55.3726 105.5 55.3367C105.5 55.3007 105.5 55.2648 105.5 55.2289C105.5 55.193 105.5 55.1572 105.5 55.1214C105.5 55.0855 105.5 55.0497 105.5 55.014C105.5 54.9782 105.5 54.9425 105.5 54.9068C105.5 54.8711 105.5 54.8355 105.5 54.7999C105.5 54.7642 105.5 54.7287 105.5 54.6931C105.5 54.6576 105.5 54.622 105.5 54.5866C105.5 54.5511 105.5 54.5156 105.5 54.4802C105.5 54.4448 105.5 54.4094 105.5 54.3741C105.5 54.3387 105.5 54.3034 105.5 54.2682C105.5 54.2329 105.5 54.1976 105.5 54.1624C105.5 54.1272 105.5 54.0921 105.5 54.0569C105.5 54.0218 105.5 53.9867 105.5 53.9517C105.5 53.9166 105.5 53.8816 105.5 53.8466C105.5 53.8116 105.5 53.7766 105.5 53.7417C105.5 53.7068 105.5 53.6719 105.5 53.6371C105.5 53.6023 105.5 53.5675 105.5 53.5327C105.5 53.4979 105.5 53.4632 105.5 53.4285C105.5 53.3938 105.5 53.3592 105.5 53.3245C105.5 53.2899 105.5 53.2553 105.5 53.2208C105.5 53.1863 105.5 53.1518 105.5 53.1173C105.5 53.0828 105.5 53.0484 105.5 53.014C105.5 52.9796 105.5 52.9453 105.5 52.911C105.5 52.8766 105.5 52.8424 105.5 52.8081C105.5 52.7739 105.5 52.7397 105.5 52.7055C105.5 52.6714 105.5 52.6373 105.5 52.6032C105.5 52.5691 105.5 52.5351 105.5 52.5011C105.5 52.4671 105.5 52.4331 105.5 52.3992C105.5 52.3653 105.5 52.3314 105.5 52.2976C105.5 52.2637 105.5 52.2299 105.5 52.1962C105.5 52.1624 105.5 52.1287 105.5 52.095C105.5 52.0613 105.5 52.0277 105.5 51.9941C105.5 51.9605 105.5 51.9269 105.5 51.8934C105.5 51.8599 105.5 51.8264 105.5 51.793C105.5 51.7595 105.5 51.7262 105.5 51.6928C105.5 51.6595 105.5 51.6261 105.5 51.5929C105.5 51.5596 105.5 51.5264 105.5 51.4932C105.5 51.46 105.5 51.4269 105.5 51.3938C105.5 51.3607 105.5 51.3276 105.5 51.2946C105.5 51.2616 105.5 51.2286 105.5 51.1957C105.5 51.1628 105.5 51.1299 105.5 51.097C105.5 51.0642 105.5 51.0314 105.5 50.9986C105.5 50.9659 105.5 50.9332 105.5 50.9005C105.5 50.8678 105.5 50.8352 105.5 50.8026C105.5 50.77 105.5 50.7375 105.5 50.705C105.5 50.6725 105.5 50.6401 105.5 50.6077C105.5 50.5753 105.5 50.5429 105.5 50.5106C105.5 50.4783 105.5 50.446 105.5 50.4138C105.5 50.3815 105.5 50.3493 105.5 50.3172C105.5 50.2851 105.5 50.253 105.5 50.2209C105.5 50.1889 105.5 50.1569 105.5 50.1249C105.5 50.093 105.5 50.0611 105.5 50.0292C105.5 49.9973 105.5 49.9655 105.5 49.9337C105.5 49.902 105.5 49.8702 105.5 49.8386C105.5 49.8069 105.5 49.7752 105.5 49.7437C105.5 49.7121 105.5 49.6805 105.5 49.649C105.5 49.6175 105.5 49.5861 105.5 49.5547C105.5 49.5233 105.5 49.4919 105.5 49.4606C105.5 49.4293 105.5 49.3981 105.5 49.3669C105.5 49.3356 105.5 49.3045 105.5 49.2734C105.5 49.2422 105.5 49.2112 105.5 49.1802C105.5 49.1491 105.5 49.1182 105.5 49.0872C105.5 49.0563 105.5 49.0254 105.5 48.9946C105.5 48.9638 105.5 48.933 105.5 48.9023C105.5 48.8716 105.5 48.8409 105.5 48.8102C105.5 48.7796 105.5 48.749 105.5 48.7185C105.5 48.688 105.5 48.6575 105.5 48.6271C105.5 48.5966 105.5 48.5662 105.5 48.5359C105.5 48.5056 105.5 48.4753 105.5 48.445C105.5 48.4148 105.5 48.3846 105.5 48.3545C105.5 48.3244 105.5 48.2943 105.5 48.2642C105.5 48.2342 105.5 48.2042 105.5 48.1743C105.5 48.1444 105.5 48.1145 105.5 48.0847C105.5 48.0548 105.5 48.025 105.5 47.9953C105.5 47.9656 105.5 47.9359 105.5 47.9063C105.5 47.8767 105.5 47.8471 105.5 47.8176C105.5 47.788 105.5 47.7586 105.5 47.7292C105.5 47.6997 105.5 47.6704 105.5 47.6411C105.5 47.6118 105.5 47.5825 105.5 47.5533C105.5 47.5241 105.5 47.4949 105.5 47.4658C105.5 47.4367 105.5 47.4077 105.5 47.3787C105.5 47.3497 105.5 47.3207 105.5 47.2918C105.5 47.2629 105.5 47.2341 105.5 47.2053C105.5 47.1765 105.5 47.1478 105.5 47.1191C105.5 47.0905 105.5 47.0618 105.5 47.0333C105.5 47.0047 105.5 46.9762 105.5 46.9477C105.5 46.9193 105.5 46.8909 105.5 46.8625C105.5 46.8342 105.5 46.8059 105.5 46.7776C105.5 46.7494 105.5 46.7212 105.5 46.6931C105.5 46.6649 105.5 46.6369 105.5 46.6088C105.5 46.5808 105.5 46.5529 105.5 46.5249C105.5 46.497 105.5 46.4692 105.5 46.4414C105.5 46.4136 105.5 46.3858 105.5 46.3582C105.5 46.3305 105.5 46.3028 105.5 46.2753C105.5 46.2477 105.5 46.2202 105.5 46.1927C105.5 46.1652 105.5 46.1378 105.5 46.1105C105.5 46.0831 105.5 46.0559 105.5 46.0286C105.5 46.0014 105.5 45.9742 105.5 45.9471C105.5 45.92 105.5 45.8929 105.5 45.8659C105.5 45.8389 105.5 45.8119 105.5 45.7851C105.5 45.7582 105.5 45.7313 105.5 45.7046C105.5 45.6778 105.5 45.6511 105.5 45.6244C105.5 45.5978 105.5 45.5712 105.5 45.5446C105.5 45.5181 105.5 45.4916 105.5 45.4652C105.5 45.4388 105.5 45.4124 105.5 45.3861C105.5 45.3598 105.5 45.3335 105.5 45.3073C105.5 45.2812 105.5 45.255 105.5 45.229C105.5 45.2029 105.5 45.1769 105.5 45.1509C105.5 45.125 105.5 45.0991 105.5 45.0733C105.5 45.0475 105.5 45.0217 105.5 44.996C105.5 44.9703 105.5 44.9446 105.5 44.919C105.5 44.8934 105.5 44.8679 105.5 44.8425C105.5 44.817 105.5 44.7916 105.5 44.7662C105.5 44.7409 105.5 44.7156 105.5 44.6904C105.5 44.6652 105.5 44.64 105.5 44.6149C105.5 44.5898 105.5 44.5648 105.5 44.5398C105.5 44.5148 105.5 44.4899 105.5 44.4651C105.5 44.4402 105.5 44.4154 105.5 44.3907C105.5 44.366 105.5 44.3413 105.5 44.3167C105.5 44.2921 105.5 44.2676 105.5 44.2431C105.5 44.2186 105.5 44.1942 105.5 44.1698C105.5 44.1455 105.5 44.1212 105.5 44.097C105.5 44.0728 105.5 44.0486 105.5 44.0245C105.5 44.0004 105.5 43.9764 105.5 43.9524C105.5 43.9284 105.5 43.9045 105.5 43.8807C105.5 43.8568 105.5 43.8331 105.5 43.8094C105.5 43.7856 105.5 43.762 105.5 43.7384C105.5 43.7148 105.5 43.6913 105.5 43.6679C105.5 43.6444 105.5 43.621 105.5 43.5977C105.5 43.5744 105.5 43.5511 105.5 43.5279C105.5 43.5047 105.5 43.4816 105.5 43.4585C105.5 43.4354 105.5 43.4125 105.5 43.3895C105.5 43.3666 105.5 43.3437 105.5 43.3209C105.5 43.2981 105.5 43.2754 105.5 43.2527C105.5 43.2301 105.5 43.2074 105.5 43.1849C105.5 43.1624 105.5 43.1399 105.5 43.1175C105.5 43.0951 105.5 43.0728 105.5 43.0505C105.5 43.0282 105.5 43.006 105.5 42.9839C105.5 42.9618 105.5 42.9397 105.5 42.9177C105.5 42.8957 105.5 42.8738 105.5 42.8519C105.5 42.8301 105.5 42.8083 105.5 42.7865C105.5 42.7648 105.5 42.7431 105.5 42.7216C105.5 42.7 105.5 42.6784 105.5 42.657C105.5 42.6355 105.5 42.6141 105.5 42.5928C105.5 42.5715 105.5 42.5503 105.5 42.5291C105.5 42.5079 105.5 42.4868 105.5 42.4658C105.5 42.4447 105.5 42.4237 105.5 42.4028C105.5 42.3819 105.5 42.3611 105.5 42.3404C105.5 42.3196 105.5 42.2989 105.5 42.2783C105.5 42.2577 105.5 42.2371 105.5 42.2166C105.5 42.1961 105.5 42.1757 105.5 42.1554C105.5 42.1351 105.5 42.1148 105.5 42.0946C105.5 42.0744 105.5 42.0543 105.5 42.0342C105.5 42.0141 105.5 41.9942 105.5 41.9742C105.5 41.9543 105.5 41.9345 105.5 41.9147C105.5 41.8949 105.5 41.8752 105.5 41.8556C105.5 41.836 105.5 41.8164 105.5 41.7969C105.5 41.7775 105.5 41.758 105.5 41.7387C105.5 41.7194 105.5 41.7001 105.5 41.6809C105.5 41.6617 105.5 41.6426 105.5 41.6235C105.5 41.6045 105.5 41.5855 105.5 41.5666C105.5 41.5477 105.5 41.5289 105.5 41.5101C105.5 41.4914 105.5 41.4727 105.5 41.4541C105.5 41.4355 105.5 41.4169 105.5 41.3985C105.5 41.38 105.5 41.3616 105.5 41.3433C105.5 41.325 105.5 41.3067 105.5 41.2886C105.5 41.2704 105.5 41.2523 105.5 41.2343C105.5 41.2163 105.5 41.1983 105.5 41.1805C105.5 41.1626 105.5 41.1448 105.5 41.1271C105.5 41.1094 105.5 41.0917 105.5 41.0742C105.5 41.0566 105.5 41.0391 105.5 41.0217C105.5 41.0043 105.5 40.9869 105.5 40.9697C105.5 40.9524 105.5 40.9352 105.5 40.9181C105.5 40.901 105.5 40.8839 105.5 40.867C105.5 40.85 105.5 40.8331 105.5 40.8163C105.5 40.7995 105.5 40.7828 105.5 40.7661C105.5 40.7495 105.5 40.7329 105.5 40.7164C105.5 40.6999 105.5 40.6835 105.5 40.6671C105.5 40.6508 105.5 40.6345 105.5 40.6183C105.5 40.6021 105.5 40.586 105.5 40.57C105.5 40.5539 105.5 40.538 105.5 40.5221C105.5 40.5062 105.5 40.4904 105.5 40.4747C105.5 40.459 105.5 40.4433 105.5 40.4277C105.5 40.4122 105.5 40.3967 105.5 40.3813C105.5 40.3659 105.5 40.3505 105.5 40.3353C105.5 40.32 105.5 40.3049 105.5 40.2898C105.5 40.2747 105.5 40.2597 105.5 40.2447C105.5 40.2298 105.5 40.2149 105.5 40.2002C105.5 40.1854 105.5 40.1707 105.5 40.1561C105.5 40.1415 105.5 40.1269 105.5 40.1125C105.5 40.098 105.5 40.0837 105.5 40.0694C105.5 40.0551 105.5 40.0409 105.5 40.0267C105.5 40.0126 105.5 39.9985 105.5 39.9846C105.5 39.9706 105.5 39.9567 105.5 39.9429C105.5 39.9291 105.5 39.9154 105.5 39.9017C105.5 39.8881 105.5 39.8745 105.5 39.861C105.5 39.8475 105.5 39.8342 105.5 39.8208C105.5 39.8075 105.5 39.7943 105.5 39.7811C105.5 39.768 105.5 39.7549 105.5 39.7419C105.5 39.7289 105.5 39.716 105.5 39.7032C105.5 39.6904 105.5 39.6776 105.5 39.665C105.5 39.6523 105.5 39.6397 105.5 39.6273C105.5 39.6148 105.5 39.6024 105.5 39.59C105.5 39.5777 105.5 39.5655 105.5 39.5533C105.5 39.5412 105.5 39.5291 105.5 39.5171C105.5 39.5051 105.5 39.4932 105.5 39.4814C105.5 39.4696 105.5 39.4578 105.5 39.4462C105.5 39.4345 105.5 39.423 105.5 39.4115C105.5 39.4 105.5 39.3886 105.5 39.3773C105.5 39.366 105.5 39.3548 105.5 39.3436C105.5 39.3325 105.5 39.3214 105.5 39.3105C105.5 39.2995 105.5 39.2886 105.5 39.2778C105.5 39.267 105.5 39.2563 105.5 39.2457C105.5 39.235 105.5 39.2245 105.5 39.214C105.5 39.2036 105.5 39.1932 105.5 39.1829C105.5 39.1727 105.5 39.1625 105.5 39.1524C105.5 39.1422 105.5 39.1322 105.5 39.1223C105.5 39.1124 105.5 39.1025 105.5 39.0928C105.5 39.083 105.5 39.0733 105.5 39.0637C105.5 39.0541 105.5 39.0447 105.5 39.0352C105.5 39.0258 105.5 39.0165 105.5 39.0073C105.5 38.998 105.5 38.9889 105.5 38.9798C105.5 38.9708 105.5 38.9618 105.5 38.9529C105.5 38.9441 105.5 38.9353 105.5 38.9266C105.5 38.9179 105.5 38.9093 105.5 38.9007C105.5 38.8922 105.5 38.8838 105.5 38.8754C105.5 38.8671 105.5 38.8588 105.5 38.8506C105.5 38.8425 105.5 38.8344 105.5 38.8264C105.5 38.8184 105.5 38.8105 105.5 38.8027C105.5 38.7949 105.5 38.7872 105.5 38.7796C105.5 38.7719 105.5 38.7644 105.5 38.757C105.5 38.7495 105.5 38.7422 105.5 38.7349C105.5 38.7276 105.5 38.7205 105.5 38.7134C105.5 38.7063 105.5 38.6993 105.5 38.6924C105.5 38.6855 105.5 38.6787 105.5 38.672C105.5 38.6652 105.5 38.6586 105.5 38.6521C105.5 38.6456 105.5 38.6391 105.5 38.6328C105.5 38.6264 105.5 38.6202 105.5 38.614C105.5 38.6078 105.5 38.6017 105.5 38.5958C105.5 38.5898 105.5 38.5839 105.5 38.5781C105.5 38.5723 105.5 38.5666 105.5 38.561C105.5 38.5554 105.5 38.5499 105.5 38.5444C105.5 38.539 105.5 38.5337 105.5 38.5285C105.5 38.5232 105.5 38.5181 105.5 38.513C105.5 38.508 105.5 38.503 105.5 38.4982C105.5 38.4933 105.5 38.4885 105.5 38.4839C105.5 38.4792 105.5 38.4746 105.5 38.4701C105.5 38.4656 105.5 38.4613 105.5 38.457C105.5 38.4527 105.5 38.4485 105.5 38.4444C105.5 38.4403 105.5 38.4363 105.5 38.4323C105.5 38.4284 105.5 38.4246 105.5 38.4209C105.5 38.4172 105.5 38.4135 105.5 38.41C105.5 38.4065 105.5 38.403 105.5 38.3997C105.5 38.3964 105.5 38.3931 105.5 38.39C105.5 38.3868 105.5 38.3838 105.5 38.3808C105.5 38.3779 105.5 38.375 105.5 38.3722C105.5 38.3695 105.5 38.3668 105.5 38.3643C105.5 38.3617 105.5 38.3592 105.5 38.3568C105.5 38.3545 105.5 38.3522 105.5 38.35C105.5 38.3478 105.5 38.3458 105.5 38.3438C105.5 38.3418 105.5 38.3399 105.5 38.3381C105.5 38.3363 105.5 38.3347 105.5 38.3331C105.5 38.3315 105.5 38.33 105.5 38.3286C105.5 38.3272 105.5 38.3259 105.5 38.3247C105.5 38.3235 105.5 38.3224 105.5 38.3214C105.5 38.3204 105.5 38.3195 105.5 38.3187C105.5 38.3179 105.5 38.3172 105.5 38.3166C105.5 38.316 105.5 38.3155 105.5 38.3151C105.5 38.3147 105.5 38.3144 105.5 38.3142C105.5 38.314 105.5 38.3139 109 38.3139Z" fill="#861657"/>
<path d="M37.3333 95.5C37.3333 105.809 45.6907 114.167 56 114.167C66.3093 114.167 74.6667 105.809 74.6667 95.5C74.6667 85.1907 66.3093 76.8333 56 76.8333C45.6907 76.8333 37.3333 85.1907 37.3333 95.5ZM110.5 79.6618V83.1618H117.5V79.6618H110.5ZM59.5 95.5V40.8342H52.5V95.5H59.5ZM59.5 40.8342C59.5 31.1662 62.8048 24.1215 67.5386 19.3831C72.3173 14.5998 78.7402 11.9808 85.2265 11.5601C91.7266 11.1386 98.0767 12.9356 102.738 16.7013C107.32 20.4031 110.5 26.1826 110.5 34.3139H117.5C117.5 24.1537 113.43 16.3399 107.137 11.2562C100.923 6.23647 92.7734 4.05603 84.7735 4.57481C76.7598 5.09448 68.6827 8.33355 62.5864 14.4358C56.4452 20.5831 52.5 29.4516 52.5 40.8342H59.5ZM114 34.3139C110.5 34.3139 110.5 34.314 110.5 34.3142C110.5 34.3144 110.5 34.3147 110.5 34.3151C110.5 34.3155 110.5 34.316 110.5 34.3166C110.5 34.3172 110.5 34.3179 110.5 34.3187C110.5 34.3195 110.5 34.3204 110.5 34.3214C110.5 34.3224 110.5 34.3235 110.5 34.3247C110.5 34.3259 110.5 34.3272 110.5 34.3286C110.5 34.33 110.5 34.3315 110.5 34.3331C110.5 34.3347 110.5 34.3363 110.5 34.3381C110.5 34.3399 110.5 34.3418 110.5 34.3438C110.5 34.3458 110.5 34.3478 110.5 34.35C110.5 34.3522 110.5 34.3545 110.5 34.3568C110.5 34.3592 110.5 34.3617 110.5 34.3643C110.5 34.3668 110.5 34.3695 110.5 34.3722C110.5 34.375 110.5 34.3779 110.5 34.3808C110.5 34.3838 110.5 34.3868 110.5 34.39C110.5 34.3931 110.5 34.3964 110.5 34.3997C110.5 34.403 110.5 34.4065 110.5 34.41C110.5 34.4135 110.5 34.4172 110.5 34.4209C110.5 34.4246 110.5 34.4284 110.5 34.4323C110.5 34.4363 110.5 34.4403 110.5 34.4444C110.5 34.4485 110.5 34.4527 110.5 34.457C110.5 34.4613 110.5 34.4656 110.5 34.4701C110.5 34.4746 110.5 34.4792 110.5 34.4839C110.5 34.4885 110.5 34.4933 110.5 34.4982C110.5 34.503 110.5 34.508 110.5 34.513C110.5 34.5181 110.5 34.5232 110.5 34.5285C110.5 34.5337 110.5 34.539 110.5 34.5444C110.5 34.5499 110.5 34.5554 110.5 34.561C110.5 34.5666 110.5 34.5723 110.5 34.5781C110.5 34.5839 110.5 34.5898 110.5 34.5958C110.5 34.6017 110.5 34.6078 110.5 34.614C110.5 34.6202 110.5 34.6264 110.5 34.6328C110.5 34.6391 110.5 34.6456 110.5 34.6521C110.5 34.6586 110.5 34.6652 110.5 34.672C110.5 34.6787 110.5 34.6855 110.5 34.6924C110.5 34.6993 110.5 34.7063 110.5 34.7134C110.5 34.7205 110.5 34.7276 110.5 34.7349C110.5 34.7422 110.5 34.7495 110.5 34.757C110.5 34.7644 110.5 34.7719 110.5 34.7796C110.5 34.7872 110.5 34.7949 110.5 34.8027C110.5 34.8105 110.5 34.8184 110.5 34.8264C110.5 34.8344 110.5 34.8425 110.5 34.8506C110.5 34.8588 110.5 34.8671 110.5 34.8754C110.5 34.8838 110.5 34.8922 110.5 34.9007C110.5 34.9093 110.5 34.9179 110.5 34.9266C110.5 34.9353 110.5 34.9441 110.5 34.9529C110.5 34.9618 110.5 34.9708 110.5 34.9798C110.5 34.9889 110.5 34.998 110.5 35.0073C110.5 35.0165 110.5 35.0258 110.5 35.0352C110.5 35.0447 110.5 35.0541 110.5 35.0637C110.5 35.0733 110.5 35.083 110.5 35.0928C110.5 35.1025 110.5 35.1124 110.5 35.1223C110.5 35.1322 110.5 35.1422 110.5 35.1524C110.5 35.1625 110.5 35.1727 110.5 35.1829C110.5 35.1932 110.5 35.2036 110.5 35.214C110.5 35.2245 110.5 35.235 110.5 35.2457C110.5 35.2563 110.5 35.267 110.5 35.2778C110.5 35.2886 110.5 35.2995 110.5 35.3105C110.5 35.3214 110.5 35.3325 110.5 35.3436C110.5 35.3548 110.5 35.366 110.5 35.3773C110.5 35.3886 110.5 35.4 110.5 35.4115C110.5 35.423 110.5 35.4345 110.5 35.4462C110.5 35.4578 110.5 35.4696 110.5 35.4814C110.5 35.4932 110.5 35.5051 110.5 35.5171C110.5 35.5291 110.5 35.5412 110.5 35.5533C110.5 35.5655 110.5 35.5777 110.5 35.59C110.5 35.6024 110.5 35.6148 110.5 35.6273C110.5 35.6397 110.5 35.6523 110.5 35.665C110.5 35.6776 110.5 35.6904 110.5 35.7032C110.5 35.716 110.5 35.7289 110.5 35.7419C110.5 35.7549 110.5 35.768 110.5 35.7811C110.5 35.7943 110.5 35.8075 110.5 35.8208C110.5 35.8342 110.5 35.8475 110.5 35.861C110.5 35.8745 110.5 35.8881 110.5 35.9017C110.5 35.9154 110.5 35.9291 110.5 35.9429C110.5 35.9567 110.5 35.9706 110.5 35.9846C110.5 35.9985 110.5 36.0126 110.5 36.0267C110.5 36.0409 110.5 36.0551 110.5 36.0694C110.5 36.0837 110.5 36.098 110.5 36.1125C110.5 36.1269 110.5 36.1415 110.5 36.1561C110.5 36.1707 110.5 36.1854 110.5 36.2002C110.5 36.2149 110.5 36.2298 110.5 36.2447C110.5 36.2597 110.5 36.2747 110.5 36.2898C110.5 36.3049 110.5 36.32 110.5 36.3353C110.5 36.3505 110.5 36.3659 110.5 36.3813C110.5 36.3967 110.5 36.4122 110.5 36.4277C110.5 36.4433 110.5 36.459 110.5 36.4747C110.5 36.4904 110.5 36.5062 110.5 36.5221C110.5 36.538 110.5 36.5539 110.5 36.57C110.5 36.586 110.5 36.6021 110.5 36.6183C110.5 36.6345 110.5 36.6508 110.5 36.6671C110.5 36.6835 110.5 36.6999 110.5 36.7164C110.5 36.7329 110.5 36.7495 110.5 36.7661C110.5 36.7828 110.5 36.7995 110.5 36.8163C110.5 36.8331 110.5 36.85 110.5 36.867C110.5 36.8839 110.5 36.901 110.5 36.9181C110.5 36.9352 110.5 36.9524 110.5 36.9697C110.5 36.9869 110.5 37.0043 110.5 37.0217C110.5 37.0391 110.5 37.0566 110.5 37.0742C110.5 37.0917 110.5 37.1094 110.5 37.1271C110.5 37.1448 110.5 37.1626 110.5 37.1805C110.5 37.1983 110.5 37.2163 110.5 37.2343C110.5 37.2523 110.5 37.2704 110.5 37.2886C110.5 37.3067 110.5 37.325 110.5 37.3433C110.5 37.3616 110.5 37.38 110.5 37.3985C110.5 37.4169 110.5 37.4355 110.5 37.4541C110.5 37.4727 110.5 37.4914 110.5 37.5101C110.5 37.5289 110.5 37.5477 110.5 37.5666C110.5 37.5855 110.5 37.6045 110.5 37.6235C110.5 37.6426 110.5 37.6617 110.5 37.6809C110.5 37.7001 110.5 37.7194 110.5 37.7387C110.5 37.758 110.5 37.7775 110.5 37.7969C110.5 37.8164 110.5 37.836 110.5 37.8556C110.5 37.8752 110.5 37.8949 110.5 37.9147C110.5 37.9345 110.5 37.9543 110.5 37.9742C110.5 37.9942 110.5 38.0141 110.5 38.0342C110.5 38.0543 110.5 38.0744 110.5 38.0946C110.5 38.1148 110.5 38.1351 110.5 38.1554C110.5 38.1757 110.5 38.1961 110.5 38.2166C110.5 38.2371 110.5 38.2577 110.5 38.2783C110.5 38.2989 110.5 38.3196 110.5 38.3404C110.5 38.3611 110.5 38.3819 110.5 38.4028C110.5 38.4237 110.5 38.4447 110.5 38.4658C110.5 38.4868 110.5 38.5079 110.5 38.5291C110.5 38.5503 110.5 38.5715 110.5 38.5928C110.5 38.6141 110.5 38.6355 110.5 38.657C110.5 38.6784 110.5 38.7 110.5 38.7216C110.5 38.7431 110.5 38.7648 110.5 38.7865C110.5 38.8083 110.5 38.8301 110.5 38.8519C110.5 38.8738 110.5 38.8957 110.5 38.9177C110.5 38.9397 110.5 38.9618 110.5 38.9839C110.5 39.006 110.5 39.0282 110.5 39.0505C110.5 39.0728 110.5 39.0951 110.5 39.1175C110.5 39.1399 110.5 39.1624 110.5 39.1849C110.5 39.2074 110.5 39.2301 110.5 39.2527C110.5 39.2754 110.5 39.2981 110.5 39.3209C110.5 39.3437 110.5 39.3666 110.5 39.3895C110.5 39.4125 110.5 39.4354 110.5 39.4585C110.5 39.4816 110.5 39.5047 110.5 39.5279C110.5 39.5511 110.5 39.5744 110.5 39.5977C110.5 39.621 110.5 39.6444 110.5 39.6679C110.5 39.6913 110.5 39.7148 110.5 39.7384C110.5 39.762 110.5 39.7856 110.5 39.8094C110.5 39.8331 110.5 39.8568 110.5 39.8807C110.5 39.9045 110.5 39.9284 110.5 39.9524C110.5 39.9764 110.5 40.0004 110.5 40.0245C110.5 40.0486 110.5 40.0728 110.5 40.097C110.5 40.1212 110.5 40.1455 110.5 40.1698C110.5 40.1942 110.5 40.2186 110.5 40.2431C110.5 40.2676 110.5 40.2921 110.5 40.3167C110.5 40.3413 110.5 40.366 110.5 40.3907C110.5 40.4154 110.5 40.4402 110.5 40.4651C110.5 40.4899 110.5 40.5148 110.5 40.5398C110.5 40.5648 110.5 40.5898 110.5 40.6149C110.5 40.64 110.5 40.6652 110.5 40.6904C110.5 40.7156 110.5 40.7409 110.5 40.7662C110.5 40.7916 110.5 40.817 110.5 40.8425C110.5 40.8679 110.5 40.8934 110.5 40.919C110.5 40.9446 110.5 40.9703 110.5 40.996C110.5 41.0217 110.5 41.0475 110.5 41.0733C110.5 41.0991 110.5 41.125 110.5 41.1509C110.5 41.1769 110.5 41.2029 110.5 41.229C110.5 41.255 110.5 41.2812 110.5 41.3073C110.5 41.3335 110.5 41.3598 110.5 41.3861C110.5 41.4124 110.5 41.4388 110.5 41.4652C110.5 41.4916 110.5 41.5181 110.5 41.5446C110.5 41.5712 110.5 41.5978 110.5 41.6244C110.5 41.6511 110.5 41.6778 110.5 41.7046C110.5 41.7313 110.5 41.7582 110.5 41.7851C110.5 41.8119 110.5 41.8389 110.5 41.8659C110.5 41.8929 110.5 41.92 110.5 41.9471C110.5 41.9742 110.5 42.0014 110.5 42.0286C110.5 42.0559 110.5 42.0831 110.5 42.1105C110.5 42.1378 110.5 42.1652 110.5 42.1927C110.5 42.2202 110.5 42.2477 110.5 42.2753C110.5 42.3028 110.5 42.3305 110.5 42.3582C110.5 42.3858 110.5 42.4136 110.5 42.4414C110.5 42.4692 110.5 42.497 110.5 42.5249C110.5 42.5529 110.5 42.5808 110.5 42.6088C110.5 42.6369 110.5 42.6649 110.5 42.6931C110.5 42.7212 110.5 42.7494 110.5 42.7776C110.5 42.8059 110.5 42.8342 110.5 42.8625C110.5 42.8909 110.5 42.9193 110.5 42.9477C110.5 42.9762 110.5 43.0047 110.5 43.0333C110.5 43.0618 110.5 43.0905 110.5 43.1191C110.5 43.1478 110.5 43.1765 110.5 43.2053C110.5 43.2341 110.5 43.2629 110.5 43.2918C110.5 43.3207 110.5 43.3497 110.5 43.3787C110.5 43.4077 110.5 43.4367 110.5 43.4658C110.5 43.4949 110.5 43.5241 110.5 43.5533C110.5 43.5825 110.5 43.6118 110.5 43.6411C110.5 43.6704 110.5 43.6997 110.5 43.7292C110.5 43.7586 110.5 43.788 110.5 43.8176C110.5 43.8471 110.5 43.8767 110.5 43.9063C110.5 43.9359 110.5 43.9656 110.5 43.9953C110.5 44.025 110.5 44.0548 110.5 44.0847C110.5 44.1145 110.5 44.1444 110.5 44.1743C110.5 44.2042 110.5 44.2342 110.5 44.2642C110.5 44.2943 110.5 44.3244 110.5 44.3545C110.5 44.3846 110.5 44.4148 110.5 44.445C110.5 44.4753 110.5 44.5056 110.5 44.5359C110.5 44.5662 110.5 44.5966 110.5 44.6271C110.5 44.6575 110.5 44.688 110.5 44.7185C110.5 44.749 110.5 44.7796 110.5 44.8102C110.5 44.8409 110.5 44.8716 110.5 44.9023C110.5 44.933 110.5 44.9638 110.5 44.9946C110.5 45.0254 110.5 45.0563 110.5 45.0872C110.5 45.1182 110.5 45.1491 110.5 45.1802C110.5 45.2112 110.5 45.2422 110.5 45.2734C110.5 45.3045 110.5 45.3356 110.5 45.3669C110.5 45.3981 110.5 45.4293 110.5 45.4606C110.5 45.4919 110.5 45.5233 110.5 45.5547C110.5 45.5861 110.5 45.6175 110.5 45.649C110.5 45.6805 110.5 45.7121 110.5 45.7437C110.5 45.7752 110.5 45.8069 110.5 45.8386C110.5 45.8702 110.5 45.902 110.5 45.9337C110.5 45.9655 110.5 45.9973 110.5 46.0292C110.5 46.0611 110.5 46.093 110.5 46.1249C110.5 46.1569 110.5 46.1889 110.5 46.2209C110.5 46.253 110.5 46.2851 110.5 46.3172C110.5 46.3493 110.5 46.3815 110.5 46.4138C110.5 46.446 110.5 46.4783 110.5 46.5106C110.5 46.5429 110.5 46.5753 110.5 46.6077C110.5 46.6401 110.5 46.6725 110.5 46.705C110.5 46.7375 110.5 46.77 110.5 46.8026C110.5 46.8352 110.5 46.8678 110.5 46.9005C110.5 46.9332 110.5 46.9659 110.5 46.9986C110.5 47.0314 110.5 47.0642 110.5 47.097C110.5 47.1299 110.5 47.1628 110.5 47.1957C110.5 47.2286 110.5 47.2616 110.5 47.2946C110.5 47.3276 110.5 47.3607 110.5 47.3938C110.5 47.4269 110.5 47.46 110.5 47.4932C110.5 47.5264 110.5 47.5596 110.5 47.5929C110.5 47.6261 110.5 47.6595 110.5 47.6928C110.5 47.7262 110.5 47.7595 110.5 47.793C110.5 47.8264 110.5 47.8599 110.5 47.8934C110.5 47.9269 110.5 47.9605 110.5 47.9941C110.5 48.0277 110.5 48.0613 110.5 48.095C110.5 48.1287 110.5 48.1624 110.5 48.1962C110.5 48.2299 110.5 48.2637 110.5 48.2976C110.5 48.3314 110.5 48.3653 110.5 48.3992C110.5 48.4331 110.5 48.4671 110.5 48.5011C110.5 48.5351 110.5 48.5691 110.5 48.6032C110.5 48.6373 110.5 48.6714 110.5 48.7055C110.5 48.7397 110.5 48.7739 110.5 48.8081C110.5 48.8424 110.5 48.8766 110.5 48.911C110.5 48.9453 110.5 48.9796 110.5 49.014C110.5 49.0484 110.5 49.0828 110.5 49.1173C110.5 49.1518 110.5 49.1863 110.5 49.2208C110.5 49.2553 110.5 49.2899 110.5 49.3245C110.5 49.3592 110.5 49.3938 110.5 49.4285C110.5 49.4632 110.5 49.4979 110.5 49.5327C110.5 49.5675 110.5 49.6023 110.5 49.6371C110.5 49.6719 110.5 49.7068 110.5 49.7417C110.5 49.7766 110.5 49.8116 110.5 49.8466C110.5 49.8816 110.5 49.9166 110.5 49.9517C110.5 49.9867 110.5 50.0218 110.5 50.0569C110.5 50.0921 110.5 50.1272 110.5 50.1624C110.5 50.1976 110.5 50.2329 110.5 50.2682C110.5 50.3034 110.5 50.3387 110.5 50.3741C110.5 50.4094 110.5 50.4448 110.5 50.4802C110.5 50.5156 110.5 50.5511 110.5 50.5866C110.5 50.622 110.5 50.6576 110.5 50.6931C110.5 50.7287 110.5 50.7642 110.5 50.7999C110.5 50.8355 110.5 50.8711 110.5 50.9068C110.5 50.9425 110.5 50.9782 110.5 51.014C110.5 51.0497 110.5 51.0855 110.5 51.1214C110.5 51.1572 110.5 51.193 110.5 51.2289C110.5 51.2648 110.5 51.3007 110.5 51.3367C110.5 51.3726 110.5 51.4086 110.5 51.4446C110.5 51.4807 110.5 51.5167 110.5 51.5528C110.5 51.5889 110.5 51.625 110.5 51.6612C110.5 51.6973 110.5 51.7335 110.5 51.7697C110.5 51.8059 110.5 51.8422 110.5 51.8784C110.5 51.9147 110.5 51.951 110.5 51.9874C110.5 52.0237 110.5 52.0601 110.5 52.0965C110.5 52.1329 110.5 52.1693 110.5 52.2058C110.5 52.2422 110.5 52.2787 110.5 52.3153C110.5 52.3518 110.5 52.3883 110.5 52.4249C110.5 52.4615 110.5 52.4981 110.5 52.5348C110.5 52.5714 110.5 52.6081 110.5 52.6448C110.5 52.6815 110.5 52.7182 110.5 52.755C110.5 52.7918 110.5 52.8286 110.5 52.8654C110.5 52.9022 110.5 52.9391 110.5 52.976C110.5 53.0128 110.5 53.0497 110.5 53.0867C110.5 53.1236 110.5 53.1606 110.5 53.1976C110.5 53.2346 110.5 53.2716 110.5 53.3087C110.5 53.3457 110.5 53.3828 110.5 53.4199C110.5 53.457 110.5 53.4942 110.5 53.5313C110.5 53.5685 110.5 53.6057 110.5 53.6429C110.5 53.6801 110.5 53.7174 110.5 53.7547C110.5 53.792 110.5 53.8293 110.5 53.8666C110.5 53.9039 110.5 53.9413 110.5 53.9787C110.5 54.0161 110.5 54.0535 110.5 54.0909C110.5 54.1283 110.5 54.1658 110.5 54.2033C110.5 54.2408 110.5 54.2783 110.5 54.3159C110.5 54.3534 110.5 54.391 110.5 54.4286C110.5 54.4662 110.5 54.5038 110.5 54.5414C110.5 54.5791 110.5 54.6168 110.5 54.6545C110.5 54.6922 110.5 54.7299 110.5 54.7676C110.5 54.8054 110.5 54.8432 110.5 54.881C110.5 54.9188 110.5 54.9566 110.5 54.9944C110.5 55.0323 110.5 55.0701 110.5 55.108C110.5 55.1459 110.5 55.1839 110.5 55.2218C110.5 55.2598 110.5 55.2977 110.5 55.3357C110.5 55.3737 110.5 55.4117 110.5 55.4498C110.5 55.4878 110.5 55.5259 110.5 55.564C110.5 55.602 110.5 55.6402 110.5 55.6783C110.5 55.7164 110.5 55.7546 110.5 55.7928C110.5 55.8309 110.5 55.8691 110.5 55.9074C110.5 55.9456 110.5 55.9838 110.5 56.0221C110.5 56.0604 110.5 56.0987 110.5 56.137C110.5 56.1753 110.5 56.2136 110.5 56.252C110.5 56.2904 110.5 56.3287 110.5 56.3671C110.5 56.4055 110.5 56.444 110.5 56.4824C110.5 56.5209 110.5 56.5593 110.5 56.5978C110.5 56.6363 110.5 56.6748 110.5 56.7133C110.5 56.7519 110.5 56.7904 110.5 56.829C110.5 56.8676 110.5 56.9062 110.5 56.9448C110.5 56.9834 110.5 57.022 110.5 57.0607C110.5 57.0993 110.5 57.138 110.5 57.1767C110.5 57.2154 110.5 57.2541 110.5 57.2928C110.5 57.3315 110.5 57.3703 110.5 57.4091C110.5 57.4478 110.5 57.4866 110.5 57.5254C110.5 57.5642 110.5 57.6031 110.5 57.6419C110.5 57.6808 110.5 57.7196 110.5 57.7585C110.5 57.7974 110.5 57.8363 110.5 57.8752C110.5 57.9141 110.5 57.9531 110.5 57.992C110.5 58.031 110.5 58.07 110.5 58.109C110.5 58.1479 110.5 58.187 110.5 58.226C110.5 58.265 110.5 58.3041 110.5 58.3431C110.5 58.3822 110.5 58.4213 110.5 58.4604C110.5 58.4995 110.5 58.5386 110.5 58.5777C110.5 58.6168 110.5 58.656 110.5 58.6951C110.5 58.7343 110.5 58.7735 110.5 58.8127C110.5 58.8519 110.5 58.8911 110.5 58.9303C110.5 58.9696 110.5 59.0088 110.5 59.0481C110.5 59.0873 110.5 59.1266 110.5 59.1659C110.5 59.2052 110.5 59.2445 110.5 59.2838C110.5 59.3232 110.5 59.3625 110.5 59.4018C110.5 59.4412 110.5 59.4806 110.5 59.52C110.5 59.5593 110.5 59.5987 110.5 59.6381C110.5 59.6776 110.5 59.717 110.5 59.7564C110.5 59.7959 110.5 59.8353 110.5 59.8748C110.5 59.9143 110.5 59.9538 110.5 59.9933C110.5 60.0328 110.5 60.0723 110.5 60.1118C110.5 60.1513 110.5 60.1909 110.5 60.2304C110.5 60.27 110.5 60.3095 110.5 60.3491C110.5 60.3887 110.5 60.4283 110.5 60.4679C110.5 60.5075 110.5 60.5471 110.5 60.5868C110.5 60.6264 110.5 60.666 110.5 60.7057C110.5 60.7453 110.5 60.785 110.5 60.8247C110.5 60.8644 110.5 60.9041 110.5 60.9438C110.5 60.9835 110.5 61.0232 110.5 61.0629C110.5 61.1026 110.5 61.1424 110.5 61.1821C110.5 61.2219 110.5 61.2616 110.5 61.3014C110.5 61.3412 110.5 61.381 110.5 61.4208C110.5 61.4605 110.5 61.5004 110.5 61.5402C110.5 61.58 110.5 61.6198 110.5 61.6596C110.5 61.6995 110.5 61.7393 110.5 61.7792C110.5 61.819 110.5 61.8589 110.5 61.8988C110.5 61.9387 110.5 61.9786 110.5 62.0185C110.5 62.0583 110.5 62.0983 110.5 62.1382C110.5 62.1781 110.5 62.218 110.5 62.2579C110.5 62.2979 110.5 62.3378 110.5 62.3778C110.5 62.4177 110.5 62.4577 110.5 62.4977C110.5 62.5376 110.5 62.5776 110.5 62.6176C110.5 62.6576 110.5 62.6976 110.5 62.7376C110.5 62.7776 110.5 62.8176 110.5 62.8576C110.5 62.8976 110.5 62.9376 110.5 62.9777C110.5 63.0177 110.5 63.0577 110.5 63.0978C110.5 63.1378 110.5 63.1779 110.5 63.218C110.5 63.258 110.5 63.2981 110.5 63.3382C110.5 63.3782 110.5 63.4183 110.5 63.4584C110.5 63.4985 110.5 63.5386 110.5 63.5787C110.5 63.6188 110.5 63.6589 110.5 63.699C110.5 63.7391 110.5 63.7793 110.5 63.8194C110.5 63.8595 110.5 63.8997 110.5 63.9398C110.5 63.9799 110.5 64.0201 110.5 64.0602C110.5 64.1004 110.5 64.1405 110.5 64.1807C110.5 64.2208 110.5 64.261 110.5 64.3012C110.5 64.3414 110.5 64.3815 110.5 64.4217C110.5 64.4619 110.5 64.5021 110.5 64.5423C110.5 64.5824 110.5 64.6226 110.5 64.6628C110.5 64.703 110.5 64.7432 110.5 64.7834C110.5 64.8236 110.5 64.8638 110.5 64.9041C110.5 64.9443 110.5 64.9845 110.5 65.0247C110.5 65.0649 110.5 65.1051 110.5 65.1454C110.5 65.1856 110.5 65.2258 110.5 65.266C110.5 65.3063 110.5 65.3465 110.5 65.3867C110.5 65.427 110.5 65.4672 110.5 65.5075C110.5 65.5477 110.5 65.5879 110.5 65.6282C110.5 65.6684 110.5 65.7087 110.5 65.7489C110.5 65.7892 110.5 65.8294 110.5 65.8697C110.5 65.9099 110.5 65.9502 110.5 65.9904C110.5 66.0307 110.5 66.071 110.5 66.1112C110.5 66.1515 110.5 66.1917 110.5 66.232C110.5 66.2722 110.5 66.3125 110.5 66.3528C110.5 66.393 110.5 66.4333 110.5 66.4735C110.5 66.5138 110.5 66.5541 110.5 66.5943C110.5 66.6346 110.5 66.6749 110.5 66.7151C110.5 66.7554 110.5 66.7956 110.5 66.8359C110.5 66.8762 110.5 66.9164 110.5 66.9567C110.5 66.9969 110.5 67.0372 110.5 67.0775C110.5 67.1177 110.5 67.158 110.5 67.1982C110.5 67.2385 110.5 67.2788 110.5 67.319C110.5 67.3593 110.5 67.3995 110.5 67.4398C110.5 67.48 110.5 67.5203 110.5 67.5605C110.5 67.6008 110.5 67.641 110.5 67.6812C110.5 67.7215 110.5 67.7617 110.5 67.802C110.5 67.8422 110.5 67.8824 110.5 67.9227C110.5 67.9629 110.5 68.0031 110.5 68.0434C110.5 68.0836 110.5 68.1238 110.5 68.164C110.5 68.2043 110.5 68.2445 110.5 68.2847C110.5 68.3249 110.5 68.3651 110.5 68.4053C110.5 68.4455 110.5 68.4857 110.5 68.5259C110.5 68.5661 110.5 68.6063 110.5 68.6465C110.5 68.6867 110.5 68.7269 110.5 68.7671C110.5 68.8073 110.5 68.8474 110.5 68.8876C110.5 68.9278 110.5 68.968 110.5 69.0081C110.5 69.0483 110.5 69.0885 110.5 69.1286C110.5 69.1688 110.5 69.2089 110.5 69.2491C110.5 69.2892 110.5 69.3293 110.5 69.3695C110.5 69.4096 110.5 69.4497 110.5 69.4898C110.5 69.53 110.5 69.5701 110.5 69.6102C110.5 69.6503 110.5 69.6904 110.5 69.7305C110.5 69.7706 110.5 69.8107 110.5 69.8508C110.5 69.8909 110.5 69.9309 110.5 69.971C110.5 70.0111 110.5 70.0511 110.5 70.0912C110.5 70.1312 110.5 70.1713 110.5 70.2113C110.5 70.2514 110.5 70.2914 110.5 70.3314C110.5 70.3715 110.5 70.4115 110.5 70.4515C110.5 70.4915 110.5 70.5315 110.5 70.5715C110.5 70.6115 110.5 70.6515 110.5 70.6914C110.5 70.7314 110.5 70.7714 110.5 70.8113C110.5 70.8513 110.5 70.8913 110.5 70.9312C110.5 70.9711 110.5 71.0111 110.5 71.051C110.5 71.0909 110.5 71.1308 110.5 71.1707C110.5 71.2106 110.5 71.2505 110.5 71.2904C110.5 71.3303 110.5 71.3702 110.5 71.4101C110.5 71.4499 110.5 71.4898 110.5 71.5296C110.5 71.5695 110.5 71.6093 110.5 71.6491C110.5 71.689 110.5 71.7288 110.5 71.7686C110.5 71.8084 110.5 71.8482 110.5 71.888C110.5 71.9277 110.5 71.9675 110.5 72.0073C110.5 72.047 110.5 72.0868 110.5 72.1265C110.5 72.1663 110.5 72.206 110.5 72.2457C110.5 72.2854 110.5 72.3251 110.5 72.3648C110.5 72.4045 110.5 72.4442 110.5 72.4839C110.5 72.5235 110.5 72.5632 110.5 72.6028C110.5 72.6425 110.5 72.6821 110.5 72.7217C110.5 72.7613 110.5 72.8009 110.5 72.8405C110.5 72.8801 110.5 72.9197 110.5 72.9593C110.5 72.9988 110.5 73.0384 110.5 73.0779C110.5 73.1175 110.5 73.157 110.5 73.1965C110.5 73.236 110.5 73.2755 110.5 73.315C110.5 73.3545 110.5 73.394 110.5 73.4334C110.5 73.4729 110.5 73.5123 110.5 73.5517C110.5 73.5912 110.5 73.6306 110.5 73.67C110.5 73.7094 110.5 73.7488 110.5 73.7881C110.5 73.8275 110.5 73.8669 110.5 73.9062C110.5 73.9455 110.5 73.9849 110.5 74.0242C110.5 74.0635 110.5 74.1028 110.5 74.142C110.5 74.1813 110.5 74.2206 110.5 74.2598C110.5 74.2991 110.5 74.3383 110.5 74.3775C110.5 74.4167 110.5 74.4559 110.5 74.4951C110.5 74.5343 110.5 74.5734 110.5 74.6126C110.5 74.6517 110.5 74.6909 110.5 74.73C110.5 74.7691 110.5 74.8082 110.5 74.8473C110.5 74.8864 110.5 74.9254 110.5 74.9645C110.5 75.0035 110.5 75.0425 110.5 75.0816C110.5 75.1206 110.5 75.1596 110.5 75.1985C110.5 75.2375 110.5 75.2765 110.5 75.3154C110.5 75.3543 110.5 75.3932 110.5 75.4322C110.5 75.4711 110.5 75.5099 110.5 75.5488C110.5 75.5877 110.5 75.6265 110.5 75.6653C110.5 75.7042 110.5 75.743 110.5 75.7818C110.5 75.8205 110.5 75.8593 110.5 75.8981C110.5 75.9368 110.5 75.9755 110.5 76.0143C110.5 76.053 110.5 76.0917 110.5 76.1303C110.5 76.169 110.5 76.2077 110.5 76.2463C110.5 76.2849 110.5 76.3235 110.5 76.3621C110.5 76.4007 110.5 76.4393 110.5 76.4778C110.5 76.5164 110.5 76.5549 110.5 76.5934C110.5 76.6319 110.5 76.6704 110.5 76.7089C110.5 76.7473 110.5 76.7858 110.5 76.8242C110.5 76.8626 110.5 76.901 110.5 76.9394C110.5 76.9778 110.5 77.0162 110.5 77.0545C110.5 77.0928 110.5 77.1311 110.5 77.1694C110.5 77.2077 110.5 77.246 110.5 77.2842C110.5 77.3225 110.5 77.3607 110.5 77.3989C110.5 77.4371 110.5 77.4753 110.5 77.5135C110.5 77.5516 110.5 77.5897 110.5 77.6278C110.5 77.666 110.5 77.704 110.5 77.7421C110.5 77.7802 110.5 77.8182 110.5 77.8562C110.5 77.8942 110.5 77.9322 110.5 77.9702C110.5 78.0082 110.5 78.0461 110.5 78.084C110.5 78.122 110.5 78.1599 110.5 78.1977C110.5 78.2356 110.5 78.2735 110.5 78.3113C110.5 78.3491 110.5 78.3869 110.5 78.4247C110.5 78.4624 110.5 78.5002 110.5 78.5379C110.5 78.5756 110.5 78.6133 110.5 78.651C110.5 78.6887 110.5 78.7263 110.5 78.7639C110.5 78.8016 110.5 78.8392 110.5 78.8767C110.5 78.9143 110.5 78.9518 110.5 78.9894C110.5 79.0269 110.5 79.0644 110.5 79.1018C110.5 79.1393 110.5 79.1767 110.5 79.2141C110.5 79.2516 110.5 79.2889 110.5 79.3263C110.5 79.3637 110.5 79.401 110.5 79.4383C110.5 79.4756 110.5 79.5129 110.5 79.5501C110.5 79.5874 110.5 79.6246 110.5 79.6618H117.5C117.5 79.6246 117.5 79.5874 117.5 79.5501C117.5 79.5129 117.5 79.4756 117.5 79.4383C117.5 79.401 117.5 79.3637 117.5 79.3263C117.5 79.2889 117.5 79.2516 117.5 79.2141C117.5 79.1767 117.5 79.1393 117.5 79.1018C117.5 79.0644 117.5 79.0269 117.5 78.9894C117.5 78.9518 117.5 78.9143 117.5 78.8767C117.5 78.8392 117.5 78.8016 117.5 78.7639C117.5 78.7263 117.5 78.6887 117.5 78.651C117.5 78.6133 117.5 78.5756 117.5 78.5379C117.5 78.5002 117.5 78.4624 117.5 78.4247C117.5 78.3869 117.5 78.3491 117.5 78.3113C117.5 78.2735 117.5 78.2356 117.5 78.1977C117.5 78.1599 117.5 78.122 117.5 78.084C117.5 78.0461 117.5 78.0082 117.5 77.9702C117.5 77.9322 117.5 77.8942 117.5 77.8562C117.5 77.8182 117.5 77.7802 117.5 77.7421C117.5 77.704 117.5 77.666 117.5 77.6278C117.5 77.5897 117.5 77.5516 117.5 77.5135C117.5 77.4753 117.5 77.4371 117.5 77.3989C117.5 77.3607 117.5 77.3225 117.5 77.2842C117.5 77.246 117.5 77.2077 117.5 77.1694C117.5 77.1311 117.5 77.0928 117.5 77.0545C117.5 77.0162 117.5 76.9778 117.5 76.9394C117.5 76.901 117.5 76.8626 117.5 76.8242C117.5 76.7858 117.5 76.7473 117.5 76.7089C117.5 76.6704 117.5 76.6319 117.5 76.5934C117.5 76.5549 117.5 76.5164 117.5 76.4778C117.5 76.4393 117.5 76.4007 117.5 76.3621C117.5 76.3235 117.5 76.2849 117.5 76.2463C117.5 76.2077 117.5 76.169 117.5 76.1303C117.5 76.0917 117.5 76.053 117.5 76.0143C117.5 75.9755 117.5 75.9368 117.5 75.8981C117.5 75.8593 117.5 75.8205 117.5 75.7818C117.5 75.743 117.5 75.7042 117.5 75.6653C117.5 75.6265 117.5 75.5877 117.5 75.5488C117.5 75.5099 117.5 75.4711 117.5 75.4322C117.5 75.3932 117.5 75.3543 117.5 75.3154C117.5 75.2765 117.5 75.2375 117.5 75.1985C117.5 75.1596 117.5 75.1206 117.5 75.0816C117.5 75.0425 117.5 75.0035 117.5 74.9645C117.5 74.9254 117.5 74.8864 117.5 74.8473C117.5 74.8082 117.5 74.7691 117.5 74.73C117.5 74.6909 117.5 74.6517 117.5 74.6126C117.5 74.5734 117.5 74.5343 117.5 74.4951C117.5 74.4559 117.5 74.4167 117.5 74.3775C117.5 74.3383 117.5 74.2991 117.5 74.2598C117.5 74.2206 117.5 74.1813 117.5 74.142C117.5 74.1028 117.5 74.0635 117.5 74.0242C117.5 73.9849 117.5 73.9455 117.5 73.9062C117.5 73.8669 117.5 73.8275 117.5 73.7881C117.5 73.7488 117.5 73.7094 117.5 73.67C117.5 73.6306 117.5 73.5912 117.5 73.5517C117.5 73.5123 117.5 73.4729 117.5 73.4334C117.5 73.394 117.5 73.3545 117.5 73.315C117.5 73.2755 117.5 73.236 117.5 73.1965C117.5 73.157 117.5 73.1175 117.5 73.0779C117.5 73.0384 117.5 72.9988 117.5 72.9593C117.5 72.9197 117.5 72.8801 117.5 72.8405C117.5 72.8009 117.5 72.7613 117.5 72.7217C117.5 72.6821 117.5 72.6425 117.5 72.6028C117.5 72.5632 117.5 72.5235 117.5 72.4839C117.5 72.4442 117.5 72.4045 117.5 72.3648C117.5 72.3251 117.5 72.2854 117.5 72.2457C117.5 72.206 117.5 72.1663 117.5 72.1265C117.5 72.0868 117.5 72.047 117.5 72.0073C117.5 71.9675 117.5 71.9277 117.5 71.888C117.5 71.8482 117.5 71.8084 117.5 71.7686C117.5 71.7288 117.5 71.689 117.5 71.6491C117.5 71.6093 117.5 71.5695 117.5 71.5296C117.5 71.4898 117.5 71.4499 117.5 71.4101C117.5 71.3702 117.5 71.3303 117.5 71.2904C117.5 71.2505 117.5 71.2106 117.5 71.1707C117.5 71.1308 117.5 71.0909 117.5 71.051C117.5 71.0111 117.5 70.9711 117.5 70.9312C117.5 70.8913 117.5 70.8513 117.5 70.8113C117.5 70.7714 117.5 70.7314 117.5 70.6914C117.5 70.6515 117.5 70.6115 117.5 70.5715C117.5 70.5315 117.5 70.4915 117.5 70.4515C117.5 70.4115 117.5 70.3715 117.5 70.3314C117.5 70.2914 117.5 70.2514 117.5 70.2113C117.5 70.1713 117.5 70.1312 117.5 70.0912C117.5 70.0511 117.5 70.0111 117.5 69.971C117.5 69.9309 117.5 69.8909 117.5 69.8508C117.5 69.8107 117.5 69.7706 117.5 69.7305C117.5 69.6904 117.5 69.6503 117.5 69.6102C117.5 69.5701 117.5 69.53 117.5 69.4898C117.5 69.4497 117.5 69.4096 117.5 69.3695C117.5 69.3293 117.5 69.2892 117.5 69.2491C117.5 69.2089 117.5 69.1688 117.5 69.1286C117.5 69.0885 117.5 69.0483 117.5 69.0081C117.5 68.968 117.5 68.9278 117.5 68.8876C117.5 68.8474 117.5 68.8073 117.5 68.7671C117.5 68.7269 117.5 68.6867 117.5 68.6465C117.5 68.6063 117.5 68.5661 117.5 68.5259C117.5 68.4857 117.5 68.4455 117.5 68.4053C117.5 68.3651 117.5 68.3249 117.5 68.2847C117.5 68.2445 117.5 68.2043 117.5 68.164C117.5 68.1238 117.5 68.0836 117.5 68.0434C117.5 68.0031 117.5 67.9629 117.5 67.9227C117.5 67.8824 117.5 67.8422 117.5 67.802C117.5 67.7617 117.5 67.7215 117.5 67.6812C117.5 67.641 117.5 67.6008 117.5 67.5605C117.5 67.5203 117.5 67.48 117.5 67.4398C117.5 67.3995 117.5 67.3593 117.5 67.319C117.5 67.2788 117.5 67.2385 117.5 67.1982C117.5 67.158 117.5 67.1177 117.5 67.0775C117.5 67.0372 117.5 66.9969 117.5 66.9567C117.5 66.9164 117.5 66.8762 117.5 66.8359C117.5 66.7956 117.5 66.7554 117.5 66.7151C117.5 66.6749 117.5 66.6346 117.5 66.5943C117.5 66.5541 117.5 66.5138 117.5 66.4735C117.5 66.4333 117.5 66.393 117.5 66.3528C117.5 66.3125 117.5 66.2722 117.5 66.232C117.5 66.1917 117.5 66.1515 117.5 66.1112C117.5 66.071 117.5 66.0307 117.5 65.9904C117.5 65.9502 117.5 65.9099 117.5 65.8697C117.5 65.8294 117.5 65.7892 117.5 65.7489C117.5 65.7087 117.5 65.6684 117.5 65.6282C117.5 65.5879 117.5 65.5477 117.5 65.5075C117.5 65.4672 117.5 65.427 117.5 65.3867C117.5 65.3465 117.5 65.3063 117.5 65.266C117.5 65.2258 117.5 65.1856 117.5 65.1454C117.5 65.1051 117.5 65.0649 117.5 65.0247C117.5 64.9845 117.5 64.9443 117.5 64.9041C117.5 64.8638 117.5 64.8236 117.5 64.7834C117.5 64.7432 117.5 64.703 117.5 64.6628C117.5 64.6226 117.5 64.5824 117.5 64.5423C117.5 64.5021 117.5 64.4619 117.5 64.4217C117.5 64.3815 117.5 64.3414 117.5 64.3012C117.5 64.261 117.5 64.2208 117.5 64.1807C117.5 64.1405 117.5 64.1004 117.5 64.0602C117.5 64.0201 117.5 63.9799 117.5 63.9398C117.5 63.8997 117.5 63.8595 117.5 63.8194C117.5 63.7793 117.5 63.7391 117.5 63.699C117.5 63.6589 117.5 63.6188 117.5 63.5787C117.5 63.5386 117.5 63.4985 117.5 63.4584C117.5 63.4183 117.5 63.3782 117.5 63.3382C117.5 63.2981 117.5 63.258 117.5 63.218C117.5 63.1779 117.5 63.1378 117.5 63.0978C117.5 63.0577 117.5 63.0177 117.5 62.9777C117.5 62.9376 117.5 62.8976 117.5 62.8576C117.5 62.8176 117.5 62.7776 117.5 62.7376C117.5 62.6976 117.5 62.6576 117.5 62.6176C117.5 62.5776 117.5 62.5376 117.5 62.4977C117.5 62.4577 117.5 62.4177 117.5 62.3778C117.5 62.3378 117.5 62.2979 117.5 62.2579C117.5 62.218 117.5 62.1781 117.5 62.1382C117.5 62.0983 117.5 62.0583 117.5 62.0185C117.5 61.9786 117.5 61.9387 117.5 61.8988C117.5 61.8589 117.5 61.819 117.5 61.7792C117.5 61.7393 117.5 61.6995 117.5 61.6596C117.5 61.6198 117.5 61.58 117.5 61.5402C117.5 61.5004 117.5 61.4605 117.5 61.4208C117.5 61.381 117.5 61.3412 117.5 61.3014C117.5 61.2616 117.5 61.2219 117.5 61.1821C117.5 61.1424 117.5 61.1026 117.5 61.0629C117.5 61.0232 117.5 60.9835 117.5 60.9438C117.5 60.9041 117.5 60.8644 117.5 60.8247C117.5 60.785 117.5 60.7453 117.5 60.7057C117.5 60.666 117.5 60.6264 117.5 60.5868C117.5 60.5471 117.5 60.5075 117.5 60.4679C117.5 60.4283 117.5 60.3887 117.5 60.3491C117.5 60.3095 117.5 60.27 117.5 60.2304C117.5 60.1909 117.5 60.1513 117.5 60.1118C117.5 60.0723 117.5 60.0328 117.5 59.9933C117.5 59.9538 117.5 59.9143 117.5 59.8748C117.5 59.8353 117.5 59.7959 117.5 59.7564C117.5 59.717 117.5 59.6776 117.5 59.6381C117.5 59.5987 117.5 59.5593 117.5 59.52C117.5 59.4806 117.5 59.4412 117.5 59.4018C117.5 59.3625 117.5 59.3232 117.5 59.2838C117.5 59.2445 117.5 59.2052 117.5 59.1659C117.5 59.1266 117.5 59.0873 117.5 59.0481C117.5 59.0088 117.5 58.9696 117.5 58.9303C117.5 58.8911 117.5 58.8519 117.5 58.8127C117.5 58.7735 117.5 58.7343 117.5 58.6951C117.5 58.656 117.5 58.6168 117.5 58.5777C117.5 58.5386 117.5 58.4995 117.5 58.4604C117.5 58.4213 117.5 58.3822 117.5 58.3431C117.5 58.3041 117.5 58.265 117.5 58.226C117.5 58.187 117.5 58.1479 117.5 58.109C117.5 58.07 117.5 58.031 117.5 57.992C117.5 57.9531 117.5 57.9141 117.5 57.8752C117.5 57.8363 117.5 57.7974 117.5 57.7585C117.5 57.7196 117.5 57.6808 117.5 57.6419C117.5 57.6031 117.5 57.5642 117.5 57.5254C117.5 57.4866 117.5 57.4478 117.5 57.4091C117.5 57.3703 117.5 57.3315 117.5 57.2928C117.5 57.2541 117.5 57.2154 117.5 57.1767C117.5 57.138 117.5 57.0993 117.5 57.0607C117.5 57.022 117.5 56.9834 117.5 56.9448C117.5 56.9062 117.5 56.8676 117.5 56.829C117.5 56.7904 117.5 56.7519 117.5 56.7133C117.5 56.6748 117.5 56.6363 117.5 56.5978C117.5 56.5593 117.5 56.5209 117.5 56.4824C117.5 56.444 117.5 56.4055 117.5 56.3671C117.5 56.3287 117.5 56.2904 117.5 56.252C117.5 56.2136 117.5 56.1753 117.5 56.137C117.5 56.0987 117.5 56.0604 117.5 56.0221C117.5 55.9838 117.5 55.9456 117.5 55.9074C117.5 55.8691 117.5 55.8309 117.5 55.7928C117.5 55.7546 117.5 55.7164 117.5 55.6783C117.5 55.6402 117.5 55.602 117.5 55.564C117.5 55.5259 117.5 55.4878 117.5 55.4498C117.5 55.4117 117.5 55.3737 117.5 55.3357C117.5 55.2977 117.5 55.2598 117.5 55.2218C117.5 55.1839 117.5 55.1459 117.5 55.108C117.5 55.0701 117.5 55.0323 117.5 54.9944C117.5 54.9566 117.5 54.9188 117.5 54.881C117.5 54.8432 117.5 54.8054 117.5 54.7676C117.5 54.7299 117.5 54.6922 117.5 54.6545C117.5 54.6168 117.5 54.5791 117.5 54.5414C117.5 54.5038 117.5 54.4662 117.5 54.4286C117.5 54.391 117.5 54.3534 117.5 54.3159C117.5 54.2783 117.5 54.2408 117.5 54.2033C117.5 54.1658 117.5 54.1283 117.5 54.0909C117.5 54.0535 117.5 54.0161 117.5 53.9787C117.5 53.9413 117.5 53.9039 117.5 53.8666C117.5 53.8293 117.5 53.792 117.5 53.7547C117.5 53.7174 117.5 53.6801 117.5 53.6429C117.5 53.6057 117.5 53.5685 117.5 53.5313C117.5 53.4942 117.5 53.457 117.5 53.4199C117.5 53.3828 117.5 53.3457 117.5 53.3087C117.5 53.2716 117.5 53.2346 117.5 53.1976C117.5 53.1606 117.5 53.1236 117.5 53.0867C117.5 53.0497 117.5 53.0128 117.5 52.976C117.5 52.9391 117.5 52.9022 117.5 52.8654C117.5 52.8286 117.5 52.7918 117.5 52.755C117.5 52.7182 117.5 52.6815 117.5 52.6448C117.5 52.6081 117.5 52.5714 117.5 52.5348C117.5 52.4981 117.5 52.4615 117.5 52.4249C117.5 52.3883 117.5 52.3518 117.5 52.3153C117.5 52.2787 117.5 52.2422 117.5 52.2058C117.5 52.1693 117.5 52.1329 117.5 52.0965C117.5 52.0601 117.5 52.0237 117.5 51.9874C117.5 51.951 117.5 51.9147 117.5 51.8784C117.5 51.8422 117.5 51.8059 117.5 51.7697C117.5 51.7335 117.5 51.6973 117.5 51.6612C117.5 51.625 117.5 51.5889 117.5 51.5528C117.5 51.5167 117.5 51.4807 117.5 51.4446C117.5 51.4086 117.5 51.3726 117.5 51.3367C117.5 51.3007 117.5 51.2648 117.5 51.2289C117.5 51.193 117.5 51.1572 117.5 51.1214C117.5 51.0855 117.5 51.0497 117.5 51.014C117.5 50.9782 117.5 50.9425 117.5 50.9068C117.5 50.8711 117.5 50.8355 117.5 50.7999C117.5 50.7642 117.5 50.7287 117.5 50.6931C117.5 50.6576 117.5 50.622 117.5 50.5866C117.5 50.5511 117.5 50.5156 117.5 50.4802C117.5 50.4448 117.5 50.4094 117.5 50.3741C117.5 50.3387 117.5 50.3034 117.5 50.2682C117.5 50.2329 117.5 50.1976 117.5 50.1624C117.5 50.1272 117.5 50.0921 117.5 50.0569C117.5 50.0218 117.5 49.9867 117.5 49.9517C117.5 49.9166 117.5 49.8816 117.5 49.8466C117.5 49.8116 117.5 49.7766 117.5 49.7417C117.5 49.7068 117.5 49.6719 117.5 49.6371C117.5 49.6023 117.5 49.5675 117.5 49.5327C117.5 49.4979 117.5 49.4632 117.5 49.4285C117.5 49.3938 117.5 49.3592 117.5 49.3245C117.5 49.2899 117.5 49.2553 117.5 49.2208C117.5 49.1863 117.5 49.1518 117.5 49.1173C117.5 49.0828 117.5 49.0484 117.5 49.014C117.5 48.9796 117.5 48.9453 117.5 48.911C117.5 48.8766 117.5 48.8424 117.5 48.8081C117.5 48.7739 117.5 48.7397 117.5 48.7055C117.5 48.6714 117.5 48.6373 117.5 48.6032C117.5 48.5691 117.5 48.5351 117.5 48.5011C117.5 48.4671 117.5 48.4331 117.5 48.3992C117.5 48.3653 117.5 48.3314 117.5 48.2976C117.5 48.2637 117.5 48.2299 117.5 48.1962C117.5 48.1624 117.5 48.1287 117.5 48.095C117.5 48.0613 117.5 48.0277 117.5 47.9941C117.5 47.9605 117.5 47.9269 117.5 47.8934C117.5 47.8599 117.5 47.8264 117.5 47.793C117.5 47.7595 117.5 47.7262 117.5 47.6928C117.5 47.6595 117.5 47.6261 117.5 47.5929C117.5 47.5596 117.5 47.5264 117.5 47.4932C117.5 47.46 117.5 47.4269 117.5 47.3938C117.5 47.3607 117.5 47.3276 117.5 47.2946C117.5 47.2616 117.5 47.2286 117.5 47.1957C117.5 47.1628 117.5 47.1299 117.5 47.097C117.5 47.0642 117.5 47.0314 117.5 46.9986C117.5 46.9659 117.5 46.9332 117.5 46.9005C117.5 46.8678 117.5 46.8352 117.5 46.8026C117.5 46.77 117.5 46.7375 117.5 46.705C117.5 46.6725 117.5 46.6401 117.5 46.6077C117.5 46.5753 117.5 46.5429 117.5 46.5106C117.5 46.4783 117.5 46.446 117.5 46.4138C117.5 46.3815 117.5 46.3493 117.5 46.3172C117.5 46.2851 117.5 46.253 117.5 46.2209C117.5 46.1889 117.5 46.1569 117.5 46.1249C117.5 46.093 117.5 46.0611 117.5 46.0292C117.5 45.9973 117.5 45.9655 117.5 45.9337C117.5 45.902 117.5 45.8702 117.5 45.8386C117.5 45.8069 117.5 45.7752 117.5 45.7437C117.5 45.7121 117.5 45.6805 117.5 45.649C117.5 45.6175 117.5 45.5861 117.5 45.5547C117.5 45.5233 117.5 45.4919 117.5 45.4606C117.5 45.4293 117.5 45.3981 117.5 45.3669C117.5 45.3356 117.5 45.3045 117.5 45.2734C117.5 45.2422 117.5 45.2112 117.5 45.1802C117.5 45.1491 117.5 45.1182 117.5 45.0872C117.5 45.0563 117.5 45.0254 117.5 44.9946C117.5 44.9638 117.5 44.933 117.5 44.9023C117.5 44.8716 117.5 44.8409 117.5 44.8102C117.5 44.7796 117.5 44.749 117.5 44.7185C117.5 44.688 117.5 44.6575 117.5 44.6271C117.5 44.5966 117.5 44.5662 117.5 44.5359C117.5 44.5056 117.5 44.4753 117.5 44.445C117.5 44.4148 117.5 44.3846 117.5 44.3545C117.5 44.3244 117.5 44.2943 117.5 44.2642C117.5 44.2342 117.5 44.2042 117.5 44.1743C117.5 44.1444 117.5 44.1145 117.5 44.0847C117.5 44.0548 117.5 44.025 117.5 43.9953C117.5 43.9656 117.5 43.9359 117.5 43.9063C117.5 43.8767 117.5 43.8471 117.5 43.8176C117.5 43.788 117.5 43.7586 117.5 43.7292C117.5 43.6997 117.5 43.6704 117.5 43.6411C117.5 43.6118 117.5 43.5825 117.5 43.5533C117.5 43.5241 117.5 43.4949 117.5 43.4658C117.5 43.4367 117.5 43.4077 117.5 43.3787C117.5 43.3497 117.5 43.3207 117.5 43.2918C117.5 43.2629 117.5 43.2341 117.5 43.2053C117.5 43.1765 117.5 43.1478 117.5 43.1191C117.5 43.0905 117.5 43.0618 117.5 43.0333C117.5 43.0047 117.5 42.9762 117.5 42.9477C117.5 42.9193 117.5 42.8909 117.5 42.8625C117.5 42.8342 117.5 42.8059 117.5 42.7776C117.5 42.7494 117.5 42.7212 117.5 42.6931C117.5 42.6649 117.5 42.6369 117.5 42.6088C117.5 42.5808 117.5 42.5529 117.5 42.5249C117.5 42.497 117.5 42.4692 117.5 42.4414C117.5 42.4136 117.5 42.3858 117.5 42.3582C117.5 42.3305 117.5 42.3028 117.5 42.2753C117.5 42.2477 117.5 42.2202 117.5 42.1927C117.5 42.1652 117.5 42.1378 117.5 42.1105C117.5 42.0831 117.5 42.0559 117.5 42.0286C117.5 42.0014 117.5 41.9742 117.5 41.9471C117.5 41.92 117.5 41.8929 117.5 41.8659C117.5 41.8389 117.5 41.8119 117.5 41.7851C117.5 41.7582 117.5 41.7313 117.5 41.7046C117.5 41.6778 117.5 41.6511 117.5 41.6244C117.5 41.5978 117.5 41.5712 117.5 41.5446C117.5 41.5181 117.5 41.4916 117.5 41.4652C117.5 41.4388 117.5 41.4124 117.5 41.3861C117.5 41.3598 117.5 41.3335 117.5 41.3073C117.5 41.2812 117.5 41.255 117.5 41.229C117.5 41.2029 117.5 41.1769 117.5 41.1509C117.5 41.125 117.5 41.0991 117.5 41.0733C117.5 41.0475 117.5 41.0217 117.5 40.996C117.5 40.9703 117.5 40.9446 117.5 40.919C117.5 40.8934 117.5 40.8679 117.5 40.8425C117.5 40.817 117.5 40.7916 117.5 40.7662C117.5 40.7409 117.5 40.7156 117.5 40.6904C117.5 40.6652 117.5 40.64 117.5 40.6149C117.5 40.5898 117.5 40.5648 117.5 40.5398C117.5 40.5148 117.5 40.4899 117.5 40.4651C117.5 40.4402 117.5 40.4154 117.5 40.3907C117.5 40.366 117.5 40.3413 117.5 40.3167C117.5 40.2921 117.5 40.2676 117.5 40.2431C117.5 40.2186 117.5 40.1942 117.5 40.1698C117.5 40.1455 117.5 40.1212 117.5 40.097C117.5 40.0728 117.5 40.0486 117.5 40.0245C117.5 40.0004 117.5 39.9764 117.5 39.9524C117.5 39.9284 117.5 39.9045 117.5 39.8807C117.5 39.8568 117.5 39.8331 117.5 39.8094C117.5 39.7856 117.5 39.762 117.5 39.7384C117.5 39.7148 117.5 39.6913 117.5 39.6679C117.5 39.6444 117.5 39.621 117.5 39.5977C117.5 39.5744 117.5 39.5511 117.5 39.5279C117.5 39.5047 117.5 39.4816 117.5 39.4585C117.5 39.4354 117.5 39.4125 117.5 39.3895C117.5 39.3666 117.5 39.3437 117.5 39.3209C117.5 39.2981 117.5 39.2754 117.5 39.2527C117.5 39.2301 117.5 39.2074 117.5 39.1849C117.5 39.1624 117.5 39.1399 117.5 39.1175C117.5 39.0951 117.5 39.0728 117.5 39.0505C117.5 39.0282 117.5 39.006 117.5 38.9839C117.5 38.9618 117.5 38.9397 117.5 38.9177C117.5 38.8957 117.5 38.8738 117.5 38.8519C117.5 38.8301 117.5 38.8083 117.5 38.7865C117.5 38.7648 117.5 38.7431 117.5 38.7216C117.5 38.7 117.5 38.6784 117.5 38.657C117.5 38.6355 117.5 38.6141 117.5 38.5928C117.5 38.5715 117.5 38.5503 117.5 38.5291C117.5 38.5079 117.5 38.4868 117.5 38.4658C117.5 38.4447 117.5 38.4237 117.5 38.4028C117.5 38.3819 117.5 38.3611 117.5 38.3404C117.5 38.3196 117.5 38.2989 117.5 38.2783C117.5 38.2577 117.5 38.2371 117.5 38.2166C117.5 38.1961 117.5 38.1757 117.5 38.1554C117.5 38.1351 117.5 38.1148 117.5 38.0946C117.5 38.0744 117.5 38.0543 117.5 38.0342C117.5 38.0141 117.5 37.9942 117.5 37.9742C117.5 37.9543 117.5 37.9345 117.5 37.9147C117.5 37.8949 117.5 37.8752 117.5 37.8556C117.5 37.836 117.5 37.8164 117.5 37.7969C117.5 37.7775 117.5 37.758 117.5 37.7387C117.5 37.7194 117.5 37.7001 117.5 37.6809C117.5 37.6617 117.5 37.6426 117.5 37.6235C117.5 37.6045 117.5 37.5855 117.5 37.5666C117.5 37.5477 117.5 37.5289 117.5 37.5101C117.5 37.4914 117.5 37.4727 117.5 37.4541C117.5 37.4355 117.5 37.4169 117.5 37.3985C117.5 37.38 117.5 37.3616 117.5 37.3433C117.5 37.325 117.5 37.3067 117.5 37.2886C117.5 37.2704 117.5 37.2523 117.5 37.2343C117.5 37.2163 117.5 37.1983 117.5 37.1805C117.5 37.1626 117.5 37.1448 117.5 37.1271C117.5 37.1094 117.5 37.0917 117.5 37.0742C117.5 37.0566 117.5 37.0391 117.5 37.0217C117.5 37.0043 117.5 36.9869 117.5 36.9697C117.5 36.9524 117.5 36.9352 117.5 36.9181C117.5 36.901 117.5 36.8839 117.5 36.867C117.5 36.85 117.5 36.8331 117.5 36.8163C117.5 36.7995 117.5 36.7828 117.5 36.7661C117.5 36.7495 117.5 36.7329 117.5 36.7164C117.5 36.6999 117.5 36.6835 117.5 36.6671C117.5 36.6508 117.5 36.6345 117.5 36.6183C117.5 36.6021 117.5 36.586 117.5 36.57C117.5 36.5539 117.5 36.538 117.5 36.5221C117.5 36.5062 117.5 36.4904 117.5 36.4747C117.5 36.459 117.5 36.4433 117.5 36.4277C117.5 36.4122 117.5 36.3967 117.5 36.3813C117.5 36.3659 117.5 36.3505 117.5 36.3353C117.5 36.32 117.5 36.3049 117.5 36.2898C117.5 36.2747 117.5 36.2597 117.5 36.2447C117.5 36.2298 117.5 36.2149 117.5 36.2002C117.5 36.1854 117.5 36.1707 117.5 36.1561C117.5 36.1415 117.5 36.1269 117.5 36.1125C117.5 36.098 117.5 36.0837 117.5 36.0694C117.5 36.0551 117.5 36.0409 117.5 36.0267C117.5 36.0126 117.5 35.9985 117.5 35.9846C117.5 35.9706 117.5 35.9567 117.5 35.9429C117.5 35.9291 117.5 35.9154 117.5 35.9017C117.5 35.8881 117.5 35.8745 117.5 35.861C117.5 35.8475 117.5 35.8342 117.5 35.8208C117.5 35.8075 117.5 35.7943 117.5 35.7811C117.5 35.768 117.5 35.7549 117.5 35.7419C117.5 35.7289 117.5 35.716 117.5 35.7032C117.5 35.6904 117.5 35.6776 117.5 35.665C117.5 35.6523 117.5 35.6397 117.5 35.6273C117.5 35.6148 117.5 35.6024 117.5 35.59C117.5 35.5777 117.5 35.5655 117.5 35.5533C117.5 35.5412 117.5 35.5291 117.5 35.5171C117.5 35.5051 117.5 35.4932 117.5 35.4814C117.5 35.4696 117.5 35.4578 117.5 35.4462C117.5 35.4345 117.5 35.423 117.5 35.4115C117.5 35.4 117.5 35.3886 117.5 35.3773C117.5 35.366 117.5 35.3548 117.5 35.3436C117.5 35.3325 117.5 35.3214 117.5 35.3105C117.5 35.2995 117.5 35.2886 117.5 35.2778C117.5 35.267 117.5 35.2563 117.5 35.2457C117.5 35.235 117.5 35.2245 117.5 35.214C117.5 35.2036 117.5 35.1932 117.5 35.1829C117.5 35.1727 117.5 35.1625 117.5 35.1524C117.5 35.1422 117.5 35.1322 117.5 35.1223C117.5 35.1124 117.5 35.1025 117.5 35.0928C117.5 35.083 117.5 35.0733 117.5 35.0637C117.5 35.0541 117.5 35.0447 117.5 35.0352C117.5 35.0258 117.5 35.0165 117.5 35.0073C117.5 34.998 117.5 34.9889 117.5 34.9798C117.5 34.9708 117.5 34.9618 117.5 34.9529C117.5 34.9441 117.5 34.9353 117.5 34.9266C117.5 34.9179 117.5 34.9093 117.5 34.9007C117.5 34.8922 117.5 34.8838 117.5 34.8754C117.5 34.8671 117.5 34.8588 117.5 34.8506C117.5 34.8425 117.5 34.8344 117.5 34.8264C117.5 34.8184 117.5 34.8105 117.5 34.8027C117.5 34.7949 117.5 34.7872 117.5 34.7796C117.5 34.7719 117.5 34.7644 117.5 34.757C117.5 34.7495 117.5 34.7422 117.5 34.7349C117.5 34.7276 117.5 34.7205 117.5 34.7134C117.5 34.7063 117.5 34.6993 117.5 34.6924C117.5 34.6855 117.5 34.6787 117.5 34.672C117.5 34.6652 117.5 34.6586 117.5 34.6521C117.5 34.6456 117.5 34.6391 117.5 34.6328C117.5 34.6264 117.5 34.6202 117.5 34.614C117.5 34.6078 117.5 34.6017 117.5 34.5958C117.5 34.5898 117.5 34.5839 117.5 34.5781C117.5 34.5723 117.5 34.5666 117.5 34.561C117.5 34.5554 117.5 34.5499 117.5 34.5444C117.5 34.539 117.5 34.5337 117.5 34.5285C117.5 34.5232 117.5 34.5181 117.5 34.513C117.5 34.508 117.5 34.503 117.5 34.4982C117.5 34.4933 117.5 34.4885 117.5 34.4839C117.5 34.4792 117.5 34.4746 117.5 34.4701C117.5 34.4656 117.5 34.4613 117.5 34.457C117.5 34.4527 117.5 34.4485 117.5 34.4444C117.5 34.4403 117.5 34.4363 117.5 34.4323C117.5 34.4284 117.5 34.4246 117.5 34.4209C117.5 34.4172 117.5 34.4135 117.5 34.41C117.5 34.4065 117.5 34.403 117.5 34.3997C117.5 34.3964 117.5 34.3931 117.5 34.39C117.5 34.3868 117.5 34.3838 117.5 34.3808C117.5 34.3779 117.5 34.375 117.5 34.3722C117.5 34.3695 117.5 34.3668 117.5 34.3643C117.5 34.3617 117.5 34.3592 117.5 34.3568C117.5 34.3545 117.5 34.3522 117.5 34.35C117.5 34.3478 117.5 34.3458 117.5 34.3438C117.5 34.3418 117.5 34.3399 117.5 34.3381C117.5 34.3363 117.5 34.3347 117.5 34.3331C117.5 34.3315 117.5 34.33 117.5 34.3286C117.5 34.3272 117.5 34.3259 117.5 34.3247C117.5 34.3235 117.5 34.3224 117.5 34.3214C117.5 34.3204 117.5 34.3195 117.5 34.3187C117.5 34.3179 117.5 34.3172 117.5 34.3166C117.5 34.316 117.5 34.3155 117.5 34.3151C117.5 34.3147 117.5 34.3144 117.5 34.3142C117.5 34.314 117.5 34.3139 114 34.3139Z" fill="#FAFF03"/>
<line x1="97.5" y1="84.5" x2="120.5" y2="84.5" stroke="#861657" stroke-width="7" stroke-linecap="round"/>
<line x1="102.5" y1="80.5" x2="125.5" y2="80.5" stroke="#FAFF03" stroke-width="7" stroke-linecap="round"/>
<mask id="mask0_38_40" style="mask-type:luminance" maskUnits="userSpaceOnUse" x="165" y="33" width="90" height="90">
<path d="M165 33H255V123H165V33Z" fill="white"/>
</mask>
<g mask="url(#mask0_38_40)">
<path d="M235.312 103.313V38.6391C235.312 38.6391 235.312 35.8125 232.5 35.8125H170.625C170.625 35.8125 167.812 35.8125 167.812 38.6391V111.764C167.812 111.764 167.812 120.188 176.25 120.188H243.75C243.75 120.188 252.188 120.202 252.188 108.952V66.7641C252.188 66.7641 252.188 63.9375 249.375 63.9375H243.75M218.438 52.6875H204.375M218.438 63.9375H184.688M218.438 75.1875H184.688M218.438 86.4375H184.688M218.438 97.6875H184.688" stroke="#861657" stroke-width="6" stroke-linecap="round" stroke-linejoin="round"/>
</g>
</g>
<path d="M12.157 131.2L32.701 169.664H32.957L53.693 131.2H58.109V176H52.285V139.712H52.029L31.805 176.768H30.653L10.877 139.456H10.621V176H7.805V131.2H12.157ZM73.4925 131.2H102.421V134.72H79.3165V150.784H99.1565V153.728H79.3165V172.48H102.421V176H73.4925V131.2ZM112.633 176V131.2H127.353C130.894 131.2 134.137 131.776 137.081 132.928C140.025 134.037 142.542 135.595 144.633 137.6C146.766 139.563 148.409 141.909 149.561 144.64C150.755 147.371 151.353 150.315 151.353 153.472C151.353 156.757 150.734 159.787 149.497 162.56C148.302 165.291 146.638 167.659 144.505 169.664C142.414 171.669 139.961 173.227 137.145 174.336C134.329 175.445 131.321 176 128.121 176H112.633ZM118.457 173.184H125.497C128.995 173.184 131.961 172.608 134.393 171.456C136.867 170.261 138.894 168.725 140.472 166.848C142.051 164.971 143.203 162.88 143.929 160.576C144.654 158.229 145.017 155.904 145.017 153.6C145.017 151.04 144.59 148.587 143.737 146.24C142.883 143.851 141.625 141.76 139.961 139.968C138.339 138.133 136.313 136.683 133.881 135.616C131.449 134.549 128.654 134.016 125.497 134.016H118.457V173.184ZM208.201 162.816H186.121L180.489 176H177.545L196.489 131.2H199.689L220.553 176H214.345L208.201 162.816ZM206.857 159.936L196.809 138.368H196.553L187.337 159.936H206.857ZM266.276 131.2H269.22V176.768H268.9L233.38 141.76H233.124V176H230.18V130.432H230.5L266.02 165.44H266.276V131.2Z" fill="black" fill-opacity="0.52"/>
<path d="M0.125 182.4H276.9V185.6H0.125V182.4Z" fill="black" fill-opacity="0.52"/>
<path d="M15.157 129.2L35.701 167.664H35.957L56.693 129.2H61.109V174H55.285V137.712H55.029L34.805 174.768H33.653L13.877 137.456H13.621V174H10.805V129.2H15.157ZM76.4925 129.2H105.421V132.72H82.3165V148.784H102.157V151.728H82.3165V170.48H105.421V174H76.4925V129.2ZM115.633 174V129.2H130.353C133.894 129.2 137.137 129.776 140.081 130.928C143.025 132.037 145.542 133.595 147.633 135.6C149.766 137.563 151.409 139.909 152.561 142.64C153.755 145.371 154.353 148.315 154.353 151.472C154.353 154.757 153.734 157.787 152.497 160.56C151.302 163.291 149.638 165.659 147.505 167.664C145.414 169.669 142.961 171.227 140.145 172.336C137.329 173.445 134.321 174 131.121 174H115.633ZM121.457 171.184H128.497C131.995 171.184 134.961 170.608 137.393 169.456C139.867 168.261 141.894 166.725 143.472 164.848C145.051 162.971 146.203 160.88 146.929 158.576C147.654 156.229 148.017 153.904 148.017 151.6C148.017 149.04 147.59 146.587 146.737 144.24C145.883 141.851 144.625 139.76 142.961 137.968C141.339 136.133 139.313 134.683 136.881 133.616C134.449 132.549 131.654 132.016 128.497 132.016H121.457V171.184ZM211.201 160.816H189.121L183.489 174H180.545L199.489 129.2H202.689L223.553 174H217.345L211.201 160.816ZM209.857 157.936L199.809 136.368H199.553L190.337 157.936H209.857ZM269.276 129.2H272.22V174.768H271.9L236.38 139.76H236.124V174H233.18V128.432H233.5L269.02 163.44H269.276V129.2Z" fill="#FAFF03"/>
<path d="M3.125 180.4H279.9V183.6H3.125V180.4Z" fill="#FAFF03"/>
<defs>
<filter id="filter0_d_38_40" x="29.6333" y="0.8" width="233.067" height="182.4" filterUnits="userSpaceOnUse" color-interpolation-filters="sRGB">
<feFlood flood-opacity="0" result="BackgroundImageFix"/>
<feColorMatrix in="SourceAlpha" type="matrix" values="0 0 0 0 0 0 0 0 0 0 0 0 0 0 0 0 0 0 127 0" result="hardAlpha"/>
<feOffset dy="4"/>
<feGaussianBlur stdDeviation="3.85"/>
<feComposite in2="hardAlpha" operator="out"/>
<feColorMatrix type="matrix" values="0 0 0 0 0 0 0 0 0 0 0 0 0 0 0 0 0 0 0.25 0"/>
<feBlend mode="normal" in2="BackgroundImageFix" result="effect1_dropShadow_38_40"/>
<feBlend mode="normal" in="SourceGraphic" in2="effect1_dropShadow_38_40" result="shape"/>
</filter>
</defs>
</svg>
