<svg width="50" height="50" viewBox="0 0 50 50" fill="none" xmlns="http://www.w3.org/2000/svg">
<path opacity="0.5" d="M0 25.5098C0 19.7887 1.49012e-07 16.9282 1.298 14.5569C2.596 12.1855 4.96737 10.7138 9.71007 7.77032L14.7101 4.66717C19.7235 1.55572 22.2302 0 25 0C27.7698 0 30.2765 1.55572 35.29 4.66717L40.29 7.7703C45.0327 10.7138 47.404 12.1855 48.702 14.5569C50 16.9282 50 19.7887 50 25.5098V29.3125C50 39.0645 50 43.9407 47.071 46.9702C44.1422 50 39.428 50 30 50H20C10.5719 50 5.85788 50 2.92893 46.9702C2.98023e-07 43.9407 0 39.0645 0 29.3125V25.5098Z" fill="#1C274C"/>
<path d="M17.5 38.125C16.4645 38.125 15.625 38.9645 15.625 40C15.625 41.0355 16.4645 41.875 17.5 41.875H32.5C33.5355 41.875 34.375 41.0355 34.375 40C34.375 38.9645 33.5355 38.125 32.5 38.125H17.5Z" fill="#1C274C"/>
</svg>
