<svg width="236" height="171" viewBox="0 0 236 171" fill="none" xmlns="http://www.w3.org/2000/svg">
<g filter="url(#filter0_d_52_13)">
<path d="M84.5 84.6618V88.1618H77.5V84.6618H84.5ZM135.5 157.5V45.8342H142.5V157.5H135.5ZM135.5 45.8342C135.5 36.1662 132.195 29.1215 127.461 24.3831C122.683 19.5998 116.26 16.9808 109.774 16.5601C103.273 16.1386 96.9233 17.9356 92.2619 21.7013C87.6798 25.4031 84.5 31.1826 84.5 39.3139H77.5C77.5 29.1537 81.5702 21.3399 87.8631 16.2562C94.0767 11.2365 102.227 9.05603 110.226 9.57481C118.24 10.0945 126.317 13.3335 132.414 19.4358C138.555 25.5831 142.5 34.4516 142.5 45.8342H135.5ZM81 39.3139C84.5 39.3139 84.5 39.314 84.5 39.3142C84.5 39.3144 84.5 39.3147 84.5 39.3151C84.5 39.3155 84.5 39.316 84.5 39.3166C84.5 39.3172 84.5 39.3179 84.5 39.3187C84.5 39.3195 84.5 39.3204 84.5 39.3214C84.5 39.3224 84.5 39.3235 84.5 39.3247C84.5 39.3259 84.5 39.3272 84.5 39.3286C84.5 39.33 84.5 39.3315 84.5 39.3331C84.5 39.3347 84.5 39.3363 84.5 39.3381C84.5 39.3399 84.5 39.3418 84.5 39.3438C84.5 39.3458 84.5 39.3478 84.5 39.35C84.5 39.3522 84.5 39.3545 84.5 39.3568C84.5 39.3592 84.5 39.3617 84.5 39.3643C84.5 39.3668 84.5 39.3695 84.5 39.3722C84.5 39.375 84.5 39.3779 84.5 39.3808C84.5 39.3838 84.5 39.3868 84.5 39.39C84.5 39.3931 84.5 39.3964 84.5 39.3997C84.5 39.403 84.5 39.4065 84.5 39.41C84.5 39.4135 84.5 39.4172 84.5 39.4209C84.5 39.4246 84.5 39.4284 84.5 39.4323C84.5 39.4363 84.5 39.4403 84.5 39.4444C84.5 39.4485 84.5 39.4527 84.5 39.457C84.5 39.4613 84.5 39.4656 84.5 39.4701C84.5 39.4746 84.5 39.4792 84.5 39.4839C84.5 39.4885 84.5 39.4933 84.5 39.4982C84.5 39.503 84.5 39.508 84.5 39.513C84.5 39.5181 84.5 39.5232 84.5 39.5285C84.5 39.5337 84.5 39.539 84.5 39.5444C84.5 39.5499 84.5 39.5554 84.5 39.561C84.5 39.5666 84.5 39.5723 84.5 39.5781C84.5 39.5839 84.5 39.5898 84.5 39.5958C84.5 39.6017 84.5 39.6078 84.5 39.614C84.5 39.6202 84.5 39.6264 84.5 39.6328C84.5 39.6391 84.5 39.6456 84.5 39.6521C84.5 39.6586 84.5 39.6652 84.5 39.672C84.5 39.6787 84.5 39.6855 84.5 39.6924C84.5 39.6993 84.5 39.7063 84.5 39.7134C84.5 39.7205 84.5 39.7276 84.5 39.7349C84.5 39.7422 84.5 39.7495 84.5 39.757C84.5 39.7644 84.5 39.7719 84.5 39.7796C84.5 39.7872 84.5 39.7949 84.5 39.8027C84.5 39.8105 84.5 39.8184 84.5 39.8264C84.5 39.8344 84.5 39.8425 84.5 39.8506C84.5 39.8588 84.5 39.8671 84.5 39.8754C84.5 39.8838 84.5 39.8922 84.5 39.9007C84.5 39.9093 84.5 39.9179 84.5 39.9266C84.5 39.9353 84.5 39.9441 84.5 39.9529C84.5 39.9618 84.5 39.9708 84.5 39.9798C84.5 39.9889 84.5 39.998 84.5 40.0073C84.5 40.0165 84.5 40.0258 84.5 40.0352C84.5 40.0447 84.5 40.0541 84.5 40.0637C84.5 40.0733 84.5 40.083 84.5 40.0928C84.5 40.1025 84.5 40.1124 84.5 40.1223C84.5 40.1322 84.5 40.1422 84.5 40.1524C84.5 40.1625 84.5 40.1727 84.5 40.1829C84.5 40.1932 84.5 40.2036 84.5 40.214C84.5 40.2245 84.5 40.235 84.5 40.2457C84.5 40.2563 84.5 40.267 84.5 40.2778C84.5 40.2886 84.5 40.2995 84.5 40.3105C84.5 40.3214 84.5 40.3325 84.5 40.3436C84.5 40.3548 84.5 40.366 84.5 40.3773C84.5 40.3886 84.5 40.4 84.5 40.4115C84.5 40.423 84.5 40.4345 84.5 40.4462C84.5 40.4578 84.5 40.4696 84.5 40.4814C84.5 40.4932 84.5 40.5051 84.5 40.5171C84.5 40.5291 84.5 40.5412 84.5 40.5533C84.5 40.5655 84.5 40.5777 84.5 40.59C84.5 40.6024 84.5 40.6148 84.5 40.6273C84.5 40.6397 84.5 40.6523 84.5 40.665C84.5 40.6776 84.5 40.6904 84.5 40.7032C84.5 40.716 84.5 40.7289 84.5 40.7419C84.5 40.7549 84.5 40.768 84.5 40.7811C84.5 40.7943 84.5 40.8075 84.5 40.8208C84.5 40.8342 84.5 40.8475 84.5 40.861C84.5 40.8745 84.5 40.8881 84.5 40.9017C84.5 40.9154 84.5 40.9291 84.5 40.9429C84.5 40.9567 84.5 40.9706 84.5 40.9846C84.5 40.9985 84.5 41.0126 84.5 41.0267C84.5 41.0409 84.5 41.0551 84.5 41.0694C84.5 41.0837 84.5 41.098 84.5 41.1125C84.5 41.1269 84.5 41.1415 84.5 41.1561C84.5 41.1707 84.5 41.1854 84.5 41.2002C84.5 41.2149 84.5 41.2298 84.5 41.2447C84.5 41.2597 84.5 41.2747 84.5 41.2898C84.5 41.3049 84.5 41.32 84.5 41.3353C84.5 41.3505 84.5 41.3659 84.5 41.3813C84.5 41.3967 84.5 41.4122 84.5 41.4277C84.5 41.4433 84.5 41.459 84.5 41.4747C84.5 41.4904 84.5 41.5062 84.5 41.5221C84.5 41.538 84.5 41.5539 84.5 41.57C84.5 41.586 84.5 41.6021 84.5 41.6183C84.5 41.6345 84.5 41.6508 84.5 41.6671C84.5 41.6835 84.5 41.6999 84.5 41.7164C84.5 41.7329 84.5 41.7495 84.5 41.7661C84.5 41.7828 84.5 41.7995 84.5 41.8163C84.5 41.8331 84.5 41.85 84.5 41.867C84.5 41.8839 84.5 41.901 84.5 41.9181C84.5 41.9352 84.5 41.9524 84.5 41.9697C84.5 41.9869 84.5 42.0043 84.5 42.0217C84.5 42.0391 84.5 42.0566 84.5 42.0742C84.5 42.0917 84.5 42.1094 84.5 42.1271C84.5 42.1448 84.5 42.1626 84.5 42.1805C84.5 42.1983 84.5 42.2163 84.5 42.2343C84.5 42.2523 84.5 42.2704 84.5 42.2886C84.5 42.3067 84.5 42.325 84.5 42.3433C84.5 42.3616 84.5 42.38 84.5 42.3985C84.5 42.4169 84.5 42.4355 84.5 42.4541C84.5 42.4727 84.5 42.4914 84.5 42.5101C84.5 42.5289 84.5 42.5477 84.5 42.5666C84.5 42.5855 84.5 42.6045 84.5 42.6235C84.5 42.6426 84.5 42.6617 84.5 42.6809C84.5 42.7001 84.5 42.7194 84.5 42.7387C84.5 42.758 84.5 42.7775 84.5 42.7969C84.5 42.8164 84.5 42.836 84.5 42.8556C84.5 42.8752 84.5 42.8949 84.5 42.9147C84.5 42.9345 84.5 42.9543 84.5 42.9742C84.5 42.9942 84.5 43.0141 84.5 43.0342C84.5 43.0543 84.5 43.0744 84.5 43.0946C84.5 43.1148 84.5 43.1351 84.5 43.1554C84.5 43.1757 84.5 43.1961 84.5 43.2166C84.5 43.2371 84.5 43.2577 84.5 43.2783C84.5 43.2989 84.5 43.3196 84.5 43.3404C84.5 43.3611 84.5 43.3819 84.5 43.4028C84.5 43.4237 84.5 43.4447 84.5 43.4658C84.5 43.4868 84.5 43.5079 84.5 43.5291C84.5 43.5503 84.5 43.5715 84.5 43.5928C84.5 43.6141 84.5 43.6355 84.5 43.657C84.5 43.6784 84.5 43.7 84.5 43.7216C84.5 43.7431 84.5 43.7648 84.5 43.7865C84.5 43.8083 84.5 43.8301 84.5 43.8519C84.5 43.8738 84.5 43.8957 84.5 43.9177C84.5 43.9397 84.5 43.9618 84.5 43.9839C84.5 44.006 84.5 44.0282 84.5 44.0505C84.5 44.0728 84.5 44.0951 84.5 44.1175C84.5 44.1399 84.5 44.1624 84.5 44.1849C84.5 44.2074 84.5 44.2301 84.5 44.2527C84.5 44.2754 84.5 44.2981 84.5 44.3209C84.5 44.3437 84.5 44.3666 84.5 44.3895C84.5 44.4125 84.5 44.4354 84.5 44.4585C84.5 44.4816 84.5 44.5047 84.5 44.5279C84.5 44.5511 84.5 44.5744 84.5 44.5977C84.5 44.621 84.5 44.6444 84.5 44.6679C84.5 44.6913 84.5 44.7148 84.5 44.7384C84.5 44.762 84.5 44.7856 84.5 44.8094C84.5 44.8331 84.5 44.8568 84.5 44.8807C84.5 44.9045 84.5 44.9284 84.5 44.9524C84.5 44.9764 84.5 45.0004 84.5 45.0245C84.5 45.0486 84.5 45.0728 84.5 45.097C84.5 45.1212 84.5 45.1455 84.5 45.1698C84.5 45.1942 84.5 45.2186 84.5 45.2431C84.5 45.2676 84.5 45.2921 84.5 45.3167C84.5 45.3413 84.5 45.366 84.5 45.3907C84.5 45.4154 84.5 45.4402 84.5 45.4651C84.5 45.4899 84.5 45.5148 84.5 45.5398C84.5 45.5648 84.5 45.5898 84.5 45.6149C84.5 45.64 84.5 45.6652 84.5 45.6904C84.5 45.7156 84.5 45.7409 84.5 45.7662C84.5 45.7916 84.5 45.817 84.5 45.8425C84.5 45.8679 84.5 45.8934 84.5 45.919C84.5 45.9446 84.5 45.9703 84.5 45.996C84.5 46.0217 84.5 46.0475 84.5 46.0733C84.5 46.0991 84.5 46.125 84.5 46.1509C84.5 46.1769 84.5 46.2029 84.5 46.229C84.5 46.255 84.5 46.2812 84.5 46.3073C84.5 46.3335 84.5 46.3598 84.5 46.3861C84.5 46.4124 84.5 46.4388 84.5 46.4652C84.5 46.4916 84.5 46.5181 84.5 46.5446C84.5 46.5712 84.5 46.5978 84.5 46.6244C84.5 46.6511 84.5 46.6778 84.5 46.7046C84.5 46.7313 84.5 46.7582 84.5 46.7851C84.5 46.8119 84.5 46.8389 84.5 46.8659C84.5 46.8929 84.5 46.92 84.5 46.9471C84.5 46.9742 84.5 47.0014 84.5 47.0286C84.5 47.0559 84.5 47.0831 84.5 47.1105C84.5 47.1378 84.5 47.1652 84.5 47.1927C84.5 47.2202 84.5 47.2477 84.5 47.2753C84.5 47.3028 84.5 47.3305 84.5 47.3582C84.5 47.3858 84.5 47.4136 84.5 47.4414C84.5 47.4692 84.5 47.497 84.5 47.5249C84.5 47.5529 84.5 47.5808 84.5 47.6088C84.5 47.6369 84.5 47.6649 84.5 47.6931C84.5 47.7212 84.5 47.7494 84.5 47.7776C84.5 47.8059 84.5 47.8342 84.5 47.8625C84.5 47.8909 84.5 47.9193 84.5 47.9477C84.5 47.9762 84.5 48.0047 84.5 48.0333C84.5 48.0618 84.5 48.0905 84.5 48.1191C84.5 48.1478 84.5 48.1765 84.5 48.2053C84.5 48.2341 84.5 48.2629 84.5 48.2918C84.5 48.3207 84.5 48.3497 84.5 48.3787C84.5 48.4077 84.5 48.4367 84.5 48.4658C84.5 48.4949 84.5 48.5241 84.5 48.5533C84.5 48.5825 84.5 48.6118 84.5 48.6411C84.5 48.6704 84.5 48.6997 84.5 48.7292C84.5 48.7586 84.5 48.788 84.5 48.8176C84.5 48.8471 84.5 48.8767 84.5 48.9063C84.5 48.9359 84.5 48.9656 84.5 48.9953C84.5 49.025 84.5 49.0548 84.5 49.0847C84.5 49.1145 84.5 49.1444 84.5 49.1743C84.5 49.2042 84.5 49.2342 84.5 49.2642C84.5 49.2943 84.5 49.3244 84.5 49.3545C84.5 49.3846 84.5 49.4148 84.5 49.445C84.5 49.4753 84.5 49.5056 84.5 49.5359C84.5 49.5662 84.5 49.5966 84.5 49.6271C84.5 49.6575 84.5 49.688 84.5 49.7185C84.5 49.749 84.5 49.7796 84.5 49.8102C84.5 49.8409 84.5 49.8716 84.5 49.9023C84.5 49.933 84.5 49.9638 84.5 49.9946C84.5 50.0254 84.5 50.0563 84.5 50.0872C84.5 50.1182 84.5 50.1491 84.5 50.1802C84.5 50.2112 84.5 50.2422 84.5 50.2734C84.5 50.3045 84.5 50.3356 84.5 50.3669C84.5 50.3981 84.5 50.4293 84.5 50.4606C84.5 50.4919 84.5 50.5233 84.5 50.5547C84.5 50.5861 84.5 50.6175 84.5 50.649C84.5 50.6805 84.5 50.7121 84.5 50.7437C84.5 50.7752 84.5 50.8069 84.5 50.8386C84.5 50.8702 84.5 50.902 84.5 50.9337C84.5 50.9655 84.5 50.9973 84.5 51.0292C84.5 51.0611 84.5 51.093 84.5 51.1249C84.5 51.1569 84.5 51.1889 84.5 51.2209C84.5 51.253 84.5 51.2851 84.5 51.3172C84.5 51.3493 84.5 51.3815 84.5 51.4138C84.5 51.446 84.5 51.4783 84.5 51.5106C84.5 51.5429 84.5 51.5753 84.5 51.6077C84.5 51.6401 84.5 51.6725 84.5 51.705C84.5 51.7375 84.5 51.77 84.5 51.8026C84.5 51.8352 84.5 51.8678 84.5 51.9005C84.5 51.9332 84.5 51.9659 84.5 51.9986C84.5 52.0314 84.5 52.0642 84.5 52.097C84.5 52.1299 84.5 52.1628 84.5 52.1957C84.5 52.2286 84.5 52.2616 84.5 52.2946C84.5 52.3276 84.5 52.3607 84.5 52.3938C84.5 52.4269 84.5 52.46 84.5 52.4932C84.5 52.5264 84.5 52.5596 84.5 52.5929C84.5 52.6261 84.5 52.6595 84.5 52.6928C84.5 52.7262 84.5 52.7595 84.5 52.793C84.5 52.8264 84.5 52.8599 84.5 52.8934C84.5 52.9269 84.5 52.9605 84.5 52.9941C84.5 53.0277 84.5 53.0613 84.5 53.095C84.5 53.1287 84.5 53.1624 84.5 53.1962C84.5 53.2299 84.5 53.2637 84.5 53.2976C84.5 53.3314 84.5 53.3653 84.5 53.3992C84.5 53.4331 84.5 53.4671 84.5 53.5011C84.5 53.5351 84.5 53.5691 84.5 53.6032C84.5 53.6373 84.5 53.6714 84.5 53.7055C84.5 53.7397 84.5 53.7739 84.5 53.8081C84.5 53.8424 84.5 53.8766 84.5 53.911C84.5 53.9453 84.5 53.9796 84.5 54.014C84.5 54.0484 84.5 54.0828 84.5 54.1173C84.5 54.1518 84.5 54.1863 84.5 54.2208C84.5 54.2553 84.5 54.2899 84.5 54.3245C84.5 54.3592 84.5 54.3938 84.5 54.4285C84.5 54.4632 84.5 54.4979 84.5 54.5327C84.5 54.5675 84.5 54.6023 84.5 54.6371C84.5 54.6719 84.5 54.7068 84.5 54.7417C84.5 54.7766 84.5 54.8116 84.5 54.8466C84.5 54.8816 84.5 54.9166 84.5 54.9517C84.5 54.9867 84.5 55.0218 84.5 55.0569C84.5 55.0921 84.5 55.1272 84.5 55.1624C84.5 55.1976 84.5 55.2329 84.5 55.2682C84.5 55.3034 84.5 55.3387 84.5 55.3741C84.5 55.4094 84.5 55.4448 84.5 55.4802C84.5 55.5156 84.5 55.5511 84.5 55.5866C84.5 55.622 84.5 55.6576 84.5 55.6931C84.5 55.7287 84.5 55.7642 84.5 55.7999C84.5 55.8355 84.5 55.8711 84.5 55.9068C84.5 55.9425 84.5 55.9782 84.5 56.014C84.5 56.0497 84.5 56.0855 84.5 56.1214C84.5 56.1572 84.5 56.193 84.5 56.2289C84.5 56.2648 84.5 56.3007 84.5 56.3367C84.5 56.3726 84.5 56.4086 84.5 56.4446C84.5 56.4807 84.5 56.5167 84.5 56.5528C84.5 56.5889 84.5 56.625 84.5 56.6612C84.5 56.6973 84.5 56.7335 84.5 56.7697C84.5 56.8059 84.5 56.8422 84.5 56.8784C84.5 56.9147 84.5 56.951 84.5 56.9874C84.5 57.0237 84.5 57.0601 84.5 57.0965C84.5 57.1329 84.5 57.1693 84.5 57.2058C84.5 57.2422 84.5 57.2787 84.5 57.3153C84.5 57.3518 84.5 57.3883 84.5 57.4249C84.5 57.4615 84.5 57.4981 84.5 57.5348C84.5 57.5714 84.5 57.6081 84.5 57.6448C84.5 57.6815 84.5 57.7182 84.5 57.755C84.5 57.7918 84.5 57.8286 84.5 57.8654C84.5 57.9022 84.5 57.9391 84.5 57.976C84.5 58.0128 84.5 58.0497 84.5 58.0867C84.5 58.1236 84.5 58.1606 84.5 58.1976C84.5 58.2346 84.5 58.2716 84.5 58.3087C84.5 58.3457 84.5 58.3828 84.5 58.4199C84.5 58.457 84.5 58.4942 84.5 58.5313C84.5 58.5685 84.5 58.6057 84.5 58.6429C84.5 58.6801 84.5 58.7174 84.5 58.7547C84.5 58.792 84.5 58.8293 84.5 58.8666C84.5 58.9039 84.5 58.9413 84.5 58.9787C84.5 59.0161 84.5 59.0535 84.5 59.0909C84.5 59.1283 84.5 59.1658 84.5 59.2033C84.5 59.2408 84.5 59.2783 84.5 59.3159C84.5 59.3534 84.5 59.391 84.5 59.4286C84.5 59.4662 84.5 59.5038 84.5 59.5414C84.5 59.5791 84.5 59.6168 84.5 59.6545C84.5 59.6922 84.5 59.7299 84.5 59.7676C84.5 59.8054 84.5 59.8432 84.5 59.881C84.5 59.9188 84.5 59.9566 84.5 59.9944C84.5 60.0323 84.5 60.0701 84.5 60.108C84.5 60.1459 84.5 60.1839 84.5 60.2218C84.5 60.2598 84.5 60.2977 84.5 60.3357C84.5 60.3737 84.5 60.4117 84.5 60.4498C84.5 60.4878 84.5 60.5259 84.5 60.564C84.5 60.602 84.5 60.6402 84.5 60.6783C84.5 60.7164 84.5 60.7546 84.5 60.7928C84.5 60.8309 84.5 60.8691 84.5 60.9074C84.5 60.9456 84.5 60.9838 84.5 61.0221C84.5 61.0604 84.5 61.0987 84.5 61.137C84.5 61.1753 84.5 61.2136 84.5 61.252C84.5 61.2904 84.5 61.3287 84.5 61.3671C84.5 61.4055 84.5 61.444 84.5 61.4824C84.5 61.5209 84.5 61.5593 84.5 61.5978C84.5 61.6363 84.5 61.6748 84.5 61.7133C84.5 61.7519 84.5 61.7904 84.5 61.829C84.5 61.8676 84.5 61.9062 84.5 61.9448C84.5 61.9834 84.5 62.022 84.5 62.0607C84.5 62.0993 84.5 62.138 84.5 62.1767C84.5 62.2154 84.5 62.2541 84.5 62.2928C84.5 62.3315 84.5 62.3703 84.5 62.4091C84.5 62.4478 84.5 62.4866 84.5 62.5254C84.5 62.5642 84.5 62.6031 84.5 62.6419C84.5 62.6808 84.5 62.7196 84.5 62.7585C84.5 62.7974 84.5 62.8363 84.5 62.8752C84.5 62.9141 84.5 62.9531 84.5 62.992C84.5 63.031 84.5 63.07 84.5 63.109C84.5 63.1479 84.5 63.187 84.5 63.226C84.5 63.265 84.5 63.3041 84.5 63.3431C84.5 63.3822 84.5 63.4213 84.5 63.4604C84.5 63.4995 84.5 63.5386 84.5 63.5777C84.5 63.6168 84.5 63.656 84.5 63.6951C84.5 63.7343 84.5 63.7735 84.5 63.8127C84.5 63.8519 84.5 63.8911 84.5 63.9303C84.5 63.9696 84.5 64.0088 84.5 64.0481C84.5 64.0873 84.5 64.1266 84.5 64.1659C84.5 64.2052 84.5 64.2445 84.5 64.2838C84.5 64.3232 84.5 64.3625 84.5 64.4018C84.5 64.4412 84.5 64.4806 84.5 64.52C84.5 64.5593 84.5 64.5987 84.5 64.6381C84.5 64.6776 84.5 64.717 84.5 64.7564C84.5 64.7959 84.5 64.8353 84.5 64.8748C84.5 64.9143 84.5 64.9538 84.5 64.9933C84.5 65.0328 84.5 65.0723 84.5 65.1118C84.5 65.1513 84.5 65.1909 84.5 65.2304C84.5 65.27 84.5 65.3095 84.5 65.3491C84.5 65.3887 84.5 65.4283 84.5 65.4679C84.5 65.5075 84.5 65.5471 84.5 65.5868C84.5 65.6264 84.5 65.666 84.5 65.7057C84.5 65.7453 84.5 65.785 84.5 65.8247C84.5 65.8644 84.5 65.9041 84.5 65.9438C84.5 65.9835 84.5 66.0232 84.5 66.0629C84.5 66.1026 84.5 66.1424 84.5 66.1821C84.5 66.2219 84.5 66.2616 84.5 66.3014C84.5 66.3412 84.5 66.381 84.5 66.4208C84.5 66.4605 84.5 66.5004 84.5 66.5402C84.5 66.58 84.5 66.6198 84.5 66.6596C84.5 66.6995 84.5 66.7393 84.5 66.7792C84.5 66.819 84.5 66.8589 84.5 66.8988C84.5 66.9387 84.5 66.9786 84.5 67.0185C84.5 67.0583 84.5 67.0983 84.5 67.1382C84.5 67.1781 84.5 67.218 84.5 67.2579C84.5 67.2979 84.5 67.3378 84.5 67.3778C84.5 67.4177 84.5 67.4577 84.5 67.4977C84.5 67.5376 84.5 67.5776 84.5 67.6176C84.5 67.6576 84.5 67.6976 84.5 67.7376C84.5 67.7776 84.5 67.8176 84.5 67.8576C84.5 67.8976 84.5 67.9376 84.5 67.9777C84.5 68.0177 84.5 68.0577 84.5 68.0978C84.5 68.1378 84.5 68.1779 84.5 68.218C84.5 68.258 84.5 68.2981 84.5 68.3382C84.5 68.3782 84.5 68.4183 84.5 68.4584C84.5 68.4985 84.5 68.5386 84.5 68.5787C84.5 68.6188 84.5 68.6589 84.5 68.699C84.5 68.7391 84.5 68.7793 84.5 68.8194C84.5 68.8595 84.5 68.8997 84.5 68.9398C84.5 68.9799 84.5 69.0201 84.5 69.0602C84.5 69.1004 84.5 69.1405 84.5 69.1807C84.5 69.2208 84.5 69.261 84.5 69.3012C84.5 69.3414 84.5 69.3815 84.5 69.4217C84.5 69.4619 84.5 69.5021 84.5 69.5423C84.5 69.5824 84.5 69.6226 84.5 69.6628C84.5 69.703 84.5 69.7432 84.5 69.7834C84.5 69.8236 84.5 69.8638 84.5 69.9041C84.5 69.9443 84.5 69.9845 84.5 70.0247C84.5 70.0649 84.5 70.1051 84.5 70.1454C84.5 70.1856 84.5 70.2258 84.5 70.266C84.5 70.3063 84.5 70.3465 84.5 70.3867C84.5 70.427 84.5 70.4672 84.5 70.5075C84.5 70.5477 84.5 70.5879 84.5 70.6282C84.5 70.6684 84.5 70.7087 84.5 70.7489C84.5 70.7892 84.5 70.8294 84.5 70.8697C84.5 70.9099 84.5 70.9502 84.5 70.9904C84.5 71.0307 84.5 71.071 84.5 71.1112C84.5 71.1515 84.5 71.1917 84.5 71.232C84.5 71.2722 84.5 71.3125 84.5 71.3528C84.5 71.393 84.5 71.4333 84.5 71.4735C84.5 71.5138 84.5 71.5541 84.5 71.5943C84.5 71.6346 84.5 71.6749 84.5 71.7151C84.5 71.7554 84.5 71.7956 84.5 71.8359C84.5 71.8762 84.5 71.9164 84.5 71.9567C84.5 71.9969 84.5 72.0372 84.5 72.0775C84.5 72.1177 84.5 72.158 84.5 72.1982C84.5 72.2385 84.5 72.2788 84.5 72.319C84.5 72.3593 84.5 72.3995 84.5 72.4398C84.5 72.48 84.5 72.5203 84.5 72.5605C84.5 72.6008 84.5 72.641 84.5 72.6812C84.5 72.7215 84.5 72.7617 84.5 72.802C84.5 72.8422 84.5 72.8824 84.5 72.9227C84.5 72.9629 84.5 73.0031 84.5 73.0434C84.5 73.0836 84.5 73.1238 84.5 73.164C84.5 73.2043 84.5 73.2445 84.5 73.2847C84.5 73.3249 84.5 73.3651 84.5 73.4053C84.5 73.4455 84.5 73.4857 84.5 73.5259C84.5 73.5661 84.5 73.6063 84.5 73.6465C84.5 73.6867 84.5 73.7269 84.5 73.7671C84.5 73.8073 84.5 73.8474 84.5 73.8876C84.5 73.9278 84.5 73.968 84.5 74.0081C84.5 74.0483 84.5 74.0885 84.5 74.1286C84.5 74.1688 84.5 74.2089 84.5 74.2491C84.5 74.2892 84.5 74.3293 84.5 74.3695C84.5 74.4096 84.5 74.4497 84.5 74.4898C84.5 74.53 84.5 74.5701 84.5 74.6102C84.5 74.6503 84.5 74.6904 84.5 74.7305C84.5 74.7706 84.5 74.8107 84.5 74.8508C84.5 74.8909 84.5 74.9309 84.5 74.971C84.5 75.0111 84.5 75.0511 84.5 75.0912C84.5 75.1312 84.5 75.1713 84.5 75.2113C84.5 75.2514 84.5 75.2914 84.5 75.3314C84.5 75.3715 84.5 75.4115 84.5 75.4515C84.5 75.4915 84.5 75.5315 84.5 75.5715C84.5 75.6115 84.5 75.6515 84.5 75.6914C84.5 75.7314 84.5 75.7714 84.5 75.8113C84.5 75.8513 84.5 75.8913 84.5 75.9312C84.5 75.9711 84.5 76.0111 84.5 76.051C84.5 76.0909 84.5 76.1308 84.5 76.1707C84.5 76.2106 84.5 76.2505 84.5 76.2904C84.5 76.3303 84.5 76.3702 84.5 76.4101C84.5 76.4499 84.5 76.4898 84.5 76.5296C84.5 76.5695 84.5 76.6093 84.5 76.6491C84.5 76.689 84.5 76.7288 84.5 76.7686C84.5 76.8084 84.5 76.8482 84.5 76.888C84.5 76.9277 84.5 76.9675 84.5 77.0073C84.5 77.047 84.5 77.0868 84.5 77.1265C84.5 77.1663 84.5 77.206 84.5 77.2457C84.5 77.2854 84.5 77.3251 84.5 77.3648C84.5 77.4045 84.5 77.4442 84.5 77.4839C84.5 77.5235 84.5 77.5632 84.5 77.6028C84.5 77.6425 84.5 77.6821 84.5 77.7217C84.5 77.7613 84.5 77.8009 84.5 77.8405C84.5 77.8801 84.5 77.9197 84.5 77.9593C84.5 77.9988 84.5 78.0384 84.5 78.0779C84.5 78.1175 84.5 78.157 84.5 78.1965C84.5 78.236 84.5 78.2755 84.5 78.315C84.5 78.3545 84.5 78.394 84.5 78.4334C84.5 78.4729 84.5 78.5123 84.5 78.5517C84.5 78.5912 84.5 78.6306 84.5 78.67C84.5 78.7094 84.5 78.7488 84.5 78.7881C84.5 78.8275 84.5 78.8669 84.5 78.9062C84.5 78.9455 84.5 78.9849 84.5 79.0242C84.5 79.0635 84.5 79.1028 84.5 79.142C84.5 79.1813 84.5 79.2206 84.5 79.2598C84.5 79.2991 84.5 79.3383 84.5 79.3775C84.5 79.4167 84.5 79.4559 84.5 79.4951C84.5 79.5343 84.5 79.5734 84.5 79.6126C84.5 79.6517 84.5 79.6909 84.5 79.73C84.5 79.7691 84.5 79.8082 84.5 79.8473C84.5 79.8864 84.5 79.9254 84.5 79.9645C84.5 80.0035 84.5 80.0425 84.5 80.0816C84.5 80.1206 84.5 80.1596 84.5 80.1985C84.5 80.2375 84.5 80.2765 84.5 80.3154C84.5 80.3543 84.5 80.3932 84.5 80.4322C84.5 80.4711 84.5 80.5099 84.5 80.5488C84.5 80.5877 84.5 80.6265 84.5 80.6653C84.5 80.7042 84.5 80.743 84.5 80.7818C84.5 80.8205 84.5 80.8593 84.5 80.8981C84.5 80.9368 84.5 80.9755 84.5 81.0143C84.5 81.053 84.5 81.0917 84.5 81.1303C84.5 81.169 84.5 81.2077 84.5 81.2463C84.5 81.2849 84.5 81.3235 84.5 81.3621C84.5 81.4007 84.5 81.4393 84.5 81.4778C84.5 81.5164 84.5 81.5549 84.5 81.5934C84.5 81.6319 84.5 81.6704 84.5 81.7089C84.5 81.7473 84.5 81.7858 84.5 81.8242C84.5 81.8626 84.5 81.901 84.5 81.9394C84.5 81.9778 84.5 82.0162 84.5 82.0545C84.5 82.0928 84.5 82.1311 84.5 82.1694C84.5 82.2077 84.5 82.246 84.5 82.2842C84.5 82.3225 84.5 82.3607 84.5 82.3989C84.5 82.4371 84.5 82.4753 84.5 82.5135C84.5 82.5516 84.5 82.5897 84.5 82.6278C84.5 82.666 84.5 82.704 84.5 82.7421C84.5 82.7802 84.5 82.8182 84.5 82.8562C84.5 82.8942 84.5 82.9322 84.5 82.9702C84.5 83.0082 84.5 83.0461 84.5 83.084C84.5 83.122 84.5 83.1599 84.5 83.1977C84.5 83.2356 84.5 83.2735 84.5 83.3113C84.5 83.3491 84.5 83.3869 84.5 83.4247C84.5 83.4624 84.5 83.5002 84.5 83.5379C84.5 83.5756 84.5 83.6133 84.5 83.651C84.5 83.6887 84.5 83.7263 84.5 83.7639C84.5 83.8016 84.5 83.8392 84.5 83.8767C84.5 83.9143 84.5 83.9518 84.5 83.9894C84.5 84.0269 84.5 84.0644 84.5 84.1018C84.5 84.1393 84.5 84.1767 84.5 84.2141C84.5 84.2516 84.5 84.2889 84.5 84.3263C84.5 84.3637 84.5 84.401 84.5 84.4383C84.5 84.4756 84.5 84.5129 84.5 84.5501C84.5 84.5874 84.5 84.6246 84.5 84.6618H77.5C77.5 84.6246 77.5 84.5874 77.5 84.5501C77.5 84.5129 77.5 84.4756 77.5 84.4383C77.5 84.401 77.5 84.3637 77.5 84.3263C77.5 84.2889 77.5 84.2516 77.5 84.2141C77.5 84.1767 77.5 84.1393 77.5 84.1018C77.5 84.0644 77.5 84.0269 77.5 83.9894C77.5 83.9518 77.5 83.9143 77.5 83.8767C77.5 83.8392 77.5 83.8016 77.5 83.7639C77.5 83.7263 77.5 83.6887 77.5 83.651C77.5 83.6133 77.5 83.5756 77.5 83.5379C77.5 83.5002 77.5 83.4624 77.5 83.4247C77.5 83.3869 77.5 83.3491 77.5 83.3113C77.5 83.2735 77.5 83.2356 77.5 83.1977C77.5 83.1599 77.5 83.122 77.5 83.084C77.5 83.0461 77.5 83.0082 77.5 82.9702C77.5 82.9322 77.5 82.8942 77.5 82.8562C77.5 82.8182 77.5 82.7802 77.5 82.7421C77.5 82.704 77.5 82.666 77.5 82.6278C77.5 82.5897 77.5 82.5516 77.5 82.5135C77.5 82.4753 77.5 82.4371 77.5 82.3989C77.5 82.3607 77.5 82.3225 77.5 82.2842C77.5 82.246 77.5 82.2077 77.5 82.1694C77.5 82.1311 77.5 82.0928 77.5 82.0545C77.5 82.0162 77.5 81.9778 77.5 81.9394C77.5 81.901 77.5 81.8626 77.5 81.8242C77.5 81.7858 77.5 81.7473 77.5 81.7089C77.5 81.6704 77.5 81.6319 77.5 81.5934C77.5 81.5549 77.5 81.5164 77.5 81.4778C77.5 81.4393 77.5 81.4007 77.5 81.3621C77.5 81.3235 77.5 81.2849 77.5 81.2463C77.5 81.2077 77.5 81.169 77.5 81.1303C77.5 81.0917 77.5 81.053 77.5 81.0143C77.5 80.9755 77.5 80.9368 77.5 80.8981C77.5 80.8593 77.5 80.8205 77.5 80.7818C77.5 80.743 77.5 80.7042 77.5 80.6653C77.5 80.6265 77.5 80.5877 77.5 80.5488C77.5 80.5099 77.5 80.4711 77.5 80.4322C77.5 80.3932 77.5 80.3543 77.5 80.3154C77.5 80.2765 77.5 80.2375 77.5 80.1985C77.5 80.1596 77.5 80.1206 77.5 80.0816C77.5 80.0425 77.5 80.0035 77.5 79.9645C77.5 79.9254 77.5 79.8864 77.5 79.8473C77.5 79.8082 77.5 79.7691 77.5 79.73C77.5 79.6909 77.5 79.6517 77.5 79.6126C77.5 79.5734 77.5 79.5343 77.5 79.4951C77.5 79.4559 77.5 79.4167 77.5 79.3775C77.5 79.3383 77.5 79.2991 77.5 79.2598C77.5 79.2206 77.5 79.1813 77.5 79.142C77.5 79.1028 77.5 79.0635 77.5 79.0242C77.5 78.9849 77.5 78.9455 77.5 78.9062C77.5 78.8669 77.5 78.8275 77.5 78.7881C77.5 78.7488 77.5 78.7094 77.5 78.67C77.5 78.6306 77.5 78.5912 77.5 78.5517C77.5 78.5123 77.5 78.4729 77.5 78.4334C77.5 78.394 77.5 78.3545 77.5 78.315C77.5 78.2755 77.5 78.236 77.5 78.1965C77.5 78.157 77.5 78.1175 77.5 78.0779C77.5 78.0384 77.5 77.9988 77.5 77.9593C77.5 77.9197 77.5 77.8801 77.5 77.8405C77.5 77.8009 77.5 77.7613 77.5 77.7217C77.5 77.6821 77.5 77.6425 77.5 77.6028C77.5 77.5632 77.5 77.5235 77.5 77.4839C77.5 77.4442 77.5 77.4045 77.5 77.3648C77.5 77.3251 77.5 77.2854 77.5 77.2457C77.5 77.206 77.5 77.1663 77.5 77.1265C77.5 77.0868 77.5 77.047 77.5 77.0073C77.5 76.9675 77.5 76.9277 77.5 76.888C77.5 76.8482 77.5 76.8084 77.5 76.7686C77.5 76.7288 77.5 76.689 77.5 76.6491C77.5 76.6093 77.5 76.5695 77.5 76.5296C77.5 76.4898 77.5 76.4499 77.5 76.4101C77.5 76.3702 77.5 76.3303 77.5 76.2904C77.5 76.2505 77.5 76.2106 77.5 76.1707C77.5 76.1308 77.5 76.0909 77.5 76.051C77.5 76.0111 77.5 75.9711 77.5 75.9312C77.5 75.8913 77.5 75.8513 77.5 75.8113C77.5 75.7714 77.5 75.7314 77.5 75.6914C77.5 75.6515 77.5 75.6115 77.5 75.5715C77.5 75.5315 77.5 75.4915 77.5 75.4515C77.5 75.4115 77.5 75.3715 77.5 75.3314C77.5 75.2914 77.5 75.2514 77.5 75.2113C77.5 75.1713 77.5 75.1312 77.5 75.0912C77.5 75.0511 77.5 75.0111 77.5 74.971C77.5 74.9309 77.5 74.8909 77.5 74.8508C77.5 74.8107 77.5 74.7706 77.5 74.7305C77.5 74.6904 77.5 74.6503 77.5 74.6102C77.5 74.5701 77.5 74.53 77.5 74.4898C77.5 74.4497 77.5 74.4096 77.5 74.3695C77.5 74.3293 77.5 74.2892 77.5 74.2491C77.5 74.2089 77.5 74.1688 77.5 74.1286C77.5 74.0885 77.5 74.0483 77.5 74.0081C77.5 73.968 77.5 73.9278 77.5 73.8876C77.5 73.8474 77.5 73.8073 77.5 73.7671C77.5 73.7269 77.5 73.6867 77.5 73.6465C77.5 73.6063 77.5 73.5661 77.5 73.5259C77.5 73.4857 77.5 73.4455 77.5 73.4053C77.5 73.3651 77.5 73.3249 77.5 73.2847C77.5 73.2445 77.5 73.2043 77.5 73.164C77.5 73.1238 77.5 73.0836 77.5 73.0434C77.5 73.0031 77.5 72.9629 77.5 72.9227C77.5 72.8824 77.5 72.8422 77.5 72.802C77.5 72.7617 77.5 72.7215 77.5 72.6812C77.5 72.641 77.5 72.6008 77.5 72.5605C77.5 72.5203 77.5 72.48 77.5 72.4398C77.5 72.3995 77.5 72.3593 77.5 72.319C77.5 72.2788 77.5 72.2385 77.5 72.1982C77.5 72.158 77.5 72.1177 77.5 72.0775C77.5 72.0372 77.5 71.9969 77.5 71.9567C77.5 71.9164 77.5 71.8762 77.5 71.8359C77.5 71.7956 77.5 71.7554 77.5 71.7151C77.5 71.6749 77.5 71.6346 77.5 71.5943C77.5 71.5541 77.5 71.5138 77.5 71.4735C77.5 71.4333 77.5 71.393 77.5 71.3528C77.5 71.3125 77.5 71.2722 77.5 71.232C77.5 71.1917 77.5 71.1515 77.5 71.1112C77.5 71.071 77.5 71.0307 77.5 70.9904C77.5 70.9502 77.5 70.9099 77.5 70.8697C77.5 70.8294 77.5 70.7892 77.5 70.7489C77.5 70.7087 77.5 70.6684 77.5 70.6282C77.5 70.5879 77.5 70.5477 77.5 70.5075C77.5 70.4672 77.5 70.427 77.5 70.3867C77.5 70.3465 77.5 70.3063 77.5 70.266C77.5 70.2258 77.5 70.1856 77.5 70.1454C77.5 70.1051 77.5 70.0649 77.5 70.0247C77.5 69.9845 77.5 69.9443 77.5 69.9041C77.5 69.8638 77.5 69.8236 77.5 69.7834C77.5 69.7432 77.5 69.703 77.5 69.6628C77.5 69.6226 77.5 69.5824 77.5 69.5423C77.5 69.5021 77.5 69.4619 77.5 69.4217C77.5 69.3815 77.5 69.3414 77.5 69.3012C77.5 69.261 77.5 69.2208 77.5 69.1807C77.5 69.1405 77.5 69.1004 77.5 69.0602C77.5 69.0201 77.5 68.9799 77.5 68.9398C77.5 68.8997 77.5 68.8595 77.5 68.8194C77.5 68.7793 77.5 68.7391 77.5 68.699C77.5 68.6589 77.5 68.6188 77.5 68.5787C77.5 68.5386 77.5 68.4985 77.5 68.4584C77.5 68.4183 77.5 68.3782 77.5 68.3382C77.5 68.2981 77.5 68.258 77.5 68.218C77.5 68.1779 77.5 68.1378 77.5 68.0978C77.5 68.0577 77.5 68.0177 77.5 67.9777C77.5 67.9376 77.5 67.8976 77.5 67.8576C77.5 67.8176 77.5 67.7776 77.5 67.7376C77.5 67.6976 77.5 67.6576 77.5 67.6176C77.5 67.5776 77.5 67.5376 77.5 67.4977C77.5 67.4577 77.5 67.4177 77.5 67.3778C77.5 67.3378 77.5 67.2979 77.5 67.2579C77.5 67.218 77.5 67.1781 77.5 67.1382C77.5 67.0983 77.5 67.0583 77.5 67.0185C77.5 66.9786 77.5 66.9387 77.5 66.8988C77.5 66.8589 77.5 66.819 77.5 66.7792C77.5 66.7393 77.5 66.6995 77.5 66.6596C77.5 66.6198 77.5 66.58 77.5 66.5402C77.5 66.5004 77.5 66.4605 77.5 66.4208C77.5 66.381 77.5 66.3412 77.5 66.3014C77.5 66.2616 77.5 66.2219 77.5 66.1821C77.5 66.1424 77.5 66.1026 77.5 66.0629C77.5 66.0232 77.5 65.9835 77.5 65.9438C77.5 65.9041 77.5 65.8644 77.5 65.8247C77.5 65.785 77.5 65.7453 77.5 65.7057C77.5 65.666 77.5 65.6264 77.5 65.5868C77.5 65.5471 77.5 65.5075 77.5 65.4679C77.5 65.4283 77.5 65.3887 77.5 65.3491C77.5 65.3095 77.5 65.27 77.5 65.2304C77.5 65.1909 77.5 65.1513 77.5 65.1118C77.5 65.0723 77.5 65.0328 77.5 64.9933C77.5 64.9538 77.5 64.9143 77.5 64.8748C77.5 64.8353 77.5 64.7959 77.5 64.7564C77.5 64.717 77.5 64.6776 77.5 64.6381C77.5 64.5987 77.5 64.5593 77.5 64.52C77.5 64.4806 77.5 64.4412 77.5 64.4018C77.5 64.3625 77.5 64.3232 77.5 64.2838C77.5 64.2445 77.5 64.2052 77.5 64.1659C77.5 64.1266 77.5 64.0873 77.5 64.0481C77.5 64.0088 77.5 63.9696 77.5 63.9303C77.5 63.8911 77.5 63.8519 77.5 63.8127C77.5 63.7735 77.5 63.7343 77.5 63.6951C77.5 63.656 77.5 63.6168 77.5 63.5777C77.5 63.5386 77.5 63.4995 77.5 63.4604C77.5 63.4213 77.5 63.3822 77.5 63.3431C77.5 63.3041 77.5 63.265 77.5 63.226C77.5 63.187 77.5 63.1479 77.5 63.109C77.5 63.07 77.5 63.031 77.5 62.992C77.5 62.9531 77.5 62.9141 77.5 62.8752C77.5 62.8363 77.5 62.7974 77.5 62.7585C77.5 62.7196 77.5 62.6808 77.5 62.6419C77.5 62.6031 77.5 62.5642 77.5 62.5254C77.5 62.4866 77.5 62.4478 77.5 62.4091C77.5 62.3703 77.5 62.3315 77.5 62.2928C77.5 62.2541 77.5 62.2154 77.5 62.1767C77.5 62.138 77.5 62.0993 77.5 62.0607C77.5 62.022 77.5 61.9834 77.5 61.9448C77.5 61.9062 77.5 61.8676 77.5 61.829C77.5 61.7904 77.5 61.7519 77.5 61.7133C77.5 61.6748 77.5 61.6363 77.5 61.5978C77.5 61.5593 77.5 61.5209 77.5 61.4824C77.5 61.444 77.5 61.4055 77.5 61.3671C77.5 61.3287 77.5 61.2904 77.5 61.252C77.5 61.2136 77.5 61.1753 77.5 61.137C77.5 61.0987 77.5 61.0604 77.5 61.0221C77.5 60.9838 77.5 60.9456 77.5 60.9074C77.5 60.8691 77.5 60.8309 77.5 60.7928C77.5 60.7546 77.5 60.7164 77.5 60.6783C77.5 60.6402 77.5 60.602 77.5 60.564C77.5 60.5259 77.5 60.4878 77.5 60.4498C77.5 60.4117 77.5 60.3737 77.5 60.3357C77.5 60.2977 77.5 60.2598 77.5 60.2218C77.5 60.1839 77.5 60.1459 77.5 60.108C77.5 60.0701 77.5 60.0323 77.5 59.9944C77.5 59.9566 77.5 59.9188 77.5 59.881C77.5 59.8432 77.5 59.8054 77.5 59.7676C77.5 59.7299 77.5 59.6922 77.5 59.6545C77.5 59.6168 77.5 59.5791 77.5 59.5414C77.5 59.5038 77.5 59.4662 77.5 59.4286C77.5 59.391 77.5 59.3534 77.5 59.3159C77.5 59.2783 77.5 59.2408 77.5 59.2033C77.5 59.1658 77.5 59.1283 77.5 59.0909C77.5 59.0535 77.5 59.0161 77.5 58.9787C77.5 58.9413 77.5 58.9039 77.5 58.8666C77.5 58.8293 77.5 58.792 77.5 58.7547C77.5 58.7174 77.5 58.6801 77.5 58.6429C77.5 58.6057 77.5 58.5685 77.5 58.5313C77.5 58.4942 77.5 58.457 77.5 58.4199C77.5 58.3828 77.5 58.3457 77.5 58.3087C77.5 58.2716 77.5 58.2346 77.5 58.1976C77.5 58.1606 77.5 58.1236 77.5 58.0867C77.5 58.0497 77.5 58.0128 77.5 57.976C77.5 57.9391 77.5 57.9022 77.5 57.8654C77.5 57.8286 77.5 57.7918 77.5 57.755C77.5 57.7182 77.5 57.6815 77.5 57.6448C77.5 57.6081 77.5 57.5714 77.5 57.5348C77.5 57.4981 77.5 57.4615 77.5 57.4249C77.5 57.3883 77.5 57.3518 77.5 57.3153C77.5 57.2787 77.5 57.2422 77.5 57.2058C77.5 57.1693 77.5 57.1329 77.5 57.0965C77.5 57.0601 77.5 57.0237 77.5 56.9874C77.5 56.951 77.5 56.9147 77.5 56.8784C77.5 56.8422 77.5 56.8059 77.5 56.7697C77.5 56.7335 77.5 56.6973 77.5 56.6612C77.5 56.625 77.5 56.5889 77.5 56.5528C77.5 56.5167 77.5 56.4807 77.5 56.4446C77.5 56.4086 77.5 56.3726 77.5 56.3367C77.5 56.3007 77.5 56.2648 77.5 56.2289C77.5 56.193 77.5 56.1572 77.5 56.1214C77.5 56.0855 77.5 56.0497 77.5 56.014C77.5 55.9782 77.5 55.9425 77.5 55.9068C77.5 55.8711 77.5 55.8355 77.5 55.7999C77.5 55.7642 77.5 55.7287 77.5 55.6931C77.5 55.6576 77.5 55.622 77.5 55.5866C77.5 55.5511 77.5 55.5156 77.5 55.4802C77.5 55.4448 77.5 55.4094 77.5 55.3741C77.5 55.3387 77.5 55.3034 77.5 55.2682C77.5 55.2329 77.5 55.1976 77.5 55.1624C77.5 55.1272 77.5 55.0921 77.5 55.0569C77.5 55.0218 77.5 54.9867 77.5 54.9517C77.5 54.9166 77.5 54.8816 77.5 54.8466C77.5 54.8116 77.5 54.7766 77.5 54.7417C77.5 54.7068 77.5 54.6719 77.5 54.6371C77.5 54.6023 77.5 54.5675 77.5 54.5327C77.5 54.4979 77.5 54.4632 77.5 54.4285C77.5 54.3938 77.5 54.3592 77.5 54.3245C77.5 54.2899 77.5 54.2553 77.5 54.2208C77.5 54.1863 77.5 54.1518 77.5 54.1173C77.5 54.0828 77.5 54.0484 77.5 54.014C77.5 53.9796 77.5 53.9453 77.5 53.911C77.5 53.8766 77.5 53.8424 77.5 53.8081C77.5 53.7739 77.5 53.7397 77.5 53.7055C77.5 53.6714 77.5 53.6373 77.5 53.6032C77.5 53.5691 77.5 53.5351 77.5 53.5011C77.5 53.4671 77.5 53.4331 77.5 53.3992C77.5 53.3653 77.5 53.3314 77.5 53.2976C77.5 53.2637 77.5 53.2299 77.5 53.1962C77.5 53.1624 77.5 53.1287 77.5 53.095C77.5 53.0613 77.5 53.0277 77.5 52.9941C77.5 52.9605 77.5 52.9269 77.5 52.8934C77.5 52.8599 77.5 52.8264 77.5 52.793C77.5 52.7595 77.5 52.7262 77.5 52.6928C77.5 52.6595 77.5 52.6261 77.5 52.5929C77.5 52.5596 77.5 52.5264 77.5 52.4932C77.5 52.46 77.5 52.4269 77.5 52.3938C77.5 52.3607 77.5 52.3276 77.5 52.2946C77.5 52.2616 77.5 52.2286 77.5 52.1957C77.5 52.1628 77.5 52.1299 77.5 52.097C77.5 52.0642 77.5 52.0314 77.5 51.9986C77.5 51.9659 77.5 51.9332 77.5 51.9005C77.5 51.8678 77.5 51.8352 77.5 51.8026C77.5 51.77 77.5 51.7375 77.5 51.705C77.5 51.6725 77.5 51.6401 77.5 51.6077C77.5 51.5753 77.5 51.5429 77.5 51.5106C77.5 51.4783 77.5 51.446 77.5 51.4138C77.5 51.3815 77.5 51.3493 77.5 51.3172C77.5 51.2851 77.5 51.253 77.5 51.2209C77.5 51.1889 77.5 51.1569 77.5 51.1249C77.5 51.093 77.5 51.0611 77.5 51.0292C77.5 50.9973 77.5 50.9655 77.5 50.9337C77.5 50.902 77.5 50.8702 77.5 50.8386C77.5 50.8069 77.5 50.7752 77.5 50.7437C77.5 50.7121 77.5 50.6805 77.5 50.649C77.5 50.6175 77.5 50.5861 77.5 50.5547C77.5 50.5233 77.5 50.4919 77.5 50.4606C77.5 50.4293 77.5 50.3981 77.5 50.3669C77.5 50.3356 77.5 50.3045 77.5 50.2734C77.5 50.2422 77.5 50.2112 77.5 50.1802C77.5 50.1491 77.5 50.1182 77.5 50.0872C77.5 50.0563 77.5 50.0254 77.5 49.9946C77.5 49.9638 77.5 49.933 77.5 49.9023C77.5 49.8716 77.5 49.8409 77.5 49.8102C77.5 49.7796 77.5 49.749 77.5 49.7185C77.5 49.688 77.5 49.6575 77.5 49.6271C77.5 49.5966 77.5 49.5662 77.5 49.5359C77.5 49.5056 77.5 49.4753 77.5 49.445C77.5 49.4148 77.5 49.3846 77.5 49.3545C77.5 49.3244 77.5 49.2943 77.5 49.2642C77.5 49.2342 77.5 49.2042 77.5 49.1743C77.5 49.1444 77.5 49.1145 77.5 49.0847C77.5 49.0548 77.5 49.025 77.5 48.9953C77.5 48.9656 77.5 48.9359 77.5 48.9063C77.5 48.8767 77.5 48.8471 77.5 48.8176C77.5 48.788 77.5 48.7586 77.5 48.7292C77.5 48.6997 77.5 48.6704 77.5 48.6411C77.5 48.6118 77.5 48.5825 77.5 48.5533C77.5 48.5241 77.5 48.4949 77.5 48.4658C77.5 48.4367 77.5 48.4077 77.5 48.3787C77.5 48.3497 77.5 48.3207 77.5 48.2918C77.5 48.2629 77.5 48.2341 77.5 48.2053C77.5 48.1765 77.5 48.1478 77.5 48.1191C77.5 48.0905 77.5 48.0618 77.5 48.0333C77.5 48.0047 77.5 47.9762 77.5 47.9477C77.5 47.9193 77.5 47.8909 77.5 47.8625C77.5 47.8342 77.5 47.8059 77.5 47.7776C77.5 47.7494 77.5 47.7212 77.5 47.6931C77.5 47.6649 77.5 47.6369 77.5 47.6088C77.5 47.5808 77.5 47.5529 77.5 47.5249C77.5 47.497 77.5 47.4692 77.5 47.4414C77.5 47.4136 77.5 47.3858 77.5 47.3582C77.5 47.3305 77.5 47.3028 77.5 47.2753C77.5 47.2477 77.5 47.2202 77.5 47.1927C77.5 47.1652 77.5 47.1378 77.5 47.1105C77.5 47.0831 77.5 47.0559 77.5 47.0286C77.5 47.0014 77.5 46.9742 77.5 46.9471C77.5 46.92 77.5 46.8929 77.5 46.8659C77.5 46.8389 77.5 46.8119 77.5 46.7851C77.5 46.7582 77.5 46.7313 77.5 46.7046C77.5 46.6778 77.5 46.6511 77.5 46.6244C77.5 46.5978 77.5 46.5712 77.5 46.5446C77.5 46.5181 77.5 46.4916 77.5 46.4652C77.5 46.4388 77.5 46.4124 77.5 46.3861C77.5 46.3598 77.5 46.3335 77.5 46.3073C77.5 46.2812 77.5 46.255 77.5 46.229C77.5 46.2029 77.5 46.1769 77.5 46.1509C77.5 46.125 77.5 46.0991 77.5 46.0733C77.5 46.0475 77.5 46.0217 77.5 45.996C77.5 45.9703 77.5 45.9446 77.5 45.919C77.5 45.8934 77.5 45.8679 77.5 45.8425C77.5 45.817 77.5 45.7916 77.5 45.7662C77.5 45.7409 77.5 45.7156 77.5 45.6904C77.5 45.6652 77.5 45.64 77.5 45.6149C77.5 45.5898 77.5 45.5648 77.5 45.5398C77.5 45.5148 77.5 45.4899 77.5 45.4651C77.5 45.4402 77.5 45.4154 77.5 45.3907C77.5 45.366 77.5 45.3413 77.5 45.3167C77.5 45.2921 77.5 45.2676 77.5 45.2431C77.5 45.2186 77.5 45.1942 77.5 45.1698C77.5 45.1455 77.5 45.1212 77.5 45.097C77.5 45.0728 77.5 45.0486 77.5 45.0245C77.5 45.0004 77.5 44.9764 77.5 44.9524C77.5 44.9284 77.5 44.9045 77.5 44.8807C77.5 44.8568 77.5 44.8331 77.5 44.8094C77.5 44.7856 77.5 44.762 77.5 44.7384C77.5 44.7148 77.5 44.6913 77.5 44.6679C77.5 44.6444 77.5 44.621 77.5 44.5977C77.5 44.5744 77.5 44.5511 77.5 44.5279C77.5 44.5047 77.5 44.4816 77.5 44.4585C77.5 44.4354 77.5 44.4125 77.5 44.3895C77.5 44.3666 77.5 44.3437 77.5 44.3209C77.5 44.2981 77.5 44.2754 77.5 44.2527C77.5 44.2301 77.5 44.2074 77.5 44.1849C77.5 44.1624 77.5 44.1399 77.5 44.1175C77.5 44.0951 77.5 44.0728 77.5 44.0505C77.5 44.0282 77.5 44.006 77.5 43.9839C77.5 43.9618 77.5 43.9397 77.5 43.9177C77.5 43.8957 77.5 43.8738 77.5 43.8519C77.5 43.8301 77.5 43.8083 77.5 43.7865C77.5 43.7648 77.5 43.7431 77.5 43.7216C77.5 43.7 77.5 43.6784 77.5 43.657C77.5 43.6355 77.5 43.6141 77.5 43.5928C77.5 43.5715 77.5 43.5503 77.5 43.5291C77.5 43.5079 77.5 43.4868 77.5 43.4658C77.5 43.4447 77.5 43.4237 77.5 43.4028C77.5 43.3819 77.5 43.3611 77.5 43.3404C77.5 43.3196 77.5 43.2989 77.5 43.2783C77.5 43.2577 77.5 43.2371 77.5 43.2166C77.5 43.1961 77.5 43.1757 77.5 43.1554C77.5 43.1351 77.5 43.1148 77.5 43.0946C77.5 43.0744 77.5 43.0543 77.5 43.0342C77.5 43.0141 77.5 42.9942 77.5 42.9742C77.5 42.9543 77.5 42.9345 77.5 42.9147C77.5 42.8949 77.5 42.8752 77.5 42.8556C77.5 42.836 77.5 42.8164 77.5 42.7969C77.5 42.7775 77.5 42.758 77.5 42.7387C77.5 42.7194 77.5 42.7001 77.5 42.6809C77.5 42.6617 77.5 42.6426 77.5 42.6235C77.5 42.6045 77.5 42.5855 77.5 42.5666C77.5 42.5477 77.5 42.5289 77.5 42.5101C77.5 42.4914 77.5 42.4727 77.5 42.4541C77.5 42.4355 77.5 42.4169 77.5 42.3985C77.5 42.38 77.5 42.3616 77.5 42.3433C77.5 42.325 77.5 42.3067 77.5 42.2886C77.5 42.2704 77.5 42.2523 77.5 42.2343C77.5 42.2163 77.5 42.1983 77.5 42.1805C77.5 42.1626 77.5 42.1448 77.5 42.1271C77.5 42.1094 77.5 42.0917 77.5 42.0742C77.5 42.0566 77.5 42.0391 77.5 42.0217C77.5 42.0043 77.5 41.9869 77.5 41.9697C77.5 41.9524 77.5 41.9352 77.5 41.9181C77.5 41.901 77.5 41.8839 77.5 41.867C77.5 41.85 77.5 41.8331 77.5 41.8163C77.5 41.7995 77.5 41.7828 77.5 41.7661C77.5 41.7495 77.5 41.7329 77.5 41.7164C77.5 41.6999 77.5 41.6835 77.5 41.6671C77.5 41.6508 77.5 41.6345 77.5 41.6183C77.5 41.6021 77.5 41.586 77.5 41.57C77.5 41.5539 77.5 41.538 77.5 41.5221C77.5 41.5062 77.5 41.4904 77.5 41.4747C77.5 41.459 77.5 41.4433 77.5 41.4277C77.5 41.4122 77.5 41.3967 77.5 41.3813C77.5 41.3659 77.5 41.3505 77.5 41.3353C77.5 41.32 77.5 41.3049 77.5 41.2898C77.5 41.2747 77.5 41.2597 77.5 41.2447C77.5 41.2298 77.5 41.2149 77.5 41.2002C77.5 41.1854 77.5 41.1707 77.5 41.1561C77.5 41.1415 77.5 41.1269 77.5 41.1125C77.5 41.098 77.5 41.0837 77.5 41.0694C77.5 41.0551 77.5 41.0409 77.5 41.0267C77.5 41.0126 77.5 40.9985 77.5 40.9846C77.5 40.9706 77.5 40.9567 77.5 40.9429C77.5 40.9291 77.5 40.9154 77.5 40.9017C77.5 40.8881 77.5 40.8745 77.5 40.861C77.5 40.8475 77.5 40.8342 77.5 40.8208C77.5 40.8075 77.5 40.7943 77.5 40.7811C77.5 40.768 77.5 40.7549 77.5 40.7419C77.5 40.7289 77.5 40.716 77.5 40.7032C77.5 40.6904 77.5 40.6776 77.5 40.665C77.5 40.6523 77.5 40.6397 77.5 40.6273C77.5 40.6148 77.5 40.6024 77.5 40.59C77.5 40.5777 77.5 40.5655 77.5 40.5533C77.5 40.5412 77.5 40.5291 77.5 40.5171C77.5 40.5051 77.5 40.4932 77.5 40.4814C77.5 40.4696 77.5 40.4578 77.5 40.4462C77.5 40.4345 77.5 40.423 77.5 40.4115C77.5 40.4 77.5 40.3886 77.5 40.3773C77.5 40.366 77.5 40.3548 77.5 40.3436C77.5 40.3325 77.5 40.3214 77.5 40.3105C77.5 40.2995 77.5 40.2886 77.5 40.2778C77.5 40.267 77.5 40.2563 77.5 40.2457C77.5 40.235 77.5 40.2245 77.5 40.214C77.5 40.2036 77.5 40.1932 77.5 40.1829C77.5 40.1727 77.5 40.1625 77.5 40.1524C77.5 40.1422 77.5 40.1322 77.5 40.1223C77.5 40.1124 77.5 40.1025 77.5 40.0928C77.5 40.083 77.5 40.0733 77.5 40.0637C77.5 40.0541 77.5 40.0447 77.5 40.0352C77.5 40.0258 77.5 40.0165 77.5 40.0073C77.5 39.998 77.5 39.9889 77.5 39.9798C77.5 39.9708 77.5 39.9618 77.5 39.9529C77.5 39.9441 77.5 39.9353 77.5 39.9266C77.5 39.9179 77.5 39.9093 77.5 39.9007C77.5 39.8922 77.5 39.8838 77.5 39.8754C77.5 39.8671 77.5 39.8588 77.5 39.8506C77.5 39.8425 77.5 39.8344 77.5 39.8264C77.5 39.8184 77.5 39.8105 77.5 39.8027C77.5 39.7949 77.5 39.7872 77.5 39.7796C77.5 39.7719 77.5 39.7644 77.5 39.757C77.5 39.7495 77.5 39.7422 77.5 39.7349C77.5 39.7276 77.5 39.7205 77.5 39.7134C77.5 39.7063 77.5 39.6993 77.5 39.6924C77.5 39.6855 77.5 39.6787 77.5 39.672C77.5 39.6652 77.5 39.6586 77.5 39.6521C77.5 39.6456 77.5 39.6391 77.5 39.6328C77.5 39.6264 77.5 39.6202 77.5 39.614C77.5 39.6078 77.5 39.6017 77.5 39.5958C77.5 39.5898 77.5 39.5839 77.5 39.5781C77.5 39.5723 77.5 39.5666 77.5 39.561C77.5 39.5554 77.5 39.5499 77.5 39.5444C77.5 39.539 77.5 39.5337 77.5 39.5285C77.5 39.5232 77.5 39.5181 77.5 39.513C77.5 39.508 77.5 39.503 77.5 39.4982C77.5 39.4933 77.5 39.4885 77.5 39.4839C77.5 39.4792 77.5 39.4746 77.5 39.4701C77.5 39.4656 77.5 39.4613 77.5 39.457C77.5 39.4527 77.5 39.4485 77.5 39.4444C77.5 39.4403 77.5 39.4363 77.5 39.4323C77.5 39.4284 77.5 39.4246 77.5 39.4209C77.5 39.4172 77.5 39.4135 77.5 39.41C77.5 39.4065 77.5 39.403 77.5 39.3997C77.5 39.3964 77.5 39.3931 77.5 39.39C77.5 39.3868 77.5 39.3838 77.5 39.3808C77.5 39.3779 77.5 39.375 77.5 39.3722C77.5 39.3695 77.5 39.3668 77.5 39.3643C77.5 39.3617 77.5 39.3592 77.5 39.3568C77.5 39.3545 77.5 39.3522 77.5 39.35C77.5 39.3478 77.5 39.3458 77.5 39.3438C77.5 39.3418 77.5 39.3399 77.5 39.3381C77.5 39.3363 77.5 39.3347 77.5 39.3331C77.5 39.3315 77.5 39.33 77.5 39.3286C77.5 39.3272 77.5 39.3259 77.5 39.3247C77.5 39.3235 77.5 39.3224 77.5 39.3214C77.5 39.3204 77.5 39.3195 77.5 39.3187C77.5 39.3179 77.5 39.3172 77.5 39.3166C77.5 39.316 77.5 39.3155 77.5 39.3151C77.5 39.3147 77.5 39.3144 77.5 39.3142C77.5 39.314 77.5 39.3139 81 39.3139Z" fill="#861657"/>
<path d="M9.33333 96.5C9.33333 106.809 17.6907 115.167 28 115.167C38.3093 115.167 46.6667 106.809 46.6667 96.5C46.6667 86.1907 38.3093 77.8333 28 77.8333C17.6907 77.8333 9.33333 86.1907 9.33333 96.5ZM82.5 80.6618V84.1618H89.5V80.6618H82.5ZM31.5 96.5V41.8342H24.5V96.5H31.5ZM31.5 41.8342C31.5 32.1662 34.8048 25.1215 39.5386 20.3831C44.3173 15.5998 50.7402 12.9808 57.2265 12.5601C63.7266 12.1386 70.0767 13.9356 74.7381 17.7013C79.3202 21.4031 82.5 27.1826 82.5 35.3139H89.5C89.5 25.1537 85.4298 17.3399 79.1369 12.2562C72.9233 7.23647 64.7734 5.05603 56.7735 5.57481C48.7598 6.09448 40.6827 9.33355 34.5864 15.4358C28.4452 21.5831 24.5 30.4516 24.5 41.8342H31.5ZM86 35.3139C82.5 35.3139 82.5 35.314 82.5 35.3142C82.5 35.3144 82.5 35.3147 82.5 35.3151C82.5 35.3155 82.5 35.316 82.5 35.3166C82.5 35.3172 82.5 35.3179 82.5 35.3187C82.5 35.3195 82.5 35.3204 82.5 35.3214C82.5 35.3224 82.5 35.3235 82.5 35.3247C82.5 35.3259 82.5 35.3272 82.5 35.3286C82.5 35.33 82.5 35.3315 82.5 35.3331C82.5 35.3347 82.5 35.3363 82.5 35.3381C82.5 35.3399 82.5 35.3418 82.5 35.3438C82.5 35.3458 82.5 35.3478 82.5 35.35C82.5 35.3522 82.5 35.3545 82.5 35.3568C82.5 35.3592 82.5 35.3617 82.5 35.3643C82.5 35.3668 82.5 35.3695 82.5 35.3722C82.5 35.375 82.5 35.3779 82.5 35.3808C82.5 35.3838 82.5 35.3868 82.5 35.39C82.5 35.3931 82.5 35.3964 82.5 35.3997C82.5 35.403 82.5 35.4065 82.5 35.41C82.5 35.4135 82.5 35.4172 82.5 35.4209C82.5 35.4246 82.5 35.4284 82.5 35.4323C82.5 35.4363 82.5 35.4403 82.5 35.4444C82.5 35.4485 82.5 35.4527 82.5 35.457C82.5 35.4613 82.5 35.4656 82.5 35.4701C82.5 35.4746 82.5 35.4792 82.5 35.4839C82.5 35.4885 82.5 35.4933 82.5 35.4982C82.5 35.503 82.5 35.508 82.5 35.513C82.5 35.5181 82.5 35.5232 82.5 35.5285C82.5 35.5337 82.5 35.539 82.5 35.5444C82.5 35.5499 82.5 35.5554 82.5 35.561C82.5 35.5666 82.5 35.5723 82.5 35.5781C82.5 35.5839 82.5 35.5898 82.5 35.5958C82.5 35.6017 82.5 35.6078 82.5 35.614C82.5 35.6202 82.5 35.6264 82.5 35.6328C82.5 35.6391 82.5 35.6456 82.5 35.6521C82.5 35.6586 82.5 35.6652 82.5 35.672C82.5 35.6787 82.5 35.6855 82.5 35.6924C82.5 35.6993 82.5 35.7063 82.5 35.7134C82.5 35.7205 82.5 35.7276 82.5 35.7349C82.5 35.7422 82.5 35.7495 82.5 35.757C82.5 35.7644 82.5 35.7719 82.5 35.7796C82.5 35.7872 82.5 35.7949 82.5 35.8027C82.5 35.8105 82.5 35.8184 82.5 35.8264C82.5 35.8344 82.5 35.8425 82.5 35.8506C82.5 35.8588 82.5 35.8671 82.5 35.8754C82.5 35.8838 82.5 35.8922 82.5 35.9007C82.5 35.9093 82.5 35.9179 82.5 35.9266C82.5 35.9353 82.5 35.9441 82.5 35.9529C82.5 35.9618 82.5 35.9708 82.5 35.9798C82.5 35.9889 82.5 35.998 82.5 36.0073C82.5 36.0165 82.5 36.0258 82.5 36.0352C82.5 36.0447 82.5 36.0541 82.5 36.0637C82.5 36.0733 82.5 36.083 82.5 36.0928C82.5 36.1025 82.5 36.1124 82.5 36.1223C82.5 36.1322 82.5 36.1422 82.5 36.1524C82.5 36.1625 82.5 36.1727 82.5 36.1829C82.5 36.1932 82.5 36.2036 82.5 36.214C82.5 36.2245 82.5 36.235 82.5 36.2457C82.5 36.2563 82.5 36.267 82.5 36.2778C82.5 36.2886 82.5 36.2995 82.5 36.3105C82.5 36.3214 82.5 36.3325 82.5 36.3436C82.5 36.3548 82.5 36.366 82.5 36.3773C82.5 36.3886 82.5 36.4 82.5 36.4115C82.5 36.423 82.5 36.4345 82.5 36.4462C82.5 36.4578 82.5 36.4696 82.5 36.4814C82.5 36.4932 82.5 36.5051 82.5 36.5171C82.5 36.5291 82.5 36.5412 82.5 36.5533C82.5 36.5655 82.5 36.5777 82.5 36.59C82.5 36.6024 82.5 36.6148 82.5 36.6273C82.5 36.6397 82.5 36.6523 82.5 36.665C82.5 36.6776 82.5 36.6904 82.5 36.7032C82.5 36.716 82.5 36.7289 82.5 36.7419C82.5 36.7549 82.5 36.768 82.5 36.7811C82.5 36.7943 82.5 36.8075 82.5 36.8208C82.5 36.8342 82.5 36.8475 82.5 36.861C82.5 36.8745 82.5 36.8881 82.5 36.9017C82.5 36.9154 82.5 36.9291 82.5 36.9429C82.5 36.9567 82.5 36.9706 82.5 36.9846C82.5 36.9985 82.5 37.0126 82.5 37.0267C82.5 37.0409 82.5 37.0551 82.5 37.0694C82.5 37.0837 82.5 37.098 82.5 37.1125C82.5 37.1269 82.5 37.1415 82.5 37.1561C82.5 37.1707 82.5 37.1854 82.5 37.2002C82.5 37.2149 82.5 37.2298 82.5 37.2447C82.5 37.2597 82.5 37.2747 82.5 37.2898C82.5 37.3049 82.5 37.32 82.5 37.3353C82.5 37.3505 82.5 37.3659 82.5 37.3813C82.5 37.3967 82.5 37.4122 82.5 37.4277C82.5 37.4433 82.5 37.459 82.5 37.4747C82.5 37.4904 82.5 37.5062 82.5 37.5221C82.5 37.538 82.5 37.5539 82.5 37.57C82.5 37.586 82.5 37.6021 82.5 37.6183C82.5 37.6345 82.5 37.6508 82.5 37.6671C82.5 37.6835 82.5 37.6999 82.5 37.7164C82.5 37.7329 82.5 37.7495 82.5 37.7661C82.5 37.7828 82.5 37.7995 82.5 37.8163C82.5 37.8331 82.5 37.85 82.5 37.867C82.5 37.8839 82.5 37.901 82.5 37.9181C82.5 37.9352 82.5 37.9524 82.5 37.9697C82.5 37.9869 82.5 38.0043 82.5 38.0217C82.5 38.0391 82.5 38.0566 82.5 38.0742C82.5 38.0917 82.5 38.1094 82.5 38.1271C82.5 38.1448 82.5 38.1626 82.5 38.1805C82.5 38.1983 82.5 38.2163 82.5 38.2343C82.5 38.2523 82.5 38.2704 82.5 38.2886C82.5 38.3067 82.5 38.325 82.5 38.3433C82.5 38.3616 82.5 38.38 82.5 38.3985C82.5 38.4169 82.5 38.4355 82.5 38.4541C82.5 38.4727 82.5 38.4914 82.5 38.5101C82.5 38.5289 82.5 38.5477 82.5 38.5666C82.5 38.5855 82.5 38.6045 82.5 38.6235C82.5 38.6426 82.5 38.6617 82.5 38.6809C82.5 38.7001 82.5 38.7194 82.5 38.7387C82.5 38.758 82.5 38.7775 82.5 38.7969C82.5 38.8164 82.5 38.836 82.5 38.8556C82.5 38.8752 82.5 38.8949 82.5 38.9147C82.5 38.9345 82.5 38.9543 82.5 38.9742C82.5 38.9942 82.5 39.0141 82.5 39.0342C82.5 39.0543 82.5 39.0744 82.5 39.0946C82.5 39.1148 82.5 39.1351 82.5 39.1554C82.5 39.1757 82.5 39.1961 82.5 39.2166C82.5 39.2371 82.5 39.2577 82.5 39.2783C82.5 39.2989 82.5 39.3196 82.5 39.3404C82.5 39.3611 82.5 39.3819 82.5 39.4028C82.5 39.4237 82.5 39.4447 82.5 39.4658C82.5 39.4868 82.5 39.5079 82.5 39.5291C82.5 39.5503 82.5 39.5715 82.5 39.5928C82.5 39.6141 82.5 39.6355 82.5 39.657C82.5 39.6784 82.5 39.7 82.5 39.7216C82.5 39.7431 82.5 39.7648 82.5 39.7865C82.5 39.8083 82.5 39.8301 82.5 39.8519C82.5 39.8738 82.5 39.8957 82.5 39.9177C82.5 39.9397 82.5 39.9618 82.5 39.9839C82.5 40.006 82.5 40.0282 82.5 40.0505C82.5 40.0728 82.5 40.0951 82.5 40.1175C82.5 40.1399 82.5 40.1624 82.5 40.1849C82.5 40.2074 82.5 40.2301 82.5 40.2527C82.5 40.2754 82.5 40.2981 82.5 40.3209C82.5 40.3437 82.5 40.3666 82.5 40.3895C82.5 40.4125 82.5 40.4354 82.5 40.4585C82.5 40.4816 82.5 40.5047 82.5 40.5279C82.5 40.5511 82.5 40.5744 82.5 40.5977C82.5 40.621 82.5 40.6444 82.5 40.6679C82.5 40.6913 82.5 40.7148 82.5 40.7384C82.5 40.762 82.5 40.7856 82.5 40.8094C82.5 40.8331 82.5 40.8568 82.5 40.8807C82.5 40.9045 82.5 40.9284 82.5 40.9524C82.5 40.9764 82.5 41.0004 82.5 41.0245C82.5 41.0486 82.5 41.0728 82.5 41.097C82.5 41.1212 82.5 41.1455 82.5 41.1698C82.5 41.1942 82.5 41.2186 82.5 41.2431C82.5 41.2676 82.5 41.2921 82.5 41.3167C82.5 41.3413 82.5 41.366 82.5 41.3907C82.5 41.4154 82.5 41.4402 82.5 41.4651C82.5 41.4899 82.5 41.5148 82.5 41.5398C82.5 41.5648 82.5 41.5898 82.5 41.6149C82.5 41.64 82.5 41.6652 82.5 41.6904C82.5 41.7156 82.5 41.7409 82.5 41.7662C82.5 41.7916 82.5 41.817 82.5 41.8425C82.5 41.8679 82.5 41.8934 82.5 41.919C82.5 41.9446 82.5 41.9703 82.5 41.996C82.5 42.0217 82.5 42.0475 82.5 42.0733C82.5 42.0991 82.5 42.125 82.5 42.1509C82.5 42.1769 82.5 42.2029 82.5 42.229C82.5 42.255 82.5 42.2812 82.5 42.3073C82.5 42.3335 82.5 42.3598 82.5 42.3861C82.5 42.4124 82.5 42.4388 82.5 42.4652C82.5 42.4916 82.5 42.5181 82.5 42.5446C82.5 42.5712 82.5 42.5978 82.5 42.6244C82.5 42.6511 82.5 42.6778 82.5 42.7046C82.5 42.7313 82.5 42.7582 82.5 42.7851C82.5 42.8119 82.5 42.8389 82.5 42.8659C82.5 42.8929 82.5 42.92 82.5 42.9471C82.5 42.9742 82.5 43.0014 82.5 43.0286C82.5 43.0559 82.5 43.0831 82.5 43.1105C82.5 43.1378 82.5 43.1652 82.5 43.1927C82.5 43.2202 82.5 43.2477 82.5 43.2753C82.5 43.3028 82.5 43.3305 82.5 43.3582C82.5 43.3858 82.5 43.4136 82.5 43.4414C82.5 43.4692 82.5 43.497 82.5 43.5249C82.5 43.5529 82.5 43.5808 82.5 43.6088C82.5 43.6369 82.5 43.6649 82.5 43.6931C82.5 43.7212 82.5 43.7494 82.5 43.7776C82.5 43.8059 82.5 43.8342 82.5 43.8625C82.5 43.8909 82.5 43.9193 82.5 43.9477C82.5 43.9762 82.5 44.0047 82.5 44.0333C82.5 44.0618 82.5 44.0905 82.5 44.1191C82.5 44.1478 82.5 44.1765 82.5 44.2053C82.5 44.2341 82.5 44.2629 82.5 44.2918C82.5 44.3207 82.5 44.3497 82.5 44.3787C82.5 44.4077 82.5 44.4367 82.5 44.4658C82.5 44.4949 82.5 44.5241 82.5 44.5533C82.5 44.5825 82.5 44.6118 82.5 44.6411C82.5 44.6704 82.5 44.6997 82.5 44.7292C82.5 44.7586 82.5 44.788 82.5 44.8176C82.5 44.8471 82.5 44.8767 82.5 44.9063C82.5 44.9359 82.5 44.9656 82.5 44.9953C82.5 45.025 82.5 45.0548 82.5 45.0847C82.5 45.1145 82.5 45.1444 82.5 45.1743C82.5 45.2042 82.5 45.2342 82.5 45.2642C82.5 45.2943 82.5 45.3244 82.5 45.3545C82.5 45.3846 82.5 45.4148 82.5 45.445C82.5 45.4753 82.5 45.5056 82.5 45.5359C82.5 45.5662 82.5 45.5966 82.5 45.6271C82.5 45.6575 82.5 45.688 82.5 45.7185C82.5 45.749 82.5 45.7796 82.5 45.8102C82.5 45.8409 82.5 45.8716 82.5 45.9023C82.5 45.933 82.5 45.9638 82.5 45.9946C82.5 46.0254 82.5 46.0563 82.5 46.0872C82.5 46.1182 82.5 46.1491 82.5 46.1802C82.5 46.2112 82.5 46.2422 82.5 46.2734C82.5 46.3045 82.5 46.3356 82.5 46.3669C82.5 46.3981 82.5 46.4293 82.5 46.4606C82.5 46.4919 82.5 46.5233 82.5 46.5547C82.5 46.5861 82.5 46.6175 82.5 46.649C82.5 46.6805 82.5 46.7121 82.5 46.7437C82.5 46.7752 82.5 46.8069 82.5 46.8386C82.5 46.8702 82.5 46.902 82.5 46.9337C82.5 46.9655 82.5 46.9973 82.5 47.0292C82.5 47.0611 82.5 47.093 82.5 47.1249C82.5 47.1569 82.5 47.1889 82.5 47.2209C82.5 47.253 82.5 47.2851 82.5 47.3172C82.5 47.3493 82.5 47.3815 82.5 47.4138C82.5 47.446 82.5 47.4783 82.5 47.5106C82.5 47.5429 82.5 47.5753 82.5 47.6077C82.5 47.6401 82.5 47.6725 82.5 47.705C82.5 47.7375 82.5 47.77 82.5 47.8026C82.5 47.8352 82.5 47.8678 82.5 47.9005C82.5 47.9332 82.5 47.9659 82.5 47.9986C82.5 48.0314 82.5 48.0642 82.5 48.097C82.5 48.1299 82.5 48.1628 82.5 48.1957C82.5 48.2286 82.5 48.2616 82.5 48.2946C82.5 48.3276 82.5 48.3607 82.5 48.3938C82.5 48.4269 82.5 48.46 82.5 48.4932C82.5 48.5264 82.5 48.5596 82.5 48.5929C82.5 48.6261 82.5 48.6595 82.5 48.6928C82.5 48.7262 82.5 48.7595 82.5 48.793C82.5 48.8264 82.5 48.8599 82.5 48.8934C82.5 48.9269 82.5 48.9605 82.5 48.9941C82.5 49.0277 82.5 49.0613 82.5 49.095C82.5 49.1287 82.5 49.1624 82.5 49.1962C82.5 49.2299 82.5 49.2637 82.5 49.2976C82.5 49.3314 82.5 49.3653 82.5 49.3992C82.5 49.4331 82.5 49.4671 82.5 49.5011C82.5 49.5351 82.5 49.5691 82.5 49.6032C82.5 49.6373 82.5 49.6714 82.5 49.7055C82.5 49.7397 82.5 49.7739 82.5 49.8081C82.5 49.8424 82.5 49.8766 82.5 49.911C82.5 49.9453 82.5 49.9796 82.5 50.014C82.5 50.0484 82.5 50.0828 82.5 50.1173C82.5 50.1518 82.5 50.1863 82.5 50.2208C82.5 50.2553 82.5 50.2899 82.5 50.3245C82.5 50.3592 82.5 50.3938 82.5 50.4285C82.5 50.4632 82.5 50.4979 82.5 50.5327C82.5 50.5675 82.5 50.6023 82.5 50.6371C82.5 50.6719 82.5 50.7068 82.5 50.7417C82.5 50.7766 82.5 50.8116 82.5 50.8466C82.5 50.8816 82.5 50.9166 82.5 50.9517C82.5 50.9867 82.5 51.0218 82.5 51.0569C82.5 51.0921 82.5 51.1272 82.5 51.1624C82.5 51.1976 82.5 51.2329 82.5 51.2682C82.5 51.3034 82.5 51.3387 82.5 51.3741C82.5 51.4094 82.5 51.4448 82.5 51.4802C82.5 51.5156 82.5 51.5511 82.5 51.5866C82.5 51.622 82.5 51.6576 82.5 51.6931C82.5 51.7287 82.5 51.7642 82.5 51.7999C82.5 51.8355 82.5 51.8711 82.5 51.9068C82.5 51.9425 82.5 51.9782 82.5 52.014C82.5 52.0497 82.5 52.0855 82.5 52.1214C82.5 52.1572 82.5 52.193 82.5 52.2289C82.5 52.2648 82.5 52.3007 82.5 52.3367C82.5 52.3726 82.5 52.4086 82.5 52.4446C82.5 52.4807 82.5 52.5167 82.5 52.5528C82.5 52.5889 82.5 52.625 82.5 52.6612C82.5 52.6973 82.5 52.7335 82.5 52.7697C82.5 52.8059 82.5 52.8422 82.5 52.8784C82.5 52.9147 82.5 52.951 82.5 52.9874C82.5 53.0237 82.5 53.0601 82.5 53.0965C82.5 53.1329 82.5 53.1693 82.5 53.2058C82.5 53.2422 82.5 53.2787 82.5 53.3153C82.5 53.3518 82.5 53.3883 82.5 53.4249C82.5 53.4615 82.5 53.4981 82.5 53.5348C82.5 53.5714 82.5 53.6081 82.5 53.6448C82.5 53.6815 82.5 53.7182 82.5 53.755C82.5 53.7918 82.5 53.8286 82.5 53.8654C82.5 53.9022 82.5 53.9391 82.5 53.976C82.5 54.0128 82.5 54.0497 82.5 54.0867C82.5 54.1236 82.5 54.1606 82.5 54.1976C82.5 54.2346 82.5 54.2716 82.5 54.3087C82.5 54.3457 82.5 54.3828 82.5 54.4199C82.5 54.457 82.5 54.4942 82.5 54.5313C82.5 54.5685 82.5 54.6057 82.5 54.6429C82.5 54.6801 82.5 54.7174 82.5 54.7547C82.5 54.792 82.5 54.8293 82.5 54.8666C82.5 54.9039 82.5 54.9413 82.5 54.9787C82.5 55.0161 82.5 55.0535 82.5 55.0909C82.5 55.1283 82.5 55.1658 82.5 55.2033C82.5 55.2408 82.5 55.2783 82.5 55.3159C82.5 55.3534 82.5 55.391 82.5 55.4286C82.5 55.4662 82.5 55.5038 82.5 55.5414C82.5 55.5791 82.5 55.6168 82.5 55.6545C82.5 55.6922 82.5 55.7299 82.5 55.7676C82.5 55.8054 82.5 55.8432 82.5 55.881C82.5 55.9188 82.5 55.9566 82.5 55.9944C82.5 56.0323 82.5 56.0701 82.5 56.108C82.5 56.1459 82.5 56.1839 82.5 56.2218C82.5 56.2598 82.5 56.2977 82.5 56.3357C82.5 56.3737 82.5 56.4117 82.5 56.4498C82.5 56.4878 82.5 56.5259 82.5 56.564C82.5 56.602 82.5 56.6402 82.5 56.6783C82.5 56.7164 82.5 56.7546 82.5 56.7928C82.5 56.8309 82.5 56.8691 82.5 56.9074C82.5 56.9456 82.5 56.9838 82.5 57.0221C82.5 57.0604 82.5 57.0987 82.5 57.137C82.5 57.1753 82.5 57.2136 82.5 57.252C82.5 57.2904 82.5 57.3287 82.5 57.3671C82.5 57.4055 82.5 57.444 82.5 57.4824C82.5 57.5209 82.5 57.5593 82.5 57.5978C82.5 57.6363 82.5 57.6748 82.5 57.7133C82.5 57.7519 82.5 57.7904 82.5 57.829C82.5 57.8676 82.5 57.9062 82.5 57.9448C82.5 57.9834 82.5 58.022 82.5 58.0607C82.5 58.0993 82.5 58.138 82.5 58.1767C82.5 58.2154 82.5 58.2541 82.5 58.2928C82.5 58.3315 82.5 58.3703 82.5 58.4091C82.5 58.4478 82.5 58.4866 82.5 58.5254C82.5 58.5642 82.5 58.6031 82.5 58.6419C82.5 58.6808 82.5 58.7196 82.5 58.7585C82.5 58.7974 82.5 58.8363 82.5 58.8752C82.5 58.9141 82.5 58.9531 82.5 58.992C82.5 59.031 82.5 59.07 82.5 59.109C82.5 59.1479 82.5 59.187 82.5 59.226C82.5 59.265 82.5 59.3041 82.5 59.3431C82.5 59.3822 82.5 59.4213 82.5 59.4604C82.5 59.4995 82.5 59.5386 82.5 59.5777C82.5 59.6168 82.5 59.656 82.5 59.6951C82.5 59.7343 82.5 59.7735 82.5 59.8127C82.5 59.8519 82.5 59.8911 82.5 59.9303C82.5 59.9696 82.5 60.0088 82.5 60.0481C82.5 60.0873 82.5 60.1266 82.5 60.1659C82.5 60.2052 82.5 60.2445 82.5 60.2838C82.5 60.3232 82.5 60.3625 82.5 60.4018C82.5 60.4412 82.5 60.4806 82.5 60.52C82.5 60.5593 82.5 60.5987 82.5 60.6381C82.5 60.6776 82.5 60.717 82.5 60.7564C82.5 60.7959 82.5 60.8353 82.5 60.8748C82.5 60.9143 82.5 60.9538 82.5 60.9933C82.5 61.0328 82.5 61.0723 82.5 61.1118C82.5 61.1513 82.5 61.1909 82.5 61.2304C82.5 61.27 82.5 61.3095 82.5 61.3491C82.5 61.3887 82.5 61.4283 82.5 61.4679C82.5 61.5075 82.5 61.5471 82.5 61.5868C82.5 61.6264 82.5 61.666 82.5 61.7057C82.5 61.7453 82.5 61.785 82.5 61.8247C82.5 61.8644 82.5 61.9041 82.5 61.9438C82.5 61.9835 82.5 62.0232 82.5 62.0629C82.5 62.1026 82.5 62.1424 82.5 62.1821C82.5 62.2219 82.5 62.2616 82.5 62.3014C82.5 62.3412 82.5 62.381 82.5 62.4208C82.5 62.4605 82.5 62.5004 82.5 62.5402C82.5 62.58 82.5 62.6198 82.5 62.6596C82.5 62.6995 82.5 62.7393 82.5 62.7792C82.5 62.819 82.5 62.8589 82.5 62.8988C82.5 62.9387 82.5 62.9786 82.5 63.0185C82.5 63.0583 82.5 63.0983 82.5 63.1382C82.5 63.1781 82.5 63.218 82.5 63.2579C82.5 63.2979 82.5 63.3378 82.5 63.3778C82.5 63.4177 82.5 63.4577 82.5 63.4977C82.5 63.5376 82.5 63.5776 82.5 63.6176C82.5 63.6576 82.5 63.6976 82.5 63.7376C82.5 63.7776 82.5 63.8176 82.5 63.8576C82.5 63.8976 82.5 63.9376 82.5 63.9777C82.5 64.0177 82.5 64.0577 82.5 64.0978C82.5 64.1378 82.5 64.1779 82.5 64.218C82.5 64.258 82.5 64.2981 82.5 64.3382C82.5 64.3782 82.5 64.4183 82.5 64.4584C82.5 64.4985 82.5 64.5386 82.5 64.5787C82.5 64.6188 82.5 64.6589 82.5 64.699C82.5 64.7391 82.5 64.7793 82.5 64.8194C82.5 64.8595 82.5 64.8997 82.5 64.9398C82.5 64.9799 82.5 65.0201 82.5 65.0602C82.5 65.1004 82.5 65.1405 82.5 65.1807C82.5 65.2208 82.5 65.261 82.5 65.3012C82.5 65.3414 82.5 65.3815 82.5 65.4217C82.5 65.4619 82.5 65.5021 82.5 65.5423C82.5 65.5824 82.5 65.6226 82.5 65.6628C82.5 65.703 82.5 65.7432 82.5 65.7834C82.5 65.8236 82.5 65.8638 82.5 65.9041C82.5 65.9443 82.5 65.9845 82.5 66.0247C82.5 66.0649 82.5 66.1051 82.5 66.1454C82.5 66.1856 82.5 66.2258 82.5 66.266C82.5 66.3063 82.5 66.3465 82.5 66.3867C82.5 66.427 82.5 66.4672 82.5 66.5075C82.5 66.5477 82.5 66.5879 82.5 66.6282C82.5 66.6684 82.5 66.7087 82.5 66.7489C82.5 66.7892 82.5 66.8294 82.5 66.8697C82.5 66.9099 82.5 66.9502 82.5 66.9904C82.5 67.0307 82.5 67.071 82.5 67.1112C82.5 67.1515 82.5 67.1917 82.5 67.232C82.5 67.2722 82.5 67.3125 82.5 67.3528C82.5 67.393 82.5 67.4333 82.5 67.4735C82.5 67.5138 82.5 67.5541 82.5 67.5943C82.5 67.6346 82.5 67.6749 82.5 67.7151C82.5 67.7554 82.5 67.7956 82.5 67.8359C82.5 67.8762 82.5 67.9164 82.5 67.9567C82.5 67.9969 82.5 68.0372 82.5 68.0775C82.5 68.1177 82.5 68.158 82.5 68.1982C82.5 68.2385 82.5 68.2788 82.5 68.319C82.5 68.3593 82.5 68.3995 82.5 68.4398C82.5 68.48 82.5 68.5203 82.5 68.5605C82.5 68.6008 82.5 68.641 82.5 68.6812C82.5 68.7215 82.5 68.7617 82.5 68.802C82.5 68.8422 82.5 68.8824 82.5 68.9227C82.5 68.9629 82.5 69.0031 82.5 69.0434C82.5 69.0836 82.5 69.1238 82.5 69.164C82.5 69.2043 82.5 69.2445 82.5 69.2847C82.5 69.3249 82.5 69.3651 82.5 69.4053C82.5 69.4455 82.5 69.4857 82.5 69.5259C82.5 69.5661 82.5 69.6063 82.5 69.6465C82.5 69.6867 82.5 69.7269 82.5 69.7671C82.5 69.8073 82.5 69.8474 82.5 69.8876C82.5 69.9278 82.5 69.968 82.5 70.0081C82.5 70.0483 82.5 70.0885 82.5 70.1286C82.5 70.1688 82.5 70.2089 82.5 70.2491C82.5 70.2892 82.5 70.3293 82.5 70.3695C82.5 70.4096 82.5 70.4497 82.5 70.4898C82.5 70.53 82.5 70.5701 82.5 70.6102C82.5 70.6503 82.5 70.6904 82.5 70.7305C82.5 70.7706 82.5 70.8107 82.5 70.8508C82.5 70.8909 82.5 70.9309 82.5 70.971C82.5 71.0111 82.5 71.0511 82.5 71.0912C82.5 71.1312 82.5 71.1713 82.5 71.2113C82.5 71.2514 82.5 71.2914 82.5 71.3314C82.5 71.3715 82.5 71.4115 82.5 71.4515C82.5 71.4915 82.5 71.5315 82.5 71.5715C82.5 71.6115 82.5 71.6515 82.5 71.6914C82.5 71.7314 82.5 71.7714 82.5 71.8113C82.5 71.8513 82.5 71.8913 82.5 71.9312C82.5 71.9711 82.5 72.0111 82.5 72.051C82.5 72.0909 82.5 72.1308 82.5 72.1707C82.5 72.2106 82.5 72.2505 82.5 72.2904C82.5 72.3303 82.5 72.3702 82.5 72.4101C82.5 72.4499 82.5 72.4898 82.5 72.5296C82.5 72.5695 82.5 72.6093 82.5 72.6491C82.5 72.689 82.5 72.7288 82.5 72.7686C82.5 72.8084 82.5 72.8482 82.5 72.888C82.5 72.9277 82.5 72.9675 82.5 73.0073C82.5 73.047 82.5 73.0868 82.5 73.1265C82.5 73.1663 82.5 73.206 82.5 73.2457C82.5 73.2854 82.5 73.3251 82.5 73.3648C82.5 73.4045 82.5 73.4442 82.5 73.4839C82.5 73.5235 82.5 73.5632 82.5 73.6028C82.5 73.6425 82.5 73.6821 82.5 73.7217C82.5 73.7613 82.5 73.8009 82.5 73.8405C82.5 73.8801 82.5 73.9197 82.5 73.9593C82.5 73.9988 82.5 74.0384 82.5 74.0779C82.5 74.1175 82.5 74.157 82.5 74.1965C82.5 74.236 82.5 74.2755 82.5 74.315C82.5 74.3545 82.5 74.394 82.5 74.4334C82.5 74.4729 82.5 74.5123 82.5 74.5517C82.5 74.5912 82.5 74.6306 82.5 74.67C82.5 74.7094 82.5 74.7488 82.5 74.7881C82.5 74.8275 82.5 74.8669 82.5 74.9062C82.5 74.9455 82.5 74.9849 82.5 75.0242C82.5 75.0635 82.5 75.1028 82.5 75.142C82.5 75.1813 82.5 75.2206 82.5 75.2598C82.5 75.2991 82.5 75.3383 82.5 75.3775C82.5 75.4167 82.5 75.4559 82.5 75.4951C82.5 75.5343 82.5 75.5734 82.5 75.6126C82.5 75.6517 82.5 75.6909 82.5 75.73C82.5 75.7691 82.5 75.8082 82.5 75.8473C82.5 75.8864 82.5 75.9254 82.5 75.9645C82.5 76.0035 82.5 76.0425 82.5 76.0816C82.5 76.1206 82.5 76.1596 82.5 76.1985C82.5 76.2375 82.5 76.2765 82.5 76.3154C82.5 76.3543 82.5 76.3932 82.5 76.4322C82.5 76.4711 82.5 76.5099 82.5 76.5488C82.5 76.5877 82.5 76.6265 82.5 76.6653C82.5 76.7042 82.5 76.743 82.5 76.7818C82.5 76.8205 82.5 76.8593 82.5 76.8981C82.5 76.9368 82.5 76.9755 82.5 77.0143C82.5 77.053 82.5 77.0917 82.5 77.1303C82.5 77.169 82.5 77.2077 82.5 77.2463C82.5 77.2849 82.5 77.3235 82.5 77.3621C82.5 77.4007 82.5 77.4393 82.5 77.4778C82.5 77.5164 82.5 77.5549 82.5 77.5934C82.5 77.6319 82.5 77.6704 82.5 77.7089C82.5 77.7473 82.5 77.7858 82.5 77.8242C82.5 77.8626 82.5 77.901 82.5 77.9394C82.5 77.9778 82.5 78.0162 82.5 78.0545C82.5 78.0928 82.5 78.1311 82.5 78.1694C82.5 78.2077 82.5 78.246 82.5 78.2842C82.5 78.3225 82.5 78.3607 82.5 78.3989C82.5 78.4371 82.5 78.4753 82.5 78.5135C82.5 78.5516 82.5 78.5897 82.5 78.6278C82.5 78.666 82.5 78.704 82.5 78.7421C82.5 78.7802 82.5 78.8182 82.5 78.8562C82.5 78.8942 82.5 78.9322 82.5 78.9702C82.5 79.0082 82.5 79.0461 82.5 79.084C82.5 79.122 82.5 79.1599 82.5 79.1977C82.5 79.2356 82.5 79.2735 82.5 79.3113C82.5 79.3491 82.5 79.3869 82.5 79.4247C82.5 79.4624 82.5 79.5002 82.5 79.5379C82.5 79.5756 82.5 79.6133 82.5 79.651C82.5 79.6887 82.5 79.7263 82.5 79.7639C82.5 79.8016 82.5 79.8392 82.5 79.8767C82.5 79.9143 82.5 79.9518 82.5 79.9894C82.5 80.0269 82.5 80.0644 82.5 80.1018C82.5 80.1393 82.5 80.1767 82.5 80.2141C82.5 80.2516 82.5 80.2889 82.5 80.3263C82.5 80.3637 82.5 80.401 82.5 80.4383C82.5 80.4756 82.5 80.5129 82.5 80.5501C82.5 80.5874 82.5 80.6246 82.5 80.6618H89.5C89.5 80.6246 89.5 80.5874 89.5 80.5501C89.5 80.5129 89.5 80.4756 89.5 80.4383C89.5 80.401 89.5 80.3637 89.5 80.3263C89.5 80.2889 89.5 80.2516 89.5 80.2141C89.5 80.1767 89.5 80.1393 89.5 80.1018C89.5 80.0644 89.5 80.0269 89.5 79.9894C89.5 79.9518 89.5 79.9143 89.5 79.8767C89.5 79.8392 89.5 79.8016 89.5 79.7639C89.5 79.7263 89.5 79.6887 89.5 79.651C89.5 79.6133 89.5 79.5756 89.5 79.5379C89.5 79.5002 89.5 79.4624 89.5 79.4247C89.5 79.3869 89.5 79.3491 89.5 79.3113C89.5 79.2735 89.5 79.2356 89.5 79.1977C89.5 79.1599 89.5 79.122 89.5 79.084C89.5 79.0461 89.5 79.0082 89.5 78.9702C89.5 78.9322 89.5 78.8942 89.5 78.8562C89.5 78.8182 89.5 78.7802 89.5 78.7421C89.5 78.704 89.5 78.666 89.5 78.6278C89.5 78.5897 89.5 78.5516 89.5 78.5135C89.5 78.4753 89.5 78.4371 89.5 78.3989C89.5 78.3607 89.5 78.3225 89.5 78.2842C89.5 78.246 89.5 78.2077 89.5 78.1694C89.5 78.1311 89.5 78.0928 89.5 78.0545C89.5 78.0162 89.5 77.9778 89.5 77.9394C89.5 77.901 89.5 77.8626 89.5 77.8242C89.5 77.7858 89.5 77.7473 89.5 77.7089C89.5 77.6704 89.5 77.6319 89.5 77.5934C89.5 77.5549 89.5 77.5164 89.5 77.4778C89.5 77.4393 89.5 77.4007 89.5 77.3621C89.5 77.3235 89.5 77.2849 89.5 77.2463C89.5 77.2077 89.5 77.169 89.5 77.1303C89.5 77.0917 89.5 77.053 89.5 77.0143C89.5 76.9755 89.5 76.9368 89.5 76.8981C89.5 76.8593 89.5 76.8205 89.5 76.7818C89.5 76.743 89.5 76.7042 89.5 76.6653C89.5 76.6265 89.5 76.5877 89.5 76.5488C89.5 76.5099 89.5 76.4711 89.5 76.4322C89.5 76.3932 89.5 76.3543 89.5 76.3154C89.5 76.2765 89.5 76.2375 89.5 76.1985C89.5 76.1596 89.5 76.1206 89.5 76.0816C89.5 76.0425 89.5 76.0035 89.5 75.9645C89.5 75.9254 89.5 75.8864 89.5 75.8473C89.5 75.8082 89.5 75.7691 89.5 75.73C89.5 75.6909 89.5 75.6517 89.5 75.6126C89.5 75.5734 89.5 75.5343 89.5 75.4951C89.5 75.4559 89.5 75.4167 89.5 75.3775C89.5 75.3383 89.5 75.2991 89.5 75.2598C89.5 75.2206 89.5 75.1813 89.5 75.142C89.5 75.1028 89.5 75.0635 89.5 75.0242C89.5 74.9849 89.5 74.9455 89.5 74.9062C89.5 74.8669 89.5 74.8275 89.5 74.7881C89.5 74.7488 89.5 74.7094 89.5 74.67C89.5 74.6306 89.5 74.5912 89.5 74.5517C89.5 74.5123 89.5 74.4729 89.5 74.4334C89.5 74.394 89.5 74.3545 89.5 74.315C89.5 74.2755 89.5 74.236 89.5 74.1965C89.5 74.157 89.5 74.1175 89.5 74.0779C89.5 74.0384 89.5 73.9988 89.5 73.9593C89.5 73.9197 89.5 73.8801 89.5 73.8405C89.5 73.8009 89.5 73.7613 89.5 73.7217C89.5 73.6821 89.5 73.6425 89.5 73.6028C89.5 73.5632 89.5 73.5235 89.5 73.4839C89.5 73.4442 89.5 73.4045 89.5 73.3648C89.5 73.3251 89.5 73.2854 89.5 73.2457C89.5 73.206 89.5 73.1663 89.5 73.1265C89.5 73.0868 89.5 73.047 89.5 73.0073C89.5 72.9675 89.5 72.9277 89.5 72.888C89.5 72.8482 89.5 72.8084 89.5 72.7686C89.5 72.7288 89.5 72.689 89.5 72.6491C89.5 72.6093 89.5 72.5695 89.5 72.5296C89.5 72.4898 89.5 72.4499 89.5 72.4101C89.5 72.3702 89.5 72.3303 89.5 72.2904C89.5 72.2505 89.5 72.2106 89.5 72.1707C89.5 72.1308 89.5 72.0909 89.5 72.051C89.5 72.0111 89.5 71.9711 89.5 71.9312C89.5 71.8913 89.5 71.8513 89.5 71.8113C89.5 71.7714 89.5 71.7314 89.5 71.6914C89.5 71.6515 89.5 71.6115 89.5 71.5715C89.5 71.5315 89.5 71.4915 89.5 71.4515C89.5 71.4115 89.5 71.3715 89.5 71.3314C89.5 71.2914 89.5 71.2514 89.5 71.2113C89.5 71.1713 89.5 71.1312 89.5 71.0912C89.5 71.0511 89.5 71.0111 89.5 70.971C89.5 70.9309 89.5 70.8909 89.5 70.8508C89.5 70.8107 89.5 70.7706 89.5 70.7305C89.5 70.6904 89.5 70.6503 89.5 70.6102C89.5 70.5701 89.5 70.53 89.5 70.4898C89.5 70.4497 89.5 70.4096 89.5 70.3695C89.5 70.3293 89.5 70.2892 89.5 70.2491C89.5 70.2089 89.5 70.1688 89.5 70.1286C89.5 70.0885 89.5 70.0483 89.5 70.0081C89.5 69.968 89.5 69.9278 89.5 69.8876C89.5 69.8474 89.5 69.8073 89.5 69.7671C89.5 69.7269 89.5 69.6867 89.5 69.6465C89.5 69.6063 89.5 69.5661 89.5 69.5259C89.5 69.4857 89.5 69.4455 89.5 69.4053C89.5 69.3651 89.5 69.3249 89.5 69.2847C89.5 69.2445 89.5 69.2043 89.5 69.164C89.5 69.1238 89.5 69.0836 89.5 69.0434C89.5 69.0031 89.5 68.9629 89.5 68.9227C89.5 68.8824 89.5 68.8422 89.5 68.802C89.5 68.7617 89.5 68.7215 89.5 68.6812C89.5 68.641 89.5 68.6008 89.5 68.5605C89.5 68.5203 89.5 68.48 89.5 68.4398C89.5 68.3995 89.5 68.3593 89.5 68.319C89.5 68.2788 89.5 68.2385 89.5 68.1982C89.5 68.158 89.5 68.1177 89.5 68.0775C89.5 68.0372 89.5 67.9969 89.5 67.9567C89.5 67.9164 89.5 67.8762 89.5 67.8359C89.5 67.7956 89.5 67.7554 89.5 67.7151C89.5 67.6749 89.5 67.6346 89.5 67.5943C89.5 67.5541 89.5 67.5138 89.5 67.4735C89.5 67.4333 89.5 67.393 89.5 67.3528C89.5 67.3125 89.5 67.2722 89.5 67.232C89.5 67.1917 89.5 67.1515 89.5 67.1112C89.5 67.071 89.5 67.0307 89.5 66.9904C89.5 66.9502 89.5 66.9099 89.5 66.8697C89.5 66.8294 89.5 66.7892 89.5 66.7489C89.5 66.7087 89.5 66.6684 89.5 66.6282C89.5 66.5879 89.5 66.5477 89.5 66.5075C89.5 66.4672 89.5 66.427 89.5 66.3867C89.5 66.3465 89.5 66.3063 89.5 66.266C89.5 66.2258 89.5 66.1856 89.5 66.1454C89.5 66.1051 89.5 66.0649 89.5 66.0247C89.5 65.9845 89.5 65.9443 89.5 65.9041C89.5 65.8638 89.5 65.8236 89.5 65.7834C89.5 65.7432 89.5 65.703 89.5 65.6628C89.5 65.6226 89.5 65.5824 89.5 65.5423C89.5 65.5021 89.5 65.4619 89.5 65.4217C89.5 65.3815 89.5 65.3414 89.5 65.3012C89.5 65.261 89.5 65.2208 89.5 65.1807C89.5 65.1405 89.5 65.1004 89.5 65.0602C89.5 65.0201 89.5 64.9799 89.5 64.9398C89.5 64.8997 89.5 64.8595 89.5 64.8194C89.5 64.7793 89.5 64.7391 89.5 64.699C89.5 64.6589 89.5 64.6188 89.5 64.5787C89.5 64.5386 89.5 64.4985 89.5 64.4584C89.5 64.4183 89.5 64.3782 89.5 64.3382C89.5 64.2981 89.5 64.258 89.5 64.218C89.5 64.1779 89.5 64.1378 89.5 64.0978C89.5 64.0577 89.5 64.0177 89.5 63.9777C89.5 63.9376 89.5 63.8976 89.5 63.8576C89.5 63.8176 89.5 63.7776 89.5 63.7376C89.5 63.6976 89.5 63.6576 89.5 63.6176C89.5 63.5776 89.5 63.5376 89.5 63.4977C89.5 63.4577 89.5 63.4177 89.5 63.3778C89.5 63.3378 89.5 63.2979 89.5 63.2579C89.5 63.218 89.5 63.1781 89.5 63.1382C89.5 63.0983 89.5 63.0583 89.5 63.0185C89.5 62.9786 89.5 62.9387 89.5 62.8988C89.5 62.8589 89.5 62.819 89.5 62.7792C89.5 62.7393 89.5 62.6995 89.5 62.6596C89.5 62.6198 89.5 62.58 89.5 62.5402C89.5 62.5004 89.5 62.4605 89.5 62.4208C89.5 62.381 89.5 62.3412 89.5 62.3014C89.5 62.2616 89.5 62.2219 89.5 62.1821C89.5 62.1424 89.5 62.1026 89.5 62.0629C89.5 62.0232 89.5 61.9835 89.5 61.9438C89.5 61.9041 89.5 61.8644 89.5 61.8247C89.5 61.785 89.5 61.7453 89.5 61.7057C89.5 61.666 89.5 61.6264 89.5 61.5868C89.5 61.5471 89.5 61.5075 89.5 61.4679C89.5 61.4283 89.5 61.3887 89.5 61.3491C89.5 61.3095 89.5 61.27 89.5 61.2304C89.5 61.1909 89.5 61.1513 89.5 61.1118C89.5 61.0723 89.5 61.0328 89.5 60.9933C89.5 60.9538 89.5 60.9143 89.5 60.8748C89.5 60.8353 89.5 60.7959 89.5 60.7564C89.5 60.717 89.5 60.6776 89.5 60.6381C89.5 60.5987 89.5 60.5593 89.5 60.52C89.5 60.4806 89.5 60.4412 89.5 60.4018C89.5 60.3625 89.5 60.3232 89.5 60.2838C89.5 60.2445 89.5 60.2052 89.5 60.1659C89.5 60.1266 89.5 60.0873 89.5 60.0481C89.5 60.0088 89.5 59.9696 89.5 59.9303C89.5 59.8911 89.5 59.8519 89.5 59.8127C89.5 59.7735 89.5 59.7343 89.5 59.6951C89.5 59.656 89.5 59.6168 89.5 59.5777C89.5 59.5386 89.5 59.4995 89.5 59.4604C89.5 59.4213 89.5 59.3822 89.5 59.3431C89.5 59.3041 89.5 59.265 89.5 59.226C89.5 59.187 89.5 59.1479 89.5 59.109C89.5 59.07 89.5 59.031 89.5 58.992C89.5 58.9531 89.5 58.9141 89.5 58.8752C89.5 58.8363 89.5 58.7974 89.5 58.7585C89.5 58.7196 89.5 58.6808 89.5 58.6419C89.5 58.6031 89.5 58.5642 89.5 58.5254C89.5 58.4866 89.5 58.4478 89.5 58.4091C89.5 58.3703 89.5 58.3315 89.5 58.2928C89.5 58.2541 89.5 58.2154 89.5 58.1767C89.5 58.138 89.5 58.0993 89.5 58.0607C89.5 58.022 89.5 57.9834 89.5 57.9448C89.5 57.9062 89.5 57.8676 89.5 57.829C89.5 57.7904 89.5 57.7519 89.5 57.7133C89.5 57.6748 89.5 57.6363 89.5 57.5978C89.5 57.5593 89.5 57.5209 89.5 57.4824C89.5 57.444 89.5 57.4055 89.5 57.3671C89.5 57.3287 89.5 57.2904 89.5 57.252C89.5 57.2136 89.5 57.1753 89.5 57.137C89.5 57.0987 89.5 57.0604 89.5 57.0221C89.5 56.9838 89.5 56.9456 89.5 56.9074C89.5 56.8691 89.5 56.8309 89.5 56.7928C89.5 56.7546 89.5 56.7164 89.5 56.6783C89.5 56.6402 89.5 56.602 89.5 56.564C89.5 56.5259 89.5 56.4878 89.5 56.4498C89.5 56.4117 89.5 56.3737 89.5 56.3357C89.5 56.2977 89.5 56.2598 89.5 56.2218C89.5 56.1839 89.5 56.1459 89.5 56.108C89.5 56.0701 89.5 56.0323 89.5 55.9944C89.5 55.9566 89.5 55.9188 89.5 55.881C89.5 55.8432 89.5 55.8054 89.5 55.7676C89.5 55.7299 89.5 55.6922 89.5 55.6545C89.5 55.6168 89.5 55.5791 89.5 55.5414C89.5 55.5038 89.5 55.4662 89.5 55.4286C89.5 55.391 89.5 55.3534 89.5 55.3159C89.5 55.2783 89.5 55.2408 89.5 55.2033C89.5 55.1658 89.5 55.1283 89.5 55.0909C89.5 55.0535 89.5 55.0161 89.5 54.9787C89.5 54.9413 89.5 54.9039 89.5 54.8666C89.5 54.8293 89.5 54.792 89.5 54.7547C89.5 54.7174 89.5 54.6801 89.5 54.6429C89.5 54.6057 89.5 54.5685 89.5 54.5313C89.5 54.4942 89.5 54.457 89.5 54.4199C89.5 54.3828 89.5 54.3457 89.5 54.3087C89.5 54.2716 89.5 54.2346 89.5 54.1976C89.5 54.1606 89.5 54.1236 89.5 54.0867C89.5 54.0497 89.5 54.0128 89.5 53.976C89.5 53.9391 89.5 53.9022 89.5 53.8654C89.5 53.8286 89.5 53.7918 89.5 53.755C89.5 53.7182 89.5 53.6815 89.5 53.6448C89.5 53.6081 89.5 53.5714 89.5 53.5348C89.5 53.4981 89.5 53.4615 89.5 53.4249C89.5 53.3883 89.5 53.3518 89.5 53.3153C89.5 53.2787 89.5 53.2422 89.5 53.2058C89.5 53.1693 89.5 53.1329 89.5 53.0965C89.5 53.0601 89.5 53.0237 89.5 52.9874C89.5 52.951 89.5 52.9147 89.5 52.8784C89.5 52.8422 89.5 52.8059 89.5 52.7697C89.5 52.7335 89.5 52.6973 89.5 52.6612C89.5 52.625 89.5 52.5889 89.5 52.5528C89.5 52.5167 89.5 52.4807 89.5 52.4446C89.5 52.4086 89.5 52.3726 89.5 52.3367C89.5 52.3007 89.5 52.2648 89.5 52.2289C89.5 52.193 89.5 52.1572 89.5 52.1214C89.5 52.0855 89.5 52.0497 89.5 52.014C89.5 51.9782 89.5 51.9425 89.5 51.9068C89.5 51.8711 89.5 51.8355 89.5 51.7999C89.5 51.7642 89.5 51.7287 89.5 51.6931C89.5 51.6576 89.5 51.622 89.5 51.5866C89.5 51.5511 89.5 51.5156 89.5 51.4802C89.5 51.4448 89.5 51.4094 89.5 51.3741C89.5 51.3387 89.5 51.3034 89.5 51.2682C89.5 51.2329 89.5 51.1976 89.5 51.1624C89.5 51.1272 89.5 51.0921 89.5 51.0569C89.5 51.0218 89.5 50.9867 89.5 50.9517C89.5 50.9166 89.5 50.8816 89.5 50.8466C89.5 50.8116 89.5 50.7766 89.5 50.7417C89.5 50.7068 89.5 50.6719 89.5 50.6371C89.5 50.6023 89.5 50.5675 89.5 50.5327C89.5 50.4979 89.5 50.4632 89.5 50.4285C89.5 50.3938 89.5 50.3592 89.5 50.3245C89.5 50.2899 89.5 50.2553 89.5 50.2208C89.5 50.1863 89.5 50.1518 89.5 50.1173C89.5 50.0828 89.5 50.0484 89.5 50.014C89.5 49.9796 89.5 49.9453 89.5 49.911C89.5 49.8766 89.5 49.8424 89.5 49.8081C89.5 49.7739 89.5 49.7397 89.5 49.7055C89.5 49.6714 89.5 49.6373 89.5 49.6032C89.5 49.5691 89.5 49.5351 89.5 49.5011C89.5 49.4671 89.5 49.4331 89.5 49.3992C89.5 49.3653 89.5 49.3314 89.5 49.2976C89.5 49.2637 89.5 49.2299 89.5 49.1962C89.5 49.1624 89.5 49.1287 89.5 49.095C89.5 49.0613 89.5 49.0277 89.5 48.9941C89.5 48.9605 89.5 48.9269 89.5 48.8934C89.5 48.8599 89.5 48.8264 89.5 48.793C89.5 48.7595 89.5 48.7262 89.5 48.6928C89.5 48.6595 89.5 48.6261 89.5 48.5929C89.5 48.5596 89.5 48.5264 89.5 48.4932C89.5 48.46 89.5 48.4269 89.5 48.3938C89.5 48.3607 89.5 48.3276 89.5 48.2946C89.5 48.2616 89.5 48.2286 89.5 48.1957C89.5 48.1628 89.5 48.1299 89.5 48.097C89.5 48.0642 89.5 48.0314 89.5 47.9986C89.5 47.9659 89.5 47.9332 89.5 47.9005C89.5 47.8678 89.5 47.8352 89.5 47.8026C89.5 47.77 89.5 47.7375 89.5 47.705C89.5 47.6725 89.5 47.6401 89.5 47.6077C89.5 47.5753 89.5 47.5429 89.5 47.5106C89.5 47.4783 89.5 47.446 89.5 47.4138C89.5 47.3815 89.5 47.3493 89.5 47.3172C89.5 47.2851 89.5 47.253 89.5 47.2209C89.5 47.1889 89.5 47.1569 89.5 47.1249C89.5 47.093 89.5 47.0611 89.5 47.0292C89.5 46.9973 89.5 46.9655 89.5 46.9337C89.5 46.902 89.5 46.8702 89.5 46.8386C89.5 46.8069 89.5 46.7752 89.5 46.7437C89.5 46.7121 89.5 46.6805 89.5 46.649C89.5 46.6175 89.5 46.5861 89.5 46.5547C89.5 46.5233 89.5 46.4919 89.5 46.4606C89.5 46.4293 89.5 46.3981 89.5 46.3669C89.5 46.3356 89.5 46.3045 89.5 46.2734C89.5 46.2422 89.5 46.2112 89.5 46.1802C89.5 46.1491 89.5 46.1182 89.5 46.0872C89.5 46.0563 89.5 46.0254 89.5 45.9946C89.5 45.9638 89.5 45.933 89.5 45.9023C89.5 45.8716 89.5 45.8409 89.5 45.8102C89.5 45.7796 89.5 45.749 89.5 45.7185C89.5 45.688 89.5 45.6575 89.5 45.6271C89.5 45.5966 89.5 45.5662 89.5 45.5359C89.5 45.5056 89.5 45.4753 89.5 45.445C89.5 45.4148 89.5 45.3846 89.5 45.3545C89.5 45.3244 89.5 45.2943 89.5 45.2642C89.5 45.2342 89.5 45.2042 89.5 45.1743C89.5 45.1444 89.5 45.1145 89.5 45.0847C89.5 45.0548 89.5 45.025 89.5 44.9953C89.5 44.9656 89.5 44.9359 89.5 44.9063C89.5 44.8767 89.5 44.8471 89.5 44.8176C89.5 44.788 89.5 44.7586 89.5 44.7292C89.5 44.6997 89.5 44.6704 89.5 44.6411C89.5 44.6118 89.5 44.5825 89.5 44.5533C89.5 44.5241 89.5 44.4949 89.5 44.4658C89.5 44.4367 89.5 44.4077 89.5 44.3787C89.5 44.3497 89.5 44.3207 89.5 44.2918C89.5 44.2629 89.5 44.2341 89.5 44.2053C89.5 44.1765 89.5 44.1478 89.5 44.1191C89.5 44.0905 89.5 44.0618 89.5 44.0333C89.5 44.0047 89.5 43.9762 89.5 43.9477C89.5 43.9193 89.5 43.8909 89.5 43.8625C89.5 43.8342 89.5 43.8059 89.5 43.7776C89.5 43.7494 89.5 43.7212 89.5 43.6931C89.5 43.6649 89.5 43.6369 89.5 43.6088C89.5 43.5808 89.5 43.5529 89.5 43.5249C89.5 43.497 89.5 43.4692 89.5 43.4414C89.5 43.4136 89.5 43.3858 89.5 43.3582C89.5 43.3305 89.5 43.3028 89.5 43.2753C89.5 43.2477 89.5 43.2202 89.5 43.1927C89.5 43.1652 89.5 43.1378 89.5 43.1105C89.5 43.0831 89.5 43.0559 89.5 43.0286C89.5 43.0014 89.5 42.9742 89.5 42.9471C89.5 42.92 89.5 42.8929 89.5 42.8659C89.5 42.8389 89.5 42.8119 89.5 42.7851C89.5 42.7582 89.5 42.7313 89.5 42.7046C89.5 42.6778 89.5 42.6511 89.5 42.6244C89.5 42.5978 89.5 42.5712 89.5 42.5446C89.5 42.5181 89.5 42.4916 89.5 42.4652C89.5 42.4388 89.5 42.4124 89.5 42.3861C89.5 42.3598 89.5 42.3335 89.5 42.3073C89.5 42.2812 89.5 42.255 89.5 42.229C89.5 42.2029 89.5 42.1769 89.5 42.1509C89.5 42.125 89.5 42.0991 89.5 42.0733C89.5 42.0475 89.5 42.0217 89.5 41.996C89.5 41.9703 89.5 41.9446 89.5 41.919C89.5 41.8934 89.5 41.8679 89.5 41.8425C89.5 41.817 89.5 41.7916 89.5 41.7662C89.5 41.7409 89.5 41.7156 89.5 41.6904C89.5 41.6652 89.5 41.64 89.5 41.6149C89.5 41.5898 89.5 41.5648 89.5 41.5398C89.5 41.5148 89.5 41.4899 89.5 41.4651C89.5 41.4402 89.5 41.4154 89.5 41.3907C89.5 41.366 89.5 41.3413 89.5 41.3167C89.5 41.2921 89.5 41.2676 89.5 41.2431C89.5 41.2186 89.5 41.1942 89.5 41.1698C89.5 41.1455 89.5 41.1212 89.5 41.097C89.5 41.0728 89.5 41.0486 89.5 41.0245C89.5 41.0004 89.5 40.9764 89.5 40.9524C89.5 40.9284 89.5 40.9045 89.5 40.8807C89.5 40.8568 89.5 40.8331 89.5 40.8094C89.5 40.7856 89.5 40.762 89.5 40.7384C89.5 40.7148 89.5 40.6913 89.5 40.6679C89.5 40.6444 89.5 40.621 89.5 40.5977C89.5 40.5744 89.5 40.5511 89.5 40.5279C89.5 40.5047 89.5 40.4816 89.5 40.4585C89.5 40.4354 89.5 40.4125 89.5 40.3895C89.5 40.3666 89.5 40.3437 89.5 40.3209C89.5 40.2981 89.5 40.2754 89.5 40.2527C89.5 40.2301 89.5 40.2074 89.5 40.1849C89.5 40.1624 89.5 40.1399 89.5 40.1175C89.5 40.0951 89.5 40.0728 89.5 40.0505C89.5 40.0282 89.5 40.006 89.5 39.9839C89.5 39.9618 89.5 39.9397 89.5 39.9177C89.5 39.8957 89.5 39.8738 89.5 39.8519C89.5 39.8301 89.5 39.8083 89.5 39.7865C89.5 39.7648 89.5 39.7431 89.5 39.7216C89.5 39.7 89.5 39.6784 89.5 39.657C89.5 39.6355 89.5 39.6141 89.5 39.5928C89.5 39.5715 89.5 39.5503 89.5 39.5291C89.5 39.5079 89.5 39.4868 89.5 39.4658C89.5 39.4447 89.5 39.4237 89.5 39.4028C89.5 39.3819 89.5 39.3611 89.5 39.3404C89.5 39.3196 89.5 39.2989 89.5 39.2783C89.5 39.2577 89.5 39.2371 89.5 39.2166C89.5 39.1961 89.5 39.1757 89.5 39.1554C89.5 39.1351 89.5 39.1148 89.5 39.0946C89.5 39.0744 89.5 39.0543 89.5 39.0342C89.5 39.0141 89.5 38.9942 89.5 38.9742C89.5 38.9543 89.5 38.9345 89.5 38.9147C89.5 38.8949 89.5 38.8752 89.5 38.8556C89.5 38.836 89.5 38.8164 89.5 38.7969C89.5 38.7775 89.5 38.758 89.5 38.7387C89.5 38.7194 89.5 38.7001 89.5 38.6809C89.5 38.6617 89.5 38.6426 89.5 38.6235C89.5 38.6045 89.5 38.5855 89.5 38.5666C89.5 38.5477 89.5 38.5289 89.5 38.5101C89.5 38.4914 89.5 38.4727 89.5 38.4541C89.5 38.4355 89.5 38.4169 89.5 38.3985C89.5 38.38 89.5 38.3616 89.5 38.3433C89.5 38.325 89.5 38.3067 89.5 38.2886C89.5 38.2704 89.5 38.2523 89.5 38.2343C89.5 38.2163 89.5 38.1983 89.5 38.1805C89.5 38.1626 89.5 38.1448 89.5 38.1271C89.5 38.1094 89.5 38.0917 89.5 38.0742C89.5 38.0566 89.5 38.0391 89.5 38.0217C89.5 38.0043 89.5 37.9869 89.5 37.9697C89.5 37.9524 89.5 37.9352 89.5 37.9181C89.5 37.901 89.5 37.8839 89.5 37.867C89.5 37.85 89.5 37.8331 89.5 37.8163C89.5 37.7995 89.5 37.7828 89.5 37.7661C89.5 37.7495 89.5 37.7329 89.5 37.7164C89.5 37.6999 89.5 37.6835 89.5 37.6671C89.5 37.6508 89.5 37.6345 89.5 37.6183C89.5 37.6021 89.5 37.586 89.5 37.57C89.5 37.5539 89.5 37.538 89.5 37.5221C89.5 37.5062 89.5 37.4904 89.5 37.4747C89.5 37.459 89.5 37.4433 89.5 37.4277C89.5 37.4122 89.5 37.3967 89.5 37.3813C89.5 37.3659 89.5 37.3505 89.5 37.3353C89.5 37.32 89.5 37.3049 89.5 37.2898C89.5 37.2747 89.5 37.2597 89.5 37.2447C89.5 37.2298 89.5 37.2149 89.5 37.2002C89.5 37.1854 89.5 37.1707 89.5 37.1561C89.5 37.1415 89.5 37.1269 89.5 37.1125C89.5 37.098 89.5 37.0837 89.5 37.0694C89.5 37.0551 89.5 37.0409 89.5 37.0267C89.5 37.0126 89.5 36.9985 89.5 36.9846C89.5 36.9706 89.5 36.9567 89.5 36.9429C89.5 36.9291 89.5 36.9154 89.5 36.9017C89.5 36.8881 89.5 36.8745 89.5 36.861C89.5 36.8475 89.5 36.8342 89.5 36.8208C89.5 36.8075 89.5 36.7943 89.5 36.7811C89.5 36.768 89.5 36.7549 89.5 36.7419C89.5 36.7289 89.5 36.716 89.5 36.7032C89.5 36.6904 89.5 36.6776 89.5 36.665C89.5 36.6523 89.5 36.6397 89.5 36.6273C89.5 36.6148 89.5 36.6024 89.5 36.59C89.5 36.5777 89.5 36.5655 89.5 36.5533C89.5 36.5412 89.5 36.5291 89.5 36.5171C89.5 36.5051 89.5 36.4932 89.5 36.4814C89.5 36.4696 89.5 36.4578 89.5 36.4462C89.5 36.4345 89.5 36.423 89.5 36.4115C89.5 36.4 89.5 36.3886 89.5 36.3773C89.5 36.366 89.5 36.3548 89.5 36.3436C89.5 36.3325 89.5 36.3214 89.5 36.3105C89.5 36.2995 89.5 36.2886 89.5 36.2778C89.5 36.267 89.5 36.2563 89.5 36.2457C89.5 36.235 89.5 36.2245 89.5 36.214C89.5 36.2036 89.5 36.1932 89.5 36.1829C89.5 36.1727 89.5 36.1625 89.5 36.1524C89.5 36.1422 89.5 36.1322 89.5 36.1223C89.5 36.1124 89.5 36.1025 89.5 36.0928C89.5 36.083 89.5 36.0733 89.5 36.0637C89.5 36.0541 89.5 36.0447 89.5 36.0352C89.5 36.0258 89.5 36.0165 89.5 36.0073C89.5 35.998 89.5 35.9889 89.5 35.9798C89.5 35.9708 89.5 35.9618 89.5 35.9529C89.5 35.9441 89.5 35.9353 89.5 35.9266C89.5 35.9179 89.5 35.9093 89.5 35.9007C89.5 35.8922 89.5 35.8838 89.5 35.8754C89.5 35.8671 89.5 35.8588 89.5 35.8506C89.5 35.8425 89.5 35.8344 89.5 35.8264C89.5 35.8184 89.5 35.8105 89.5 35.8027C89.5 35.7949 89.5 35.7872 89.5 35.7796C89.5 35.7719 89.5 35.7644 89.5 35.757C89.5 35.7495 89.5 35.7422 89.5 35.7349C89.5 35.7276 89.5 35.7205 89.5 35.7134C89.5 35.7063 89.5 35.6993 89.5 35.6924C89.5 35.6855 89.5 35.6787 89.5 35.672C89.5 35.6652 89.5 35.6586 89.5 35.6521C89.5 35.6456 89.5 35.6391 89.5 35.6328C89.5 35.6264 89.5 35.6202 89.5 35.614C89.5 35.6078 89.5 35.6017 89.5 35.5958C89.5 35.5898 89.5 35.5839 89.5 35.5781C89.5 35.5723 89.5 35.5666 89.5 35.561C89.5 35.5554 89.5 35.5499 89.5 35.5444C89.5 35.539 89.5 35.5337 89.5 35.5285C89.5 35.5232 89.5 35.5181 89.5 35.513C89.5 35.508 89.5 35.503 89.5 35.4982C89.5 35.4933 89.5 35.4885 89.5 35.4839C89.5 35.4792 89.5 35.4746 89.5 35.4701C89.5 35.4656 89.5 35.4613 89.5 35.457C89.5 35.4527 89.5 35.4485 89.5 35.4444C89.5 35.4403 89.5 35.4363 89.5 35.4323C89.5 35.4284 89.5 35.4246 89.5 35.4209C89.5 35.4172 89.5 35.4135 89.5 35.41C89.5 35.4065 89.5 35.403 89.5 35.3997C89.5 35.3964 89.5 35.3931 89.5 35.39C89.5 35.3868 89.5 35.3838 89.5 35.3808C89.5 35.3779 89.5 35.375 89.5 35.3722C89.5 35.3695 89.5 35.3668 89.5 35.3643C89.5 35.3617 89.5 35.3592 89.5 35.3568C89.5 35.3545 89.5 35.3522 89.5 35.35C89.5 35.3478 89.5 35.3458 89.5 35.3438C89.5 35.3418 89.5 35.3399 89.5 35.3381C89.5 35.3363 89.5 35.3347 89.5 35.3331C89.5 35.3315 89.5 35.33 89.5 35.3286C89.5 35.3272 89.5 35.3259 89.5 35.3247C89.5 35.3235 89.5 35.3224 89.5 35.3214C89.5 35.3204 89.5 35.3195 89.5 35.3187C89.5 35.3179 89.5 35.3172 89.5 35.3166C89.5 35.316 89.5 35.3155 89.5 35.3151C89.5 35.3147 89.5 35.3144 89.5 35.3142C89.5 35.314 89.5 35.3139 86 35.3139Z" fill="#FAFF03"/>
<line x1="69.5" y1="85.5" x2="92.5" y2="85.5" stroke="#861657" stroke-width="7" stroke-linecap="round"/>
<line x1="74.5" y1="81.5" x2="97.5" y2="81.5" stroke="#FAFF03" stroke-width="7" stroke-linecap="round"/>
<mask id="mask0_52_13" style="mask-type:luminance" maskUnits="userSpaceOnUse" x="137" y="34" width="90" height="90">
<path d="M137 34H227V124H137V34Z" fill="white"/>
</mask>
<g mask="url(#mask0_52_13)">
<path d="M207.312 104.313V39.6391C207.312 39.6391 207.312 36.8125 204.5 36.8125H142.625C142.625 36.8125 139.812 36.8125 139.812 39.6391V112.764C139.812 112.764 139.812 121.188 148.25 121.188H215.75C215.75 121.188 224.188 121.202 224.188 109.952V67.7641C224.188 67.7641 224.188 64.9375 221.375 64.9375H215.75M190.438 53.6875H176.375M190.438 64.9375H156.688M190.438 76.1875H156.688M190.438 87.4375H156.688M190.438 98.6875H156.688" stroke="#861657" stroke-width="6" stroke-linecap="round" stroke-linejoin="round"/>
</g>
</g>
<defs>
<filter id="filter0_d_52_13" x="0.733252" y="0.9" width="234.867" height="169.2" filterUnits="userSpaceOnUse" color-interpolation-filters="sRGB">
<feFlood flood-opacity="0" result="BackgroundImageFix"/>
<feColorMatrix in="SourceAlpha" type="matrix" values="0 0 0 0 0 0 0 0 0 0 0 0 0 0 0 0 0 0 127 0" result="hardAlpha"/>
<feOffset dy="4"/>
<feGaussianBlur stdDeviation="4.3"/>
<feComposite in2="hardAlpha" operator="out"/>
<feColorMatrix type="matrix" values="0 0 0 0 0 0 0 0 0 0 0 0 0 0 0 0 0 0 0.25 0"/>
<feBlend mode="normal" in2="BackgroundImageFix" result="effect1_dropShadow_52_13"/>
<feBlend mode="normal" in="SourceGraphic" in2="effect1_dropShadow_52_13" result="shape"/>
</filter>
</defs>
</svg>
