<svg width="277" height="180" viewBox="0 0 277 180" fill="none" xmlns="http://www.w3.org/2000/svg">
<line x1="156" y1="168" x2="172" y2="168" stroke="#1F2182" stroke-width="4" stroke-linecap="round"/>
<path d="M109.5 79.6618V83.1618H102.5V79.6618H109.5ZM160.5 167.5V40.8342H167.5V167.5H160.5ZM160.5 40.8342C160.5 31.1662 157.195 24.1215 152.461 19.3831C147.683 14.5998 141.26 11.9808 134.774 11.5601C128.273 11.1386 121.923 12.9356 117.262 16.7013C112.68 20.4031 109.5 26.1826 109.5 34.3139H102.5C102.5 24.1537 106.57 16.3399 112.863 11.2562C119.077 6.23647 127.227 4.05603 135.226 4.57481C143.24 5.09448 151.317 8.33355 157.414 14.4358C163.555 20.5831 167.5 29.4516 167.5 40.8342H160.5ZM106 34.3139C109.5 34.3139 109.5 34.314 109.5 34.3142C109.5 34.3144 109.5 34.3147 109.5 34.3151C109.5 34.3155 109.5 34.316 109.5 34.3166C109.5 34.3172 109.5 34.3179 109.5 34.3187C109.5 34.3195 109.5 34.3204 109.5 34.3214C109.5 34.3224 109.5 34.3235 109.5 34.3247C109.5 34.3259 109.5 34.3272 109.5 34.3286C109.5 34.33 109.5 34.3315 109.5 34.3331C109.5 34.3347 109.5 34.3363 109.5 34.3381C109.5 34.3399 109.5 34.3418 109.5 34.3438C109.5 34.3458 109.5 34.3478 109.5 34.35C109.5 34.3522 109.5 34.3545 109.5 34.3568C109.5 34.3592 109.5 34.3617 109.5 34.3643C109.5 34.3668 109.5 34.3695 109.5 34.3722C109.5 34.375 109.5 34.3779 109.5 34.3808C109.5 34.3838 109.5 34.3868 109.5 34.39C109.5 34.3931 109.5 34.3964 109.5 34.3997C109.5 34.403 109.5 34.4065 109.5 34.41C109.5 34.4135 109.5 34.4172 109.5 34.4209C109.5 34.4246 109.5 34.4284 109.5 34.4323C109.5 34.4363 109.5 34.4403 109.5 34.4444C109.5 34.4485 109.5 34.4527 109.5 34.457C109.5 34.4613 109.5 34.4656 109.5 34.4701C109.5 34.4746 109.5 34.4792 109.5 34.4839C109.5 34.4885 109.5 34.4933 109.5 34.4982C109.5 34.503 109.5 34.508 109.5 34.513C109.5 34.5181 109.5 34.5232 109.5 34.5285C109.5 34.5337 109.5 34.539 109.5 34.5444C109.5 34.5499 109.5 34.5554 109.5 34.561C109.5 34.5666 109.5 34.5723 109.5 34.5781C109.5 34.5839 109.5 34.5898 109.5 34.5958C109.5 34.6017 109.5 34.6078 109.5 34.614C109.5 34.6202 109.5 34.6264 109.5 34.6328C109.5 34.6391 109.5 34.6456 109.5 34.6521C109.5 34.6586 109.5 34.6652 109.5 34.672C109.5 34.6787 109.5 34.6855 109.5 34.6924C109.5 34.6993 109.5 34.7063 109.5 34.7134C109.5 34.7205 109.5 34.7276 109.5 34.7349C109.5 34.7422 109.5 34.7495 109.5 34.757C109.5 34.7644 109.5 34.7719 109.5 34.7796C109.5 34.7872 109.5 34.7949 109.5 34.8027C109.5 34.8105 109.5 34.8184 109.5 34.8264C109.5 34.8344 109.5 34.8425 109.5 34.8506C109.5 34.8588 109.5 34.8671 109.5 34.8754C109.5 34.8838 109.5 34.8922 109.5 34.9007C109.5 34.9092 109.5 34.9179 109.5 34.9266C109.5 34.9353 109.5 34.9441 109.5 34.9529C109.5 34.9618 109.5 34.9708 109.5 34.9798C109.5 34.9889 109.5 34.998 109.5 35.0073C109.5 35.0165 109.5 35.0258 109.5 35.0352C109.5 35.0447 109.5 35.0541 109.5 35.0637C109.5 35.0733 109.5 35.083 109.5 35.0928C109.5 35.1025 109.5 35.1124 109.5 35.1223C109.5 35.1322 109.5 35.1422 109.5 35.1524C109.5 35.1625 109.5 35.1727 109.5 35.1829C109.5 35.1932 109.5 35.2036 109.5 35.214C109.5 35.2245 109.5 35.235 109.5 35.2457C109.5 35.2563 109.5 35.267 109.5 35.2778C109.5 35.2886 109.5 35.2995 109.5 35.3105C109.5 35.3214 109.5 35.3325 109.5 35.3436C109.5 35.3548 109.5 35.366 109.5 35.3773C109.5 35.3886 109.5 35.4 109.5 35.4115C109.5 35.423 109.5 35.4345 109.5 35.4462C109.5 35.4578 109.5 35.4696 109.5 35.4814C109.5 35.4932 109.5 35.5051 109.5 35.5171C109.5 35.5291 109.5 35.5412 109.5 35.5533C109.5 35.5655 109.5 35.5777 109.5 35.59C109.5 35.6024 109.5 35.6148 109.5 35.6273C109.5 35.6397 109.5 35.6523 109.5 35.665C109.5 35.6776 109.5 35.6904 109.5 35.7032C109.5 35.716 109.5 35.7289 109.5 35.7419C109.5 35.7549 109.5 35.768 109.5 35.7811C109.5 35.7943 109.5 35.8075 109.5 35.8208C109.5 35.8342 109.5 35.8475 109.5 35.861C109.5 35.8745 109.5 35.8881 109.5 35.9017C109.5 35.9154 109.5 35.9291 109.5 35.9429C109.5 35.9567 109.5 35.9706 109.5 35.9846C109.5 35.9985 109.5 36.0126 109.5 36.0267C109.5 36.0409 109.5 36.0551 109.5 36.0694C109.5 36.0837 109.5 36.098 109.5 36.1125C109.5 36.1269 109.5 36.1415 109.5 36.1561C109.5 36.1707 109.5 36.1854 109.5 36.2002C109.5 36.2149 109.5 36.2298 109.5 36.2447C109.5 36.2597 109.5 36.2747 109.5 36.2898C109.5 36.3049 109.5 36.32 109.5 36.3353C109.5 36.3505 109.5 36.3659 109.5 36.3813C109.5 36.3967 109.5 36.4122 109.5 36.4277C109.5 36.4433 109.5 36.459 109.5 36.4747C109.5 36.4904 109.5 36.5062 109.5 36.5221C109.5 36.538 109.5 36.5539 109.5 36.57C109.5 36.586 109.5 36.6021 109.5 36.6183C109.5 36.6345 109.5 36.6508 109.5 36.6671C109.5 36.6835 109.5 36.6999 109.5 36.7164C109.5 36.7329 109.5 36.7495 109.5 36.7661C109.5 36.7828 109.5 36.7995 109.5 36.8163C109.5 36.8331 109.5 36.85 109.5 36.867C109.5 36.8839 109.5 36.901 109.5 36.9181C109.5 36.9352 109.5 36.9524 109.5 36.9696C109.5 36.9869 109.5 37.0043 109.5 37.0217C109.5 37.0391 109.5 37.0566 109.5 37.0742C109.5 37.0917 109.5 37.1094 109.5 37.1271C109.5 37.1448 109.5 37.1626 109.5 37.1805C109.5 37.1983 109.5 37.2163 109.5 37.2343C109.5 37.2523 109.5 37.2704 109.5 37.2886C109.5 37.3067 109.5 37.325 109.5 37.3433C109.5 37.3616 109.5 37.38 109.5 37.3985C109.5 37.4169 109.5 37.4355 109.5 37.4541C109.5 37.4727 109.5 37.4914 109.5 37.5101C109.5 37.5289 109.5 37.5477 109.5 37.5666C109.5 37.5855 109.5 37.6045 109.5 37.6235C109.5 37.6426 109.5 37.6617 109.5 37.6809C109.5 37.7001 109.5 37.7194 109.5 37.7387C109.5 37.758 109.5 37.7775 109.5 37.7969C109.5 37.8164 109.5 37.836 109.5 37.8556C109.5 37.8752 109.5 37.8949 109.5 37.9147C109.5 37.9345 109.5 37.9543 109.5 37.9742C109.5 37.9942 109.5 38.0141 109.5 38.0342C109.5 38.0543 109.5 38.0744 109.5 38.0946C109.5 38.1148 109.5 38.1351 109.5 38.1554C109.5 38.1757 109.5 38.1961 109.5 38.2166C109.5 38.2371 109.5 38.2577 109.5 38.2783C109.5 38.2989 109.5 38.3196 109.5 38.3404C109.5 38.3611 109.5 38.3819 109.5 38.4028C109.5 38.4238 109.5 38.4447 109.5 38.4658C109.5 38.4868 109.5 38.5079 109.5 38.5291C109.5 38.5503 109.5 38.5715 109.5 38.5928C109.5 38.6141 109.5 38.6355 109.5 38.657C109.5 38.6784 109.5 38.7 109.5 38.7216C109.5 38.7431 109.5 38.7648 109.5 38.7865C109.5 38.8083 109.5 38.8301 109.5 38.8519C109.5 38.8738 109.5 38.8957 109.5 38.9177C109.5 38.9397 109.5 38.9618 109.5 38.9839C109.5 39.006 109.5 39.0282 109.5 39.0505C109.5 39.0728 109.5 39.0951 109.5 39.1175C109.5 39.1399 109.5 39.1624 109.5 39.1849C109.5 39.2074 109.5 39.2301 109.5 39.2527C109.5 39.2754 109.5 39.2981 109.5 39.3209C109.5 39.3437 109.5 39.3666 109.5 39.3895C109.5 39.4125 109.5 39.4355 109.5 39.4585C109.5 39.4816 109.5 39.5047 109.5 39.5279C109.5 39.5511 109.5 39.5744 109.5 39.5977C109.5 39.621 109.5 39.6444 109.5 39.6679C109.5 39.6913 109.5 39.7148 109.5 39.7384C109.5 39.762 109.5 39.7856 109.5 39.8094C109.5 39.8331 109.5 39.8568 109.5 39.8807C109.5 39.9045 109.5 39.9284 109.5 39.9524C109.5 39.9764 109.5 40.0004 109.5 40.0245C109.5 40.0486 109.5 40.0728 109.5 40.097C109.5 40.1212 109.5 40.1455 109.5 40.1698C109.5 40.1942 109.5 40.2186 109.5 40.2431C109.5 40.2676 109.5 40.2921 109.5 40.3167C109.5 40.3413 109.5 40.366 109.5 40.3907C109.5 40.4154 109.5 40.4402 109.5 40.4651C109.5 40.4899 109.5 40.5148 109.5 40.5398C109.5 40.5648 109.5 40.5898 109.5 40.6149C109.5 40.64 109.5 40.6652 109.5 40.6904C109.5 40.7156 109.5 40.7409 109.5 40.7662C109.5 40.7916 109.5 40.817 109.5 40.8425C109.5 40.8679 109.5 40.8934 109.5 40.919C109.5 40.9446 109.5 40.9703 109.5 40.996C109.5 41.0217 109.5 41.0474 109.5 41.0733C109.5 41.0991 109.5 41.125 109.5 41.1509C109.5 41.1769 109.5 41.2029 109.5 41.229C109.5 41.255 109.5 41.2812 109.5 41.3073C109.5 41.3335 109.5 41.3598 109.5 41.3861C109.5 41.4124 109.5 41.4388 109.5 41.4652C109.5 41.4916 109.5 41.5181 109.5 41.5446C109.5 41.5712 109.5 41.5978 109.5 41.6244C109.5 41.6511 109.5 41.6778 109.5 41.7046C109.5 41.7313 109.5 41.7582 109.5 41.7851C109.5 41.8119 109.5 41.8389 109.5 41.8659C109.5 41.8929 109.5 41.92 109.5 41.9471C109.5 41.9742 109.5 42.0014 109.5 42.0286C109.5 42.0559 109.5 42.0831 109.5 42.1105C109.5 42.1378 109.5 42.1652 109.5 42.1927C109.5 42.2202 109.5 42.2477 109.5 42.2753C109.5 42.3028 109.5 42.3305 109.5 42.3582C109.5 42.3858 109.5 42.4136 109.5 42.4414C109.5 42.4692 109.5 42.497 109.5 42.5249C109.5 42.5529 109.5 42.5808 109.5 42.6088C109.5 42.6369 109.5 42.6649 109.5 42.6931C109.5 42.7212 109.5 42.7494 109.5 42.7776C109.5 42.8059 109.5 42.8342 109.5 42.8625C109.5 42.8909 109.5 42.9193 109.5 42.9477C109.5 42.9762 109.5 43.0047 109.5 43.0333C109.5 43.0618 109.5 43.0905 109.5 43.1191C109.5 43.1478 109.5 43.1765 109.5 43.2053C109.5 43.2341 109.5 43.2629 109.5 43.2918C109.5 43.3207 109.5 43.3497 109.5 43.3787C109.5 43.4077 109.5 43.4367 109.5 43.4658C109.5 43.4949 109.5 43.5241 109.5 43.5533C109.5 43.5825 109.5 43.6118 109.5 43.6411C109.5 43.6704 109.5 43.6997 109.5 43.7292C109.5 43.7586 109.5 43.788 109.5 43.8176C109.5 43.8471 109.5 43.8767 109.5 43.9063C109.5 43.9359 109.5 43.9656 109.5 43.9953C109.5 44.025 109.5 44.0548 109.5 44.0847C109.5 44.1145 109.5 44.1444 109.5 44.1743C109.5 44.2042 109.5 44.2342 109.5 44.2642C109.5 44.2943 109.5 44.3244 109.5 44.3545C109.5 44.3846 109.5 44.4148 109.5 44.445C109.5 44.4753 109.5 44.5056 109.5 44.5359C109.5 44.5662 109.5 44.5966 109.5 44.6271C109.5 44.6575 109.5 44.688 109.5 44.7185C109.5 44.749 109.5 44.7796 109.5 44.8102C109.5 44.8409 109.5 44.8716 109.5 44.9023C109.5 44.933 109.5 44.9638 109.5 44.9946C109.5 45.0254 109.5 45.0563 109.5 45.0872C109.5 45.1182 109.5 45.1491 109.5 45.1802C109.5 45.2112 109.5 45.2422 109.5 45.2734C109.5 45.3045 109.5 45.3356 109.5 45.3669C109.5 45.3981 109.5 45.4293 109.5 45.4606C109.5 45.4919 109.5 45.5233 109.5 45.5547C109.5 45.5861 109.5 45.6175 109.5 45.649C109.5 45.6805 109.5 45.7121 109.5 45.7437C109.5 45.7752 109.5 45.8069 109.5 45.8386C109.5 45.8702 109.5 45.902 109.5 45.9337C109.5 45.9655 109.5 45.9973 109.5 46.0292C109.5 46.0611 109.5 46.093 109.5 46.1249C109.5 46.1569 109.5 46.1889 109.5 46.2209C109.5 46.253 109.5 46.2851 109.5 46.3172C109.5 46.3493 109.5 46.3815 109.5 46.4138C109.5 46.446 109.5 46.4783 109.5 46.5106C109.5 46.5429 109.5 46.5753 109.5 46.6077C109.5 46.6401 109.5 46.6725 109.5 46.705C109.5 46.7375 109.5 46.77 109.5 46.8026C109.5 46.8352 109.5 46.8678 109.5 46.9005C109.5 46.9332 109.5 46.9659 109.5 46.9986C109.5 47.0314 109.5 47.0642 109.5 47.097C109.5 47.1299 109.5 47.1628 109.5 47.1957C109.5 47.2286 109.5 47.2616 109.5 47.2946C109.5 47.3276 109.5 47.3607 109.5 47.3938C109.5 47.4269 109.5 47.46 109.5 47.4932C109.5 47.5264 109.5 47.5596 109.5 47.5929C109.5 47.6261 109.5 47.6595 109.5 47.6928C109.5 47.7262 109.5 47.7595 109.5 47.793C109.5 47.8264 109.5 47.8599 109.5 47.8934C109.5 47.9269 109.5 47.9605 109.5 47.9941C109.5 48.0277 109.5 48.0613 109.5 48.095C109.5 48.1287 109.5 48.1624 109.5 48.1962C109.5 48.2299 109.5 48.2637 109.5 48.2976C109.5 48.3314 109.5 48.3653 109.5 48.3992C109.5 48.4331 109.5 48.4671 109.5 48.5011C109.5 48.5351 109.5 48.5691 109.5 48.6032C109.5 48.6373 109.5 48.6714 109.5 48.7055C109.5 48.7397 109.5 48.7739 109.5 48.8081C109.5 48.8424 109.5 48.8766 109.5 48.911C109.5 48.9453 109.5 48.9796 109.5 49.014C109.5 49.0484 109.5 49.0828 109.5 49.1173C109.5 49.1518 109.5 49.1863 109.5 49.2208C109.5 49.2553 109.5 49.2899 109.5 49.3245C109.5 49.3592 109.5 49.3938 109.5 49.4285C109.5 49.4632 109.5 49.4979 109.5 49.5327C109.5 49.5675 109.5 49.6023 109.5 49.6371C109.5 49.6719 109.5 49.7068 109.5 49.7417C109.5 49.7766 109.5 49.8116 109.5 49.8466C109.5 49.8816 109.5 49.9166 109.5 49.9517C109.5 49.9867 109.5 50.0218 109.5 50.0569C109.5 50.0921 109.5 50.1272 109.5 50.1624C109.5 50.1976 109.5 50.2329 109.5 50.2681C109.5 50.3034 109.5 50.3387 109.5 50.3741C109.5 50.4094 109.5 50.4448 109.5 50.4802C109.5 50.5156 109.5 50.5511 109.5 50.5866C109.5 50.622 109.5 50.6576 109.5 50.6931C109.5 50.7287 109.5 50.7642 109.5 50.7999C109.5 50.8355 109.5 50.8711 109.5 50.9068C109.5 50.9425 109.5 50.9782 109.5 51.014C109.5 51.0497 109.5 51.0855 109.5 51.1214C109.5 51.1572 109.5 51.193 109.5 51.2289C109.5 51.2648 109.5 51.3007 109.5 51.3367C109.5 51.3726 109.5 51.4086 109.5 51.4446C109.5 51.4807 109.5 51.5167 109.5 51.5528C109.5 51.5889 109.5 51.625 109.5 51.6612C109.5 51.6973 109.5 51.7335 109.5 51.7697C109.5 51.8059 109.5 51.8422 109.5 51.8784C109.5 51.9147 109.5 51.951 109.5 51.9874C109.5 52.0237 109.5 52.0601 109.5 52.0965C109.5 52.1329 109.5 52.1693 109.5 52.2058C109.5 52.2422 109.5 52.2787 109.5 52.3153C109.5 52.3518 109.5 52.3883 109.5 52.4249C109.5 52.4615 109.5 52.4981 109.5 52.5348C109.5 52.5714 109.5 52.6081 109.5 52.6448C109.5 52.6815 109.5 52.7182 109.5 52.755C109.5 52.7918 109.5 52.8286 109.5 52.8654C109.5 52.9022 109.5 52.9391 109.5 52.976C109.5 53.0128 109.5 53.0497 109.5 53.0867C109.5 53.1236 109.5 53.1606 109.5 53.1976C109.5 53.2346 109.5 53.2716 109.5 53.3087C109.5 53.3457 109.5 53.3828 109.5 53.4199C109.5 53.457 109.5 53.4942 109.5 53.5313C109.5 53.5685 109.5 53.6057 109.5 53.6429C109.5 53.6802 109.5 53.7174 109.5 53.7547C109.5 53.792 109.5 53.8293 109.5 53.8666C109.5 53.9039 109.5 53.9413 109.5 53.9787C109.5 54.0161 109.5 54.0535 109.5 54.0909C109.5 54.1283 109.5 54.1658 109.5 54.2033C109.5 54.2408 109.5 54.2783 109.5 54.3159C109.5 54.3534 109.5 54.391 109.5 54.4286C109.5 54.4662 109.5 54.5038 109.5 54.5414C109.5 54.5791 109.5 54.6168 109.5 54.6545C109.5 54.6922 109.5 54.7299 109.5 54.7676C109.5 54.8054 109.5 54.8432 109.5 54.881C109.5 54.9188 109.5 54.9566 109.5 54.9944C109.5 55.0323 109.5 55.0701 109.5 55.108C109.5 55.1459 109.5 55.1839 109.5 55.2218C109.5 55.2598 109.5 55.2977 109.5 55.3357C109.5 55.3737 109.5 55.4117 109.5 55.4498C109.5 55.4878 109.5 55.5259 109.5 55.564C109.5 55.602 109.5 55.6402 109.5 55.6783C109.5 55.7164 109.5 55.7546 109.5 55.7928C109.5 55.8309 109.5 55.8691 109.5 55.9074C109.5 55.9456 109.5 55.9838 109.5 56.0221C109.5 56.0604 109.5 56.0987 109.5 56.137C109.5 56.1753 109.5 56.2136 109.5 56.252C109.5 56.2904 109.5 56.3287 109.5 56.3671C109.5 56.4055 109.5 56.444 109.5 56.4824C109.5 56.5209 109.5 56.5593 109.5 56.5978C109.5 56.6363 109.5 56.6748 109.5 56.7133C109.5 56.7519 109.5 56.7904 109.5 56.829C109.5 56.8676 109.5 56.9062 109.5 56.9448C109.5 56.9834 109.5 57.022 109.5 57.0607C109.5 57.0993 109.5 57.138 109.5 57.1767C109.5 57.2154 109.5 57.2541 109.5 57.2928C109.5 57.3315 109.5 57.3703 109.5 57.4091C109.5 57.4478 109.5 57.4866 109.5 57.5254C109.5 57.5642 109.5 57.6031 109.5 57.6419C109.5 57.6808 109.5 57.7196 109.5 57.7585C109.5 57.7974 109.5 57.8363 109.5 57.8752C109.5 57.9141 109.5 57.9531 109.5 57.992C109.5 58.031 109.5 58.07 109.5 58.1089C109.5 58.1479 109.5 58.187 109.5 58.226C109.5 58.265 109.5 58.3041 109.5 58.3431C109.5 58.3822 109.5 58.4213 109.5 58.4604C109.5 58.4995 109.5 58.5386 109.5 58.5777C109.5 58.6168 109.5 58.656 109.5 58.6951C109.5 58.7343 109.5 58.7735 109.5 58.8127C109.5 58.8519 109.5 58.8911 109.5 58.9303C109.5 58.9696 109.5 59.0088 109.5 59.0481C109.5 59.0873 109.5 59.1266 109.5 59.1659C109.5 59.2052 109.5 59.2445 109.5 59.2838C109.5 59.3232 109.5 59.3625 109.5 59.4018C109.5 59.4412 109.5 59.4806 109.5 59.52C109.5 59.5593 109.5 59.5987 109.5 59.6382C109.5 59.6776 109.5 59.717 109.5 59.7564C109.5 59.7959 109.5 59.8353 109.5 59.8748C109.5 59.9143 109.5 59.9538 109.5 59.9933C109.5 60.0328 109.5 60.0723 109.5 60.1118C109.5 60.1513 109.5 60.1909 109.5 60.2304C109.5 60.27 109.5 60.3095 109.5 60.3491C109.5 60.3887 109.5 60.4283 109.5 60.4679C109.5 60.5075 109.5 60.5471 109.5 60.5867C109.5 60.6264 109.5 60.666 109.5 60.7057C109.5 60.7453 109.5 60.785 109.5 60.8247C109.5 60.8644 109.5 60.9041 109.5 60.9438C109.5 60.9835 109.5 61.0232 109.5 61.0629C109.5 61.1026 109.5 61.1424 109.5 61.1821C109.5 61.2219 109.5 61.2616 109.5 61.3014C109.5 61.3412 109.5 61.381 109.5 61.4208C109.5 61.4605 109.5 61.5004 109.5 61.5402C109.5 61.58 109.5 61.6198 109.5 61.6596C109.5 61.6995 109.5 61.7393 109.5 61.7792C109.5 61.819 109.5 61.8589 109.5 61.8988C109.5 61.9387 109.5 61.9786 109.5 62.0185C109.5 62.0583 109.5 62.0983 109.5 62.1382C109.5 62.1781 109.5 62.218 109.5 62.2579C109.5 62.2979 109.5 62.3378 109.5 62.3778C109.5 62.4177 109.5 62.4577 109.5 62.4976C109.5 62.5376 109.5 62.5776 109.5 62.6176C109.5 62.6576 109.5 62.6976 109.5 62.7376C109.5 62.7776 109.5 62.8176 109.5 62.8576C109.5 62.8976 109.5 62.9376 109.5 62.9777C109.5 63.0177 109.5 63.0577 109.5 63.0978C109.5 63.1378 109.5 63.1779 109.5 63.218C109.5 63.258 109.5 63.2981 109.5 63.3382C109.5 63.3782 109.5 63.4183 109.5 63.4584C109.5 63.4985 109.5 63.5386 109.5 63.5787C109.5 63.6188 109.5 63.6589 109.5 63.699C109.5 63.7391 109.5 63.7793 109.5 63.8194C109.5 63.8595 109.5 63.8997 109.5 63.9398C109.5 63.9799 109.5 64.0201 109.5 64.0602C109.5 64.1004 109.5 64.1405 109.5 64.1807C109.5 64.2208 109.5 64.261 109.5 64.3012C109.5 64.3414 109.5 64.3815 109.5 64.4217C109.5 64.4619 109.5 64.5021 109.5 64.5423C109.5 64.5824 109.5 64.6226 109.5 64.6628C109.5 64.703 109.5 64.7432 109.5 64.7834C109.5 64.8236 109.5 64.8638 109.5 64.9041C109.5 64.9443 109.5 64.9845 109.5 65.0247C109.5 65.0649 109.5 65.1051 109.5 65.1454C109.5 65.1856 109.5 65.2258 109.5 65.266C109.5 65.3063 109.5 65.3465 109.5 65.3867C109.5 65.427 109.5 65.4672 109.5 65.5075C109.5 65.5477 109.5 65.5879 109.5 65.6282C109.5 65.6684 109.5 65.7087 109.5 65.7489C109.5 65.7892 109.5 65.8294 109.5 65.8697C109.5 65.9099 109.5 65.9502 109.5 65.9904C109.5 66.0307 109.5 66.071 109.5 66.1112C109.5 66.1515 109.5 66.1917 109.5 66.232C109.5 66.2722 109.5 66.3125 109.5 66.3528C109.5 66.393 109.5 66.4333 109.5 66.4735C109.5 66.5138 109.5 66.5541 109.5 66.5943C109.5 66.6346 109.5 66.6749 109.5 66.7151C109.5 66.7554 109.5 66.7956 109.5 66.8359C109.5 66.8762 109.5 66.9164 109.5 66.9567C109.5 66.9969 109.5 67.0372 109.5 67.0775C109.5 67.1177 109.5 67.158 109.5 67.1982C109.5 67.2385 109.5 67.2788 109.5 67.319C109.5 67.3593 109.5 67.3995 109.5 67.4398C109.5 67.48 109.5 67.5203 109.5 67.5605C109.5 67.6008 109.5 67.641 109.5 67.6812C109.5 67.7215 109.5 67.7617 109.5 67.802C109.5 67.8422 109.5 67.8824 109.5 67.9227C109.5 67.9629 109.5 68.0031 109.5 68.0434C109.5 68.0836 109.5 68.1238 109.5 68.164C109.5 68.2043 109.5 68.2445 109.5 68.2847C109.5 68.3249 109.5 68.3651 109.5 68.4053C109.5 68.4455 109.5 68.4857 109.5 68.5259C109.5 68.5661 109.5 68.6063 109.5 68.6465C109.5 68.6867 109.5 68.7269 109.5 68.7671C109.5 68.8073 109.5 68.8474 109.5 68.8876C109.5 68.9278 109.5 68.968 109.5 69.0081C109.5 69.0483 109.5 69.0885 109.5 69.1286C109.5 69.1688 109.5 69.2089 109.5 69.2491C109.5 69.2892 109.5 69.3293 109.5 69.3695C109.5 69.4096 109.5 69.4497 109.5 69.4898C109.5 69.53 109.5 69.5701 109.5 69.6102C109.5 69.6503 109.5 69.6904 109.5 69.7305C109.5 69.7706 109.5 69.8107 109.5 69.8508C109.5 69.8909 109.5 69.9309 109.5 69.971C109.5 70.0111 109.5 70.0511 109.5 70.0912C109.5 70.1312 109.5 70.1713 109.5 70.2113C109.5 70.2514 109.5 70.2914 109.5 70.3314C109.5 70.3715 109.5 70.4115 109.5 70.4515C109.5 70.4915 109.5 70.5315 109.5 70.5715C109.5 70.6115 109.5 70.6515 109.5 70.6914C109.5 70.7314 109.5 70.7714 109.5 70.8113C109.5 70.8513 109.5 70.8913 109.5 70.9312C109.5 70.9711 109.5 71.0111 109.5 71.051C109.5 71.0909 109.5 71.1308 109.5 71.1707C109.5 71.2106 109.5 71.2505 109.5 71.2904C109.5 71.3303 109.5 71.3702 109.5 71.4101C109.5 71.4499 109.5 71.4898 109.5 71.5296C109.5 71.5695 109.5 71.6093 109.5 71.6491C109.5 71.689 109.5 71.7288 109.5 71.7686C109.5 71.8084 109.5 71.8482 109.5 71.888C109.5 71.9278 109.5 71.9675 109.5 72.0073C109.5 72.047 109.5 72.0868 109.5 72.1265C109.5 72.1663 109.5 72.206 109.5 72.2457C109.5 72.2854 109.5 72.3251 109.5 72.3648C109.5 72.4045 109.5 72.4442 109.5 72.4839C109.5 72.5235 109.5 72.5632 109.5 72.6028C109.5 72.6425 109.5 72.6821 109.5 72.7217C109.5 72.7613 109.5 72.8009 109.5 72.8405C109.5 72.8801 109.5 72.9197 109.5 72.9593C109.5 72.9988 109.5 73.0384 109.5 73.0779C109.5 73.1175 109.5 73.157 109.5 73.1965C109.5 73.236 109.5 73.2755 109.5 73.315C109.5 73.3545 109.5 73.394 109.5 73.4334C109.5 73.4729 109.5 73.5123 109.5 73.5517C109.5 73.5912 109.5 73.6306 109.5 73.67C109.5 73.7094 109.5 73.7488 109.5 73.7881C109.5 73.8275 109.5 73.8669 109.5 73.9062C109.5 73.9455 109.5 73.9849 109.5 74.0242C109.5 74.0635 109.5 74.1028 109.5 74.142C109.5 74.1813 109.5 74.2206 109.5 74.2598C109.5 74.2991 109.5 74.3383 109.5 74.3775C109.5 74.4167 109.5 74.4559 109.5 74.4951C109.5 74.5343 109.5 74.5734 109.5 74.6126C109.5 74.6517 109.5 74.6909 109.5 74.73C109.5 74.7691 109.5 74.8082 109.5 74.8473C109.5 74.8864 109.5 74.9254 109.5 74.9645C109.5 75.0035 109.5 75.0425 109.5 75.0815C109.5 75.1206 109.5 75.1596 109.5 75.1985C109.5 75.2375 109.5 75.2765 109.5 75.3154C109.5 75.3543 109.5 75.3933 109.5 75.4322C109.5 75.4711 109.5 75.5099 109.5 75.5488C109.5 75.5877 109.5 75.6265 109.5 75.6653C109.5 75.7042 109.5 75.743 109.5 75.7818C109.5 75.8206 109.5 75.8593 109.5 75.8981C109.5 75.9368 109.5 75.9756 109.5 76.0143C109.5 76.053 109.5 76.0917 109.5 76.1303C109.5 76.169 109.5 76.2077 109.5 76.2463C109.5 76.2849 109.5 76.3235 109.5 76.3621C109.5 76.4007 109.5 76.4393 109.5 76.4778C109.5 76.5164 109.5 76.5549 109.5 76.5934C109.5 76.6319 109.5 76.6704 109.5 76.7089C109.5 76.7473 109.5 76.7858 109.5 76.8242C109.5 76.8626 109.5 76.901 109.5 76.9394C109.5 76.9778 109.5 77.0161 109.5 77.0545C109.5 77.0928 109.5 77.1311 109.5 77.1694C109.5 77.2077 109.5 77.246 109.5 77.2842C109.5 77.3225 109.5 77.3607 109.5 77.3989C109.5 77.4371 109.5 77.4753 109.5 77.5134C109.5 77.5516 109.5 77.5897 109.5 77.6278C109.5 77.666 109.5 77.704 109.5 77.7421C109.5 77.7802 109.5 77.8182 109.5 77.8562C109.5 77.8942 109.5 77.9322 109.5 77.9702C109.5 78.0082 109.5 78.0461 109.5 78.084C109.5 78.122 109.5 78.1599 109.5 78.1977C109.5 78.2356 109.5 78.2735 109.5 78.3113C109.5 78.3491 109.5 78.3869 109.5 78.4247C109.5 78.4624 109.5 78.5002 109.5 78.5379C109.5 78.5756 109.5 78.6133 109.5 78.651C109.5 78.6887 109.5 78.7263 109.5 78.7639C109.5 78.8016 109.5 78.8392 109.5 78.8767C109.5 78.9143 109.5 78.9518 109.5 78.9894C109.5 79.0269 109.5 79.0644 109.5 79.1018C109.5 79.1393 109.5 79.1767 109.5 79.2142C109.5 79.2516 109.5 79.2889 109.5 79.3263C109.5 79.3637 109.5 79.401 109.5 79.4383C109.5 79.4756 109.5 79.5129 109.5 79.5501C109.5 79.5874 109.5 79.6246 109.5 79.6618H102.5C102.5 79.6246 102.5 79.5874 102.5 79.5501C102.5 79.5129 102.5 79.4756 102.5 79.4383C102.5 79.401 102.5 79.3637 102.5 79.3263C102.5 79.2889 102.5 79.2516 102.5 79.2142C102.5 79.1767 102.5 79.1393 102.5 79.1018C102.5 79.0644 102.5 79.0269 102.5 78.9894C102.5 78.9518 102.5 78.9143 102.5 78.8767C102.5 78.8392 102.5 78.8016 102.5 78.7639C102.5 78.7263 102.5 78.6887 102.5 78.651C102.5 78.6133 102.5 78.5756 102.5 78.5379C102.5 78.5002 102.5 78.4624 102.5 78.4247C102.5 78.3869 102.5 78.3491 102.5 78.3113C102.5 78.2735 102.5 78.2356 102.5 78.1977C102.5 78.1599 102.5 78.122 102.5 78.084C102.5 78.0461 102.5 78.0082 102.5 77.9702C102.5 77.9322 102.5 77.8942 102.5 77.8562C102.5 77.8182 102.5 77.7802 102.5 77.7421C102.5 77.704 102.5 77.666 102.5 77.6278C102.5 77.5897 102.5 77.5516 102.5 77.5134C102.5 77.4753 102.5 77.4371 102.5 77.3989C102.5 77.3607 102.5 77.3225 102.5 77.2842C102.5 77.246 102.5 77.2077 102.5 77.1694C102.5 77.1311 102.5 77.0928 102.5 77.0545C102.5 77.0161 102.5 76.9778 102.5 76.9394C102.5 76.901 102.5 76.8626 102.5 76.8242C102.5 76.7858 102.5 76.7473 102.5 76.7089C102.5 76.6704 102.5 76.6319 102.5 76.5934C102.5 76.5549 102.5 76.5164 102.5 76.4778C102.5 76.4393 102.5 76.4007 102.5 76.3621C102.5 76.3235 102.5 76.2849 102.5 76.2463C102.5 76.2077 102.5 76.169 102.5 76.1303C102.5 76.0917 102.5 76.053 102.5 76.0143C102.5 75.9756 102.5 75.9368 102.5 75.8981C102.5 75.8593 102.5 75.8206 102.5 75.7818C102.5 75.743 102.5 75.7042 102.5 75.6653C102.5 75.6265 102.5 75.5877 102.5 75.5488C102.5 75.5099 102.5 75.4711 102.5 75.4322C102.5 75.3933 102.5 75.3543 102.5 75.3154C102.5 75.2765 102.5 75.2375 102.5 75.1985C102.5 75.1596 102.5 75.1206 102.5 75.0815C102.5 75.0425 102.5 75.0035 102.5 74.9645C102.5 74.9254 102.5 74.8864 102.5 74.8473C102.5 74.8082 102.5 74.7691 102.5 74.73C102.5 74.6909 102.5 74.6517 102.5 74.6126C102.5 74.5734 102.5 74.5343 102.5 74.4951C102.5 74.4559 102.5 74.4167 102.5 74.3775C102.5 74.3383 102.5 74.2991 102.5 74.2598C102.5 74.2206 102.5 74.1813 102.5 74.142C102.5 74.1028 102.5 74.0635 102.5 74.0242C102.5 73.9849 102.5 73.9455 102.5 73.9062C102.5 73.8669 102.5 73.8275 102.5 73.7881C102.5 73.7488 102.5 73.7094 102.5 73.67C102.5 73.6306 102.5 73.5912 102.5 73.5517C102.5 73.5123 102.5 73.4729 102.5 73.4334C102.5 73.394 102.5 73.3545 102.5 73.315C102.5 73.2755 102.5 73.236 102.5 73.1965C102.5 73.157 102.5 73.1175 102.5 73.0779C102.5 73.0384 102.5 72.9988 102.5 72.9593C102.5 72.9197 102.5 72.8801 102.5 72.8405C102.5 72.8009 102.5 72.7613 102.5 72.7217C102.5 72.6821 102.5 72.6425 102.5 72.6028C102.5 72.5632 102.5 72.5235 102.5 72.4839C102.5 72.4442 102.5 72.4045 102.5 72.3648C102.5 72.3251 102.5 72.2854 102.5 72.2457C102.5 72.206 102.5 72.1663 102.5 72.1265C102.5 72.0868 102.5 72.047 102.5 72.0073C102.5 71.9675 102.5 71.9278 102.5 71.888C102.5 71.8482 102.5 71.8084 102.5 71.7686C102.5 71.7288 102.5 71.689 102.5 71.6491C102.5 71.6093 102.5 71.5695 102.5 71.5296C102.5 71.4898 102.5 71.4499 102.5 71.4101C102.5 71.3702 102.5 71.3303 102.5 71.2904C102.5 71.2505 102.5 71.2106 102.5 71.1707C102.5 71.1308 102.5 71.0909 102.5 71.051C102.5 71.0111 102.5 70.9711 102.5 70.9312C102.5 70.8913 102.5 70.8513 102.5 70.8113C102.5 70.7714 102.5 70.7314 102.5 70.6914C102.5 70.6515 102.5 70.6115 102.5 70.5715C102.5 70.5315 102.5 70.4915 102.5 70.4515C102.5 70.4115 102.5 70.3715 102.5 70.3314C102.5 70.2914 102.5 70.2514 102.5 70.2113C102.5 70.1713 102.5 70.1312 102.5 70.0912C102.5 70.0511 102.5 70.0111 102.5 69.971C102.5 69.9309 102.5 69.8909 102.5 69.8508C102.5 69.8107 102.5 69.7706 102.5 69.7305C102.5 69.6904 102.5 69.6503 102.5 69.6102C102.5 69.5701 102.5 69.53 102.5 69.4898C102.5 69.4497 102.5 69.4096 102.5 69.3695C102.5 69.3293 102.5 69.2892 102.5 69.2491C102.5 69.2089 102.5 69.1688 102.5 69.1286C102.5 69.0885 102.5 69.0483 102.5 69.0081C102.5 68.968 102.5 68.9278 102.5 68.8876C102.5 68.8474 102.5 68.8073 102.5 68.7671C102.5 68.7269 102.5 68.6867 102.5 68.6465C102.5 68.6063 102.5 68.5661 102.5 68.5259C102.5 68.4857 102.5 68.4455 102.5 68.4053C102.5 68.3651 102.5 68.3249 102.5 68.2847C102.5 68.2445 102.5 68.2043 102.5 68.164C102.5 68.1238 102.5 68.0836 102.5 68.0434C102.5 68.0031 102.5 67.9629 102.5 67.9227C102.5 67.8824 102.5 67.8422 102.5 67.802C102.5 67.7617 102.5 67.7215 102.5 67.6812C102.5 67.641 102.5 67.6008 102.5 67.5605C102.5 67.5203 102.5 67.48 102.5 67.4398C102.5 67.3995 102.5 67.3593 102.5 67.319C102.5 67.2788 102.5 67.2385 102.5 67.1982C102.5 67.158 102.5 67.1177 102.5 67.0775C102.5 67.0372 102.5 66.9969 102.5 66.9567C102.5 66.9164 102.5 66.8762 102.5 66.8359C102.5 66.7956 102.5 66.7554 102.5 66.7151C102.5 66.6749 102.5 66.6346 102.5 66.5943C102.5 66.5541 102.5 66.5138 102.5 66.4735C102.5 66.4333 102.5 66.393 102.5 66.3528C102.5 66.3125 102.5 66.2722 102.5 66.232C102.5 66.1917 102.5 66.1515 102.5 66.1112C102.5 66.071 102.5 66.0307 102.5 65.9904C102.5 65.9502 102.5 65.9099 102.5 65.8697C102.5 65.8294 102.5 65.7892 102.5 65.7489C102.5 65.7087 102.5 65.6684 102.5 65.6282C102.5 65.5879 102.5 65.5477 102.5 65.5075C102.5 65.4672 102.5 65.427 102.5 65.3867C102.5 65.3465 102.5 65.3063 102.5 65.266C102.5 65.2258 102.5 65.1856 102.5 65.1454C102.5 65.1051 102.5 65.0649 102.5 65.0247C102.5 64.9845 102.5 64.9443 102.5 64.9041C102.5 64.8638 102.5 64.8236 102.5 64.7834C102.5 64.7432 102.5 64.703 102.5 64.6628C102.5 64.6226 102.5 64.5824 102.5 64.5423C102.5 64.5021 102.5 64.4619 102.5 64.4217C102.5 64.3815 102.5 64.3414 102.5 64.3012C102.5 64.261 102.5 64.2208 102.5 64.1807C102.5 64.1405 102.5 64.1004 102.5 64.0602C102.5 64.0201 102.5 63.9799 102.5 63.9398C102.5 63.8997 102.5 63.8595 102.5 63.8194C102.5 63.7793 102.5 63.7391 102.5 63.699C102.5 63.6589 102.5 63.6188 102.5 63.5787C102.5 63.5386 102.5 63.4985 102.5 63.4584C102.5 63.4183 102.5 63.3782 102.5 63.3382C102.5 63.2981 102.5 63.258 102.5 63.218C102.5 63.1779 102.5 63.1378 102.5 63.0978C102.5 63.0577 102.5 63.0177 102.5 62.9777C102.5 62.9376 102.5 62.8976 102.5 62.8576C102.5 62.8176 102.5 62.7776 102.5 62.7376C102.5 62.6976 102.5 62.6576 102.5 62.6176C102.5 62.5776 102.5 62.5376 102.5 62.4976C102.5 62.4577 102.5 62.4177 102.5 62.3778C102.5 62.3378 102.5 62.2979 102.5 62.2579C102.5 62.218 102.5 62.1781 102.5 62.1382C102.5 62.0983 102.5 62.0583 102.5 62.0185C102.5 61.9786 102.5 61.9387 102.5 61.8988C102.5 61.8589 102.5 61.819 102.5 61.7792C102.5 61.7393 102.5 61.6995 102.5 61.6596C102.5 61.6198 102.5 61.58 102.5 61.5402C102.5 61.5004 102.5 61.4605 102.5 61.4208C102.5 61.381 102.5 61.3412 102.5 61.3014C102.5 61.2616 102.5 61.2219 102.5 61.1821C102.5 61.1424 102.5 61.1026 102.5 61.0629C102.5 61.0232 102.5 60.9835 102.5 60.9438C102.5 60.9041 102.5 60.8644 102.5 60.8247C102.5 60.785 102.5 60.7453 102.5 60.7057C102.5 60.666 102.5 60.6264 102.5 60.5867C102.5 60.5471 102.5 60.5075 102.5 60.4679C102.5 60.4283 102.5 60.3887 102.5 60.3491C102.5 60.3095 102.5 60.27 102.5 60.2304C102.5 60.1909 102.5 60.1513 102.5 60.1118C102.5 60.0723 102.5 60.0328 102.5 59.9933C102.5 59.9538 102.5 59.9143 102.5 59.8748C102.5 59.8353 102.5 59.7959 102.5 59.7564C102.5 59.717 102.5 59.6776 102.5 59.6382C102.5 59.5987 102.5 59.5593 102.5 59.52C102.5 59.4806 102.5 59.4412 102.5 59.4018C102.5 59.3625 102.5 59.3232 102.5 59.2838C102.5 59.2445 102.5 59.2052 102.5 59.1659C102.5 59.1266 102.5 59.0873 102.5 59.0481C102.5 59.0088 102.5 58.9696 102.5 58.9303C102.5 58.8911 102.5 58.8519 102.5 58.8127C102.5 58.7735 102.5 58.7343 102.5 58.6951C102.5 58.656 102.5 58.6168 102.5 58.5777C102.5 58.5386 102.5 58.4995 102.5 58.4604C102.5 58.4213 102.5 58.3822 102.5 58.3431C102.5 58.3041 102.5 58.265 102.5 58.226C102.5 58.187 102.5 58.1479 102.5 58.1089C102.5 58.07 102.5 58.031 102.5 57.992C102.5 57.9531 102.5 57.9141 102.5 57.8752C102.5 57.8363 102.5 57.7974 102.5 57.7585C102.5 57.7196 102.5 57.6808 102.5 57.6419C102.5 57.6031 102.5 57.5642 102.5 57.5254C102.5 57.4866 102.5 57.4478 102.5 57.4091C102.5 57.3703 102.5 57.3315 102.5 57.2928C102.5 57.2541 102.5 57.2154 102.5 57.1767C102.5 57.138 102.5 57.0993 102.5 57.0607C102.5 57.022 102.5 56.9834 102.5 56.9448C102.5 56.9062 102.5 56.8676 102.5 56.829C102.5 56.7904 102.5 56.7519 102.5 56.7133C102.5 56.6748 102.5 56.6363 102.5 56.5978C102.5 56.5593 102.5 56.5209 102.5 56.4824C102.5 56.444 102.5 56.4055 102.5 56.3671C102.5 56.3287 102.5 56.2904 102.5 56.252C102.5 56.2136 102.5 56.1753 102.5 56.137C102.5 56.0987 102.5 56.0604 102.5 56.0221C102.5 55.9838 102.5 55.9456 102.5 55.9074C102.5 55.8691 102.5 55.8309 102.5 55.7928C102.5 55.7546 102.5 55.7164 102.5 55.6783C102.5 55.6402 102.5 55.602 102.5 55.564C102.5 55.5259 102.5 55.4878 102.5 55.4498C102.5 55.4117 102.5 55.3737 102.5 55.3357C102.5 55.2977 102.5 55.2598 102.5 55.2218C102.5 55.1839 102.5 55.1459 102.5 55.108C102.5 55.0701 102.5 55.0323 102.5 54.9944C102.5 54.9566 102.5 54.9188 102.5 54.881C102.5 54.8432 102.5 54.8054 102.5 54.7676C102.5 54.7299 102.5 54.6922 102.5 54.6545C102.5 54.6168 102.5 54.5791 102.5 54.5414C102.5 54.5038 102.5 54.4662 102.5 54.4286C102.5 54.391 102.5 54.3534 102.5 54.3159C102.5 54.2783 102.5 54.2408 102.5 54.2033C102.5 54.1658 102.5 54.1283 102.5 54.0909C102.5 54.0535 102.5 54.0161 102.5 53.9787C102.5 53.9413 102.5 53.9039 102.5 53.8666C102.5 53.8293 102.5 53.792 102.5 53.7547C102.5 53.7174 102.5 53.6802 102.5 53.6429C102.5 53.6057 102.5 53.5685 102.5 53.5313C102.5 53.4942 102.5 53.457 102.5 53.4199C102.5 53.3828 102.5 53.3457 102.5 53.3087C102.5 53.2716 102.5 53.2346 102.5 53.1976C102.5 53.1606 102.5 53.1236 102.5 53.0867C102.5 53.0497 102.5 53.0128 102.5 52.976C102.5 52.9391 102.5 52.9022 102.5 52.8654C102.5 52.8286 102.5 52.7918 102.5 52.755C102.5 52.7182 102.5 52.6815 102.5 52.6448C102.5 52.6081 102.5 52.5714 102.5 52.5348C102.5 52.4981 102.5 52.4615 102.5 52.4249C102.5 52.3883 102.5 52.3518 102.5 52.3153C102.5 52.2787 102.5 52.2422 102.5 52.2058C102.5 52.1693 102.5 52.1329 102.5 52.0965C102.5 52.0601 102.5 52.0237 102.5 51.9874C102.5 51.951 102.5 51.9147 102.5 51.8784C102.5 51.8422 102.5 51.8059 102.5 51.7697C102.5 51.7335 102.5 51.6973 102.5 51.6612C102.5 51.625 102.5 51.5889 102.5 51.5528C102.5 51.5167 102.5 51.4807 102.5 51.4446C102.5 51.4086 102.5 51.3726 102.5 51.3367C102.5 51.3007 102.5 51.2648 102.5 51.2289C102.5 51.193 102.5 51.1572 102.5 51.1214C102.5 51.0855 102.5 51.0497 102.5 51.014C102.5 50.9782 102.5 50.9425 102.5 50.9068C102.5 50.8711 102.5 50.8355 102.5 50.7999C102.5 50.7642 102.5 50.7287 102.5 50.6931C102.5 50.6576 102.5 50.622 102.5 50.5866C102.5 50.5511 102.5 50.5156 102.5 50.4802C102.5 50.4448 102.5 50.4094 102.5 50.3741C102.5 50.3387 102.5 50.3034 102.5 50.2681C102.5 50.2329 102.5 50.1976 102.5 50.1624C102.5 50.1272 102.5 50.0921 102.5 50.0569C102.5 50.0218 102.5 49.9867 102.5 49.9517C102.5 49.9166 102.5 49.8816 102.5 49.8466C102.5 49.8116 102.5 49.7766 102.5 49.7417C102.5 49.7068 102.5 49.6719 102.5 49.6371C102.5 49.6023 102.5 49.5675 102.5 49.5327C102.5 49.4979 102.5 49.4632 102.5 49.4285C102.5 49.3938 102.5 49.3592 102.5 49.3245C102.5 49.2899 102.5 49.2553 102.5 49.2208C102.5 49.1863 102.5 49.1518 102.5 49.1173C102.5 49.0828 102.5 49.0484 102.5 49.014C102.5 48.9796 102.5 48.9453 102.5 48.911C102.5 48.8766 102.5 48.8424 102.5 48.8081C102.5 48.7739 102.5 48.7397 102.5 48.7055C102.5 48.6714 102.5 48.6373 102.5 48.6032C102.5 48.5691 102.5 48.5351 102.5 48.5011C102.5 48.4671 102.5 48.4331 102.5 48.3992C102.5 48.3653 102.5 48.3314 102.5 48.2976C102.5 48.2637 102.5 48.2299 102.5 48.1962C102.5 48.1624 102.5 48.1287 102.5 48.095C102.5 48.0613 102.5 48.0277 102.5 47.9941C102.5 47.9605 102.5 47.9269 102.5 47.8934C102.5 47.8599 102.5 47.8264 102.5 47.793C102.5 47.7595 102.5 47.7262 102.5 47.6928C102.5 47.6595 102.5 47.6261 102.5 47.5929C102.5 47.5596 102.5 47.5264 102.5 47.4932C102.5 47.46 102.5 47.4269 102.5 47.3938C102.5 47.3607 102.5 47.3276 102.5 47.2946C102.5 47.2616 102.5 47.2286 102.5 47.1957C102.5 47.1628 102.5 47.1299 102.5 47.097C102.5 47.0642 102.5 47.0314 102.5 46.9986C102.5 46.9659 102.5 46.9332 102.5 46.9005C102.5 46.8678 102.5 46.8352 102.5 46.8026C102.5 46.77 102.5 46.7375 102.5 46.705C102.5 46.6725 102.5 46.6401 102.5 46.6077C102.5 46.5753 102.5 46.5429 102.5 46.5106C102.5 46.4783 102.5 46.446 102.5 46.4138C102.5 46.3815 102.5 46.3493 102.5 46.3172C102.5 46.2851 102.5 46.253 102.5 46.2209C102.5 46.1889 102.5 46.1569 102.5 46.1249C102.5 46.093 102.5 46.0611 102.5 46.0292C102.5 45.9973 102.5 45.9655 102.5 45.9337C102.5 45.902 102.5 45.8702 102.5 45.8386C102.5 45.8069 102.5 45.7752 102.5 45.7437C102.5 45.7121 102.5 45.6805 102.5 45.649C102.5 45.6175 102.5 45.5861 102.5 45.5547C102.5 45.5233 102.5 45.4919 102.5 45.4606C102.5 45.4293 102.5 45.3981 102.5 45.3669C102.5 45.3356 102.5 45.3045 102.5 45.2734C102.5 45.2422 102.5 45.2112 102.5 45.1802C102.5 45.1491 102.5 45.1182 102.5 45.0872C102.5 45.0563 102.5 45.0254 102.5 44.9946C102.5 44.9638 102.5 44.933 102.5 44.9023C102.5 44.8716 102.5 44.8409 102.5 44.8102C102.5 44.7796 102.5 44.749 102.5 44.7185C102.5 44.688 102.5 44.6575 102.5 44.6271C102.5 44.5966 102.5 44.5662 102.5 44.5359C102.5 44.5056 102.5 44.4753 102.5 44.445C102.5 44.4148 102.5 44.3846 102.5 44.3545C102.5 44.3244 102.5 44.2943 102.5 44.2642C102.5 44.2342 102.5 44.2042 102.5 44.1743C102.5 44.1444 102.5 44.1145 102.5 44.0847C102.5 44.0548 102.5 44.025 102.5 43.9953C102.5 43.9656 102.5 43.9359 102.5 43.9063C102.5 43.8767 102.5 43.8471 102.5 43.8176C102.5 43.788 102.5 43.7586 102.5 43.7292C102.5 43.6997 102.5 43.6704 102.5 43.6411C102.5 43.6118 102.5 43.5825 102.5 43.5533C102.5 43.5241 102.5 43.4949 102.5 43.4658C102.5 43.4367 102.5 43.4077 102.5 43.3787C102.5 43.3497 102.5 43.3207 102.5 43.2918C102.5 43.2629 102.5 43.2341 102.5 43.2053C102.5 43.1765 102.5 43.1478 102.5 43.1191C102.5 43.0905 102.5 43.0618 102.5 43.0333C102.5 43.0047 102.5 42.9762 102.5 42.9477C102.5 42.9193 102.5 42.8909 102.5 42.8625C102.5 42.8342 102.5 42.8059 102.5 42.7776C102.5 42.7494 102.5 42.7212 102.5 42.6931C102.5 42.6649 102.5 42.6369 102.5 42.6088C102.5 42.5808 102.5 42.5529 102.5 42.5249C102.5 42.497 102.5 42.4692 102.5 42.4414C102.5 42.4136 102.5 42.3858 102.5 42.3582C102.5 42.3305 102.5 42.3028 102.5 42.2753C102.5 42.2477 102.5 42.2202 102.5 42.1927C102.5 42.1652 102.5 42.1378 102.5 42.1105C102.5 42.0831 102.5 42.0559 102.5 42.0286C102.5 42.0014 102.5 41.9742 102.5 41.9471C102.5 41.92 102.5 41.8929 102.5 41.8659C102.5 41.8389 102.5 41.8119 102.5 41.7851C102.5 41.7582 102.5 41.7313 102.5 41.7046C102.5 41.6778 102.5 41.6511 102.5 41.6244C102.5 41.5978 102.5 41.5712 102.5 41.5446C102.5 41.5181 102.5 41.4916 102.5 41.4652C102.5 41.4388 102.5 41.4124 102.5 41.3861C102.5 41.3598 102.5 41.3335 102.5 41.3073C102.5 41.2812 102.5 41.255 102.5 41.229C102.5 41.2029 102.5 41.1769 102.5 41.1509C102.5 41.125 102.5 41.0991 102.5 41.0733C102.5 41.0474 102.5 41.0217 102.5 40.996C102.5 40.9703 102.5 40.9446 102.5 40.919C102.5 40.8934 102.5 40.8679 102.5 40.8425C102.5 40.817 102.5 40.7916 102.5 40.7662C102.5 40.7409 102.5 40.7156 102.5 40.6904C102.5 40.6652 102.5 40.64 102.5 40.6149C102.5 40.5898 102.5 40.5648 102.5 40.5398C102.5 40.5148 102.5 40.4899 102.5 40.4651C102.5 40.4402 102.5 40.4154 102.5 40.3907C102.5 40.366 102.5 40.3413 102.5 40.3167C102.5 40.2921 102.5 40.2676 102.5 40.2431C102.5 40.2186 102.5 40.1942 102.5 40.1698C102.5 40.1455 102.5 40.1212 102.5 40.097C102.5 40.0728 102.5 40.0486 102.5 40.0245C102.5 40.0004 102.5 39.9764 102.5 39.9524C102.5 39.9284 102.5 39.9045 102.5 39.8807C102.5 39.8568 102.5 39.8331 102.5 39.8094C102.5 39.7856 102.5 39.762 102.5 39.7384C102.5 39.7148 102.5 39.6913 102.5 39.6679C102.5 39.6444 102.5 39.621 102.5 39.5977C102.5 39.5744 102.5 39.5511 102.5 39.5279C102.5 39.5047 102.5 39.4816 102.5 39.4585C102.5 39.4355 102.5 39.4125 102.5 39.3895C102.5 39.3666 102.5 39.3437 102.5 39.3209C102.5 39.2981 102.5 39.2754 102.5 39.2527C102.5 39.2301 102.5 39.2074 102.5 39.1849C102.5 39.1624 102.5 39.1399 102.5 39.1175C102.5 39.0951 102.5 39.0728 102.5 39.0505C102.5 39.0282 102.5 39.006 102.5 38.9839C102.5 38.9618 102.5 38.9397 102.5 38.9177C102.5 38.8957 102.5 38.8738 102.5 38.8519C102.5 38.8301 102.5 38.8083 102.5 38.7865C102.5 38.7648 102.5 38.7431 102.5 38.7216C102.5 38.7 102.5 38.6784 102.5 38.657C102.5 38.6355 102.5 38.6141 102.5 38.5928C102.5 38.5715 102.5 38.5503 102.5 38.5291C102.5 38.5079 102.5 38.4868 102.5 38.4658C102.5 38.4447 102.5 38.4238 102.5 38.4028C102.5 38.3819 102.5 38.3611 102.5 38.3404C102.5 38.3196 102.5 38.2989 102.5 38.2783C102.5 38.2577 102.5 38.2371 102.5 38.2166C102.5 38.1961 102.5 38.1757 102.5 38.1554C102.5 38.1351 102.5 38.1148 102.5 38.0946C102.5 38.0744 102.5 38.0543 102.5 38.0342C102.5 38.0141 102.5 37.9942 102.5 37.9742C102.5 37.9543 102.5 37.9345 102.5 37.9147C102.5 37.8949 102.5 37.8752 102.5 37.8556C102.5 37.836 102.5 37.8164 102.5 37.7969C102.5 37.7775 102.5 37.758 102.5 37.7387C102.5 37.7194 102.5 37.7001 102.5 37.6809C102.5 37.6617 102.5 37.6426 102.5 37.6235C102.5 37.6045 102.5 37.5855 102.5 37.5666C102.5 37.5477 102.5 37.5289 102.5 37.5101C102.5 37.4914 102.5 37.4727 102.5 37.4541C102.5 37.4355 102.5 37.4169 102.5 37.3985C102.5 37.38 102.5 37.3616 102.5 37.3433C102.5 37.325 102.5 37.3067 102.5 37.2886C102.5 37.2704 102.5 37.2523 102.5 37.2343C102.5 37.2163 102.5 37.1983 102.5 37.1805C102.5 37.1626 102.5 37.1448 102.5 37.1271C102.5 37.1094 102.5 37.0917 102.5 37.0742C102.5 37.0566 102.5 37.0391 102.5 37.0217C102.5 37.0043 102.5 36.9869 102.5 36.9696C102.5 36.9524 102.5 36.9352 102.5 36.9181C102.5 36.901 102.5 36.8839 102.5 36.867C102.5 36.85 102.5 36.8331 102.5 36.8163C102.5 36.7995 102.5 36.7828 102.5 36.7661C102.5 36.7495 102.5 36.7329 102.5 36.7164C102.5 36.6999 102.5 36.6835 102.5 36.6671C102.5 36.6508 102.5 36.6345 102.5 36.6183C102.5 36.6021 102.5 36.586 102.5 36.57C102.5 36.5539 102.5 36.538 102.5 36.5221C102.5 36.5062 102.5 36.4904 102.5 36.4747C102.5 36.459 102.5 36.4433 102.5 36.4277C102.5 36.4122 102.5 36.3967 102.5 36.3813C102.5 36.3659 102.5 36.3505 102.5 36.3353C102.5 36.32 102.5 36.3049 102.5 36.2898C102.5 36.2747 102.5 36.2597 102.5 36.2447C102.5 36.2298 102.5 36.2149 102.5 36.2002C102.5 36.1854 102.5 36.1707 102.5 36.1561C102.5 36.1415 102.5 36.1269 102.5 36.1125C102.5 36.098 102.5 36.0837 102.5 36.0694C102.5 36.0551 102.5 36.0409 102.5 36.0267C102.5 36.0126 102.5 35.9985 102.5 35.9846C102.5 35.9706 102.5 35.9567 102.5 35.9429C102.5 35.9291 102.5 35.9154 102.5 35.9017C102.5 35.8881 102.5 35.8745 102.5 35.861C102.5 35.8475 102.5 35.8342 102.5 35.8208C102.5 35.8075 102.5 35.7943 102.5 35.7811C102.5 35.768 102.5 35.7549 102.5 35.7419C102.5 35.7289 102.5 35.716 102.5 35.7032C102.5 35.6904 102.5 35.6776 102.5 35.665C102.5 35.6523 102.5 35.6397 102.5 35.6273C102.5 35.6148 102.5 35.6024 102.5 35.59C102.5 35.5777 102.5 35.5655 102.5 35.5533C102.5 35.5412 102.5 35.5291 102.5 35.5171C102.5 35.5051 102.5 35.4932 102.5 35.4814C102.5 35.4696 102.5 35.4578 102.5 35.4462C102.5 35.4345 102.5 35.423 102.5 35.4115C102.5 35.4 102.5 35.3886 102.5 35.3773C102.5 35.366 102.5 35.3548 102.5 35.3436C102.5 35.3325 102.5 35.3214 102.5 35.3105C102.5 35.2995 102.5 35.2886 102.5 35.2778C102.5 35.267 102.5 35.2563 102.5 35.2457C102.5 35.235 102.5 35.2245 102.5 35.214C102.5 35.2036 102.5 35.1932 102.5 35.1829C102.5 35.1727 102.5 35.1625 102.5 35.1524C102.5 35.1422 102.5 35.1322 102.5 35.1223C102.5 35.1124 102.5 35.1025 102.5 35.0928C102.5 35.083 102.5 35.0733 102.5 35.0637C102.5 35.0541 102.5 35.0447 102.5 35.0352C102.5 35.0258 102.5 35.0165 102.5 35.0073C102.5 34.998 102.5 34.9889 102.5 34.9798C102.5 34.9708 102.5 34.9618 102.5 34.9529C102.5 34.9441 102.5 34.9353 102.5 34.9266C102.5 34.9179 102.5 34.9092 102.5 34.9007C102.5 34.8922 102.5 34.8838 102.5 34.8754C102.5 34.8671 102.5 34.8588 102.5 34.8506C102.5 34.8425 102.5 34.8344 102.5 34.8264C102.5 34.8184 102.5 34.8105 102.5 34.8027C102.5 34.7949 102.5 34.7872 102.5 34.7796C102.5 34.7719 102.5 34.7644 102.5 34.757C102.5 34.7495 102.5 34.7422 102.5 34.7349C102.5 34.7276 102.5 34.7205 102.5 34.7134C102.5 34.7063 102.5 34.6993 102.5 34.6924C102.5 34.6855 102.5 34.6787 102.5 34.672C102.5 34.6652 102.5 34.6586 102.5 34.6521C102.5 34.6456 102.5 34.6391 102.5 34.6328C102.5 34.6264 102.5 34.6202 102.5 34.614C102.5 34.6078 102.5 34.6017 102.5 34.5958C102.5 34.5898 102.5 34.5839 102.5 34.5781C102.5 34.5723 102.5 34.5666 102.5 34.561C102.5 34.5554 102.5 34.5499 102.5 34.5444C102.5 34.539 102.5 34.5337 102.5 34.5285C102.5 34.5232 102.5 34.5181 102.5 34.513C102.5 34.508 102.5 34.503 102.5 34.4982C102.5 34.4933 102.5 34.4885 102.5 34.4839C102.5 34.4792 102.5 34.4746 102.5 34.4701C102.5 34.4656 102.5 34.4613 102.5 34.457C102.5 34.4527 102.5 34.4485 102.5 34.4444C102.5 34.4403 102.5 34.4363 102.5 34.4323C102.5 34.4284 102.5 34.4246 102.5 34.4209C102.5 34.4172 102.5 34.4135 102.5 34.41C102.5 34.4065 102.5 34.403 102.5 34.3997C102.5 34.3964 102.5 34.3931 102.5 34.39C102.5 34.3868 102.5 34.3838 102.5 34.3808C102.5 34.3779 102.5 34.375 102.5 34.3722C102.5 34.3695 102.5 34.3668 102.5 34.3643C102.5 34.3617 102.5 34.3592 102.5 34.3568C102.5 34.3545 102.5 34.3522 102.5 34.35C102.5 34.3478 102.5 34.3458 102.5 34.3438C102.5 34.3418 102.5 34.3399 102.5 34.3381C102.5 34.3363 102.5 34.3347 102.5 34.3331C102.5 34.3315 102.5 34.33 102.5 34.3286C102.5 34.3272 102.5 34.3259 102.5 34.3247C102.5 34.3235 102.5 34.3224 102.5 34.3214C102.5 34.3204 102.5 34.3195 102.5 34.3187C102.5 34.3179 102.5 34.3172 102.5 34.3166C102.5 34.316 102.5 34.3155 102.5 34.3151C102.5 34.3147 102.5 34.3144 102.5 34.3142C102.5 34.314 102.5 34.3139 106 34.3139Z" fill="#1F2182"/>
<path d="M34.3333 91.5C34.3333 101.809 42.6907 110.167 53 110.167C63.3093 110.167 71.6667 101.809 71.6667 91.5C71.6667 81.1907 63.3093 72.8333 53 72.8333C42.6907 72.8333 34.3333 81.1907 34.3333 91.5ZM107.5 75.6618V79.1618H114.5V75.6618H107.5ZM56.5 91.5V36.8342H49.5V91.5H56.5ZM56.5 36.8342C56.5 27.1662 59.8048 20.1215 64.5386 15.3831C69.3173 10.5998 75.7402 7.98076 82.2265 7.56013C88.7266 7.13861 95.0767 8.93564 99.7381 12.7013C104.32 16.4031 107.5 22.1826 107.5 30.3139H114.5C114.5 20.1537 110.43 12.3399 104.137 7.25618C97.9233 2.23647 89.7734 0.0560277 81.7735 0.574805C73.7598 1.09448 65.6827 4.33355 59.5864 10.4358C53.4452 16.5831 49.5 25.4516 49.5 36.8342H56.5ZM111 30.3139C107.5 30.3139 107.5 30.314 107.5 30.3142C107.5 30.3144 107.5 30.3147 107.5 30.3151C107.5 30.3155 107.5 30.316 107.5 30.3166C107.5 30.3172 107.5 30.3179 107.5 30.3187C107.5 30.3195 107.5 30.3204 107.5 30.3214C107.5 30.3224 107.5 30.3235 107.5 30.3247C107.5 30.3259 107.5 30.3272 107.5 30.3286C107.5 30.33 107.5 30.3315 107.5 30.3331C107.5 30.3347 107.5 30.3363 107.5 30.3381C107.5 30.3399 107.5 30.3418 107.5 30.3438C107.5 30.3458 107.5 30.3478 107.5 30.35C107.5 30.3522 107.5 30.3545 107.5 30.3568C107.5 30.3592 107.5 30.3617 107.5 30.3643C107.5 30.3668 107.5 30.3695 107.5 30.3722C107.5 30.375 107.5 30.3779 107.5 30.3808C107.5 30.3838 107.5 30.3868 107.5 30.39C107.5 30.3931 107.5 30.3964 107.5 30.3997C107.5 30.403 107.5 30.4065 107.5 30.41C107.5 30.4135 107.5 30.4172 107.5 30.4209C107.5 30.4246 107.5 30.4284 107.5 30.4323C107.5 30.4363 107.5 30.4403 107.5 30.4444C107.5 30.4485 107.5 30.4527 107.5 30.457C107.5 30.4613 107.5 30.4656 107.5 30.4701C107.5 30.4746 107.5 30.4792 107.5 30.4839C107.5 30.4885 107.5 30.4933 107.5 30.4982C107.5 30.503 107.5 30.508 107.5 30.513C107.5 30.5181 107.5 30.5232 107.5 30.5285C107.5 30.5337 107.5 30.539 107.5 30.5444C107.5 30.5499 107.5 30.5554 107.5 30.561C107.5 30.5666 107.5 30.5723 107.5 30.5781C107.5 30.5839 107.5 30.5898 107.5 30.5958C107.5 30.6017 107.5 30.6078 107.5 30.614C107.5 30.6202 107.5 30.6264 107.5 30.6328C107.5 30.6391 107.5 30.6456 107.5 30.6521C107.5 30.6586 107.5 30.6652 107.5 30.672C107.5 30.6787 107.5 30.6855 107.5 30.6924C107.5 30.6993 107.5 30.7063 107.5 30.7134C107.5 30.7205 107.5 30.7276 107.5 30.7349C107.5 30.7422 107.5 30.7495 107.5 30.757C107.5 30.7644 107.5 30.7719 107.5 30.7796C107.5 30.7872 107.5 30.7949 107.5 30.8027C107.5 30.8105 107.5 30.8184 107.5 30.8264C107.5 30.8344 107.5 30.8425 107.5 30.8506C107.5 30.8588 107.5 30.8671 107.5 30.8754C107.5 30.8838 107.5 30.8922 107.5 30.9007C107.5 30.9092 107.5 30.9179 107.5 30.9266C107.5 30.9353 107.5 30.9441 107.5 30.9529C107.5 30.9618 107.5 30.9708 107.5 30.9798C107.5 30.9889 107.5 30.998 107.5 31.0073C107.5 31.0165 107.5 31.0258 107.5 31.0352C107.5 31.0447 107.5 31.0541 107.5 31.0637C107.5 31.0733 107.5 31.083 107.5 31.0928C107.5 31.1025 107.5 31.1124 107.5 31.1223C107.5 31.1322 107.5 31.1422 107.5 31.1524C107.5 31.1625 107.5 31.1727 107.5 31.1829C107.5 31.1932 107.5 31.2036 107.5 31.214C107.5 31.2245 107.5 31.235 107.5 31.2457C107.5 31.2563 107.5 31.267 107.5 31.2778C107.5 31.2886 107.5 31.2995 107.5 31.3105C107.5 31.3214 107.5 31.3325 107.5 31.3436C107.5 31.3548 107.5 31.366 107.5 31.3773C107.5 31.3886 107.5 31.4 107.5 31.4115C107.5 31.423 107.5 31.4345 107.5 31.4462C107.5 31.4578 107.5 31.4696 107.5 31.4814C107.5 31.4932 107.5 31.5051 107.5 31.5171C107.5 31.5291 107.5 31.5412 107.5 31.5533C107.5 31.5655 107.5 31.5777 107.5 31.59C107.5 31.6024 107.5 31.6148 107.5 31.6273C107.5 31.6397 107.5 31.6523 107.5 31.665C107.5 31.6776 107.5 31.6904 107.5 31.7032C107.5 31.716 107.5 31.7289 107.5 31.7419C107.5 31.7549 107.5 31.768 107.5 31.7811C107.5 31.7943 107.5 31.8075 107.5 31.8208C107.5 31.8342 107.5 31.8475 107.5 31.861C107.5 31.8745 107.5 31.8881 107.5 31.9017C107.5 31.9154 107.5 31.9291 107.5 31.9429C107.5 31.9567 107.5 31.9706 107.5 31.9846C107.5 31.9985 107.5 32.0126 107.5 32.0267C107.5 32.0409 107.5 32.0551 107.5 32.0694C107.5 32.0837 107.5 32.098 107.5 32.1125C107.5 32.1269 107.5 32.1415 107.5 32.1561C107.5 32.1707 107.5 32.1854 107.5 32.2002C107.5 32.2149 107.5 32.2298 107.5 32.2447C107.5 32.2597 107.5 32.2747 107.5 32.2898C107.5 32.3049 107.5 32.32 107.5 32.3353C107.5 32.3505 107.5 32.3659 107.5 32.3813C107.5 32.3967 107.5 32.4122 107.5 32.4277C107.5 32.4433 107.5 32.459 107.5 32.4747C107.5 32.4904 107.5 32.5062 107.5 32.5221C107.5 32.538 107.5 32.5539 107.5 32.57C107.5 32.586 107.5 32.6021 107.5 32.6183C107.5 32.6345 107.5 32.6508 107.5 32.6671C107.5 32.6835 107.5 32.6999 107.5 32.7164C107.5 32.7329 107.5 32.7495 107.5 32.7661C107.5 32.7828 107.5 32.7995 107.5 32.8163C107.5 32.8331 107.5 32.85 107.5 32.867C107.5 32.8839 107.5 32.901 107.5 32.9181C107.5 32.9352 107.5 32.9524 107.5 32.9696C107.5 32.9869 107.5 33.0043 107.5 33.0217C107.5 33.0391 107.5 33.0566 107.5 33.0742C107.5 33.0917 107.5 33.1094 107.5 33.1271C107.5 33.1448 107.5 33.1626 107.5 33.1805C107.5 33.1983 107.5 33.2163 107.5 33.2343C107.5 33.2523 107.5 33.2704 107.5 33.2886C107.5 33.3067 107.5 33.325 107.5 33.3433C107.5 33.3616 107.5 33.38 107.5 33.3985C107.5 33.4169 107.5 33.4355 107.5 33.4541C107.5 33.4727 107.5 33.4914 107.5 33.5101C107.5 33.5289 107.5 33.5477 107.5 33.5666C107.5 33.5855 107.5 33.6045 107.5 33.6235C107.5 33.6426 107.5 33.6617 107.5 33.6809C107.5 33.7001 107.5 33.7194 107.5 33.7387C107.5 33.758 107.5 33.7775 107.5 33.7969C107.5 33.8164 107.5 33.836 107.5 33.8556C107.5 33.8752 107.5 33.8949 107.5 33.9147C107.5 33.9345 107.5 33.9543 107.5 33.9742C107.5 33.9942 107.5 34.0141 107.5 34.0342C107.5 34.0543 107.5 34.0744 107.5 34.0946C107.5 34.1148 107.5 34.1351 107.5 34.1554C107.5 34.1757 107.5 34.1961 107.5 34.2166C107.5 34.2371 107.5 34.2577 107.5 34.2783C107.5 34.2989 107.5 34.3196 107.5 34.3404C107.5 34.3611 107.5 34.3819 107.5 34.4028C107.5 34.4238 107.5 34.4447 107.5 34.4658C107.5 34.4868 107.5 34.5079 107.5 34.5291C107.5 34.5503 107.5 34.5715 107.5 34.5928C107.5 34.6141 107.5 34.6355 107.5 34.657C107.5 34.6784 107.5 34.7 107.5 34.7216C107.5 34.7431 107.5 34.7648 107.5 34.7865C107.5 34.8083 107.5 34.8301 107.5 34.8519C107.5 34.8738 107.5 34.8957 107.5 34.9177C107.5 34.9397 107.5 34.9618 107.5 34.9839C107.5 35.006 107.5 35.0282 107.5 35.0505C107.5 35.0728 107.5 35.0951 107.5 35.1175C107.5 35.1399 107.5 35.1624 107.5 35.1849C107.5 35.2074 107.5 35.2301 107.5 35.2527C107.5 35.2754 107.5 35.2981 107.5 35.3209C107.5 35.3437 107.5 35.3666 107.5 35.3895C107.5 35.4125 107.5 35.4355 107.5 35.4585C107.5 35.4816 107.5 35.5047 107.5 35.5279C107.5 35.5511 107.5 35.5744 107.5 35.5977C107.5 35.621 107.5 35.6444 107.5 35.6679C107.5 35.6913 107.5 35.7148 107.5 35.7384C107.5 35.762 107.5 35.7856 107.5 35.8094C107.5 35.8331 107.5 35.8568 107.5 35.8807C107.5 35.9045 107.5 35.9284 107.5 35.9524C107.5 35.9764 107.5 36.0004 107.5 36.0245C107.5 36.0486 107.5 36.0728 107.5 36.097C107.5 36.1212 107.5 36.1455 107.5 36.1698C107.5 36.1942 107.5 36.2186 107.5 36.2431C107.5 36.2676 107.5 36.2921 107.5 36.3167C107.5 36.3413 107.5 36.366 107.5 36.3907C107.5 36.4154 107.5 36.4402 107.5 36.4651C107.5 36.4899 107.5 36.5148 107.5 36.5398C107.5 36.5648 107.5 36.5898 107.5 36.6149C107.5 36.64 107.5 36.6652 107.5 36.6904C107.5 36.7156 107.5 36.7409 107.5 36.7662C107.5 36.7916 107.5 36.817 107.5 36.8425C107.5 36.8679 107.5 36.8934 107.5 36.919C107.5 36.9446 107.5 36.9703 107.5 36.996C107.5 37.0217 107.5 37.0474 107.5 37.0733C107.5 37.0991 107.5 37.125 107.5 37.1509C107.5 37.1769 107.5 37.2029 107.5 37.229C107.5 37.255 107.5 37.2812 107.5 37.3073C107.5 37.3335 107.5 37.3598 107.5 37.3861C107.5 37.4124 107.5 37.4388 107.5 37.4652C107.5 37.4916 107.5 37.5181 107.5 37.5446C107.5 37.5712 107.5 37.5978 107.5 37.6244C107.5 37.6511 107.5 37.6778 107.5 37.7046C107.5 37.7313 107.5 37.7582 107.5 37.7851C107.5 37.8119 107.5 37.8389 107.5 37.8659C107.5 37.8929 107.5 37.92 107.5 37.9471C107.5 37.9742 107.5 38.0014 107.5 38.0286C107.5 38.0559 107.5 38.0831 107.5 38.1105C107.5 38.1378 107.5 38.1652 107.5 38.1927C107.5 38.2202 107.5 38.2477 107.5 38.2753C107.5 38.3028 107.5 38.3305 107.5 38.3582C107.5 38.3858 107.5 38.4136 107.5 38.4414C107.5 38.4692 107.5 38.497 107.5 38.5249C107.5 38.5529 107.5 38.5808 107.5 38.6088C107.5 38.6369 107.5 38.6649 107.5 38.6931C107.5 38.7212 107.5 38.7494 107.5 38.7776C107.5 38.8059 107.5 38.8342 107.5 38.8625C107.5 38.8909 107.5 38.9193 107.5 38.9477C107.5 38.9762 107.5 39.0047 107.5 39.0333C107.5 39.0618 107.5 39.0905 107.5 39.1191C107.5 39.1478 107.5 39.1765 107.5 39.2053C107.5 39.2341 107.5 39.2629 107.5 39.2918C107.5 39.3207 107.5 39.3497 107.5 39.3787C107.5 39.4077 107.5 39.4367 107.5 39.4658C107.5 39.4949 107.5 39.5241 107.5 39.5533C107.5 39.5825 107.5 39.6118 107.5 39.6411C107.5 39.6704 107.5 39.6997 107.5 39.7292C107.5 39.7586 107.5 39.788 107.5 39.8176C107.5 39.8471 107.5 39.8767 107.5 39.9063C107.5 39.9359 107.5 39.9656 107.5 39.9953C107.5 40.025 107.5 40.0548 107.5 40.0847C107.5 40.1145 107.5 40.1444 107.5 40.1743C107.5 40.2042 107.5 40.2342 107.5 40.2642C107.5 40.2943 107.5 40.3244 107.5 40.3545C107.5 40.3846 107.5 40.4148 107.5 40.445C107.5 40.4753 107.5 40.5056 107.5 40.5359C107.5 40.5662 107.5 40.5966 107.5 40.6271C107.5 40.6575 107.5 40.688 107.5 40.7185C107.5 40.749 107.5 40.7796 107.5 40.8102C107.5 40.8409 107.5 40.8716 107.5 40.9023C107.5 40.933 107.5 40.9638 107.5 40.9946C107.5 41.0254 107.5 41.0563 107.5 41.0872C107.5 41.1182 107.5 41.1491 107.5 41.1802C107.5 41.2112 107.5 41.2422 107.5 41.2734C107.5 41.3045 107.5 41.3356 107.5 41.3669C107.5 41.3981 107.5 41.4293 107.5 41.4606C107.5 41.4919 107.5 41.5233 107.5 41.5547C107.5 41.5861 107.5 41.6175 107.5 41.649C107.5 41.6805 107.5 41.7121 107.5 41.7437C107.5 41.7752 107.5 41.8069 107.5 41.8386C107.5 41.8702 107.5 41.902 107.5 41.9337C107.5 41.9655 107.5 41.9973 107.5 42.0292C107.5 42.0611 107.5 42.093 107.5 42.1249C107.5 42.1569 107.5 42.1889 107.5 42.2209C107.5 42.253 107.5 42.2851 107.5 42.3172C107.5 42.3493 107.5 42.3815 107.5 42.4138C107.5 42.446 107.5 42.4783 107.5 42.5106C107.5 42.5429 107.5 42.5753 107.5 42.6077C107.5 42.6401 107.5 42.6725 107.5 42.705C107.5 42.7375 107.5 42.77 107.5 42.8026C107.5 42.8352 107.5 42.8678 107.5 42.9005C107.5 42.9332 107.5 42.9659 107.5 42.9986C107.5 43.0314 107.5 43.0642 107.5 43.097C107.5 43.1299 107.5 43.1628 107.5 43.1957C107.5 43.2286 107.5 43.2616 107.5 43.2946C107.5 43.3276 107.5 43.3607 107.5 43.3938C107.5 43.4269 107.5 43.46 107.5 43.4932C107.5 43.5264 107.5 43.5596 107.5 43.5929C107.5 43.6261 107.5 43.6595 107.5 43.6928C107.5 43.7262 107.5 43.7595 107.5 43.793C107.5 43.8264 107.5 43.8599 107.5 43.8934C107.5 43.9269 107.5 43.9605 107.5 43.9941C107.5 44.0277 107.5 44.0613 107.5 44.095C107.5 44.1287 107.5 44.1624 107.5 44.1962C107.5 44.2299 107.5 44.2637 107.5 44.2976C107.5 44.3314 107.5 44.3653 107.5 44.3992C107.5 44.4331 107.5 44.4671 107.5 44.5011C107.5 44.5351 107.5 44.5691 107.5 44.6032C107.5 44.6373 107.5 44.6714 107.5 44.7055C107.5 44.7397 107.5 44.7739 107.5 44.8081C107.5 44.8424 107.5 44.8766 107.5 44.911C107.5 44.9453 107.5 44.9796 107.5 45.014C107.5 45.0484 107.5 45.0828 107.5 45.1173C107.5 45.1518 107.5 45.1863 107.5 45.2208C107.5 45.2553 107.5 45.2899 107.5 45.3245C107.5 45.3592 107.5 45.3938 107.5 45.4285C107.5 45.4632 107.5 45.4979 107.5 45.5327C107.5 45.5675 107.5 45.6023 107.5 45.6371C107.5 45.6719 107.5 45.7068 107.5 45.7417C107.5 45.7766 107.5 45.8116 107.5 45.8466C107.5 45.8816 107.5 45.9166 107.5 45.9517C107.5 45.9867 107.5 46.0218 107.5 46.0569C107.5 46.0921 107.5 46.1272 107.5 46.1624C107.5 46.1976 107.5 46.2329 107.5 46.2681C107.5 46.3034 107.5 46.3387 107.5 46.3741C107.5 46.4094 107.5 46.4448 107.5 46.4802C107.5 46.5156 107.5 46.5511 107.5 46.5866C107.5 46.622 107.5 46.6576 107.5 46.6931C107.5 46.7287 107.5 46.7642 107.5 46.7999C107.5 46.8355 107.5 46.8711 107.5 46.9068C107.5 46.9425 107.5 46.9782 107.5 47.014C107.5 47.0497 107.5 47.0855 107.5 47.1214C107.5 47.1572 107.5 47.193 107.5 47.2289C107.5 47.2648 107.5 47.3007 107.5 47.3367C107.5 47.3726 107.5 47.4086 107.5 47.4446C107.5 47.4807 107.5 47.5167 107.5 47.5528C107.5 47.5889 107.5 47.625 107.5 47.6612C107.5 47.6973 107.5 47.7335 107.5 47.7697C107.5 47.8059 107.5 47.8422 107.5 47.8784C107.5 47.9147 107.5 47.951 107.5 47.9874C107.5 48.0237 107.5 48.0601 107.5 48.0965C107.5 48.1329 107.5 48.1693 107.5 48.2058C107.5 48.2422 107.5 48.2787 107.5 48.3153C107.5 48.3518 107.5 48.3883 107.5 48.4249C107.5 48.4615 107.5 48.4981 107.5 48.5348C107.5 48.5714 107.5 48.6081 107.5 48.6448C107.5 48.6815 107.5 48.7182 107.5 48.755C107.5 48.7918 107.5 48.8286 107.5 48.8654C107.5 48.9022 107.5 48.9391 107.5 48.976C107.5 49.0128 107.5 49.0497 107.5 49.0867C107.5 49.1236 107.5 49.1606 107.5 49.1976C107.5 49.2346 107.5 49.2716 107.5 49.3087C107.5 49.3457 107.5 49.3828 107.5 49.4199C107.5 49.457 107.5 49.4942 107.5 49.5313C107.5 49.5685 107.5 49.6057 107.5 49.6429C107.5 49.6802 107.5 49.7174 107.5 49.7547C107.5 49.792 107.5 49.8293 107.5 49.8666C107.5 49.9039 107.5 49.9413 107.5 49.9787C107.5 50.0161 107.5 50.0535 107.5 50.0909C107.5 50.1283 107.5 50.1658 107.5 50.2033C107.5 50.2408 107.5 50.2783 107.5 50.3159C107.5 50.3534 107.5 50.391 107.5 50.4286C107.5 50.4662 107.5 50.5038 107.5 50.5414C107.5 50.5791 107.5 50.6168 107.5 50.6545C107.5 50.6922 107.5 50.7299 107.5 50.7676C107.5 50.8054 107.5 50.8432 107.5 50.881C107.5 50.9188 107.5 50.9566 107.5 50.9944C107.5 51.0323 107.5 51.0701 107.5 51.108C107.5 51.1459 107.5 51.1839 107.5 51.2218C107.5 51.2598 107.5 51.2977 107.5 51.3357C107.5 51.3737 107.5 51.4117 107.5 51.4498C107.5 51.4878 107.5 51.5259 107.5 51.564C107.5 51.602 107.5 51.6402 107.5 51.6783C107.5 51.7164 107.5 51.7546 107.5 51.7928C107.5 51.8309 107.5 51.8691 107.5 51.9074C107.5 51.9456 107.5 51.9838 107.5 52.0221C107.5 52.0604 107.5 52.0987 107.5 52.137C107.5 52.1753 107.5 52.2136 107.5 52.252C107.5 52.2904 107.5 52.3287 107.5 52.3671C107.5 52.4055 107.5 52.444 107.5 52.4824C107.5 52.5209 107.5 52.5593 107.5 52.5978C107.5 52.6363 107.5 52.6748 107.5 52.7133C107.5 52.7519 107.5 52.7904 107.5 52.829C107.5 52.8676 107.5 52.9062 107.5 52.9448C107.5 52.9834 107.5 53.022 107.5 53.0607C107.5 53.0993 107.5 53.138 107.5 53.1767C107.5 53.2154 107.5 53.2541 107.5 53.2928C107.5 53.3315 107.5 53.3703 107.5 53.4091C107.5 53.4478 107.5 53.4866 107.5 53.5254C107.5 53.5642 107.5 53.6031 107.5 53.6419C107.5 53.6808 107.5 53.7196 107.5 53.7585C107.5 53.7974 107.5 53.8363 107.5 53.8752C107.5 53.9141 107.5 53.9531 107.5 53.992C107.5 54.031 107.5 54.07 107.5 54.1089C107.5 54.1479 107.5 54.187 107.5 54.226C107.5 54.265 107.5 54.3041 107.5 54.3431C107.5 54.3822 107.5 54.4213 107.5 54.4604C107.5 54.4995 107.5 54.5386 107.5 54.5777C107.5 54.6168 107.5 54.656 107.5 54.6951C107.5 54.7343 107.5 54.7735 107.5 54.8127C107.5 54.8519 107.5 54.8911 107.5 54.9303C107.5 54.9696 107.5 55.0088 107.5 55.0481C107.5 55.0873 107.5 55.1266 107.5 55.1659C107.5 55.2052 107.5 55.2445 107.5 55.2838C107.5 55.3232 107.5 55.3625 107.5 55.4018C107.5 55.4412 107.5 55.4806 107.5 55.52C107.5 55.5593 107.5 55.5987 107.5 55.6382C107.5 55.6776 107.5 55.717 107.5 55.7564C107.5 55.7959 107.5 55.8353 107.5 55.8748C107.5 55.9143 107.5 55.9538 107.5 55.9933C107.5 56.0328 107.5 56.0723 107.5 56.1118C107.5 56.1513 107.5 56.1909 107.5 56.2304C107.5 56.27 107.5 56.3095 107.5 56.3491C107.5 56.3887 107.5 56.4283 107.5 56.4679C107.5 56.5075 107.5 56.5471 107.5 56.5867C107.5 56.6264 107.5 56.666 107.5 56.7057C107.5 56.7453 107.5 56.785 107.5 56.8247C107.5 56.8644 107.5 56.9041 107.5 56.9438C107.5 56.9835 107.5 57.0232 107.5 57.0629C107.5 57.1026 107.5 57.1424 107.5 57.1821C107.5 57.2219 107.5 57.2616 107.5 57.3014C107.5 57.3412 107.5 57.381 107.5 57.4208C107.5 57.4605 107.5 57.5004 107.5 57.5402C107.5 57.58 107.5 57.6198 107.5 57.6596C107.5 57.6995 107.5 57.7393 107.5 57.7792C107.5 57.819 107.5 57.8589 107.5 57.8988C107.5 57.9387 107.5 57.9786 107.5 58.0185C107.5 58.0583 107.5 58.0983 107.5 58.1382C107.5 58.1781 107.5 58.218 107.5 58.2579C107.5 58.2979 107.5 58.3378 107.5 58.3778C107.5 58.4177 107.5 58.4577 107.5 58.4976C107.5 58.5376 107.5 58.5776 107.5 58.6176C107.5 58.6576 107.5 58.6976 107.5 58.7376C107.5 58.7776 107.5 58.8176 107.5 58.8576C107.5 58.8976 107.5 58.9376 107.5 58.9777C107.5 59.0177 107.5 59.0577 107.5 59.0978C107.5 59.1378 107.5 59.1779 107.5 59.218C107.5 59.258 107.5 59.2981 107.5 59.3382C107.5 59.3782 107.5 59.4183 107.5 59.4584C107.5 59.4985 107.5 59.5386 107.5 59.5787C107.5 59.6188 107.5 59.6589 107.5 59.699C107.5 59.7391 107.5 59.7793 107.5 59.8194C107.5 59.8595 107.5 59.8997 107.5 59.9398C107.5 59.9799 107.5 60.0201 107.5 60.0602C107.5 60.1004 107.5 60.1405 107.5 60.1807C107.5 60.2208 107.5 60.261 107.5 60.3012C107.5 60.3414 107.5 60.3815 107.5 60.4217C107.5 60.4619 107.5 60.5021 107.5 60.5423C107.5 60.5824 107.5 60.6226 107.5 60.6628C107.5 60.703 107.5 60.7432 107.5 60.7834C107.5 60.8236 107.5 60.8638 107.5 60.9041C107.5 60.9443 107.5 60.9845 107.5 61.0247C107.5 61.0649 107.5 61.1051 107.5 61.1454C107.5 61.1856 107.5 61.2258 107.5 61.266C107.5 61.3063 107.5 61.3465 107.5 61.3867C107.5 61.427 107.5 61.4672 107.5 61.5075C107.5 61.5477 107.5 61.5879 107.5 61.6282C107.5 61.6684 107.5 61.7087 107.5 61.7489C107.5 61.7892 107.5 61.8294 107.5 61.8697C107.5 61.9099 107.5 61.9502 107.5 61.9904C107.5 62.0307 107.5 62.071 107.5 62.1112C107.5 62.1515 107.5 62.1917 107.5 62.232C107.5 62.2722 107.5 62.3125 107.5 62.3528C107.5 62.393 107.5 62.4333 107.5 62.4735C107.5 62.5138 107.5 62.5541 107.5 62.5943C107.5 62.6346 107.5 62.6749 107.5 62.7151C107.5 62.7554 107.5 62.7956 107.5 62.8359C107.5 62.8762 107.5 62.9164 107.5 62.9567C107.5 62.9969 107.5 63.0372 107.5 63.0775C107.5 63.1177 107.5 63.158 107.5 63.1982C107.5 63.2385 107.5 63.2788 107.5 63.319C107.5 63.3593 107.5 63.3995 107.5 63.4398C107.5 63.48 107.5 63.5203 107.5 63.5605C107.5 63.6008 107.5 63.641 107.5 63.6812C107.5 63.7215 107.5 63.7617 107.5 63.802C107.5 63.8422 107.5 63.8824 107.5 63.9227C107.5 63.9629 107.5 64.0031 107.5 64.0434C107.5 64.0836 107.5 64.1238 107.5 64.164C107.5 64.2043 107.5 64.2445 107.5 64.2847C107.5 64.3249 107.5 64.3651 107.5 64.4053C107.5 64.4455 107.5 64.4857 107.5 64.5259C107.5 64.5661 107.5 64.6063 107.5 64.6465C107.5 64.6867 107.5 64.7269 107.5 64.7671C107.5 64.8073 107.5 64.8474 107.5 64.8876C107.5 64.9278 107.5 64.968 107.5 65.0081C107.5 65.0483 107.5 65.0885 107.5 65.1286C107.5 65.1688 107.5 65.2089 107.5 65.2491C107.5 65.2892 107.5 65.3293 107.5 65.3695C107.5 65.4096 107.5 65.4497 107.5 65.4898C107.5 65.53 107.5 65.5701 107.5 65.6102C107.5 65.6503 107.5 65.6904 107.5 65.7305C107.5 65.7706 107.5 65.8107 107.5 65.8508C107.5 65.8909 107.5 65.9309 107.5 65.971C107.5 66.0111 107.5 66.0511 107.5 66.0912C107.5 66.1312 107.5 66.1713 107.5 66.2113C107.5 66.2514 107.5 66.2914 107.5 66.3314C107.5 66.3715 107.5 66.4115 107.5 66.4515C107.5 66.4915 107.5 66.5315 107.5 66.5715C107.5 66.6115 107.5 66.6515 107.5 66.6914C107.5 66.7314 107.5 66.7714 107.5 66.8113C107.5 66.8513 107.5 66.8913 107.5 66.9312C107.5 66.9711 107.5 67.0111 107.5 67.051C107.5 67.0909 107.5 67.1308 107.5 67.1707C107.5 67.2106 107.5 67.2505 107.5 67.2904C107.5 67.3303 107.5 67.3702 107.5 67.4101C107.5 67.4499 107.5 67.4898 107.5 67.5296C107.5 67.5695 107.5 67.6093 107.5 67.6491C107.5 67.689 107.5 67.7288 107.5 67.7686C107.5 67.8084 107.5 67.8482 107.5 67.888C107.5 67.9278 107.5 67.9675 107.5 68.0073C107.5 68.047 107.5 68.0868 107.5 68.1265C107.5 68.1663 107.5 68.206 107.5 68.2457C107.5 68.2854 107.5 68.3251 107.5 68.3648C107.5 68.4045 107.5 68.4442 107.5 68.4839C107.5 68.5235 107.5 68.5632 107.5 68.6028C107.5 68.6425 107.5 68.6821 107.5 68.7217C107.5 68.7613 107.5 68.8009 107.5 68.8405C107.5 68.8801 107.5 68.9197 107.5 68.9593C107.5 68.9988 107.5 69.0384 107.5 69.0779C107.5 69.1175 107.5 69.157 107.5 69.1965C107.5 69.236 107.5 69.2755 107.5 69.315C107.5 69.3545 107.5 69.394 107.5 69.4334C107.5 69.4729 107.5 69.5123 107.5 69.5517C107.5 69.5912 107.5 69.6306 107.5 69.67C107.5 69.7094 107.5 69.7488 107.5 69.7881C107.5 69.8275 107.5 69.8669 107.5 69.9062C107.5 69.9455 107.5 69.9849 107.5 70.0242C107.5 70.0635 107.5 70.1028 107.5 70.142C107.5 70.1813 107.5 70.2206 107.5 70.2598C107.5 70.2991 107.5 70.3383 107.5 70.3775C107.5 70.4167 107.5 70.4559 107.5 70.4951C107.5 70.5343 107.5 70.5734 107.5 70.6126C107.5 70.6517 107.5 70.6909 107.5 70.73C107.5 70.7691 107.5 70.8082 107.5 70.8473C107.5 70.8864 107.5 70.9254 107.5 70.9645C107.5 71.0035 107.5 71.0425 107.5 71.0815C107.5 71.1206 107.5 71.1596 107.5 71.1985C107.5 71.2375 107.5 71.2765 107.5 71.3154C107.5 71.3543 107.5 71.3933 107.5 71.4322C107.5 71.4711 107.5 71.5099 107.5 71.5488C107.5 71.5877 107.5 71.6265 107.5 71.6653C107.5 71.7042 107.5 71.743 107.5 71.7818C107.5 71.8206 107.5 71.8593 107.5 71.8981C107.5 71.9368 107.5 71.9756 107.5 72.0143C107.5 72.053 107.5 72.0917 107.5 72.1303C107.5 72.169 107.5 72.2077 107.5 72.2463C107.5 72.2849 107.5 72.3235 107.5 72.3621C107.5 72.4007 107.5 72.4393 107.5 72.4778C107.5 72.5164 107.5 72.5549 107.5 72.5934C107.5 72.6319 107.5 72.6704 107.5 72.7089C107.5 72.7473 107.5 72.7858 107.5 72.8242C107.5 72.8626 107.5 72.901 107.5 72.9394C107.5 72.9778 107.5 73.0161 107.5 73.0545C107.5 73.0928 107.5 73.1311 107.5 73.1694C107.5 73.2077 107.5 73.246 107.5 73.2842C107.5 73.3225 107.5 73.3607 107.5 73.3989C107.5 73.4371 107.5 73.4753 107.5 73.5134C107.5 73.5516 107.5 73.5897 107.5 73.6278C107.5 73.666 107.5 73.704 107.5 73.7421C107.5 73.7802 107.5 73.8182 107.5 73.8562C107.5 73.8942 107.5 73.9322 107.5 73.9702C107.5 74.0082 107.5 74.0461 107.5 74.084C107.5 74.122 107.5 74.1599 107.5 74.1977C107.5 74.2356 107.5 74.2735 107.5 74.3113C107.5 74.3491 107.5 74.3869 107.5 74.4247C107.5 74.4624 107.5 74.5002 107.5 74.5379C107.5 74.5756 107.5 74.6133 107.5 74.651C107.5 74.6887 107.5 74.7263 107.5 74.7639C107.5 74.8016 107.5 74.8392 107.5 74.8767C107.5 74.9143 107.5 74.9518 107.5 74.9894C107.5 75.0269 107.5 75.0644 107.5 75.1018C107.5 75.1393 107.5 75.1767 107.5 75.2142C107.5 75.2516 107.5 75.2889 107.5 75.3263C107.5 75.3637 107.5 75.401 107.5 75.4383C107.5 75.4756 107.5 75.5129 107.5 75.5501C107.5 75.5874 107.5 75.6246 107.5 75.6618H114.5C114.5 75.6246 114.5 75.5874 114.5 75.5501C114.5 75.5129 114.5 75.4756 114.5 75.4383C114.5 75.401 114.5 75.3637 114.5 75.3263C114.5 75.2889 114.5 75.2516 114.5 75.2142C114.5 75.1767 114.5 75.1393 114.5 75.1018C114.5 75.0644 114.5 75.0269 114.5 74.9894C114.5 74.9518 114.5 74.9143 114.5 74.8767C114.5 74.8392 114.5 74.8016 114.5 74.7639C114.5 74.7263 114.5 74.6887 114.5 74.651C114.5 74.6133 114.5 74.5756 114.5 74.5379C114.5 74.5002 114.5 74.4624 114.5 74.4247C114.5 74.3869 114.5 74.3491 114.5 74.3113C114.5 74.2735 114.5 74.2356 114.5 74.1977C114.5 74.1599 114.5 74.122 114.5 74.084C114.5 74.0461 114.5 74.0082 114.5 73.9702C114.5 73.9322 114.5 73.8942 114.5 73.8562C114.5 73.8182 114.5 73.7802 114.5 73.7421C114.5 73.704 114.5 73.666 114.5 73.6278C114.5 73.5897 114.5 73.5516 114.5 73.5134C114.5 73.4753 114.5 73.4371 114.5 73.3989C114.5 73.3607 114.5 73.3225 114.5 73.2842C114.5 73.246 114.5 73.2077 114.5 73.1694C114.5 73.1311 114.5 73.0928 114.5 73.0545C114.5 73.0161 114.5 72.9778 114.5 72.9394C114.5 72.901 114.5 72.8626 114.5 72.8242C114.5 72.7858 114.5 72.7473 114.5 72.7089C114.5 72.6704 114.5 72.6319 114.5 72.5934C114.5 72.5549 114.5 72.5164 114.5 72.4778C114.5 72.4393 114.5 72.4007 114.5 72.3621C114.5 72.3235 114.5 72.2849 114.5 72.2463C114.5 72.2077 114.5 72.169 114.5 72.1303C114.5 72.0917 114.5 72.053 114.5 72.0143C114.5 71.9756 114.5 71.9368 114.5 71.8981C114.5 71.8593 114.5 71.8206 114.5 71.7818C114.5 71.743 114.5 71.7042 114.5 71.6653C114.5 71.6265 114.5 71.5877 114.5 71.5488C114.5 71.5099 114.5 71.4711 114.5 71.4322C114.5 71.3933 114.5 71.3543 114.5 71.3154C114.5 71.2765 114.5 71.2375 114.5 71.1985C114.5 71.1596 114.5 71.1206 114.5 71.0815C114.5 71.0425 114.5 71.0035 114.5 70.9645C114.5 70.9254 114.5 70.8864 114.5 70.8473C114.5 70.8082 114.5 70.7691 114.5 70.73C114.5 70.6909 114.5 70.6517 114.5 70.6126C114.5 70.5734 114.5 70.5343 114.5 70.4951C114.5 70.4559 114.5 70.4167 114.5 70.3775C114.5 70.3383 114.5 70.2991 114.5 70.2598C114.5 70.2206 114.5 70.1813 114.5 70.142C114.5 70.1028 114.5 70.0635 114.5 70.0242C114.5 69.9849 114.5 69.9455 114.5 69.9062C114.5 69.8669 114.5 69.8275 114.5 69.7881C114.5 69.7488 114.5 69.7094 114.5 69.67C114.5 69.6306 114.5 69.5912 114.5 69.5517C114.5 69.5123 114.5 69.4729 114.5 69.4334C114.5 69.394 114.5 69.3545 114.5 69.315C114.5 69.2755 114.5 69.236 114.5 69.1965C114.5 69.157 114.5 69.1175 114.5 69.0779C114.5 69.0384 114.5 68.9988 114.5 68.9593C114.5 68.9197 114.5 68.8801 114.5 68.8405C114.5 68.8009 114.5 68.7613 114.5 68.7217C114.5 68.6821 114.5 68.6425 114.5 68.6028C114.5 68.5632 114.5 68.5235 114.5 68.4839C114.5 68.4442 114.5 68.4045 114.5 68.3648C114.5 68.3251 114.5 68.2854 114.5 68.2457C114.5 68.206 114.5 68.1663 114.5 68.1265C114.5 68.0868 114.5 68.047 114.5 68.0073C114.5 67.9675 114.5 67.9278 114.5 67.888C114.5 67.8482 114.5 67.8084 114.5 67.7686C114.5 67.7288 114.5 67.689 114.5 67.6491C114.5 67.6093 114.5 67.5695 114.5 67.5296C114.5 67.4898 114.5 67.4499 114.5 67.4101C114.5 67.3702 114.5 67.3303 114.5 67.2904C114.5 67.2505 114.5 67.2106 114.5 67.1707C114.5 67.1308 114.5 67.0909 114.5 67.051C114.5 67.0111 114.5 66.9711 114.5 66.9312C114.5 66.8913 114.5 66.8513 114.5 66.8113C114.5 66.7714 114.5 66.7314 114.5 66.6914C114.5 66.6515 114.5 66.6115 114.5 66.5715C114.5 66.5315 114.5 66.4915 114.5 66.4515C114.5 66.4115 114.5 66.3715 114.5 66.3314C114.5 66.2914 114.5 66.2514 114.5 66.2113C114.5 66.1713 114.5 66.1312 114.5 66.0912C114.5 66.0511 114.5 66.0111 114.5 65.971C114.5 65.9309 114.5 65.8909 114.5 65.8508C114.5 65.8107 114.5 65.7706 114.5 65.7305C114.5 65.6904 114.5 65.6503 114.5 65.6102C114.5 65.5701 114.5 65.53 114.5 65.4898C114.5 65.4497 114.5 65.4096 114.5 65.3695C114.5 65.3293 114.5 65.2892 114.5 65.2491C114.5 65.2089 114.5 65.1688 114.5 65.1286C114.5 65.0885 114.5 65.0483 114.5 65.0081C114.5 64.968 114.5 64.9278 114.5 64.8876C114.5 64.8474 114.5 64.8073 114.5 64.7671C114.5 64.7269 114.5 64.6867 114.5 64.6465C114.5 64.6063 114.5 64.5661 114.5 64.5259C114.5 64.4857 114.5 64.4455 114.5 64.4053C114.5 64.3651 114.5 64.3249 114.5 64.2847C114.5 64.2445 114.5 64.2043 114.5 64.164C114.5 64.1238 114.5 64.0836 114.5 64.0434C114.5 64.0031 114.5 63.9629 114.5 63.9227C114.5 63.8824 114.5 63.8422 114.5 63.802C114.5 63.7617 114.5 63.7215 114.5 63.6812C114.5 63.641 114.5 63.6008 114.5 63.5605C114.5 63.5203 114.5 63.48 114.5 63.4398C114.5 63.3995 114.5 63.3593 114.5 63.319C114.5 63.2788 114.5 63.2385 114.5 63.1982C114.5 63.158 114.5 63.1177 114.5 63.0775C114.5 63.0372 114.5 62.9969 114.5 62.9567C114.5 62.9164 114.5 62.8762 114.5 62.8359C114.5 62.7956 114.5 62.7554 114.5 62.7151C114.5 62.6749 114.5 62.6346 114.5 62.5943C114.5 62.5541 114.5 62.5138 114.5 62.4735C114.5 62.4333 114.5 62.393 114.5 62.3528C114.5 62.3125 114.5 62.2722 114.5 62.232C114.5 62.1917 114.5 62.1515 114.5 62.1112C114.5 62.071 114.5 62.0307 114.5 61.9904C114.5 61.9502 114.5 61.9099 114.5 61.8697C114.5 61.8294 114.5 61.7892 114.5 61.7489C114.5 61.7087 114.5 61.6684 114.5 61.6282C114.5 61.5879 114.5 61.5477 114.5 61.5075C114.5 61.4672 114.5 61.427 114.5 61.3867C114.5 61.3465 114.5 61.3063 114.5 61.266C114.5 61.2258 114.5 61.1856 114.5 61.1454C114.5 61.1051 114.5 61.0649 114.5 61.0247C114.5 60.9845 114.5 60.9443 114.5 60.9041C114.5 60.8638 114.5 60.8236 114.5 60.7834C114.5 60.7432 114.5 60.703 114.5 60.6628C114.5 60.6226 114.5 60.5824 114.5 60.5423C114.5 60.5021 114.5 60.4619 114.5 60.4217C114.5 60.3815 114.5 60.3414 114.5 60.3012C114.5 60.261 114.5 60.2208 114.5 60.1807C114.5 60.1405 114.5 60.1004 114.5 60.0602C114.5 60.0201 114.5 59.9799 114.5 59.9398C114.5 59.8997 114.5 59.8595 114.5 59.8194C114.5 59.7793 114.5 59.7391 114.5 59.699C114.5 59.6589 114.5 59.6188 114.5 59.5787C114.5 59.5386 114.5 59.4985 114.5 59.4584C114.5 59.4183 114.5 59.3782 114.5 59.3382C114.5 59.2981 114.5 59.258 114.5 59.218C114.5 59.1779 114.5 59.1378 114.5 59.0978C114.5 59.0577 114.5 59.0177 114.5 58.9777C114.5 58.9376 114.5 58.8976 114.5 58.8576C114.5 58.8176 114.5 58.7776 114.5 58.7376C114.5 58.6976 114.5 58.6576 114.5 58.6176C114.5 58.5776 114.5 58.5376 114.5 58.4976C114.5 58.4577 114.5 58.4177 114.5 58.3778C114.5 58.3378 114.5 58.2979 114.5 58.2579C114.5 58.218 114.5 58.1781 114.5 58.1382C114.5 58.0983 114.5 58.0583 114.5 58.0185C114.5 57.9786 114.5 57.9387 114.5 57.8988C114.5 57.8589 114.5 57.819 114.5 57.7792C114.5 57.7393 114.5 57.6995 114.5 57.6596C114.5 57.6198 114.5 57.58 114.5 57.5402C114.5 57.5004 114.5 57.4605 114.5 57.4208C114.5 57.381 114.5 57.3412 114.5 57.3014C114.5 57.2616 114.5 57.2219 114.5 57.1821C114.5 57.1424 114.5 57.1026 114.5 57.0629C114.5 57.0232 114.5 56.9835 114.5 56.9438C114.5 56.9041 114.5 56.8644 114.5 56.8247C114.5 56.785 114.5 56.7453 114.5 56.7057C114.5 56.666 114.5 56.6264 114.5 56.5867C114.5 56.5471 114.5 56.5075 114.5 56.4679C114.5 56.4283 114.5 56.3887 114.5 56.3491C114.5 56.3095 114.5 56.27 114.5 56.2304C114.5 56.1909 114.5 56.1513 114.5 56.1118C114.5 56.0723 114.5 56.0328 114.5 55.9933C114.5 55.9538 114.5 55.9143 114.5 55.8748C114.5 55.8353 114.5 55.7959 114.5 55.7564C114.5 55.717 114.5 55.6776 114.5 55.6382C114.5 55.5987 114.5 55.5593 114.5 55.52C114.5 55.4806 114.5 55.4412 114.5 55.4018C114.5 55.3625 114.5 55.3232 114.5 55.2838C114.5 55.2445 114.5 55.2052 114.5 55.1659C114.5 55.1266 114.5 55.0873 114.5 55.0481C114.5 55.0088 114.5 54.9696 114.5 54.9303C114.5 54.8911 114.5 54.8519 114.5 54.8127C114.5 54.7735 114.5 54.7343 114.5 54.6951C114.5 54.656 114.5 54.6168 114.5 54.5777C114.5 54.5386 114.5 54.4995 114.5 54.4604C114.5 54.4213 114.5 54.3822 114.5 54.3431C114.5 54.3041 114.5 54.265 114.5 54.226C114.5 54.187 114.5 54.1479 114.5 54.1089C114.5 54.07 114.5 54.031 114.5 53.992C114.5 53.9531 114.5 53.9141 114.5 53.8752C114.5 53.8363 114.5 53.7974 114.5 53.7585C114.5 53.7196 114.5 53.6808 114.5 53.6419C114.5 53.6031 114.5 53.5642 114.5 53.5254C114.5 53.4866 114.5 53.4478 114.5 53.4091C114.5 53.3703 114.5 53.3315 114.5 53.2928C114.5 53.2541 114.5 53.2154 114.5 53.1767C114.5 53.138 114.5 53.0993 114.5 53.0607C114.5 53.022 114.5 52.9834 114.5 52.9448C114.5 52.9062 114.5 52.8676 114.5 52.829C114.5 52.7904 114.5 52.7519 114.5 52.7133C114.5 52.6748 114.5 52.6363 114.5 52.5978C114.5 52.5593 114.5 52.5209 114.5 52.4824C114.5 52.444 114.5 52.4055 114.5 52.3671C114.5 52.3287 114.5 52.2904 114.5 52.252C114.5 52.2136 114.5 52.1753 114.5 52.137C114.5 52.0987 114.5 52.0604 114.5 52.0221C114.5 51.9838 114.5 51.9456 114.5 51.9074C114.5 51.8691 114.5 51.8309 114.5 51.7928C114.5 51.7546 114.5 51.7164 114.5 51.6783C114.5 51.6402 114.5 51.602 114.5 51.564C114.5 51.5259 114.5 51.4878 114.5 51.4498C114.5 51.4117 114.5 51.3737 114.5 51.3357C114.5 51.2977 114.5 51.2598 114.5 51.2218C114.5 51.1839 114.5 51.1459 114.5 51.108C114.5 51.0701 114.5 51.0323 114.5 50.9944C114.5 50.9566 114.5 50.9188 114.5 50.881C114.5 50.8432 114.5 50.8054 114.5 50.7676C114.5 50.7299 114.5 50.6922 114.5 50.6545C114.5 50.6168 114.5 50.5791 114.5 50.5414C114.5 50.5038 114.5 50.4662 114.5 50.4286C114.5 50.391 114.5 50.3534 114.5 50.3159C114.5 50.2783 114.5 50.2408 114.5 50.2033C114.5 50.1658 114.5 50.1283 114.5 50.0909C114.5 50.0535 114.5 50.0161 114.5 49.9787C114.5 49.9413 114.5 49.9039 114.5 49.8666C114.5 49.8293 114.5 49.792 114.5 49.7547C114.5 49.7174 114.5 49.6802 114.5 49.6429C114.5 49.6057 114.5 49.5685 114.5 49.5313C114.5 49.4942 114.5 49.457 114.5 49.4199C114.5 49.3828 114.5 49.3457 114.5 49.3087C114.5 49.2716 114.5 49.2346 114.5 49.1976C114.5 49.1606 114.5 49.1236 114.5 49.0867C114.5 49.0497 114.5 49.0128 114.5 48.976C114.5 48.9391 114.5 48.9022 114.5 48.8654C114.5 48.8286 114.5 48.7918 114.5 48.755C114.5 48.7182 114.5 48.6815 114.5 48.6448C114.5 48.6081 114.5 48.5714 114.5 48.5348C114.5 48.4981 114.5 48.4615 114.5 48.4249C114.5 48.3883 114.5 48.3518 114.5 48.3153C114.5 48.2787 114.5 48.2422 114.5 48.2058C114.5 48.1693 114.5 48.1329 114.5 48.0965C114.5 48.0601 114.5 48.0237 114.5 47.9874C114.5 47.951 114.5 47.9147 114.5 47.8784C114.5 47.8422 114.5 47.8059 114.5 47.7697C114.5 47.7335 114.5 47.6973 114.5 47.6612C114.5 47.625 114.5 47.5889 114.5 47.5528C114.5 47.5167 114.5 47.4807 114.5 47.4446C114.5 47.4086 114.5 47.3726 114.5 47.3367C114.5 47.3007 114.5 47.2648 114.5 47.2289C114.5 47.193 114.5 47.1572 114.5 47.1214C114.5 47.0855 114.5 47.0497 114.5 47.014C114.5 46.9782 114.5 46.9425 114.5 46.9068C114.5 46.8711 114.5 46.8355 114.5 46.7999C114.5 46.7642 114.5 46.7287 114.5 46.6931C114.5 46.6576 114.5 46.622 114.5 46.5866C114.5 46.5511 114.5 46.5156 114.5 46.4802C114.5 46.4448 114.5 46.4094 114.5 46.3741C114.5 46.3387 114.5 46.3034 114.5 46.2681C114.5 46.2329 114.5 46.1976 114.5 46.1624C114.5 46.1272 114.5 46.0921 114.5 46.0569C114.5 46.0218 114.5 45.9867 114.5 45.9517C114.5 45.9166 114.5 45.8816 114.5 45.8466C114.5 45.8116 114.5 45.7766 114.5 45.7417C114.5 45.7068 114.5 45.6719 114.5 45.6371C114.5 45.6023 114.5 45.5675 114.5 45.5327C114.5 45.4979 114.5 45.4632 114.5 45.4285C114.5 45.3938 114.5 45.3592 114.5 45.3245C114.5 45.2899 114.5 45.2553 114.5 45.2208C114.5 45.1863 114.5 45.1518 114.5 45.1173C114.5 45.0828 114.5 45.0484 114.5 45.014C114.5 44.9796 114.5 44.9453 114.5 44.911C114.5 44.8766 114.5 44.8424 114.5 44.8081C114.5 44.7739 114.5 44.7397 114.5 44.7055C114.5 44.6714 114.5 44.6373 114.5 44.6032C114.5 44.5691 114.5 44.5351 114.5 44.5011C114.5 44.4671 114.5 44.4331 114.5 44.3992C114.5 44.3653 114.5 44.3314 114.5 44.2976C114.5 44.2637 114.5 44.2299 114.5 44.1962C114.5 44.1624 114.5 44.1287 114.5 44.095C114.5 44.0613 114.5 44.0277 114.5 43.9941C114.5 43.9605 114.5 43.9269 114.5 43.8934C114.5 43.8599 114.5 43.8264 114.5 43.793C114.5 43.7595 114.5 43.7262 114.5 43.6928C114.5 43.6595 114.5 43.6261 114.5 43.5929C114.5 43.5596 114.5 43.5264 114.5 43.4932C114.5 43.46 114.5 43.4269 114.5 43.3938C114.5 43.3607 114.5 43.3276 114.5 43.2946C114.5 43.2616 114.5 43.2286 114.5 43.1957C114.5 43.1628 114.5 43.1299 114.5 43.097C114.5 43.0642 114.5 43.0314 114.5 42.9986C114.5 42.9659 114.5 42.9332 114.5 42.9005C114.5 42.8678 114.5 42.8352 114.5 42.8026C114.5 42.77 114.5 42.7375 114.5 42.705C114.5 42.6725 114.5 42.6401 114.5 42.6077C114.5 42.5753 114.5 42.5429 114.5 42.5106C114.5 42.4783 114.5 42.446 114.5 42.4138C114.5 42.3815 114.5 42.3493 114.5 42.3172C114.5 42.2851 114.5 42.253 114.5 42.2209C114.5 42.1889 114.5 42.1569 114.5 42.1249C114.5 42.093 114.5 42.0611 114.5 42.0292C114.5 41.9973 114.5 41.9655 114.5 41.9337C114.5 41.902 114.5 41.8702 114.5 41.8386C114.5 41.8069 114.5 41.7752 114.5 41.7437C114.5 41.7121 114.5 41.6805 114.5 41.649C114.5 41.6175 114.5 41.5861 114.5 41.5547C114.5 41.5233 114.5 41.4919 114.5 41.4606C114.5 41.4293 114.5 41.3981 114.5 41.3669C114.5 41.3356 114.5 41.3045 114.5 41.2734C114.5 41.2422 114.5 41.2112 114.5 41.1802C114.5 41.1491 114.5 41.1182 114.5 41.0872C114.5 41.0563 114.5 41.0254 114.5 40.9946C114.5 40.9638 114.5 40.933 114.5 40.9023C114.5 40.8716 114.5 40.8409 114.5 40.8102C114.5 40.7796 114.5 40.749 114.5 40.7185C114.5 40.688 114.5 40.6575 114.5 40.6271C114.5 40.5966 114.5 40.5662 114.5 40.5359C114.5 40.5056 114.5 40.4753 114.5 40.445C114.5 40.4148 114.5 40.3846 114.5 40.3545C114.5 40.3244 114.5 40.2943 114.5 40.2642C114.5 40.2342 114.5 40.2042 114.5 40.1743C114.5 40.1444 114.5 40.1145 114.5 40.0847C114.5 40.0548 114.5 40.025 114.5 39.9953C114.5 39.9656 114.5 39.9359 114.5 39.9063C114.5 39.8767 114.5 39.8471 114.5 39.8176C114.5 39.788 114.5 39.7586 114.5 39.7292C114.5 39.6997 114.5 39.6704 114.5 39.6411C114.5 39.6118 114.5 39.5825 114.5 39.5533C114.5 39.5241 114.5 39.4949 114.5 39.4658C114.5 39.4367 114.5 39.4077 114.5 39.3787C114.5 39.3497 114.5 39.3207 114.5 39.2918C114.5 39.2629 114.5 39.2341 114.5 39.2053C114.5 39.1765 114.5 39.1478 114.5 39.1191C114.5 39.0905 114.5 39.0618 114.5 39.0333C114.5 39.0047 114.5 38.9762 114.5 38.9477C114.5 38.9193 114.5 38.8909 114.5 38.8625C114.5 38.8342 114.5 38.8059 114.5 38.7776C114.5 38.7494 114.5 38.7212 114.5 38.6931C114.5 38.6649 114.5 38.6369 114.5 38.6088C114.5 38.5808 114.5 38.5529 114.5 38.5249C114.5 38.497 114.5 38.4692 114.5 38.4414C114.5 38.4136 114.5 38.3858 114.5 38.3582C114.5 38.3305 114.5 38.3028 114.5 38.2753C114.5 38.2477 114.5 38.2202 114.5 38.1927C114.5 38.1652 114.5 38.1378 114.5 38.1105C114.5 38.0831 114.5 38.0559 114.5 38.0286C114.5 38.0014 114.5 37.9742 114.5 37.9471C114.5 37.92 114.5 37.8929 114.5 37.8659C114.5 37.8389 114.5 37.8119 114.5 37.7851C114.5 37.7582 114.5 37.7313 114.5 37.7046C114.5 37.6778 114.5 37.6511 114.5 37.6244C114.5 37.5978 114.5 37.5712 114.5 37.5446C114.5 37.5181 114.5 37.4916 114.5 37.4652C114.5 37.4388 114.5 37.4124 114.5 37.3861C114.5 37.3598 114.5 37.3335 114.5 37.3073C114.5 37.2812 114.5 37.255 114.5 37.229C114.5 37.2029 114.5 37.1769 114.5 37.1509C114.5 37.125 114.5 37.0991 114.5 37.0733C114.5 37.0474 114.5 37.0217 114.5 36.996C114.5 36.9703 114.5 36.9446 114.5 36.919C114.5 36.8934 114.5 36.8679 114.5 36.8425C114.5 36.817 114.5 36.7916 114.5 36.7662C114.5 36.7409 114.5 36.7156 114.5 36.6904C114.5 36.6652 114.5 36.64 114.5 36.6149C114.5 36.5898 114.5 36.5648 114.5 36.5398C114.5 36.5148 114.5 36.4899 114.5 36.4651C114.5 36.4402 114.5 36.4154 114.5 36.3907C114.5 36.366 114.5 36.3413 114.5 36.3167C114.5 36.2921 114.5 36.2676 114.5 36.2431C114.5 36.2186 114.5 36.1942 114.5 36.1698C114.5 36.1455 114.5 36.1212 114.5 36.097C114.5 36.0728 114.5 36.0486 114.5 36.0245C114.5 36.0004 114.5 35.9764 114.5 35.9524C114.5 35.9284 114.5 35.9045 114.5 35.8807C114.5 35.8568 114.5 35.8331 114.5 35.8094C114.5 35.7856 114.5 35.762 114.5 35.7384C114.5 35.7148 114.5 35.6913 114.5 35.6679C114.5 35.6444 114.5 35.621 114.5 35.5977C114.5 35.5744 114.5 35.5511 114.5 35.5279C114.5 35.5047 114.5 35.4816 114.5 35.4585C114.5 35.4355 114.5 35.4125 114.5 35.3895C114.5 35.3666 114.5 35.3437 114.5 35.3209C114.5 35.2981 114.5 35.2754 114.5 35.2527C114.5 35.2301 114.5 35.2074 114.5 35.1849C114.5 35.1624 114.5 35.1399 114.5 35.1175C114.5 35.0951 114.5 35.0728 114.5 35.0505C114.5 35.0282 114.5 35.006 114.5 34.9839C114.5 34.9618 114.5 34.9397 114.5 34.9177C114.5 34.8957 114.5 34.8738 114.5 34.8519C114.5 34.8301 114.5 34.8083 114.5 34.7865C114.5 34.7648 114.5 34.7431 114.5 34.7216C114.5 34.7 114.5 34.6784 114.5 34.657C114.5 34.6355 114.5 34.6141 114.5 34.5928C114.5 34.5715 114.5 34.5503 114.5 34.5291C114.5 34.5079 114.5 34.4868 114.5 34.4658C114.5 34.4447 114.5 34.4238 114.5 34.4028C114.5 34.3819 114.5 34.3611 114.5 34.3404C114.5 34.3196 114.5 34.2989 114.5 34.2783C114.5 34.2577 114.5 34.2371 114.5 34.2166C114.5 34.1961 114.5 34.1757 114.5 34.1554C114.5 34.1351 114.5 34.1148 114.5 34.0946C114.5 34.0744 114.5 34.0543 114.5 34.0342C114.5 34.0141 114.5 33.9942 114.5 33.9742C114.5 33.9543 114.5 33.9345 114.5 33.9147C114.5 33.8949 114.5 33.8752 114.5 33.8556C114.5 33.836 114.5 33.8164 114.5 33.7969C114.5 33.7775 114.5 33.758 114.5 33.7387C114.5 33.7194 114.5 33.7001 114.5 33.6809C114.5 33.6617 114.5 33.6426 114.5 33.6235C114.5 33.6045 114.5 33.5855 114.5 33.5666C114.5 33.5477 114.5 33.5289 114.5 33.5101C114.5 33.4914 114.5 33.4727 114.5 33.4541C114.5 33.4355 114.5 33.4169 114.5 33.3985C114.5 33.38 114.5 33.3616 114.5 33.3433C114.5 33.325 114.5 33.3067 114.5 33.2886C114.5 33.2704 114.5 33.2523 114.5 33.2343C114.5 33.2163 114.5 33.1983 114.5 33.1805C114.5 33.1626 114.5 33.1448 114.5 33.1271C114.5 33.1094 114.5 33.0917 114.5 33.0742C114.5 33.0566 114.5 33.0391 114.5 33.0217C114.5 33.0043 114.5 32.9869 114.5 32.9696C114.5 32.9524 114.5 32.9352 114.5 32.9181C114.5 32.901 114.5 32.8839 114.5 32.867C114.5 32.85 114.5 32.8331 114.5 32.8163C114.5 32.7995 114.5 32.7828 114.5 32.7661C114.5 32.7495 114.5 32.7329 114.5 32.7164C114.5 32.6999 114.5 32.6835 114.5 32.6671C114.5 32.6508 114.5 32.6345 114.5 32.6183C114.5 32.6021 114.5 32.586 114.5 32.57C114.5 32.5539 114.5 32.538 114.5 32.5221C114.5 32.5062 114.5 32.4904 114.5 32.4747C114.5 32.459 114.5 32.4433 114.5 32.4277C114.5 32.4122 114.5 32.3967 114.5 32.3813C114.5 32.3659 114.5 32.3505 114.5 32.3353C114.5 32.32 114.5 32.3049 114.5 32.2898C114.5 32.2747 114.5 32.2597 114.5 32.2447C114.5 32.2298 114.5 32.2149 114.5 32.2002C114.5 32.1854 114.5 32.1707 114.5 32.1561C114.5 32.1415 114.5 32.1269 114.5 32.1125C114.5 32.098 114.5 32.0837 114.5 32.0694C114.5 32.0551 114.5 32.0409 114.5 32.0267C114.5 32.0126 114.5 31.9985 114.5 31.9846C114.5 31.9706 114.5 31.9567 114.5 31.9429C114.5 31.9291 114.5 31.9154 114.5 31.9017C114.5 31.8881 114.5 31.8745 114.5 31.861C114.5 31.8475 114.5 31.8342 114.5 31.8208C114.5 31.8075 114.5 31.7943 114.5 31.7811C114.5 31.768 114.5 31.7549 114.5 31.7419C114.5 31.7289 114.5 31.716 114.5 31.7032C114.5 31.6904 114.5 31.6776 114.5 31.665C114.5 31.6523 114.5 31.6397 114.5 31.6273C114.5 31.6148 114.5 31.6024 114.5 31.59C114.5 31.5777 114.5 31.5655 114.5 31.5533C114.5 31.5412 114.5 31.5291 114.5 31.5171C114.5 31.5051 114.5 31.4932 114.5 31.4814C114.5 31.4696 114.5 31.4578 114.5 31.4462C114.5 31.4345 114.5 31.423 114.5 31.4115C114.5 31.4 114.5 31.3886 114.5 31.3773C114.5 31.366 114.5 31.3548 114.5 31.3436C114.5 31.3325 114.5 31.3214 114.5 31.3105C114.5 31.2995 114.5 31.2886 114.5 31.2778C114.5 31.267 114.5 31.2563 114.5 31.2457C114.5 31.235 114.5 31.2245 114.5 31.214C114.5 31.2036 114.5 31.1932 114.5 31.1829C114.5 31.1727 114.5 31.1625 114.5 31.1524C114.5 31.1422 114.5 31.1322 114.5 31.1223C114.5 31.1124 114.5 31.1025 114.5 31.0928C114.5 31.083 114.5 31.0733 114.5 31.0637C114.5 31.0541 114.5 31.0447 114.5 31.0352C114.5 31.0258 114.5 31.0165 114.5 31.0073C114.5 30.998 114.5 30.9889 114.5 30.9798C114.5 30.9708 114.5 30.9618 114.5 30.9529C114.5 30.9441 114.5 30.9353 114.5 30.9266C114.5 30.9179 114.5 30.9092 114.5 30.9007C114.5 30.8922 114.5 30.8838 114.5 30.8754C114.5 30.8671 114.5 30.8588 114.5 30.8506C114.5 30.8425 114.5 30.8344 114.5 30.8264C114.5 30.8184 114.5 30.8105 114.5 30.8027C114.5 30.7949 114.5 30.7872 114.5 30.7796C114.5 30.7719 114.5 30.7644 114.5 30.757C114.5 30.7495 114.5 30.7422 114.5 30.7349C114.5 30.7276 114.5 30.7205 114.5 30.7134C114.5 30.7063 114.5 30.6993 114.5 30.6924C114.5 30.6855 114.5 30.6787 114.5 30.672C114.5 30.6652 114.5 30.6586 114.5 30.6521C114.5 30.6456 114.5 30.6391 114.5 30.6328C114.5 30.6264 114.5 30.6202 114.5 30.614C114.5 30.6078 114.5 30.6017 114.5 30.5958C114.5 30.5898 114.5 30.5839 114.5 30.5781C114.5 30.5723 114.5 30.5666 114.5 30.561C114.5 30.5554 114.5 30.5499 114.5 30.5444C114.5 30.539 114.5 30.5337 114.5 30.5285C114.5 30.5232 114.5 30.5181 114.5 30.513C114.5 30.508 114.5 30.503 114.5 30.4982C114.5 30.4933 114.5 30.4885 114.5 30.4839C114.5 30.4792 114.5 30.4746 114.5 30.4701C114.5 30.4656 114.5 30.4613 114.5 30.457C114.5 30.4527 114.5 30.4485 114.5 30.4444C114.5 30.4403 114.5 30.4363 114.5 30.4323C114.5 30.4284 114.5 30.4246 114.5 30.4209C114.5 30.4172 114.5 30.4135 114.5 30.41C114.5 30.4065 114.5 30.403 114.5 30.3997C114.5 30.3964 114.5 30.3931 114.5 30.39C114.5 30.3868 114.5 30.3838 114.5 30.3808C114.5 30.3779 114.5 30.375 114.5 30.3722C114.5 30.3695 114.5 30.3668 114.5 30.3643C114.5 30.3617 114.5 30.3592 114.5 30.3568C114.5 30.3545 114.5 30.3522 114.5 30.35C114.5 30.3478 114.5 30.3458 114.5 30.3438C114.5 30.3418 114.5 30.3399 114.5 30.3381C114.5 30.3363 114.5 30.3347 114.5 30.3331C114.5 30.3315 114.5 30.33 114.5 30.3286C114.5 30.3272 114.5 30.3259 114.5 30.3247C114.5 30.3235 114.5 30.3224 114.5 30.3214C114.5 30.3204 114.5 30.3195 114.5 30.3187C114.5 30.3179 114.5 30.3172 114.5 30.3166C114.5 30.316 114.5 30.3155 114.5 30.3151C114.5 30.3147 114.5 30.3144 114.5 30.3142C114.5 30.314 114.5 30.3139 111 30.3139Z" fill="#77C5EE"/>
<line x1="94.5" y1="80.5" x2="117.5" y2="80.5" stroke="#1F2182" stroke-width="7" stroke-linecap="round"/>
<line x1="99.5" y1="76.5" x2="122.5" y2="76.5" stroke="#77C5EE" stroke-width="7" stroke-linecap="round"/>
<circle cx="53" cy="91" r="12" fill="white"/>
<mask id="mask0_38_40" style="mask-type:luminance" maskUnits="userSpaceOnUse" x="162" y="29" width="90" height="90">
<path d="M162 29H252V119H162V29Z" fill="white"/>
</mask>
<g mask="url(#mask0_38_40)">
<path d="M232.312 99.3125V34.6391C232.312 34.6391 232.312 31.8125 229.5 31.8125H167.625C167.625 31.8125 164.812 31.8125 164.812 34.6391V107.764C164.812 107.764 164.812 116.188 173.25 116.188H240.75C240.75 116.188 249.188 116.202 249.188 104.952V62.7641C249.188 62.7641 249.188 59.9375 246.375 59.9375H240.75M215.438 48.6875H201.375M215.438 59.9375H181.688M215.438 71.1875H181.688M215.438 82.4375H181.688M215.438 93.6875H181.688" stroke="#1F2182" stroke-width="6" stroke-linecap="round" stroke-linejoin="round"/>
</g>
<path d="M12.157 125.2L32.701 163.664H32.957L53.693 125.2H58.109V170H52.285V133.712H52.029L31.805 170.768H30.653L10.877 133.456H10.621V170H7.805V125.2H12.157ZM73.4925 125.2H102.421V128.72H79.3165V144.784H99.1565V147.728H79.3165V166.48H102.421V170H73.4925V125.2ZM112.633 170V125.2H127.353C130.894 125.2 134.137 125.776 137.081 126.928C140.025 128.037 142.542 129.595 144.633 131.6C146.766 133.563 148.409 135.909 149.561 138.64C150.755 141.371 151.353 144.315 151.353 147.472C151.353 150.757 150.734 153.787 149.497 156.56C148.302 159.291 146.638 161.659 144.505 163.664C142.414 165.669 139.961 167.227 137.145 168.336C134.329 169.445 131.321 170 128.121 170H112.633ZM118.457 167.184H125.497C128.995 167.184 131.961 166.608 134.393 165.456C136.867 164.261 138.894 162.725 140.472 160.848C142.051 158.971 143.203 156.88 143.929 154.576C144.654 152.229 145.017 149.904 145.017 147.6C145.017 145.04 144.59 142.587 143.737 140.24C142.883 137.851 141.625 135.76 139.961 133.968C138.339 132.133 136.313 130.683 133.881 129.616C131.449 128.549 128.654 128.016 125.497 128.016H118.457V167.184ZM208.201 156.816H186.121L180.489 170H177.545L196.489 125.2H199.689L220.553 170H214.345L208.201 156.816ZM206.857 153.936L196.809 132.368H196.553L187.337 153.936H206.857ZM266.276 125.2H269.22V170.768H268.9L233.38 135.76H233.124V170H230.18V124.432H230.5L266.02 159.44H266.276V125.2Z" fill="#77C5EE"/>
<path d="M0.125 176.4H276.9V179.6H0.125V176.4Z" fill="#77C5EE"/>
</svg>
