<svg width="50" height="50" viewBox="0 0 50 50" fill="none" xmlns="http://www.w3.org/2000/svg">
<path d="M50 25C50 11.1929 38.8071 0 25 0C11.1929 0 0 11.1929 0 25C0 38.8071 11.1929 50 25 50C38.8071 50 50 38.8071 50 25Z" fill="#F9F871"/>
<path d="M16.1606 23.5035C15.9919 23.5045 15.8305 23.572 15.7112 23.6912C15.5919 23.8105 15.5245 23.972 15.5235 24.1406V25.3205C15.5109 25.4804 15.4385 25.6296 15.3208 25.7384C15.203 25.8472 15.0486 25.9076 14.8883 25.9076C14.7279 25.9076 14.5735 25.8472 14.4558 25.7384C14.3381 25.6296 14.2657 25.4804 14.2531 25.3205V25.3992C14.2531 25.2302 14.186 25.0681 14.0665 24.9487C13.947 24.8292 13.7849 24.762 13.616 24.762C13.447 24.762 13.2849 24.8292 13.1654 24.9487C13.046 25.0681 12.9788 25.2302 12.9788 25.3992V35.8648C12.9788 36.0338 13.046 36.1959 13.1654 36.3154C13.2849 36.4349 13.447 36.502 13.616 36.502C13.7849 36.502 13.947 36.4349 14.0665 36.3154C14.186 36.1959 14.2531 36.0338 14.2531 35.8648V32.5454C14.2462 32.4578 14.2575 32.3697 14.2863 32.2867C14.3151 32.2036 14.3608 32.1274 14.4204 32.0629C14.48 31.9984 14.5524 31.9469 14.6329 31.9116C14.7135 31.8764 14.8004 31.8582 14.8883 31.8582C14.9761 31.8582 15.0631 31.8764 15.1436 31.9116C15.2241 31.9469 15.2965 31.9984 15.3562 32.0629C15.4158 32.1274 15.4615 32.2036 15.4903 32.2867C15.5191 32.3697 15.5303 32.4578 15.5235 32.5454V34.5906C15.5235 34.7596 15.5906 34.9216 15.7101 35.0411C15.8296 35.1606 15.9916 35.2277 16.1606 35.2277C16.3296 35.2277 16.4916 35.1606 16.6111 35.0411C16.7306 34.9216 16.7977 34.7596 16.7977 34.5906V24.1328C16.7957 23.9651 16.7277 23.8051 16.6084 23.6873C16.4891 23.5695 16.3282 23.5035 16.1606 23.5035ZM14.8903 31.0194C14.8064 31.02 14.7233 31.0038 14.6458 30.972C14.5683 30.9402 14.4978 30.8932 14.4385 30.834C14.3793 30.7747 14.3324 30.7043 14.3005 30.6267C14.2687 30.5492 14.2526 30.4661 14.2531 30.3823V27.5112C14.2462 27.4236 14.2575 27.3355 14.2863 27.2524C14.3151 27.1694 14.3608 27.0932 14.4204 27.0287C14.48 26.9641 14.5524 26.9127 14.6329 26.8774C14.7135 26.8422 14.8004 26.824 14.8883 26.824C14.9761 26.824 15.0631 26.8422 15.1436 26.8774C15.2241 26.9127 15.2965 26.9641 15.3562 27.0287C15.4158 27.0932 15.4615 27.1694 15.4903 27.2524C15.5191 27.3355 15.5303 27.4236 15.5235 27.5112V30.3823C15.524 30.4658 15.508 30.5485 15.4764 30.6258C15.4448 30.7031 15.3982 30.7734 15.3394 30.8326C15.2805 30.8918 15.2106 30.9388 15.1335 30.9708C15.0564 31.0029 14.9737 31.0194 14.8903 31.0194Z" fill="#414042"/>
<path d="M21.2499 18.2334C21.1668 18.2334 21.0845 18.2498 21.0076 18.2816C20.9308 18.3134 20.861 18.36 20.8022 18.4188C20.7434 18.4776 20.6967 18.5474 20.6649 18.6243C20.6331 18.7011 20.6167 18.7834 20.6167 18.8666V27.2163C20.6167 27.3853 20.5496 27.5473 20.4301 27.6668C20.3106 27.7863 20.1486 27.8534 19.9796 27.8534C19.8106 27.8534 19.6485 27.7863 19.529 27.6668C19.4096 27.5473 19.3425 27.3853 19.3425 27.2163V20.8174C19.3493 20.7297 19.338 20.6416 19.3092 20.5586C19.2804 20.4755 19.2348 20.3994 19.1752 20.3348C19.1155 20.2703 19.0431 20.2188 18.9626 20.1836C18.8821 20.1484 18.7951 20.1302 18.7073 20.1302C18.6194 20.1302 18.5325 20.1484 18.4519 20.1836C18.3714 20.2188 18.299 20.2703 18.2394 20.3348C18.1797 20.3994 18.1341 20.4755 18.1053 20.5586C18.0765 20.6416 18.0652 20.7297 18.0721 20.8174V31.283C18.0652 31.3706 18.0765 31.4587 18.1053 31.5417C18.1341 31.6248 18.1797 31.7009 18.2394 31.7655C18.299 31.83 18.3714 31.8815 18.4519 31.9168C18.5325 31.952 18.6194 31.9702 18.7073 31.9702C18.7951 31.9702 18.8821 31.952 18.9626 31.9168C19.0431 31.8815 19.1155 31.83 19.1752 31.7655C19.2348 31.7009 19.2804 31.6248 19.3092 31.5417C19.338 31.4587 19.3493 31.3706 19.3425 31.283V29.3755C19.3425 29.2065 19.4096 29.0445 19.529 28.925C19.6485 28.8055 19.8106 28.7383 19.9796 28.7383C20.1486 28.7383 20.3106 28.8055 20.4301 28.925C20.5496 29.0445 20.6167 29.2065 20.6167 29.3755V29.3165C20.6293 29.4763 20.7017 29.6255 20.8194 29.7344C20.9372 29.8432 21.0916 29.9036 21.2519 29.9036C21.4122 29.9036 21.5667 29.8432 21.6844 29.7344C21.8021 29.6255 21.8745 29.4763 21.8871 29.3165V18.8469C21.8819 18.6817 21.8125 18.5251 21.6934 18.4105C21.5743 18.2958 21.4152 18.2323 21.2499 18.2334Z" fill="#414042"/>
<path d="M26.3392 14.1588C26.1702 14.1588 26.0082 14.2259 25.8887 14.3454C25.7692 14.4649 25.7021 14.6269 25.7021 14.7959V16.5579C25.7021 16.7268 25.6349 16.8889 25.5154 17.0084C25.396 17.1279 25.2339 17.195 25.0649 17.195C24.8959 17.195 24.7339 17.1279 24.6144 17.0084C24.4949 16.8889 24.4278 16.7268 24.4278 16.5579V16.2275C24.4152 16.0677 24.3428 15.9184 24.2251 15.8096C24.1073 15.7008 23.9529 15.6404 23.7926 15.6404C23.6323 15.6404 23.4778 15.7008 23.3601 15.8096C23.2424 15.9184 23.17 16.0677 23.1574 16.2275V26.6932C23.1505 26.7808 23.1618 26.8689 23.1906 26.9519C23.2194 27.0349 23.2651 27.1111 23.3247 27.1757C23.3843 27.2402 23.4567 27.2917 23.5373 27.3269C23.6178 27.3621 23.7047 27.3803 23.7926 27.3803C23.8805 27.3803 23.9674 27.3621 24.0479 27.3269C24.1285 27.2917 24.2008 27.2402 24.2605 27.1757C24.3201 27.1111 24.3658 27.0349 24.3946 26.9519C24.4234 26.8689 24.4347 26.7808 24.4278 26.6932V18.7328C24.4278 18.5638 24.4949 18.4018 24.6144 18.2823C24.7339 18.1628 24.8959 18.0957 25.0649 18.0957C25.2339 18.0957 25.396 18.1628 25.5154 18.2823C25.6349 18.4018 25.7021 18.5638 25.7021 18.7328V25.2616C25.7021 25.4305 25.7692 25.5926 25.8887 25.7121C26.0082 25.8316 26.1702 25.8987 26.3392 25.8987C26.5082 25.8987 26.6702 25.8316 26.7897 25.7121C26.9092 25.5926 26.9763 25.4305 26.9763 25.2616V14.7959C26.9753 14.6272 26.9079 14.4658 26.7886 14.3465C26.6693 14.2272 26.5078 14.1598 26.3392 14.1588Z" fill="#414042"/>
<path d="M36.5177 24.6795C36.3494 24.6805 36.1884 24.7481 36.0698 24.8675C35.9511 24.9868 35.8845 25.1483 35.8846 25.3166V26.2251C35.8846 26.3941 35.8174 26.5562 35.6979 26.6757C35.5785 26.7951 35.4164 26.8623 35.2474 26.8623C35.0784 26.8623 34.9164 26.7951 34.7969 26.6757C34.6774 26.5562 34.6103 26.3941 34.6103 26.2251V23.6648C34.6103 23.4958 34.5431 23.3337 34.4236 23.2142C34.3042 23.0948 34.1421 23.0276 33.9731 23.0276C33.8041 23.0276 33.6421 23.0948 33.5226 23.2142C33.4031 23.3337 33.336 23.4958 33.336 23.6648V29.1355C33.3234 29.2954 33.251 29.4446 33.1333 29.5534C33.0155 29.6622 32.8611 29.7227 32.7008 29.7227C32.5405 29.7227 32.3861 29.6622 32.2683 29.5534C32.1506 29.4446 32.0782 29.2954 32.0656 29.1355V20.7662C32.0656 20.5972 31.9985 20.4351 31.879 20.3156C31.7595 20.1962 31.5974 20.129 31.4284 20.129C31.2595 20.129 31.0974 20.1962 30.9779 20.3156C30.8584 20.4351 30.7913 20.5972 30.7913 20.7662V26.6066C30.7982 26.6943 30.7869 26.7824 30.7581 26.8654C30.7293 26.9484 30.6837 27.0246 30.624 27.0891C30.5644 27.1537 30.492 27.2052 30.4115 27.2404C30.331 27.2756 30.244 27.2938 30.1561 27.2938C30.0683 27.2938 29.9813 27.2756 29.9008 27.2404C29.8203 27.2052 29.7479 27.1537 29.6883 27.0891C29.6286 27.0246 29.583 26.9484 29.5542 26.8654C29.5254 26.7824 29.5141 26.6943 29.521 26.6066V18.2805C29.521 18.1116 29.4539 17.9495 29.3344 17.83C29.2149 17.7105 29.0528 17.6434 28.8838 17.6434C28.7148 17.6434 28.5528 17.7105 28.4333 17.83C28.3138 17.9495 28.2467 18.1116 28.2467 18.2805V28.7462C28.2467 28.9152 28.3138 29.0772 28.4333 29.1967C28.5528 29.3162 28.7148 29.3833 28.8838 29.3833C29.0528 29.3833 29.2149 29.3162 29.3344 29.1967C29.4539 29.0772 29.521 28.9152 29.521 28.7462V28.7816C29.5336 28.6217 29.6059 28.4725 29.7237 28.3637C29.8414 28.2549 29.9958 28.1945 30.1561 28.1945C30.3165 28.1945 30.4709 28.2549 30.5886 28.3637C30.7064 28.4725 30.7787 28.6217 30.7913 28.7816V31.2318C30.7913 31.4008 30.8584 31.5629 30.9779 31.6823C31.0974 31.8018 31.2595 31.869 31.4284 31.869C31.5974 31.869 31.7595 31.8018 31.879 31.6823C31.9985 31.5629 32.0656 31.4008 32.0656 31.2318V31.3105C32.0587 31.2229 32.07 31.1348 32.0988 31.0517C32.1276 30.9687 32.1733 30.8925 32.2329 30.828C32.2926 30.7634 32.3649 30.712 32.4454 30.6767C32.5259 30.6415 32.6129 30.6233 32.7008 30.6233C32.7887 30.6233 32.8756 30.6415 32.9561 30.6767C33.0366 30.712 33.109 30.7634 33.1687 30.828C33.2283 30.8925 33.274 30.9687 33.3028 31.0517C33.3316 31.1348 33.3429 31.2229 33.336 31.3105V34.1304C33.336 34.2994 33.4031 34.4615 33.5226 34.581C33.6421 34.7004 33.8041 34.7676 33.9731 34.7676C34.1421 34.7676 34.3042 34.7004 34.4236 34.581C34.5431 34.4615 34.6103 34.2994 34.6103 34.1304V28.404C34.6103 28.235 34.6774 28.073 34.7969 27.9535C34.9164 27.834 35.0784 27.7669 35.2474 27.7669C35.4164 27.7669 35.5785 27.834 35.6979 27.9535C35.8174 28.073 35.8846 28.235 35.8846 28.404V35.7823C35.8776 35.8699 35.889 35.958 35.9178 36.041C35.9465 36.1241 35.9922 36.2002 36.0518 36.2648C36.1115 36.3293 36.1839 36.3808 36.2644 36.416C36.3449 36.4512 36.4318 36.4695 36.5197 36.4695C36.6076 36.4695 36.6945 36.4512 36.7751 36.416C36.8556 36.3808 36.9279 36.3293 36.9876 36.2648C37.0473 36.2002 37.0929 36.1241 37.1217 36.041C37.1505 35.958 37.1618 35.8699 37.1549 35.7823V25.3127C37.1538 25.1444 37.0863 24.9833 36.9669 24.8647C36.8475 24.7461 36.6861 24.6795 36.5177 24.6795Z" fill="#414042"/>
<circle cx="25" cy="25" r="25" fill="#F9F871"/>
<path fill-rule="evenodd" clip-rule="evenodd" d="M39.9333 14.1212C39.9333 12.9157 38.372 12.4869 37.339 12.2032C37.2441 12.1772 37.1537 12.1523 37.0693 12.1282C35.7793 11.7596 33.9473 11.3939 31.7515 11.3939C29.4009 11.3939 27.4628 12.1766 26.1318 12.9372C25.9283 13.0536 25.7142 13.2143 25.5207 13.3595C25.2651 13.5514 25.0456 13.7163 24.9333 13.7163C24.8211 13.7163 24.6016 13.5514 24.346 13.3595C24.1525 13.2143 23.9384 13.0536 23.7348 12.9372C22.4039 12.1766 20.4658 11.3939 18.1152 11.3939C15.9194 11.3939 14.0874 11.7596 12.7974 12.1282C12.7162 12.1514 12.6293 12.1753 12.5381 12.2004C11.5097 12.4836 9.93335 12.9177 9.93335 14.1212V31.8485C9.93335 32.3211 10.1781 32.7599 10.5801 33.0085C11.2197 33.4037 12.0637 33.0577 12.8116 32.7512C13.0726 32.6441 13.3218 32.542 13.5466 32.4778C14.6429 32.1646 16.22 31.8485 18.1152 31.8485C19.8351 31.8485 21.1227 32.4159 22.088 33.0099C22.3359 33.1625 22.5865 33.3571 22.8437 33.5567C23.4794 34.0505 24.1558 34.5757 24.9333 34.5757C25.7131 34.5757 26.386 34.0524 27.0207 33.5589C27.2781 33.3586 27.5293 33.1633 27.7787 33.0099C28.744 32.4159 30.0316 31.8485 31.7515 31.8485C33.6467 31.8485 35.2238 32.1646 36.3201 32.4778C36.5552 32.545 36.8105 32.6527 37.0754 32.7647C37.8119 33.0757 38.6233 33.4184 39.2866 33.0085C39.6886 32.7599 39.9333 32.3211 39.9333 31.8485V14.1212ZM13.1141 14.8814C12.8401 14.9688 12.6606 15.2268 12.6606 15.5144V28.9836C12.6606 29.4389 13.0982 29.7666 13.5408 29.66C14.7549 29.3676 16.3121 29.1212 18.1152 29.1212C20.5194 29.1212 22.3144 29.9386 23.5697 30.7195V16.1062C23.2955 15.8884 22.8929 15.5973 22.3818 15.3052C21.3264 14.7021 19.8555 14.1212 18.1152 14.1212C15.9539 14.1212 14.2014 14.5343 13.1141 14.8814ZM31.7515 29.1212C29.3473 29.1212 27.5523 29.9386 26.297 30.7195V16.1062C26.5712 15.8884 26.9738 15.5973 27.4848 15.3052C28.5403 14.7021 30.0113 14.1212 31.7515 14.1212C33.9128 14.1212 35.6653 14.5343 36.7527 14.8814C37.0266 14.9688 37.2061 15.2268 37.2061 15.5144V28.9836C37.2061 29.4389 36.7685 29.7666 36.3258 29.66C35.1118 29.3676 33.5545 29.1212 31.7515 29.1212Z" fill="#414042"/>
<path d="M11.4161 36.4967C11.1083 35.8094 11.4159 35.0027 12.1032 34.6948C12.7418 34.411 13.4028 34.1725 14.0676 33.9591C15.1706 33.6052 16.6958 33.2121 18.1151 33.2121C19.7064 33.2121 21.0645 34.0697 22.0488 34.6912C22.0993 34.7231 22.1489 34.7544 22.1974 34.7849C23.3443 35.5059 24.1157 35.9394 24.9333 35.9394C25.75 35.9394 26.5168 35.507 27.6622 34.7855C27.7093 34.7559 27.7571 34.7256 27.806 34.6946C28.7912 34.0716 30.1502 33.2121 31.7515 33.2121C33.1786 33.2121 34.7034 33.605 35.8059 33.9594C36.7959 34.2776 37.5303 34.5924 37.7191 34.6753C38.4091 34.9805 38.7665 35.7952 38.4494 36.4991C38.1425 37.1811 37.3232 37.4837 36.6434 37.1815C36.0992 36.9415 35.5371 36.7378 34.9711 36.5557C33.9527 36.2283 32.7502 35.9394 31.7515 35.9394C30.9891 35.9394 30.2566 36.3738 29.0336 37.145C28.0199 37.7842 26.6206 38.6666 24.9333 38.6666C23.245 38.6666 21.8411 37.7831 20.8245 37.1433C19.5991 36.3721 18.8682 35.9394 18.1151 35.9394C17.1248 35.9394 15.9227 36.2281 14.9009 36.556C14.3316 36.7386 13.7648 36.9418 13.2176 37.1841C12.5304 37.4916 11.7239 37.184 11.4161 36.4967Z" fill="#414042"/>
<path d="M16.4833 17.1428C16.4819 16.5905 16.033 16.144 15.4807 16.1455C14.9284 16.1469 14.4819 16.5958 14.4833 17.1481L16.4833 17.1428ZM17.903 21.037L18.8937 20.9006C18.8238 20.3934 18.3822 20.0209 17.8705 20.0376C17.3588 20.0542 16.9423 20.4547 16.9056 20.9653L17.903 21.037ZM22.1251 17.393C22.2204 16.849 21.8566 16.3308 21.3126 16.2355C20.7686 16.1402 20.2504 16.504 20.1551 17.048L22.1251 17.393ZM14.4833 17.1481C14.4869 18.5137 14.422 20.8597 14.4567 22.7757C14.4742 23.7451 14.5172 24.6721 14.6142 25.3836C14.6618 25.7328 14.7291 26.0835 14.8353 26.3764C14.8881 26.522 14.967 26.7001 15.0906 26.8655C15.213 27.0293 15.4367 27.255 15.7909 27.3426L16.2709 25.401C16.5239 25.4635 16.6549 25.6177 16.6924 25.6679C16.731 25.7196 16.7327 25.742 16.7154 25.6944C16.6815 25.6008 16.6369 25.4149 16.5959 25.1135C16.5155 24.5238 16.4736 23.6937 16.4563 22.7395C16.4214 20.8084 16.4873 18.6413 16.4833 17.1428L14.4833 17.1481ZM15.7909 27.3426C16.3273 27.4751 16.7539 27.2312 16.9877 27.0318C17.2176 26.8355 17.3888 26.5835 17.5148 26.3638C17.7734 25.9127 17.9962 25.3194 18.1795 24.7235C18.5488 23.523 18.8318 22.0641 18.9005 21.1088L16.9056 20.9653C16.8496 21.7436 16.6012 23.052 16.2679 24.1355C16.0999 24.6816 15.9286 25.1094 15.7797 25.369C15.702 25.5046 15.6662 25.5303 15.6895 25.5104C15.7165 25.4873 15.9368 25.3184 16.2709 25.401L15.7909 27.3426ZM16.9124 21.1735C17.058 22.2306 17.4343 23.7905 17.8378 24.966C18.0317 25.5309 18.2662 26.112 18.5299 26.4956C18.6004 26.5982 18.6945 26.719 18.8154 26.8279C18.9284 26.9297 19.1324 27.0826 19.4234 27.1367C19.7631 27.1999 20.089 27.1039 20.3351 26.9097C20.5457 26.7437 20.6603 26.5377 20.7228 26.399L18.8999 25.5762C18.904 25.5672 18.9546 25.4514 19.0965 25.3394C19.2739 25.1995 19.5264 25.1216 19.7889 25.1704C20.0026 25.2102 20.1254 25.3162 20.1541 25.342C20.1907 25.3749 20.1973 25.3907 20.1781 25.3627C20.0825 25.2236 19.9201 24.8723 19.7294 24.3167C19.3637 23.251 19.0199 21.8171 18.8937 20.9006L16.9124 21.1735ZM20.7228 26.399C20.9031 25.9996 21.0349 25.3362 21.1442 24.6794C21.2616 23.9738 21.3761 23.1168 21.487 22.2329C21.7124 20.4379 21.9221 18.552 22.1251 17.393L20.1551 17.048C19.9409 18.2706 19.7203 20.2498 19.5026 21.9837C19.3921 22.8643 19.2818 23.6876 19.1714 24.351C19.0529 25.063 18.9537 25.4571 18.8999 25.5762L20.7228 26.399Z" fill="#414042"/>
<path d="M33.3606 18.1869C30.9169 18.2476 27.9504 17.948 28.1507 20.134C28.4263 23.1407 33.65 21.3444 33.8059 23.0446C34.0842 26.0806 30.8933 26.0057 29.1931 26.1616" stroke="#414042" stroke-width="2" stroke-linecap="round"/>
</svg>
