<svg width="75" height="150" viewBox="0 0 75 150" fill="none" xmlns="http://www.w3.org/2000/svg">
<path fill-rule="evenodd" clip-rule="evenodd" d="M0 150C41.4214 150 75 116.421 75 75C75 33.5786 41.4214 0 0 0V40.9671C0.33667 40.9671 0.995361 40.4724 1.76196 39.8968C2.34241 39.461 2.98474 38.9789 3.59546 38.6299C7.58826 36.3482 13.4026 34 20.4546 34C27.0417 34 32.5378 35.0971 36.4078 36.2029C36.6611 36.2752 36.9324 36.3497 37.217 36.4279C40.3159 37.2789 45 38.5653 45 42.1818V95.3636C45 96.7815 44.2656 98.098 43.0597 98.8438C41.0698 100.074 38.6357 99.0455 36.4263 98.1123C35.6313 97.7765 34.8656 97.4533 34.1603 97.2516C30.8712 96.3119 26.1401 95.3636 20.4546 95.3636C15.2947 95.3636 11.432 97.0659 8.53613 98.8479C7.78784 99.3081 7.0343 99.8939 6.26196 100.495L6.26123 100.496L6.2605 100.496L6.25977 100.497L6.25867 100.498C4.3551 101.977 2.33765 103.545 0 103.545V107.636C2.45007 107.636 4.75037 106.339 8.18677 104.175C8.32788 104.086 8.47144 103.995 8.61792 103.902C11.5736 102.033 15.6506 99.4545 20.4546 99.4545C24.7357 99.4545 29.3102 100.633 32.6177 101.696C35.5876 102.651 37.791 103.595 38.3572 103.844C40.4272 104.76 41.4994 107.204 40.5483 109.316C39.6274 111.362 37.1696 112.269 35.1302 111.363C33.4976 110.643 31.8113 110.032 30.1132 109.485C27.0581 108.503 23.4508 107.636 20.4546 107.636C18.1674 107.636 15.9697 108.94 12.301 111.253C9.25977 113.171 5.06165 115.818 0 115.818V150ZM4.09094 91.9768C7.85706 89.6339 13.2418 87.1818 20.4546 87.1818C25.8635 87.1818 30.5354 87.921 34.1775 88.7981C35.5054 89.118 36.8182 88.135 36.8182 86.769V46.3613C36.8182 45.4986 36.2798 44.7248 35.458 44.4625C32.1958 43.4212 26.9382 42.1818 20.4546 42.1818C15.2338 42.1818 10.8209 43.9245 7.65454 45.7337C6.12122 46.61 4.91357 47.4834 4.09094 48.1368V91.9768ZM23.1407 52.0162C24.089 52.0106 25.0018 52.0048 25.8853 51.9828C27.5416 51.9417 28.9177 53.251 28.9589 54.9074C29 56.5637 27.6907 57.9398 26.0343 57.9809C25.085 58.0045 24.116 58.0105 23.1768 58.0161L23.1508 58.0163C22.2107 58.0219 21.2998 58.0274 20.4111 58.0484C18.5944 58.0913 17.0287 58.1975 15.7631 58.4525C14.4548 58.7161 13.8373 59.0693 13.5796 59.32C13.4674 59.429 13.236 59.6581 13.3176 60.5494C13.4224 61.6914 13.8743 62.2044 14.6674 62.6242C15.6984 63.1698 17.228 63.4672 19.2533 63.6746C19.6951 63.7198 20.1819 63.7614 20.6912 63.8049L20.6989 63.8056L20.7007 63.8058C22.202 63.934 23.9003 64.079 25.2308 64.3824C26.1689 64.5963 27.3031 64.9583 28.2736 65.6908C29.3623 66.5125 30.1409 67.7291 30.2831 69.2811C30.5411 72.0966 30.0133 74.52 28.6854 76.4772C27.3796 78.4015 25.5178 79.554 23.6919 80.2658C20.8281 81.3822 17.3452 81.6293 15.001 81.7957C14.5261 81.8294 14.0979 81.8598 13.7312 81.8934C12.0812 82.0447 10.6211 80.8297 10.4698 79.1798C10.3186 77.5299 11.5336 76.0697 13.1835 75.9185C13.7695 75.8648 14.3586 75.8204 14.9453 75.7762C17.2848 75.5998 19.5867 75.4263 21.5126 74.6756C22.613 74.2466 23.3066 73.7182 23.7203 73.1084C24.0707 72.5921 24.3922 71.766 24.3419 70.3524C24.2665 70.328 24.1755 70.3013 24.0669 70.2734C24.0144 70.2599 23.9578 70.2461 23.8967 70.2322C23.0004 70.0278 21.9639 69.9394 20.6515 69.8274C20.045 69.7757 19.3796 69.7189 18.642 69.6434C16.5876 69.433 14.0153 69.0675 11.8607 67.9273C9.46838 66.6611 7.65137 64.4651 7.34265 61.097C7.1239 58.7094 7.77942 56.5916 9.396 55.0191C10.8671 53.5881 12.8199 52.925 14.5779 52.5708C16.3784 52.208 18.3745 52.0948 20.2695 52.0501C21.2114 52.0278 22.1675 52.0221 23.0902 52.0165L23.1407 52.0162Z" fill="#F9F871"/>
<path fill-rule="evenodd" clip-rule="evenodd" d="M1.90735e-05 115.818C5.0617 115.818 9.25979 113.171 12.301 111.253C15.9697 108.94 18.1673 107.636 20.4546 107.636C23.4507 107.636 27.0581 108.503 30.1132 109.485C31.8113 110.032 33.4976 110.643 35.1303 111.363C37.1696 112.269 39.6274 111.362 40.5483 109.316C41.4994 107.204 40.4272 104.76 38.3572 103.844C37.791 103.595 35.5876 102.651 32.6177 101.696C29.3102 100.633 24.7357 99.4545 20.4546 99.4545C15.651 99.4545 11.5743 102.033 8.61865 103.902L8.61793 103.902C8.47147 103.995 8.32788 104.086 8.18674 104.175C4.75038 106.339 2.45006 107.636 1.90735e-05 107.636V115.818ZM0 103.545C2.33891 103.545 4.35758 101.976 6.2613 100.495L6.26195 100.495C7.03432 99.8939 7.78786 99.3081 8.53609 98.8479C11.432 97.0659 15.2947 95.3636 20.4545 95.3636C26.1401 95.3636 30.8712 96.3119 34.1603 97.2516C34.8656 97.4533 35.6314 97.7765 36.4263 98.1123L36.4264 98.1124C38.6359 99.0455 41.0699 100.073 43.0597 98.8438C44.2657 98.098 45 96.7815 45 95.3636V42.1818C45 38.5653 40.3159 37.2789 37.217 36.4279C36.9323 36.3497 36.6611 36.2752 36.4079 36.2029C32.5379 35.0971 27.0417 34 20.4545 34C13.4026 34 7.58823 36.3482 3.5955 38.6299C2.9849 38.9788 2.34281 39.4608 1.76244 39.8964L1.7624 39.8964L1.76232 39.8965L1.76196 39.8968L1.76072 39.8977C0.99461 40.473 0.336498 40.9671 0 40.9671V103.545ZM20.4545 87.1818C13.2419 87.1818 7.857 89.6339 4.09091 91.9768V48.1368C4.91359 47.4833 6.12123 46.61 7.6545 45.7337C10.8209 43.9245 15.2337 42.1818 20.4545 42.1818C26.9382 42.1818 32.1959 43.4212 35.458 44.4625C36.2798 44.7248 36.8182 45.4986 36.8182 46.3613V86.769C36.8182 88.135 35.5054 89.118 34.1775 88.7981C30.5354 87.921 25.8635 87.1818 20.4545 87.1818ZM23.1407 52.0162C24.0891 52.0106 25.0018 52.0048 25.8853 51.9828C27.5416 51.9416 28.9177 53.251 28.9589 54.9074C29 56.5637 27.6907 57.9398 26.0343 57.981C25.085 58.0045 24.116 58.0105 23.1768 58.0161L23.1508 58.0163H23.1508C22.2107 58.0219 21.2998 58.0274 20.4112 58.0484C18.5944 58.0913 17.0287 58.1975 15.763 58.4525C14.4548 58.7161 13.8373 59.0693 13.5796 59.32C13.4675 59.429 13.236 59.6581 13.3177 60.5494C13.4223 61.6914 13.8743 62.2044 14.6674 62.6242C15.6984 63.1698 17.2281 63.4672 19.2533 63.6746C19.6975 63.7201 20.1871 63.7619 20.6996 63.8057L20.7002 63.8057L20.7007 63.8058H20.7007C22.2021 63.934 23.9003 64.079 25.2308 64.3824C26.169 64.5963 27.3031 64.9583 28.2736 65.6907C29.3623 66.5125 30.1408 67.7291 30.2831 69.2811C30.5412 72.0966 30.0133 74.52 28.6854 76.4772C27.3797 78.4015 25.5178 79.554 23.6919 80.2658C20.8282 81.3822 17.3452 81.6294 15.001 81.7957C14.5261 81.8294 14.098 81.8598 13.7312 81.8934C12.0812 82.0447 10.6211 80.8297 10.4698 79.1798C10.3186 77.5299 11.5335 76.0697 13.1835 75.9185C13.7696 75.8648 14.3586 75.8204 14.9453 75.7762L14.9454 75.7761H14.9454C17.2849 75.5998 19.5868 75.4263 21.5126 74.6756C22.6131 74.2466 23.3066 73.7182 23.7204 73.1084C24.0707 72.5921 24.3923 71.766 24.3419 70.3524C24.23 70.3162 24.0839 70.2749 23.8968 70.2322C23.0004 70.0278 21.9639 69.9394 20.6515 69.8274C20.0451 69.7757 19.3797 69.7189 18.642 69.6434C16.5876 69.433 14.0152 69.0675 11.8608 67.9273C9.46839 66.6611 7.65142 64.4651 7.34271 61.097C7.12386 58.7094 7.77941 56.5916 9.39601 55.0191C10.8671 53.5881 12.8199 52.925 14.5779 52.5708C16.3784 52.208 18.3745 52.0948 20.2695 52.0501C21.2114 52.0278 22.1675 52.0221 23.0901 52.0166H23.0902L23.1407 52.0162Z" fill="#414042"/>
</svg>
