<svg width="75" height="150" viewBox="0 0 75 150" fill="none" xmlns="http://www.w3.org/2000/svg">
<path fill-rule="evenodd" clip-rule="evenodd" d="M75 0C33.5786 0 0 33.5786 0 75C0 116.421 33.5786 150 75 150L75 115.818C69.9351 115.818 65.7233 113.168 62.6735 111.248C58.9974 108.934 56.8047 107.636 54.5455 107.636C51.5746 107.636 47.9682 108.502 44.9027 109.486C43.1948 110.034 41.4944 110.644 39.853 111.371C37.7912 112.293 35.3716 111.37 34.4483 109.308C33.5248 107.247 34.4478 104.826 36.5098 103.903C38.4253 103.051 40.4084 102.336 42.4028 101.696C45.7119 100.634 50.2873 99.4545 54.5455 99.4545C59.3191 99.4545 63.3934 102.027 66.3464 103.892L66.3465 103.892C66.498 103.988 66.6467 104.081 66.7923 104.173C70.2329 106.336 72.5471 107.636 75 107.636L75 103.545C72.6674 103.545 70.6383 101.97 68.7311 100.488L68.7289 100.487C67.9581 99.8883 67.2069 99.3052 66.4639 98.8479C63.5681 97.0659 59.7053 95.3636 54.5455 95.3636C48.86 95.3636 44.1288 96.3119 40.8398 97.2516C40.1654 97.4443 39.4176 97.7507 38.6348 98.0718L38.6344 98.072C36.3907 98.9916 33.8588 100.029 31.9402 98.8438C30.7341 98.098 30 96.7815 30 95.3636V42.1818C30 38.5713 34.729 37.2691 37.8142 36.4196L37.8143 36.4195L37.8177 36.4186C38.0901 36.3436 38.3497 36.2721 38.5921 36.2029C42.4621 35.0971 47.9582 34 54.5455 34C61.5973 34 67.4118 36.3482 71.4045 38.6299C72.0151 38.9788 72.6571 39.4607 73.2375 39.8963L73.2377 39.8965L73.238 39.8968L73.2393 39.8977L73.2393 39.8977L73.2395 39.8978L73.2396 39.8979C74.0055 40.4731 74.6635 40.9671 75 40.9671V0ZM38.1818 46.3613C38.1818 45.4986 38.7203 44.7248 39.5421 44.4625C42.8041 43.4212 48.0617 42.1818 54.5455 42.1818C59.7664 42.1818 64.1793 43.9245 67.3455 45.7337C68.8788 46.61 70.0864 47.4833 70.9091 48.1368V91.9768C67.143 89.6339 61.7581 87.1818 54.5455 87.1818C49.1363 87.1818 44.4645 87.921 40.8224 88.7981C39.4945 89.118 38.1818 88.135 38.1818 86.769V46.3613ZM49.65 51.2466C49.6456 49.5897 48.2989 48.2502 46.642 48.2545C44.9852 48.2589 43.6456 49.6056 43.65 51.2625C43.654 52.7923 43.6294 54.7322 43.6024 56.8619L43.6023 56.8625C43.557 60.436 43.5048 64.5438 43.57 68.1453C43.6226 71.0534 43.7516 73.8345 44.0426 75.9689C44.1853 77.0165 44.3872 78.0687 44.7059 78.9473C44.8644 79.3842 45.1009 79.9185 45.4717 80.4145C45.8391 80.9059 46.5102 81.5832 47.5728 81.8458C49.1818 82.2436 50.4618 81.5118 51.163 80.9135C51.8529 80.3248 52.3665 79.5686 52.7445 78.9094C53.2488 78.0297 53.7077 76.9697 54.1182 75.8444C54.6116 77.1553 55.1741 78.4094 55.7896 79.3049C56.0013 79.6129 56.2836 79.9752 56.6462 80.3018C56.9852 80.6073 57.5972 81.0661 58.4702 81.2284C59.4894 81.4178 60.467 81.1298 61.2054 80.5474C61.837 80.0491 62.1808 79.4312 62.3685 79.0152C62.9093 77.8171 63.3047 75.8269 63.6327 73.8562C63.985 71.7396 64.3282 69.1684 64.6611 66.5168C64.8275 65.1918 64.991 63.8503 65.152 62.5288C65.6455 58.4797 66.1161 54.6187 66.5753 51.9973C66.8612 50.3653 65.7699 48.8105 64.1379 48.5246C62.5059 48.2388 60.9512 49.33 60.6653 50.962C60.1765 53.7528 59.6764 57.8573 59.1775 61.9519L59.1775 61.9521C59.0207 63.2392 58.864 64.5253 58.7078 65.7694C58.5639 66.9155 58.4202 68.0293 58.2765 69.0856C57.6441 66.727 57.126 64.2988 56.8811 62.52C56.6715 60.9985 55.3466 59.8809 53.8115 59.9309C52.2764 59.9808 51.027 61.1821 50.9168 62.7141C50.7856 64.5386 50.3017 67.3344 49.6194 70.0204C49.598 69.3836 49.5814 68.7208 49.569 68.0368C49.5045 64.4725 49.5545 60.6401 49.5998 57.1717C49.6281 55.0028 49.6545 52.9762 49.65 51.2466Z" fill="#F9F871"/>
<path fill-rule="evenodd" clip-rule="evenodd" d="M75 40.9671C74.6635 40.9671 74.0054 40.473 73.2393 39.8977L73.238 39.8968L73.2376 39.8964C72.6572 39.4608 72.0151 38.9788 71.4045 38.6299C67.4118 36.3482 61.5973 34 54.5455 34C47.9582 34 42.4621 35.0971 38.5921 36.2029C38.3498 36.2721 38.0903 36.3435 37.818 36.4185L37.8179 36.4185L37.8143 36.4195L37.8142 36.4196C34.729 37.2691 30 38.5713 30 42.1818V95.3636C30 96.7815 30.7341 98.098 31.9402 98.8438C33.8588 100.029 36.3907 98.9916 38.6345 98.072L38.6348 98.0718C39.4176 97.7507 40.1654 97.4443 40.8398 97.2516C44.1288 96.3119 48.86 95.3636 54.5455 95.3636C59.7053 95.3636 63.5681 97.0659 66.4639 98.8479C67.2069 99.3052 67.9581 99.8883 68.7288 100.487L68.7289 100.487L68.7311 100.488C70.6383 101.97 72.6674 103.545 75 103.545V40.9671ZM75 107.636C72.5471 107.636 70.2329 106.336 66.7923 104.173C66.6467 104.081 66.498 103.988 66.3465 103.892L66.3464 103.892C63.3934 102.027 59.3191 99.4545 54.5455 99.4545C50.2873 99.4545 45.7119 100.634 42.4028 101.696C40.4084 102.336 38.4253 103.051 36.5098 103.903C34.4478 104.826 33.5248 107.247 34.4483 109.308C35.3716 111.37 37.7912 112.293 39.853 111.371C41.4944 110.644 43.1948 110.034 44.9027 109.486C47.9682 108.502 51.5746 107.636 54.5455 107.636C56.8047 107.636 58.9974 108.934 62.6735 111.248C65.7233 113.168 69.9351 115.818 75 115.818V107.636ZM39.5421 44.4625C38.7203 44.7248 38.1818 45.4986 38.1818 46.3613V86.769C38.1818 88.135 39.4945 89.118 40.8224 88.7981C44.4645 87.921 49.1363 87.1818 54.5455 87.1818C61.7581 87.1818 67.143 89.6339 70.9091 91.9768V48.1368C70.0864 47.4833 68.8788 46.61 67.3455 45.7337C64.1793 43.9245 59.7664 42.1818 54.5455 42.1818C48.0617 42.1818 42.8041 43.4212 39.5421 44.4625ZM49.6499 51.2466C49.6455 49.5898 48.2988 48.2502 46.642 48.2546C44.9851 48.2589 43.6455 49.6056 43.6499 51.2625C43.654 52.7923 43.6293 54.7322 43.6023 56.8619C43.5569 60.4355 43.5048 64.5436 43.5699 68.1453C43.6225 71.0534 43.7516 73.8345 44.0425 75.9689C44.1853 77.0165 44.3871 78.0688 44.7058 78.9473C44.8643 79.3842 45.1008 79.9185 45.4717 80.4145C45.8391 80.9059 46.5102 81.5832 47.5727 81.8459C49.1817 82.2436 50.4617 81.5119 51.1629 80.9135C51.8529 80.3248 52.3665 79.5686 52.7444 78.9094C53.2487 78.0298 53.7076 76.9697 54.1181 75.8444C54.6115 77.1554 55.1741 78.4094 55.7895 79.3049C56.0013 79.6129 56.2836 79.9752 56.6461 80.3018C56.9851 80.6073 57.5971 81.0661 58.4701 81.2284C59.4894 81.4179 60.467 81.1298 61.2053 80.5474C61.837 80.0491 62.1807 79.4312 62.3685 79.0152C62.9093 77.8171 63.3047 75.8269 63.6326 73.8562C63.9849 71.7396 64.3281 69.1684 64.661 66.5168C64.8274 65.1918 64.9909 63.8503 65.152 62.5288L65.152 62.5285L65.152 62.5284V62.5283C65.6455 58.4794 66.1161 54.6186 66.5753 51.9973C66.8611 50.3653 65.7699 48.8105 64.1379 48.5247C62.5059 48.2388 60.9511 49.33 60.6652 50.962C60.1764 53.7528 59.6763 57.8573 59.1775 61.9519L59.1775 61.9519L59.1773 61.9537L59.177 61.9557L59.1768 61.9572C59.0202 63.2426 58.8638 64.527 58.7078 65.7694C58.5639 66.9155 58.4201 68.0293 58.2765 69.0856C57.644 66.7271 57.1259 64.2988 56.881 62.52C56.6715 60.9985 55.3466 59.8809 53.8115 59.9309C52.2764 59.9808 51.0269 61.1822 50.9168 62.7141C50.7856 64.5386 50.3017 67.3344 49.6193 70.0204C49.5979 69.3837 49.5813 68.7209 49.569 68.0368C49.5045 64.4726 49.5545 60.6403 49.5997 57.1721V57.1719V57.1718V57.1717C49.628 55.0028 49.6545 52.9762 49.6499 51.2466Z" fill="#414042"/>
</svg>
