<svg width="218" height="154" viewBox="0 0 218 154" fill="none" xmlns="http://www.w3.org/2000/svg">
<line x1="118.5" y1="150.5" x2="141.5" y2="150.5" stroke="#1F2182" stroke-width="7" stroke-linecap="round"/>
<path d="M75.5 79.6618V83.1618H68.5V79.6618H75.5ZM126.5 152.5V40.8342H133.5V152.5H126.5ZM126.5 40.8342C126.5 31.1662 123.195 24.1215 118.461 19.3831C113.683 14.5998 107.26 11.9808 100.774 11.5601C94.2734 11.1386 87.9233 12.9356 83.2619 16.7013C78.6798 20.4031 75.5 26.1826 75.5 34.3139H68.5C68.5 24.1537 72.5702 16.3399 78.8631 11.2562C85.0767 6.23647 93.2266 4.05603 101.226 4.57481C109.24 5.09448 117.317 8.33355 123.414 14.4358C129.555 20.5831 133.5 29.4516 133.5 40.8342H126.5ZM72 34.3139C75.5 34.3139 75.5 34.314 75.5 34.3142C75.5 34.3144 75.5 34.3147 75.5 34.3151C75.5 34.3155 75.5 34.316 75.5 34.3166C75.5 34.3172 75.5 34.3179 75.5 34.3187C75.5 34.3195 75.5 34.3204 75.5 34.3214C75.5 34.3224 75.5 34.3235 75.5 34.3247C75.5 34.3259 75.5 34.3272 75.5 34.3286C75.5 34.33 75.5 34.3315 75.5 34.3331C75.5 34.3347 75.5 34.3363 75.5 34.3381C75.5 34.3399 75.5 34.3418 75.5 34.3438C75.5 34.3458 75.5 34.3478 75.5 34.35C75.5 34.3522 75.5 34.3545 75.5 34.3568C75.5 34.3592 75.5 34.3617 75.5 34.3643C75.5 34.3668 75.5 34.3695 75.5 34.3722C75.5 34.375 75.5 34.3779 75.5 34.3808C75.5 34.3838 75.5 34.3868 75.5 34.39C75.5 34.3931 75.5 34.3964 75.5 34.3997C75.5 34.403 75.5 34.4065 75.5 34.41C75.5 34.4135 75.5 34.4172 75.5 34.4209C75.5 34.4246 75.5 34.4284 75.5 34.4323C75.5 34.4363 75.5 34.4403 75.5 34.4444C75.5 34.4485 75.5 34.4527 75.5 34.457C75.5 34.4613 75.5 34.4656 75.5 34.4701C75.5 34.4746 75.5 34.4792 75.5 34.4839C75.5 34.4885 75.5 34.4933 75.5 34.4982C75.5 34.503 75.5 34.508 75.5 34.513C75.5 34.5181 75.5 34.5232 75.5 34.5285C75.5 34.5337 75.5 34.539 75.5 34.5444C75.5 34.5499 75.5 34.5554 75.5 34.561C75.5 34.5666 75.5 34.5723 75.5 34.5781C75.5 34.5839 75.5 34.5898 75.5 34.5958C75.5 34.6017 75.5 34.6078 75.5 34.614C75.5 34.6202 75.5 34.6264 75.5 34.6328C75.5 34.6391 75.5 34.6456 75.5 34.6521C75.5 34.6586 75.5 34.6652 75.5 34.672C75.5 34.6787 75.5 34.6855 75.5 34.6924C75.5 34.6993 75.5 34.7063 75.5 34.7134C75.5 34.7205 75.5 34.7276 75.5 34.7349C75.5 34.7422 75.5 34.7495 75.5 34.757C75.5 34.7644 75.5 34.7719 75.5 34.7796C75.5 34.7872 75.5 34.7949 75.5 34.8027C75.5 34.8105 75.5 34.8184 75.5 34.8264C75.5 34.8344 75.5 34.8425 75.5 34.8506C75.5 34.8588 75.5 34.8671 75.5 34.8754C75.5 34.8838 75.5 34.8922 75.5 34.9007C75.5 34.9092 75.5 34.9179 75.5 34.9266C75.5 34.9353 75.5 34.9441 75.5 34.9529C75.5 34.9618 75.5 34.9708 75.5 34.9798C75.5 34.9889 75.5 34.998 75.5 35.0073C75.5 35.0165 75.5 35.0258 75.5 35.0352C75.5 35.0447 75.5 35.0541 75.5 35.0637C75.5 35.0733 75.5 35.083 75.5 35.0928C75.5 35.1025 75.5 35.1124 75.5 35.1223C75.5 35.1322 75.5 35.1422 75.5 35.1524C75.5 35.1625 75.5 35.1727 75.5 35.1829C75.5 35.1932 75.5 35.2036 75.5 35.214C75.5 35.2245 75.5 35.235 75.5 35.2457C75.5 35.2563 75.5 35.267 75.5 35.2778C75.5 35.2886 75.5 35.2995 75.5 35.3105C75.5 35.3214 75.5 35.3325 75.5 35.3436C75.5 35.3548 75.5 35.366 75.5 35.3773C75.5 35.3886 75.5 35.4 75.5 35.4115C75.5 35.423 75.5 35.4345 75.5 35.4462C75.5 35.4578 75.5 35.4696 75.5 35.4814C75.5 35.4932 75.5 35.5051 75.5 35.5171C75.5 35.5291 75.5 35.5412 75.5 35.5533C75.5 35.5655 75.5 35.5777 75.5 35.59C75.5 35.6024 75.5 35.6148 75.5 35.6273C75.5 35.6397 75.5 35.6523 75.5 35.665C75.5 35.6776 75.5 35.6904 75.5 35.7032C75.5 35.716 75.5 35.7289 75.5 35.7419C75.5 35.7549 75.5 35.768 75.5 35.7811C75.5 35.7943 75.5 35.8075 75.5 35.8208C75.5 35.8342 75.5 35.8475 75.5 35.861C75.5 35.8745 75.5 35.8881 75.5 35.9017C75.5 35.9154 75.5 35.9291 75.5 35.9429C75.5 35.9567 75.5 35.9706 75.5 35.9846C75.5 35.9985 75.5 36.0126 75.5 36.0267C75.5 36.0409 75.5 36.0551 75.5 36.0694C75.5 36.0837 75.5 36.098 75.5 36.1125C75.5 36.1269 75.5 36.1415 75.5 36.1561C75.5 36.1707 75.5 36.1854 75.5 36.2002C75.5 36.2149 75.5 36.2298 75.5 36.2447C75.5 36.2597 75.5 36.2747 75.5 36.2898C75.5 36.3049 75.5 36.32 75.5 36.3353C75.5 36.3505 75.5 36.3659 75.5 36.3813C75.5 36.3967 75.5 36.4122 75.5 36.4277C75.5 36.4433 75.5 36.459 75.5 36.4747C75.5 36.4904 75.5 36.5062 75.5 36.5221C75.5 36.538 75.5 36.5539 75.5 36.57C75.5 36.586 75.5 36.6021 75.5 36.6183C75.5 36.6345 75.5 36.6508 75.5 36.6671C75.5 36.6835 75.5 36.6999 75.5 36.7164C75.5 36.7329 75.5 36.7495 75.5 36.7661C75.5 36.7828 75.5 36.7995 75.5 36.8163C75.5 36.8331 75.5 36.85 75.5 36.867C75.5 36.8839 75.5 36.901 75.5 36.9181C75.5 36.9352 75.5 36.9524 75.5 36.9696C75.5 36.9869 75.5 37.0043 75.5 37.0217C75.5 37.0391 75.5 37.0566 75.5 37.0742C75.5 37.0917 75.5 37.1094 75.5 37.1271C75.5 37.1448 75.5 37.1626 75.5 37.1805C75.5 37.1983 75.5 37.2163 75.5 37.2343C75.5 37.2523 75.5 37.2704 75.5 37.2886C75.5 37.3067 75.5 37.325 75.5 37.3433C75.5 37.3616 75.5 37.38 75.5 37.3985C75.5 37.4169 75.5 37.4355 75.5 37.4541C75.5 37.4727 75.5 37.4914 75.5 37.5101C75.5 37.5289 75.5 37.5477 75.5 37.5666C75.5 37.5855 75.5 37.6045 75.5 37.6235C75.5 37.6426 75.5 37.6617 75.5 37.6809C75.5 37.7001 75.5 37.7194 75.5 37.7387C75.5 37.758 75.5 37.7775 75.5 37.7969C75.5 37.8164 75.5 37.836 75.5 37.8556C75.5 37.8752 75.5 37.8949 75.5 37.9147C75.5 37.9345 75.5 37.9543 75.5 37.9742C75.5 37.9942 75.5 38.0141 75.5 38.0342C75.5 38.0543 75.5 38.0744 75.5 38.0946C75.5 38.1148 75.5 38.1351 75.5 38.1554C75.5 38.1757 75.5 38.1961 75.5 38.2166C75.5 38.2371 75.5 38.2577 75.5 38.2783C75.5 38.2989 75.5 38.3196 75.5 38.3404C75.5 38.3611 75.5 38.3819 75.5 38.4028C75.5 38.4238 75.5 38.4447 75.5 38.4658C75.5 38.4868 75.5 38.5079 75.5 38.5291C75.5 38.5503 75.5 38.5715 75.5 38.5928C75.5 38.6141 75.5 38.6355 75.5 38.657C75.5 38.6784 75.5 38.7 75.5 38.7216C75.5 38.7431 75.5 38.7648 75.5 38.7865C75.5 38.8083 75.5 38.8301 75.5 38.8519C75.5 38.8738 75.5 38.8957 75.5 38.9177C75.5 38.9397 75.5 38.9618 75.5 38.9839C75.5 39.006 75.5 39.0282 75.5 39.0505C75.5 39.0728 75.5 39.0951 75.5 39.1175C75.5 39.1399 75.5 39.1624 75.5 39.1849C75.5 39.2074 75.5 39.2301 75.5 39.2527C75.5 39.2754 75.5 39.2981 75.5 39.3209C75.5 39.3437 75.5 39.3666 75.5 39.3895C75.5 39.4125 75.5 39.4355 75.5 39.4585C75.5 39.4816 75.5 39.5047 75.5 39.5279C75.5 39.5511 75.5 39.5744 75.5 39.5977C75.5 39.621 75.5 39.6444 75.5 39.6679C75.5 39.6913 75.5 39.7148 75.5 39.7384C75.5 39.762 75.5 39.7856 75.5 39.8094C75.5 39.8331 75.5 39.8568 75.5 39.8807C75.5 39.9045 75.5 39.9284 75.5 39.9524C75.5 39.9764 75.5 40.0004 75.5 40.0245C75.5 40.0486 75.5 40.0728 75.5 40.097C75.5 40.1212 75.5 40.1455 75.5 40.1698C75.5 40.1942 75.5 40.2186 75.5 40.2431C75.5 40.2676 75.5 40.2921 75.5 40.3167C75.5 40.3413 75.5 40.366 75.5 40.3907C75.5 40.4154 75.5 40.4402 75.5 40.4651C75.5 40.4899 75.5 40.5148 75.5 40.5398C75.5 40.5648 75.5 40.5898 75.5 40.6149C75.5 40.64 75.5 40.6652 75.5 40.6904C75.5 40.7156 75.5 40.7409 75.5 40.7662C75.5 40.7916 75.5 40.817 75.5 40.8425C75.5 40.8679 75.5 40.8934 75.5 40.919C75.5 40.9446 75.5 40.9703 75.5 40.996C75.5 41.0217 75.5 41.0474 75.5 41.0733C75.5 41.0991 75.5 41.125 75.5 41.1509C75.5 41.1769 75.5 41.2029 75.5 41.229C75.5 41.255 75.5 41.2812 75.5 41.3073C75.5 41.3335 75.5 41.3598 75.5 41.3861C75.5 41.4124 75.5 41.4388 75.5 41.4652C75.5 41.4916 75.5 41.5181 75.5 41.5446C75.5 41.5712 75.5 41.5978 75.5 41.6244C75.5 41.6511 75.5 41.6778 75.5 41.7046C75.5 41.7313 75.5 41.7582 75.5 41.7851C75.5 41.8119 75.5 41.8389 75.5 41.8659C75.5 41.8929 75.5 41.92 75.5 41.9471C75.5 41.9742 75.5 42.0014 75.5 42.0286C75.5 42.0559 75.5 42.0831 75.5 42.1105C75.5 42.1378 75.5 42.1652 75.5 42.1927C75.5 42.2202 75.5 42.2477 75.5 42.2753C75.5 42.3028 75.5 42.3305 75.5 42.3582C75.5 42.3858 75.5 42.4136 75.5 42.4414C75.5 42.4692 75.5 42.497 75.5 42.5249C75.5 42.5529 75.5 42.5808 75.5 42.6088C75.5 42.6369 75.5 42.6649 75.5 42.6931C75.5 42.7212 75.5 42.7494 75.5 42.7776C75.5 42.8059 75.5 42.8342 75.5 42.8625C75.5 42.8909 75.5 42.9193 75.5 42.9477C75.5 42.9762 75.5 43.0047 75.5 43.0333C75.5 43.0618 75.5 43.0905 75.5 43.1191C75.5 43.1478 75.5 43.1765 75.5 43.2053C75.5 43.2341 75.5 43.2629 75.5 43.2918C75.5 43.3207 75.5 43.3497 75.5 43.3787C75.5 43.4077 75.5 43.4367 75.5 43.4658C75.5 43.4949 75.5 43.5241 75.5 43.5533C75.5 43.5825 75.5 43.6118 75.5 43.6411C75.5 43.6704 75.5 43.6997 75.5 43.7292C75.5 43.7586 75.5 43.788 75.5 43.8176C75.5 43.8471 75.5 43.8767 75.5 43.9063C75.5 43.9359 75.5 43.9656 75.5 43.9953C75.5 44.025 75.5 44.0548 75.5 44.0847C75.5 44.1145 75.5 44.1444 75.5 44.1743C75.5 44.2042 75.5 44.2342 75.5 44.2642C75.5 44.2943 75.5 44.3244 75.5 44.3545C75.5 44.3846 75.5 44.4148 75.5 44.445C75.5 44.4753 75.5 44.5056 75.5 44.5359C75.5 44.5662 75.5 44.5966 75.5 44.6271C75.5 44.6575 75.5 44.688 75.5 44.7185C75.5 44.749 75.5 44.7796 75.5 44.8102C75.5 44.8409 75.5 44.8716 75.5 44.9023C75.5 44.933 75.5 44.9638 75.5 44.9946C75.5 45.0254 75.5 45.0563 75.5 45.0872C75.5 45.1182 75.5 45.1491 75.5 45.1802C75.5 45.2112 75.5 45.2422 75.5 45.2734C75.5 45.3045 75.5 45.3356 75.5 45.3669C75.5 45.3981 75.5 45.4293 75.5 45.4606C75.5 45.4919 75.5 45.5233 75.5 45.5547C75.5 45.5861 75.5 45.6175 75.5 45.649C75.5 45.6805 75.5 45.7121 75.5 45.7437C75.5 45.7752 75.5 45.8069 75.5 45.8386C75.5 45.8702 75.5 45.902 75.5 45.9337C75.5 45.9655 75.5 45.9973 75.5 46.0292C75.5 46.0611 75.5 46.093 75.5 46.1249C75.5 46.1569 75.5 46.1889 75.5 46.2209C75.5 46.253 75.5 46.2851 75.5 46.3172C75.5 46.3493 75.5 46.3815 75.5 46.4138C75.5 46.446 75.5 46.4783 75.5 46.5106C75.5 46.5429 75.5 46.5753 75.5 46.6077C75.5 46.6401 75.5 46.6725 75.5 46.705C75.5 46.7375 75.5 46.77 75.5 46.8026C75.5 46.8352 75.5 46.8678 75.5 46.9005C75.5 46.9332 75.5 46.9659 75.5 46.9986C75.5 47.0314 75.5 47.0642 75.5 47.097C75.5 47.1299 75.5 47.1628 75.5 47.1957C75.5 47.2286 75.5 47.2616 75.5 47.2946C75.5 47.3276 75.5 47.3607 75.5 47.3938C75.5 47.4269 75.5 47.46 75.5 47.4932C75.5 47.5264 75.5 47.5596 75.5 47.5929C75.5 47.6261 75.5 47.6595 75.5 47.6928C75.5 47.7262 75.5 47.7595 75.5 47.793C75.5 47.8264 75.5 47.8599 75.5 47.8934C75.5 47.9269 75.5 47.9605 75.5 47.9941C75.5 48.0277 75.5 48.0613 75.5 48.095C75.5 48.1287 75.5 48.1624 75.5 48.1962C75.5 48.2299 75.5 48.2637 75.5 48.2976C75.5 48.3314 75.5 48.3653 75.5 48.3992C75.5 48.4331 75.5 48.4671 75.5 48.5011C75.5 48.5351 75.5 48.5691 75.5 48.6032C75.5 48.6373 75.5 48.6714 75.5 48.7055C75.5 48.7397 75.5 48.7739 75.5 48.8081C75.5 48.8424 75.5 48.8766 75.5 48.911C75.5 48.9453 75.5 48.9796 75.5 49.014C75.5 49.0484 75.5 49.0828 75.5 49.1173C75.5 49.1518 75.5 49.1863 75.5 49.2208C75.5 49.2553 75.5 49.2899 75.5 49.3245C75.5 49.3592 75.5 49.3938 75.5 49.4285C75.5 49.4632 75.5 49.4979 75.5 49.5327C75.5 49.5675 75.5 49.6023 75.5 49.6371C75.5 49.6719 75.5 49.7068 75.5 49.7417C75.5 49.7766 75.5 49.8116 75.5 49.8466C75.5 49.8816 75.5 49.9166 75.5 49.9517C75.5 49.9867 75.5 50.0218 75.5 50.0569C75.5 50.0921 75.5 50.1272 75.5 50.1624C75.5 50.1976 75.5 50.2329 75.5 50.2681C75.5 50.3034 75.5 50.3387 75.5 50.3741C75.5 50.4094 75.5 50.4448 75.5 50.4802C75.5 50.5156 75.5 50.5511 75.5 50.5866C75.5 50.622 75.5 50.6576 75.5 50.6931C75.5 50.7287 75.5 50.7642 75.5 50.7999C75.5 50.8355 75.5 50.8711 75.5 50.9068C75.5 50.9425 75.5 50.9782 75.5 51.014C75.5 51.0497 75.5 51.0855 75.5 51.1214C75.5 51.1572 75.5 51.193 75.5 51.2289C75.5 51.2648 75.5 51.3007 75.5 51.3367C75.5 51.3726 75.5 51.4086 75.5 51.4446C75.5 51.4807 75.5 51.5167 75.5 51.5528C75.5 51.5889 75.5 51.625 75.5 51.6612C75.5 51.6973 75.5 51.7335 75.5 51.7697C75.5 51.8059 75.5 51.8422 75.5 51.8784C75.5 51.9147 75.5 51.951 75.5 51.9874C75.5 52.0237 75.5 52.0601 75.5 52.0965C75.5 52.1329 75.5 52.1693 75.5 52.2058C75.5 52.2422 75.5 52.2787 75.5 52.3153C75.5 52.3518 75.5 52.3883 75.5 52.4249C75.5 52.4615 75.5 52.4981 75.5 52.5348C75.5 52.5714 75.5 52.6081 75.5 52.6448C75.5 52.6815 75.5 52.7182 75.5 52.755C75.5 52.7918 75.5 52.8286 75.5 52.8654C75.5 52.9022 75.5 52.9391 75.5 52.976C75.5 53.0128 75.5 53.0497 75.5 53.0867C75.5 53.1236 75.5 53.1606 75.5 53.1976C75.5 53.2346 75.5 53.2716 75.5 53.3087C75.5 53.3457 75.5 53.3828 75.5 53.4199C75.5 53.457 75.5 53.4942 75.5 53.5313C75.5 53.5685 75.5 53.6057 75.5 53.6429C75.5 53.6802 75.5 53.7174 75.5 53.7547C75.5 53.792 75.5 53.8293 75.5 53.8666C75.5 53.9039 75.5 53.9413 75.5 53.9787C75.5 54.0161 75.5 54.0535 75.5 54.0909C75.5 54.1283 75.5 54.1658 75.5 54.2033C75.5 54.2408 75.5 54.2783 75.5 54.3159C75.5 54.3534 75.5 54.391 75.5 54.4286C75.5 54.4662 75.5 54.5038 75.5 54.5414C75.5 54.5791 75.5 54.6168 75.5 54.6545C75.5 54.6922 75.5 54.7299 75.5 54.7676C75.5 54.8054 75.5 54.8432 75.5 54.881C75.5 54.9188 75.5 54.9566 75.5 54.9944C75.5 55.0323 75.5 55.0701 75.5 55.108C75.5 55.1459 75.5 55.1839 75.5 55.2218C75.5 55.2598 75.5 55.2977 75.5 55.3357C75.5 55.3737 75.5 55.4117 75.5 55.4498C75.5 55.4878 75.5 55.5259 75.5 55.564C75.5 55.602 75.5 55.6402 75.5 55.6783C75.5 55.7164 75.5 55.7546 75.5 55.7928C75.5 55.8309 75.5 55.8691 75.5 55.9074C75.5 55.9456 75.5 55.9838 75.5 56.0221C75.5 56.0604 75.5 56.0987 75.5 56.137C75.5 56.1753 75.5 56.2136 75.5 56.252C75.5 56.2904 75.5 56.3287 75.5 56.3671C75.5 56.4055 75.5 56.444 75.5 56.4824C75.5 56.5209 75.5 56.5593 75.5 56.5978C75.5 56.6363 75.5 56.6748 75.5 56.7133C75.5 56.7519 75.5 56.7904 75.5 56.829C75.5 56.8676 75.5 56.9062 75.5 56.9448C75.5 56.9834 75.5 57.022 75.5 57.0607C75.5 57.0993 75.5 57.138 75.5 57.1767C75.5 57.2154 75.5 57.2541 75.5 57.2928C75.5 57.3315 75.5 57.3703 75.5 57.4091C75.5 57.4478 75.5 57.4866 75.5 57.5254C75.5 57.5642 75.5 57.6031 75.5 57.6419C75.5 57.6808 75.5 57.7196 75.5 57.7585C75.5 57.7974 75.5 57.8363 75.5 57.8752C75.5 57.9141 75.5 57.9531 75.5 57.992C75.5 58.031 75.5 58.07 75.5 58.1089C75.5 58.1479 75.5 58.187 75.5 58.226C75.5 58.265 75.5 58.3041 75.5 58.3431C75.5 58.3822 75.5 58.4213 75.5 58.4604C75.5 58.4995 75.5 58.5386 75.5 58.5777C75.5 58.6168 75.5 58.656 75.5 58.6951C75.5 58.7343 75.5 58.7735 75.5 58.8127C75.5 58.8519 75.5 58.8911 75.5 58.9303C75.5 58.9696 75.5 59.0088 75.5 59.0481C75.5 59.0873 75.5 59.1266 75.5 59.1659C75.5 59.2052 75.5 59.2445 75.5 59.2838C75.5 59.3232 75.5 59.3625 75.5 59.4018C75.5 59.4412 75.5 59.4806 75.5 59.52C75.5 59.5593 75.5 59.5987 75.5 59.6382C75.5 59.6776 75.5 59.717 75.5 59.7564C75.5 59.7959 75.5 59.8353 75.5 59.8748C75.5 59.9143 75.5 59.9538 75.5 59.9933C75.5 60.0328 75.5 60.0723 75.5 60.1118C75.5 60.1513 75.5 60.1909 75.5 60.2304C75.5 60.27 75.5 60.3095 75.5 60.3491C75.5 60.3887 75.5 60.4283 75.5 60.4679C75.5 60.5075 75.5 60.5471 75.5 60.5867C75.5 60.6264 75.5 60.666 75.5 60.7057C75.5 60.7453 75.5 60.785 75.5 60.8247C75.5 60.8644 75.5 60.9041 75.5 60.9438C75.5 60.9835 75.5 61.0232 75.5 61.0629C75.5 61.1026 75.5 61.1424 75.5 61.1821C75.5 61.2219 75.5 61.2616 75.5 61.3014C75.5 61.3412 75.5 61.381 75.5 61.4208C75.5 61.4605 75.5 61.5004 75.5 61.5402C75.5 61.58 75.5 61.6198 75.5 61.6596C75.5 61.6995 75.5 61.7393 75.5 61.7792C75.5 61.819 75.5 61.8589 75.5 61.8988C75.5 61.9387 75.5 61.9786 75.5 62.0185C75.5 62.0583 75.5 62.0983 75.5 62.1382C75.5 62.1781 75.5 62.218 75.5 62.2579C75.5 62.2979 75.5 62.3378 75.5 62.3778C75.5 62.4177 75.5 62.4577 75.5 62.4976C75.5 62.5376 75.5 62.5776 75.5 62.6176C75.5 62.6576 75.5 62.6976 75.5 62.7376C75.5 62.7776 75.5 62.8176 75.5 62.8576C75.5 62.8976 75.5 62.9376 75.5 62.9777C75.5 63.0177 75.5 63.0577 75.5 63.0978C75.5 63.1378 75.5 63.1779 75.5 63.218C75.5 63.258 75.5 63.2981 75.5 63.3382C75.5 63.3782 75.5 63.4183 75.5 63.4584C75.5 63.4985 75.5 63.5386 75.5 63.5787C75.5 63.6188 75.5 63.6589 75.5 63.699C75.5 63.7391 75.5 63.7793 75.5 63.8194C75.5 63.8595 75.5 63.8997 75.5 63.9398C75.5 63.9799 75.5 64.0201 75.5 64.0602C75.5 64.1004 75.5 64.1405 75.5 64.1807C75.5 64.2208 75.5 64.261 75.5 64.3012C75.5 64.3414 75.5 64.3815 75.5 64.4217C75.5 64.4619 75.5 64.5021 75.5 64.5423C75.5 64.5824 75.5 64.6226 75.5 64.6628C75.5 64.703 75.5 64.7432 75.5 64.7834C75.5 64.8236 75.5 64.8638 75.5 64.9041C75.5 64.9443 75.5 64.9845 75.5 65.0247C75.5 65.0649 75.5 65.1051 75.5 65.1454C75.5 65.1856 75.5 65.2258 75.5 65.266C75.5 65.3063 75.5 65.3465 75.5 65.3867C75.5 65.427 75.5 65.4672 75.5 65.5075C75.5 65.5477 75.5 65.5879 75.5 65.6282C75.5 65.6684 75.5 65.7087 75.5 65.7489C75.5 65.7892 75.5 65.8294 75.5 65.8697C75.5 65.9099 75.5 65.9502 75.5 65.9904C75.5 66.0307 75.5 66.071 75.5 66.1112C75.5 66.1515 75.5 66.1917 75.5 66.232C75.5 66.2722 75.5 66.3125 75.5 66.3528C75.5 66.393 75.5 66.4333 75.5 66.4735C75.5 66.5138 75.5 66.5541 75.5 66.5943C75.5 66.6346 75.5 66.6749 75.5 66.7151C75.5 66.7554 75.5 66.7956 75.5 66.8359C75.5 66.8762 75.5 66.9164 75.5 66.9567C75.5 66.9969 75.5 67.0372 75.5 67.0775C75.5 67.1177 75.5 67.158 75.5 67.1982C75.5 67.2385 75.5 67.2788 75.5 67.319C75.5 67.3593 75.5 67.3995 75.5 67.4398C75.5 67.48 75.5 67.5203 75.5 67.5605C75.5 67.6008 75.5 67.641 75.5 67.6812C75.5 67.7215 75.5 67.7617 75.5 67.802C75.5 67.8422 75.5 67.8824 75.5 67.9227C75.5 67.9629 75.5 68.0031 75.5 68.0434C75.5 68.0836 75.5 68.1238 75.5 68.164C75.5 68.2043 75.5 68.2445 75.5 68.2847C75.5 68.3249 75.5 68.3651 75.5 68.4053C75.5 68.4455 75.5 68.4857 75.5 68.5259C75.5 68.5661 75.5 68.6063 75.5 68.6465C75.5 68.6867 75.5 68.7269 75.5 68.7671C75.5 68.8073 75.5 68.8474 75.5 68.8876C75.5 68.9278 75.5 68.968 75.5 69.0081C75.5 69.0483 75.5 69.0885 75.5 69.1286C75.5 69.1688 75.5 69.2089 75.5 69.2491C75.5 69.2892 75.5 69.3293 75.5 69.3695C75.5 69.4096 75.5 69.4497 75.5 69.4898C75.5 69.53 75.5 69.5701 75.5 69.6102C75.5 69.6503 75.5 69.6904 75.5 69.7305C75.5 69.7706 75.5 69.8107 75.5 69.8508C75.5 69.8909 75.5 69.9309 75.5 69.971C75.5 70.0111 75.5 70.0511 75.5 70.0912C75.5 70.1312 75.5 70.1713 75.5 70.2113C75.5 70.2514 75.5 70.2914 75.5 70.3314C75.5 70.3715 75.5 70.4115 75.5 70.4515C75.5 70.4915 75.5 70.5315 75.5 70.5715C75.5 70.6115 75.5 70.6515 75.5 70.6914C75.5 70.7314 75.5 70.7714 75.5 70.8113C75.5 70.8513 75.5 70.8913 75.5 70.9312C75.5 70.9711 75.5 71.0111 75.5 71.051C75.5 71.0909 75.5 71.1308 75.5 71.1707C75.5 71.2106 75.5 71.2505 75.5 71.2904C75.5 71.3303 75.5 71.3702 75.5 71.4101C75.5 71.4499 75.5 71.4898 75.5 71.5296C75.5 71.5695 75.5 71.6093 75.5 71.6491C75.5 71.689 75.5 71.7288 75.5 71.7686C75.5 71.8084 75.5 71.8482 75.5 71.888C75.5 71.9278 75.5 71.9675 75.5 72.0073C75.5 72.047 75.5 72.0868 75.5 72.1265C75.5 72.1663 75.5 72.206 75.5 72.2457C75.5 72.2854 75.5 72.3251 75.5 72.3648C75.5 72.4045 75.5 72.4442 75.5 72.4839C75.5 72.5235 75.5 72.5632 75.5 72.6028C75.5 72.6425 75.5 72.6821 75.5 72.7217C75.5 72.7613 75.5 72.8009 75.5 72.8405C75.5 72.8801 75.5 72.9197 75.5 72.9593C75.5 72.9988 75.5 73.0384 75.5 73.0779C75.5 73.1175 75.5 73.157 75.5 73.1965C75.5 73.236 75.5 73.2755 75.5 73.315C75.5 73.3545 75.5 73.394 75.5 73.4334C75.5 73.4729 75.5 73.5123 75.5 73.5517C75.5 73.5912 75.5 73.6306 75.5 73.67C75.5 73.7094 75.5 73.7488 75.5 73.7881C75.5 73.8275 75.5 73.8669 75.5 73.9062C75.5 73.9455 75.5 73.9849 75.5 74.0242C75.5 74.0635 75.5 74.1028 75.5 74.142C75.5 74.1813 75.5 74.2206 75.5 74.2598C75.5 74.2991 75.5 74.3383 75.5 74.3775C75.5 74.4167 75.5 74.4559 75.5 74.4951C75.5 74.5343 75.5 74.5734 75.5 74.6126C75.5 74.6517 75.5 74.6909 75.5 74.73C75.5 74.7691 75.5 74.8082 75.5 74.8473C75.5 74.8864 75.5 74.9254 75.5 74.9645C75.5 75.0035 75.5 75.0425 75.5 75.0815C75.5 75.1206 75.5 75.1596 75.5 75.1985C75.5 75.2375 75.5 75.2765 75.5 75.3154C75.5 75.3543 75.5 75.3933 75.5 75.4322C75.5 75.4711 75.5 75.5099 75.5 75.5488C75.5 75.5877 75.5 75.6265 75.5 75.6653C75.5 75.7042 75.5 75.743 75.5 75.7818C75.5 75.8206 75.5 75.8593 75.5 75.8981C75.5 75.9368 75.5 75.9756 75.5 76.0143C75.5 76.053 75.5 76.0917 75.5 76.1303C75.5 76.169 75.5 76.2077 75.5 76.2463C75.5 76.2849 75.5 76.3235 75.5 76.3621C75.5 76.4007 75.5 76.4393 75.5 76.4778C75.5 76.5164 75.5 76.5549 75.5 76.5934C75.5 76.6319 75.5 76.6704 75.5 76.7089C75.5 76.7473 75.5 76.7858 75.5 76.8242C75.5 76.8626 75.5 76.901 75.5 76.9394C75.5 76.9778 75.5 77.0161 75.5 77.0545C75.5 77.0928 75.5 77.1311 75.5 77.1694C75.5 77.2077 75.5 77.246 75.5 77.2842C75.5 77.3225 75.5 77.3607 75.5 77.3989C75.5 77.4371 75.5 77.4753 75.5 77.5134C75.5 77.5516 75.5 77.5897 75.5 77.6278C75.5 77.666 75.5 77.704 75.5 77.7421C75.5 77.7802 75.5 77.8182 75.5 77.8562C75.5 77.8942 75.5 77.9322 75.5 77.9702C75.5 78.0082 75.5 78.0461 75.5 78.084C75.5 78.122 75.5 78.1599 75.5 78.1977C75.5 78.2356 75.5 78.2735 75.5 78.3113C75.5 78.3491 75.5 78.3869 75.5 78.4247C75.5 78.4624 75.5 78.5002 75.5 78.5379C75.5 78.5756 75.5 78.6133 75.5 78.651C75.5 78.6887 75.5 78.7263 75.5 78.7639C75.5 78.8016 75.5 78.8392 75.5 78.8767C75.5 78.9143 75.5 78.9518 75.5 78.9894C75.5 79.0269 75.5 79.0644 75.5 79.1018C75.5 79.1393 75.5 79.1767 75.5 79.2142C75.5 79.2516 75.5 79.2889 75.5 79.3263C75.5 79.3637 75.5 79.401 75.5 79.4383C75.5 79.4756 75.5 79.5129 75.5 79.5501C75.5 79.5874 75.5 79.6246 75.5 79.6618H68.5C68.5 79.6246 68.5 79.5874 68.5 79.5501C68.5 79.5129 68.5 79.4756 68.5 79.4383C68.5 79.401 68.5 79.3637 68.5 79.3263C68.5 79.2889 68.5 79.2516 68.5 79.2142C68.5 79.1767 68.5 79.1393 68.5 79.1018C68.5 79.0644 68.5 79.0269 68.5 78.9894C68.5 78.9518 68.5 78.9143 68.5 78.8767C68.5 78.8392 68.5 78.8016 68.5 78.7639C68.5 78.7263 68.5 78.6887 68.5 78.651C68.5 78.6133 68.5 78.5756 68.5 78.5379C68.5 78.5002 68.5 78.4624 68.5 78.4247C68.5 78.3869 68.5 78.3491 68.5 78.3113C68.5 78.2735 68.5 78.2356 68.5 78.1977C68.5 78.1599 68.5 78.122 68.5 78.084C68.5 78.0461 68.5 78.0082 68.5 77.9702C68.5 77.9322 68.5 77.8942 68.5 77.8562C68.5 77.8182 68.5 77.7802 68.5 77.7421C68.5 77.704 68.5 77.666 68.5 77.6278C68.5 77.5897 68.5 77.5516 68.5 77.5134C68.5 77.4753 68.5 77.4371 68.5 77.3989C68.5 77.3607 68.5 77.3225 68.5 77.2842C68.5 77.246 68.5 77.2077 68.5 77.1694C68.5 77.1311 68.5 77.0928 68.5 77.0545C68.5 77.0161 68.5 76.9778 68.5 76.9394C68.5 76.901 68.5 76.8626 68.5 76.8242C68.5 76.7858 68.5 76.7473 68.5 76.7089C68.5 76.6704 68.5 76.6319 68.5 76.5934C68.5 76.5549 68.5 76.5164 68.5 76.4778C68.5 76.4393 68.5 76.4007 68.5 76.3621C68.5 76.3235 68.5 76.2849 68.5 76.2463C68.5 76.2077 68.5 76.169 68.5 76.1303C68.5 76.0917 68.5 76.053 68.5 76.0143C68.5 75.9756 68.5 75.9368 68.5 75.8981C68.5 75.8593 68.5 75.8206 68.5 75.7818C68.5 75.743 68.5 75.7042 68.5 75.6653C68.5 75.6265 68.5 75.5877 68.5 75.5488C68.5 75.5099 68.5 75.4711 68.5 75.4322C68.5 75.3933 68.5 75.3543 68.5 75.3154C68.5 75.2765 68.5 75.2375 68.5 75.1985C68.5 75.1596 68.5 75.1206 68.5 75.0815C68.5 75.0425 68.5 75.0035 68.5 74.9645C68.5 74.9254 68.5 74.8864 68.5 74.8473C68.5 74.8082 68.5 74.7691 68.5 74.73C68.5 74.6909 68.5 74.6517 68.5 74.6126C68.5 74.5734 68.5 74.5343 68.5 74.4951C68.5 74.4559 68.5 74.4167 68.5 74.3775C68.5 74.3383 68.5 74.2991 68.5 74.2598C68.5 74.2206 68.5 74.1813 68.5 74.142C68.5 74.1028 68.5 74.0635 68.5 74.0242C68.5 73.9849 68.5 73.9455 68.5 73.9062C68.5 73.8669 68.5 73.8275 68.5 73.7881C68.5 73.7488 68.5 73.7094 68.5 73.67C68.5 73.6306 68.5 73.5912 68.5 73.5517C68.5 73.5123 68.5 73.4729 68.5 73.4334C68.5 73.394 68.5 73.3545 68.5 73.315C68.5 73.2755 68.5 73.236 68.5 73.1965C68.5 73.157 68.5 73.1175 68.5 73.0779C68.5 73.0384 68.5 72.9988 68.5 72.9593C68.5 72.9197 68.5 72.8801 68.5 72.8405C68.5 72.8009 68.5 72.7613 68.5 72.7217C68.5 72.6821 68.5 72.6425 68.5 72.6028C68.5 72.5632 68.5 72.5235 68.5 72.4839C68.5 72.4442 68.5 72.4045 68.5 72.3648C68.5 72.3251 68.5 72.2854 68.5 72.2457C68.5 72.206 68.5 72.1663 68.5 72.1265C68.5 72.0868 68.5 72.047 68.5 72.0073C68.5 71.9675 68.5 71.9278 68.5 71.888C68.5 71.8482 68.5 71.8084 68.5 71.7686C68.5 71.7288 68.5 71.689 68.5 71.6491C68.5 71.6093 68.5 71.5695 68.5 71.5296C68.5 71.4898 68.5 71.4499 68.5 71.4101C68.5 71.3702 68.5 71.3303 68.5 71.2904C68.5 71.2505 68.5 71.2106 68.5 71.1707C68.5 71.1308 68.5 71.0909 68.5 71.051C68.5 71.0111 68.5 70.9711 68.5 70.9312C68.5 70.8913 68.5 70.8513 68.5 70.8113C68.5 70.7714 68.5 70.7314 68.5 70.6914C68.5 70.6515 68.5 70.6115 68.5 70.5715C68.5 70.5315 68.5 70.4915 68.5 70.4515C68.5 70.4115 68.5 70.3715 68.5 70.3314C68.5 70.2914 68.5 70.2514 68.5 70.2113C68.5 70.1713 68.5 70.1312 68.5 70.0912C68.5 70.0511 68.5 70.0111 68.5 69.971C68.5 69.9309 68.5 69.8909 68.5 69.8508C68.5 69.8107 68.5 69.7706 68.5 69.7305C68.5 69.6904 68.5 69.6503 68.5 69.6102C68.5 69.5701 68.5 69.53 68.5 69.4898C68.5 69.4497 68.5 69.4096 68.5 69.3695C68.5 69.3293 68.5 69.2892 68.5 69.2491C68.5 69.2089 68.5 69.1688 68.5 69.1286C68.5 69.0885 68.5 69.0483 68.5 69.0081C68.5 68.968 68.5 68.9278 68.5 68.8876C68.5 68.8474 68.5 68.8073 68.5 68.7671C68.5 68.7269 68.5 68.6867 68.5 68.6465C68.5 68.6063 68.5 68.5661 68.5 68.5259C68.5 68.4857 68.5 68.4455 68.5 68.4053C68.5 68.3651 68.5 68.3249 68.5 68.2847C68.5 68.2445 68.5 68.2043 68.5 68.164C68.5 68.1238 68.5 68.0836 68.5 68.0434C68.5 68.0031 68.5 67.9629 68.5 67.9227C68.5 67.8824 68.5 67.8422 68.5 67.802C68.5 67.7617 68.5 67.7215 68.5 67.6812C68.5 67.641 68.5 67.6008 68.5 67.5605C68.5 67.5203 68.5 67.48 68.5 67.4398C68.5 67.3995 68.5 67.3593 68.5 67.319C68.5 67.2788 68.5 67.2385 68.5 67.1982C68.5 67.158 68.5 67.1177 68.5 67.0775C68.5 67.0372 68.5 66.9969 68.5 66.9567C68.5 66.9164 68.5 66.8762 68.5 66.8359C68.5 66.7956 68.5 66.7554 68.5 66.7151C68.5 66.6749 68.5 66.6346 68.5 66.5943C68.5 66.5541 68.5 66.5138 68.5 66.4735C68.5 66.4333 68.5 66.393 68.5 66.3528C68.5 66.3125 68.5 66.2722 68.5 66.232C68.5 66.1917 68.5 66.1515 68.5 66.1112C68.5 66.071 68.5 66.0307 68.5 65.9904C68.5 65.9502 68.5 65.9099 68.5 65.8697C68.5 65.8294 68.5 65.7892 68.5 65.7489C68.5 65.7087 68.5 65.6684 68.5 65.6282C68.5 65.5879 68.5 65.5477 68.5 65.5075C68.5 65.4672 68.5 65.427 68.5 65.3867C68.5 65.3465 68.5 65.3063 68.5 65.266C68.5 65.2258 68.5 65.1856 68.5 65.1454C68.5 65.1051 68.5 65.0649 68.5 65.0247C68.5 64.9845 68.5 64.9443 68.5 64.9041C68.5 64.8638 68.5 64.8236 68.5 64.7834C68.5 64.7432 68.5 64.703 68.5 64.6628C68.5 64.6226 68.5 64.5824 68.5 64.5423C68.5 64.5021 68.5 64.4619 68.5 64.4217C68.5 64.3815 68.5 64.3414 68.5 64.3012C68.5 64.261 68.5 64.2208 68.5 64.1807C68.5 64.1405 68.5 64.1004 68.5 64.0602C68.5 64.0201 68.5 63.9799 68.5 63.9398C68.5 63.8997 68.5 63.8595 68.5 63.8194C68.5 63.7793 68.5 63.7391 68.5 63.699C68.5 63.6589 68.5 63.6188 68.5 63.5787C68.5 63.5386 68.5 63.4985 68.5 63.4584C68.5 63.4183 68.5 63.3782 68.5 63.3382C68.5 63.2981 68.5 63.258 68.5 63.218C68.5 63.1779 68.5 63.1378 68.5 63.0978C68.5 63.0577 68.5 63.0177 68.5 62.9777C68.5 62.9376 68.5 62.8976 68.5 62.8576C68.5 62.8176 68.5 62.7776 68.5 62.7376C68.5 62.6976 68.5 62.6576 68.5 62.6176C68.5 62.5776 68.5 62.5376 68.5 62.4976C68.5 62.4577 68.5 62.4177 68.5 62.3778C68.5 62.3378 68.5 62.2979 68.5 62.2579C68.5 62.218 68.5 62.1781 68.5 62.1382C68.5 62.0983 68.5 62.0583 68.5 62.0185C68.5 61.9786 68.5 61.9387 68.5 61.8988C68.5 61.8589 68.5 61.819 68.5 61.7792C68.5 61.7393 68.5 61.6995 68.5 61.6596C68.5 61.6198 68.5 61.58 68.5 61.5402C68.5 61.5004 68.5 61.4605 68.5 61.4208C68.5 61.381 68.5 61.3412 68.5 61.3014C68.5 61.2616 68.5 61.2219 68.5 61.1821C68.5 61.1424 68.5 61.1026 68.5 61.0629C68.5 61.0232 68.5 60.9835 68.5 60.9438C68.5 60.9041 68.5 60.8644 68.5 60.8247C68.5 60.785 68.5 60.7453 68.5 60.7057C68.5 60.666 68.5 60.6264 68.5 60.5867C68.5 60.5471 68.5 60.5075 68.5 60.4679C68.5 60.4283 68.5 60.3887 68.5 60.3491C68.5 60.3095 68.5 60.27 68.5 60.2304C68.5 60.1909 68.5 60.1513 68.5 60.1118C68.5 60.0723 68.5 60.0328 68.5 59.9933C68.5 59.9538 68.5 59.9143 68.5 59.8748C68.5 59.8353 68.5 59.7959 68.5 59.7564C68.5 59.717 68.5 59.6776 68.5 59.6382C68.5 59.5987 68.5 59.5593 68.5 59.52C68.5 59.4806 68.5 59.4412 68.5 59.4018C68.5 59.3625 68.5 59.3232 68.5 59.2838C68.5 59.2445 68.5 59.2052 68.5 59.1659C68.5 59.1266 68.5 59.0873 68.5 59.0481C68.5 59.0088 68.5 58.9696 68.5 58.9303C68.5 58.8911 68.5 58.8519 68.5 58.8127C68.5 58.7735 68.5 58.7343 68.5 58.6951C68.5 58.656 68.5 58.6168 68.5 58.5777C68.5 58.5386 68.5 58.4995 68.5 58.4604C68.5 58.4213 68.5 58.3822 68.5 58.3431C68.5 58.3041 68.5 58.265 68.5 58.226C68.5 58.187 68.5 58.1479 68.5 58.1089C68.5 58.07 68.5 58.031 68.5 57.992C68.5 57.9531 68.5 57.9141 68.5 57.8752C68.5 57.8363 68.5 57.7974 68.5 57.7585C68.5 57.7196 68.5 57.6808 68.5 57.6419C68.5 57.6031 68.5 57.5642 68.5 57.5254C68.5 57.4866 68.5 57.4478 68.5 57.4091C68.5 57.3703 68.5 57.3315 68.5 57.2928C68.5 57.2541 68.5 57.2154 68.5 57.1767C68.5 57.138 68.5 57.0993 68.5 57.0607C68.5 57.022 68.5 56.9834 68.5 56.9448C68.5 56.9062 68.5 56.8676 68.5 56.829C68.5 56.7904 68.5 56.7519 68.5 56.7133C68.5 56.6748 68.5 56.6363 68.5 56.5978C68.5 56.5593 68.5 56.5209 68.5 56.4824C68.5 56.444 68.5 56.4055 68.5 56.3671C68.5 56.3287 68.5 56.2904 68.5 56.252C68.5 56.2136 68.5 56.1753 68.5 56.137C68.5 56.0987 68.5 56.0604 68.5 56.0221C68.5 55.9838 68.5 55.9456 68.5 55.9074C68.5 55.8691 68.5 55.8309 68.5 55.7928C68.5 55.7546 68.5 55.7164 68.5 55.6783C68.5 55.6402 68.5 55.602 68.5 55.564C68.5 55.5259 68.5 55.4878 68.5 55.4498C68.5 55.4117 68.5 55.3737 68.5 55.3357C68.5 55.2977 68.5 55.2598 68.5 55.2218C68.5 55.1839 68.5 55.1459 68.5 55.108C68.5 55.0701 68.5 55.0323 68.5 54.9944C68.5 54.9566 68.5 54.9188 68.5 54.881C68.5 54.8432 68.5 54.8054 68.5 54.7676C68.5 54.7299 68.5 54.6922 68.5 54.6545C68.5 54.6168 68.5 54.5791 68.5 54.5414C68.5 54.5038 68.5 54.4662 68.5 54.4286C68.5 54.391 68.5 54.3534 68.5 54.3159C68.5 54.2783 68.5 54.2408 68.5 54.2033C68.5 54.1658 68.5 54.1283 68.5 54.0909C68.5 54.0535 68.5 54.0161 68.5 53.9787C68.5 53.9413 68.5 53.9039 68.5 53.8666C68.5 53.8293 68.5 53.792 68.5 53.7547C68.5 53.7174 68.5 53.6802 68.5 53.6429C68.5 53.6057 68.5 53.5685 68.5 53.5313C68.5 53.4942 68.5 53.457 68.5 53.4199C68.5 53.3828 68.5 53.3457 68.5 53.3087C68.5 53.2716 68.5 53.2346 68.5 53.1976C68.5 53.1606 68.5 53.1236 68.5 53.0867C68.5 53.0497 68.5 53.0128 68.5 52.976C68.5 52.9391 68.5 52.9022 68.5 52.8654C68.5 52.8286 68.5 52.7918 68.5 52.755C68.5 52.7182 68.5 52.6815 68.5 52.6448C68.5 52.6081 68.5 52.5714 68.5 52.5348C68.5 52.4981 68.5 52.4615 68.5 52.4249C68.5 52.3883 68.5 52.3518 68.5 52.3153C68.5 52.2787 68.5 52.2422 68.5 52.2058C68.5 52.1693 68.5 52.1329 68.5 52.0965C68.5 52.0601 68.5 52.0237 68.5 51.9874C68.5 51.951 68.5 51.9147 68.5 51.8784C68.5 51.8422 68.5 51.8059 68.5 51.7697C68.5 51.7335 68.5 51.6973 68.5 51.6612C68.5 51.625 68.5 51.5889 68.5 51.5528C68.5 51.5167 68.5 51.4807 68.5 51.4446C68.5 51.4086 68.5 51.3726 68.5 51.3367C68.5 51.3007 68.5 51.2648 68.5 51.2289C68.5 51.193 68.5 51.1572 68.5 51.1214C68.5 51.0855 68.5 51.0497 68.5 51.014C68.5 50.9782 68.5 50.9425 68.5 50.9068C68.5 50.8711 68.5 50.8355 68.5 50.7999C68.5 50.7642 68.5 50.7287 68.5 50.6931C68.5 50.6576 68.5 50.622 68.5 50.5866C68.5 50.5511 68.5 50.5156 68.5 50.4802C68.5 50.4448 68.5 50.4094 68.5 50.3741C68.5 50.3387 68.5 50.3034 68.5 50.2681C68.5 50.2329 68.5 50.1976 68.5 50.1624C68.5 50.1272 68.5 50.0921 68.5 50.0569C68.5 50.0218 68.5 49.9867 68.5 49.9517C68.5 49.9166 68.5 49.8816 68.5 49.8466C68.5 49.8116 68.5 49.7766 68.5 49.7417C68.5 49.7068 68.5 49.6719 68.5 49.6371C68.5 49.6023 68.5 49.5675 68.5 49.5327C68.5 49.4979 68.5 49.4632 68.5 49.4285C68.5 49.3938 68.5 49.3592 68.5 49.3245C68.5 49.2899 68.5 49.2553 68.5 49.2208C68.5 49.1863 68.5 49.1518 68.5 49.1173C68.5 49.0828 68.5 49.0484 68.5 49.014C68.5 48.9796 68.5 48.9453 68.5 48.911C68.5 48.8766 68.5 48.8424 68.5 48.8081C68.5 48.7739 68.5 48.7397 68.5 48.7055C68.5 48.6714 68.5 48.6373 68.5 48.6032C68.5 48.5691 68.5 48.5351 68.5 48.5011C68.5 48.4671 68.5 48.4331 68.5 48.3992C68.5 48.3653 68.5 48.3314 68.5 48.2976C68.5 48.2637 68.5 48.2299 68.5 48.1962C68.5 48.1624 68.5 48.1287 68.5 48.095C68.5 48.0613 68.5 48.0277 68.5 47.9941C68.5 47.9605 68.5 47.9269 68.5 47.8934C68.5 47.8599 68.5 47.8264 68.5 47.793C68.5 47.7595 68.5 47.7262 68.5 47.6928C68.5 47.6595 68.5 47.6261 68.5 47.5929C68.5 47.5596 68.5 47.5264 68.5 47.4932C68.5 47.46 68.5 47.4269 68.5 47.3938C68.5 47.3607 68.5 47.3276 68.5 47.2946C68.5 47.2616 68.5 47.2286 68.5 47.1957C68.5 47.1628 68.5 47.1299 68.5 47.097C68.5 47.0642 68.5 47.0314 68.5 46.9986C68.5 46.9659 68.5 46.9332 68.5 46.9005C68.5 46.8678 68.5 46.8352 68.5 46.8026C68.5 46.77 68.5 46.7375 68.5 46.705C68.5 46.6725 68.5 46.6401 68.5 46.6077C68.5 46.5753 68.5 46.5429 68.5 46.5106C68.5 46.4783 68.5 46.446 68.5 46.4138C68.5 46.3815 68.5 46.3493 68.5 46.3172C68.5 46.2851 68.5 46.253 68.5 46.2209C68.5 46.1889 68.5 46.1569 68.5 46.1249C68.5 46.093 68.5 46.0611 68.5 46.0292C68.5 45.9973 68.5 45.9655 68.5 45.9337C68.5 45.902 68.5 45.8702 68.5 45.8386C68.5 45.8069 68.5 45.7752 68.5 45.7437C68.5 45.7121 68.5 45.6805 68.5 45.649C68.5 45.6175 68.5 45.5861 68.5 45.5547C68.5 45.5233 68.5 45.4919 68.5 45.4606C68.5 45.4293 68.5 45.3981 68.5 45.3669C68.5 45.3356 68.5 45.3045 68.5 45.2734C68.5 45.2422 68.5 45.2112 68.5 45.1802C68.5 45.1491 68.5 45.1182 68.5 45.0872C68.5 45.0563 68.5 45.0254 68.5 44.9946C68.5 44.9638 68.5 44.933 68.5 44.9023C68.5 44.8716 68.5 44.8409 68.5 44.8102C68.5 44.7796 68.5 44.749 68.5 44.7185C68.5 44.688 68.5 44.6575 68.5 44.6271C68.5 44.5966 68.5 44.5662 68.5 44.5359C68.5 44.5056 68.5 44.4753 68.5 44.445C68.5 44.4148 68.5 44.3846 68.5 44.3545C68.5 44.3244 68.5 44.2943 68.5 44.2642C68.5 44.2342 68.5 44.2042 68.5 44.1743C68.5 44.1444 68.5 44.1145 68.5 44.0847C68.5 44.0548 68.5 44.025 68.5 43.9953C68.5 43.9656 68.5 43.9359 68.5 43.9063C68.5 43.8767 68.5 43.8471 68.5 43.8176C68.5 43.788 68.5 43.7586 68.5 43.7292C68.5 43.6997 68.5 43.6704 68.5 43.6411C68.5 43.6118 68.5 43.5825 68.5 43.5533C68.5 43.5241 68.5 43.4949 68.5 43.4658C68.5 43.4367 68.5 43.4077 68.5 43.3787C68.5 43.3497 68.5 43.3207 68.5 43.2918C68.5 43.2629 68.5 43.2341 68.5 43.2053C68.5 43.1765 68.5 43.1478 68.5 43.1191C68.5 43.0905 68.5 43.0618 68.5 43.0333C68.5 43.0047 68.5 42.9762 68.5 42.9477C68.5 42.9193 68.5 42.8909 68.5 42.8625C68.5 42.8342 68.5 42.8059 68.5 42.7776C68.5 42.7494 68.5 42.7212 68.5 42.6931C68.5 42.6649 68.5 42.6369 68.5 42.6088C68.5 42.5808 68.5 42.5529 68.5 42.5249C68.5 42.497 68.5 42.4692 68.5 42.4414C68.5 42.4136 68.5 42.3858 68.5 42.3582C68.5 42.3305 68.5 42.3028 68.5 42.2753C68.5 42.2477 68.5 42.2202 68.5 42.1927C68.5 42.1652 68.5 42.1378 68.5 42.1105C68.5 42.0831 68.5 42.0559 68.5 42.0286C68.5 42.0014 68.5 41.9742 68.5 41.9471C68.5 41.92 68.5 41.8929 68.5 41.8659C68.5 41.8389 68.5 41.8119 68.5 41.7851C68.5 41.7582 68.5 41.7313 68.5 41.7046C68.5 41.6778 68.5 41.6511 68.5 41.6244C68.5 41.5978 68.5 41.5712 68.5 41.5446C68.5 41.5181 68.5 41.4916 68.5 41.4652C68.5 41.4388 68.5 41.4124 68.5 41.3861C68.5 41.3598 68.5 41.3335 68.5 41.3073C68.5 41.2812 68.5 41.255 68.5 41.229C68.5 41.2029 68.5 41.1769 68.5 41.1509C68.5 41.125 68.5 41.0991 68.5 41.0733C68.5 41.0474 68.5 41.0217 68.5 40.996C68.5 40.9703 68.5 40.9446 68.5 40.919C68.5 40.8934 68.5 40.8679 68.5 40.8425C68.5 40.817 68.5 40.7916 68.5 40.7662C68.5 40.7409 68.5 40.7156 68.5 40.6904C68.5 40.6652 68.5 40.64 68.5 40.6149C68.5 40.5898 68.5 40.5648 68.5 40.5398C68.5 40.5148 68.5 40.4899 68.5 40.4651C68.5 40.4402 68.5 40.4154 68.5 40.3907C68.5 40.366 68.5 40.3413 68.5 40.3167C68.5 40.2921 68.5 40.2676 68.5 40.2431C68.5 40.2186 68.5 40.1942 68.5 40.1698C68.5 40.1455 68.5 40.1212 68.5 40.097C68.5 40.0728 68.5 40.0486 68.5 40.0245C68.5 40.0004 68.5 39.9764 68.5 39.9524C68.5 39.9284 68.5 39.9045 68.5 39.8807C68.5 39.8568 68.5 39.8331 68.5 39.8094C68.5 39.7856 68.5 39.762 68.5 39.7384C68.5 39.7148 68.5 39.6913 68.5 39.6679C68.5 39.6444 68.5 39.621 68.5 39.5977C68.5 39.5744 68.5 39.5511 68.5 39.5279C68.5 39.5047 68.5 39.4816 68.5 39.4585C68.5 39.4355 68.5 39.4125 68.5 39.3895C68.5 39.3666 68.5 39.3437 68.5 39.3209C68.5 39.2981 68.5 39.2754 68.5 39.2527C68.5 39.2301 68.5 39.2074 68.5 39.1849C68.5 39.1624 68.5 39.1399 68.5 39.1175C68.5 39.0951 68.5 39.0728 68.5 39.0505C68.5 39.0282 68.5 39.006 68.5 38.9839C68.5 38.9618 68.5 38.9397 68.5 38.9177C68.5 38.8957 68.5 38.8738 68.5 38.8519C68.5 38.8301 68.5 38.8083 68.5 38.7865C68.5 38.7648 68.5 38.7431 68.5 38.7216C68.5 38.7 68.5 38.6784 68.5 38.657C68.5 38.6355 68.5 38.6141 68.5 38.5928C68.5 38.5715 68.5 38.5503 68.5 38.5291C68.5 38.5079 68.5 38.4868 68.5 38.4658C68.5 38.4447 68.5 38.4238 68.5 38.4028C68.5 38.3819 68.5 38.3611 68.5 38.3404C68.5 38.3196 68.5 38.2989 68.5 38.2783C68.5 38.2577 68.5 38.2371 68.5 38.2166C68.5 38.1961 68.5 38.1757 68.5 38.1554C68.5 38.1351 68.5 38.1148 68.5 38.0946C68.5 38.0744 68.5 38.0543 68.5 38.0342C68.5 38.0141 68.5 37.9942 68.5 37.9742C68.5 37.9543 68.5 37.9345 68.5 37.9147C68.5 37.8949 68.5 37.8752 68.5 37.8556C68.5 37.836 68.5 37.8164 68.5 37.7969C68.5 37.7775 68.5 37.758 68.5 37.7387C68.5 37.7194 68.5 37.7001 68.5 37.6809C68.5 37.6617 68.5 37.6426 68.5 37.6235C68.5 37.6045 68.5 37.5855 68.5 37.5666C68.5 37.5477 68.5 37.5289 68.5 37.5101C68.5 37.4914 68.5 37.4727 68.5 37.4541C68.5 37.4355 68.5 37.4169 68.5 37.3985C68.5 37.38 68.5 37.3616 68.5 37.3433C68.5 37.325 68.5 37.3067 68.5 37.2886C68.5 37.2704 68.5 37.2523 68.5 37.2343C68.5 37.2163 68.5 37.1983 68.5 37.1805C68.5 37.1626 68.5 37.1448 68.5 37.1271C68.5 37.1094 68.5 37.0917 68.5 37.0742C68.5 37.0566 68.5 37.0391 68.5 37.0217C68.5 37.0043 68.5 36.9869 68.5 36.9696C68.5 36.9524 68.5 36.9352 68.5 36.9181C68.5 36.901 68.5 36.8839 68.5 36.867C68.5 36.85 68.5 36.8331 68.5 36.8163C68.5 36.7995 68.5 36.7828 68.5 36.7661C68.5 36.7495 68.5 36.7329 68.5 36.7164C68.5 36.6999 68.5 36.6835 68.5 36.6671C68.5 36.6508 68.5 36.6345 68.5 36.6183C68.5 36.6021 68.5 36.586 68.5 36.57C68.5 36.5539 68.5 36.538 68.5 36.5221C68.5 36.5062 68.5 36.4904 68.5 36.4747C68.5 36.459 68.5 36.4433 68.5 36.4277C68.5 36.4122 68.5 36.3967 68.5 36.3813C68.5 36.3659 68.5 36.3505 68.5 36.3353C68.5 36.32 68.5 36.3049 68.5 36.2898C68.5 36.2747 68.5 36.2597 68.5 36.2447C68.5 36.2298 68.5 36.2149 68.5 36.2002C68.5 36.1854 68.5 36.1707 68.5 36.1561C68.5 36.1415 68.5 36.1269 68.5 36.1125C68.5 36.098 68.5 36.0837 68.5 36.0694C68.5 36.0551 68.5 36.0409 68.5 36.0267C68.5 36.0126 68.5 35.9985 68.5 35.9846C68.5 35.9706 68.5 35.9567 68.5 35.9429C68.5 35.9291 68.5 35.9154 68.5 35.9017C68.5 35.8881 68.5 35.8745 68.5 35.861C68.5 35.8475 68.5 35.8342 68.5 35.8208C68.5 35.8075 68.5 35.7943 68.5 35.7811C68.5 35.768 68.5 35.7549 68.5 35.7419C68.5 35.7289 68.5 35.716 68.5 35.7032C68.5 35.6904 68.5 35.6776 68.5 35.665C68.5 35.6523 68.5 35.6397 68.5 35.6273C68.5 35.6148 68.5 35.6024 68.5 35.59C68.5 35.5777 68.5 35.5655 68.5 35.5533C68.5 35.5412 68.5 35.5291 68.5 35.5171C68.5 35.5051 68.5 35.4932 68.5 35.4814C68.5 35.4696 68.5 35.4578 68.5 35.4462C68.5 35.4345 68.5 35.423 68.5 35.4115C68.5 35.4 68.5 35.3886 68.5 35.3773C68.5 35.366 68.5 35.3548 68.5 35.3436C68.5 35.3325 68.5 35.3214 68.5 35.3105C68.5 35.2995 68.5 35.2886 68.5 35.2778C68.5 35.267 68.5 35.2563 68.5 35.2457C68.5 35.235 68.5 35.2245 68.5 35.214C68.5 35.2036 68.5 35.1932 68.5 35.1829C68.5 35.1727 68.5 35.1625 68.5 35.1524C68.5 35.1422 68.5 35.1322 68.5 35.1223C68.5 35.1124 68.5 35.1025 68.5 35.0928C68.5 35.083 68.5 35.0733 68.5 35.0637C68.5 35.0541 68.5 35.0447 68.5 35.0352C68.5 35.0258 68.5 35.0165 68.5 35.0073C68.5 34.998 68.5 34.9889 68.5 34.9798C68.5 34.9708 68.5 34.9618 68.5 34.9529C68.5 34.9441 68.5 34.9353 68.5 34.9266C68.5 34.9179 68.5 34.9092 68.5 34.9007C68.5 34.8922 68.5 34.8838 68.5 34.8754C68.5 34.8671 68.5 34.8588 68.5 34.8506C68.5 34.8425 68.5 34.8344 68.5 34.8264C68.5 34.8184 68.5 34.8105 68.5 34.8027C68.5 34.7949 68.5 34.7872 68.5 34.7796C68.5 34.7719 68.5 34.7644 68.5 34.757C68.5 34.7495 68.5 34.7422 68.5 34.7349C68.5 34.7276 68.5 34.7205 68.5 34.7134C68.5 34.7063 68.5 34.6993 68.5 34.6924C68.5 34.6855 68.5 34.6787 68.5 34.672C68.5 34.6652 68.5 34.6586 68.5 34.6521C68.5 34.6456 68.5 34.6391 68.5 34.6328C68.5 34.6264 68.5 34.6202 68.5 34.614C68.5 34.6078 68.5 34.6017 68.5 34.5958C68.5 34.5898 68.5 34.5839 68.5 34.5781C68.5 34.5723 68.5 34.5666 68.5 34.561C68.5 34.5554 68.5 34.5499 68.5 34.5444C68.5 34.539 68.5 34.5337 68.5 34.5285C68.5 34.5232 68.5 34.5181 68.5 34.513C68.5 34.508 68.5 34.503 68.5 34.4982C68.5 34.4933 68.5 34.4885 68.5 34.4839C68.5 34.4792 68.5 34.4746 68.5 34.4701C68.5 34.4656 68.5 34.4613 68.5 34.457C68.5 34.4527 68.5 34.4485 68.5 34.4444C68.5 34.4403 68.5 34.4363 68.5 34.4323C68.5 34.4284 68.5 34.4246 68.5 34.4209C68.5 34.4172 68.5 34.4135 68.5 34.41C68.5 34.4065 68.5 34.403 68.5 34.3997C68.5 34.3964 68.5 34.3931 68.5 34.39C68.5 34.3868 68.5 34.3838 68.5 34.3808C68.5 34.3779 68.5 34.375 68.5 34.3722C68.5 34.3695 68.5 34.3668 68.5 34.3643C68.5 34.3617 68.5 34.3592 68.5 34.3568C68.5 34.3545 68.5 34.3522 68.5 34.35C68.5 34.3478 68.5 34.3458 68.5 34.3438C68.5 34.3418 68.5 34.3399 68.5 34.3381C68.5 34.3363 68.5 34.3347 68.5 34.3331C68.5 34.3315 68.5 34.33 68.5 34.3286C68.5 34.3272 68.5 34.3259 68.5 34.3247C68.5 34.3235 68.5 34.3224 68.5 34.3214C68.5 34.3204 68.5 34.3195 68.5 34.3187C68.5 34.3179 68.5 34.3172 68.5 34.3166C68.5 34.316 68.5 34.3155 68.5 34.3151C68.5 34.3147 68.5 34.3144 68.5 34.3142C68.5 34.314 68.5 34.3139 72 34.3139Z" fill="#1F2182"/>
<path d="M0.333333 91.5C0.333333 101.809 8.69068 110.167 19 110.167C29.3093 110.167 37.6667 101.809 37.6667 91.5C37.6667 81.1907 29.3093 72.8333 19 72.8333C8.69068 72.8333 0.333333 81.1907 0.333333 91.5ZM73.5 75.6618V79.1618H80.5V75.6618H73.5ZM22.5 91.5V36.8342H15.5V91.5H22.5ZM22.5 36.8342C22.5 27.1662 25.8048 20.1215 30.5386 15.3831C35.3173 10.5998 41.7402 7.98076 48.2265 7.56013C54.7266 7.13861 61.0767 8.93564 65.7381 12.7013C70.3202 16.4031 73.5 22.1826 73.5 30.3139H80.5C80.5 20.1537 76.4298 12.3399 70.1369 7.25618C63.9233 2.23647 55.7734 0.0560277 47.7735 0.574805C39.7598 1.09448 31.6827 4.33355 25.5864 10.4358C19.4452 16.5831 15.5 25.4516 15.5 36.8342H22.5ZM77 30.3139C73.5 30.3139 73.5 30.314 73.5 30.3142C73.5 30.3144 73.5 30.3147 73.5 30.3151C73.5 30.3155 73.5 30.316 73.5 30.3166C73.5 30.3172 73.5 30.3179 73.5 30.3187C73.5 30.3195 73.5 30.3204 73.5 30.3214C73.5 30.3224 73.5 30.3235 73.5 30.3247C73.5 30.3259 73.5 30.3272 73.5 30.3286C73.5 30.33 73.5 30.3315 73.5 30.3331C73.5 30.3347 73.5 30.3363 73.5 30.3381C73.5 30.3399 73.5 30.3418 73.5 30.3438C73.5 30.3458 73.5 30.3478 73.5 30.35C73.5 30.3522 73.5 30.3545 73.5 30.3568C73.5 30.3592 73.5 30.3617 73.5 30.3643C73.5 30.3668 73.5 30.3695 73.5 30.3722C73.5 30.375 73.5 30.3779 73.5 30.3808C73.5 30.3838 73.5 30.3868 73.5 30.39C73.5 30.3931 73.5 30.3964 73.5 30.3997C73.5 30.403 73.5 30.4065 73.5 30.41C73.5 30.4135 73.5 30.4172 73.5 30.4209C73.5 30.4246 73.5 30.4284 73.5 30.4323C73.5 30.4363 73.5 30.4403 73.5 30.4444C73.5 30.4485 73.5 30.4527 73.5 30.457C73.5 30.4613 73.5 30.4656 73.5 30.4701C73.5 30.4746 73.5 30.4792 73.5 30.4839C73.5 30.4885 73.5 30.4933 73.5 30.4982C73.5 30.503 73.5 30.508 73.5 30.513C73.5 30.5181 73.5 30.5232 73.5 30.5285C73.5 30.5337 73.5 30.539 73.5 30.5444C73.5 30.5499 73.5 30.5554 73.5 30.561C73.5 30.5666 73.5 30.5723 73.5 30.5781C73.5 30.5839 73.5 30.5898 73.5 30.5958C73.5 30.6017 73.5 30.6078 73.5 30.614C73.5 30.6202 73.5 30.6264 73.5 30.6328C73.5 30.6391 73.5 30.6456 73.5 30.6521C73.5 30.6586 73.5 30.6652 73.5 30.672C73.5 30.6787 73.5 30.6855 73.5 30.6924C73.5 30.6993 73.5 30.7063 73.5 30.7134C73.5 30.7205 73.5 30.7276 73.5 30.7349C73.5 30.7422 73.5 30.7495 73.5 30.757C73.5 30.7644 73.5 30.7719 73.5 30.7796C73.5 30.7872 73.5 30.7949 73.5 30.8027C73.5 30.8105 73.5 30.8184 73.5 30.8264C73.5 30.8344 73.5 30.8425 73.5 30.8506C73.5 30.8588 73.5 30.8671 73.5 30.8754C73.5 30.8838 73.5 30.8922 73.5 30.9007C73.5 30.9092 73.5 30.9179 73.5 30.9266C73.5 30.9353 73.5 30.9441 73.5 30.9529C73.5 30.9618 73.5 30.9708 73.5 30.9798C73.5 30.9889 73.5 30.998 73.5 31.0073C73.5 31.0165 73.5 31.0258 73.5 31.0352C73.5 31.0447 73.5 31.0541 73.5 31.0637C73.5 31.0733 73.5 31.083 73.5 31.0928C73.5 31.1025 73.5 31.1124 73.5 31.1223C73.5 31.1322 73.5 31.1422 73.5 31.1524C73.5 31.1625 73.5 31.1727 73.5 31.1829C73.5 31.1932 73.5 31.2036 73.5 31.214C73.5 31.2245 73.5 31.235 73.5 31.2457C73.5 31.2563 73.5 31.267 73.5 31.2778C73.5 31.2886 73.5 31.2995 73.5 31.3105C73.5 31.3214 73.5 31.3325 73.5 31.3436C73.5 31.3548 73.5 31.366 73.5 31.3773C73.5 31.3886 73.5 31.4 73.5 31.4115C73.5 31.423 73.5 31.4345 73.5 31.4462C73.5 31.4578 73.5 31.4696 73.5 31.4814C73.5 31.4932 73.5 31.5051 73.5 31.5171C73.5 31.5291 73.5 31.5412 73.5 31.5533C73.5 31.5655 73.5 31.5777 73.5 31.59C73.5 31.6024 73.5 31.6148 73.5 31.6273C73.5 31.6397 73.5 31.6523 73.5 31.665C73.5 31.6776 73.5 31.6904 73.5 31.7032C73.5 31.716 73.5 31.7289 73.5 31.7419C73.5 31.7549 73.5 31.768 73.5 31.7811C73.5 31.7943 73.5 31.8075 73.5 31.8208C73.5 31.8342 73.5 31.8475 73.5 31.861C73.5 31.8745 73.5 31.8881 73.5 31.9017C73.5 31.9154 73.5 31.9291 73.5 31.9429C73.5 31.9567 73.5 31.9706 73.5 31.9846C73.5 31.9985 73.5 32.0126 73.5 32.0267C73.5 32.0409 73.5 32.0551 73.5 32.0694C73.5 32.0837 73.5 32.098 73.5 32.1125C73.5 32.1269 73.5 32.1415 73.5 32.1561C73.5 32.1707 73.5 32.1854 73.5 32.2002C73.5 32.2149 73.5 32.2298 73.5 32.2447C73.5 32.2597 73.5 32.2747 73.5 32.2898C73.5 32.3049 73.5 32.32 73.5 32.3353C73.5 32.3505 73.5 32.3659 73.5 32.3813C73.5 32.3967 73.5 32.4122 73.5 32.4277C73.5 32.4433 73.5 32.459 73.5 32.4747C73.5 32.4904 73.5 32.5062 73.5 32.5221C73.5 32.538 73.5 32.5539 73.5 32.57C73.5 32.586 73.5 32.6021 73.5 32.6183C73.5 32.6345 73.5 32.6508 73.5 32.6671C73.5 32.6835 73.5 32.6999 73.5 32.7164C73.5 32.7329 73.5 32.7495 73.5 32.7661C73.5 32.7828 73.5 32.7995 73.5 32.8163C73.5 32.8331 73.5 32.85 73.5 32.867C73.5 32.8839 73.5 32.901 73.5 32.9181C73.5 32.9352 73.5 32.9524 73.5 32.9696C73.5 32.9869 73.5 33.0043 73.5 33.0217C73.5 33.0391 73.5 33.0566 73.5 33.0742C73.5 33.0917 73.5 33.1094 73.5 33.1271C73.5 33.1448 73.5 33.1626 73.5 33.1805C73.5 33.1983 73.5 33.2163 73.5 33.2343C73.5 33.2523 73.5 33.2704 73.5 33.2886C73.5 33.3067 73.5 33.325 73.5 33.3433C73.5 33.3616 73.5 33.38 73.5 33.3985C73.5 33.4169 73.5 33.4355 73.5 33.4541C73.5 33.4727 73.5 33.4914 73.5 33.5101C73.5 33.5289 73.5 33.5477 73.5 33.5666C73.5 33.5855 73.5 33.6045 73.5 33.6235C73.5 33.6426 73.5 33.6617 73.5 33.6809C73.5 33.7001 73.5 33.7194 73.5 33.7387C73.5 33.758 73.5 33.7775 73.5 33.7969C73.5 33.8164 73.5 33.836 73.5 33.8556C73.5 33.8752 73.5 33.8949 73.5 33.9147C73.5 33.9345 73.5 33.9543 73.5 33.9742C73.5 33.9942 73.5 34.0141 73.5 34.0342C73.5 34.0543 73.5 34.0744 73.5 34.0946C73.5 34.1148 73.5 34.1351 73.5 34.1554C73.5 34.1757 73.5 34.1961 73.5 34.2166C73.5 34.2371 73.5 34.2577 73.5 34.2783C73.5 34.2989 73.5 34.3196 73.5 34.3404C73.5 34.3611 73.5 34.3819 73.5 34.4028C73.5 34.4238 73.5 34.4447 73.5 34.4658C73.5 34.4868 73.5 34.5079 73.5 34.5291C73.5 34.5503 73.5 34.5715 73.5 34.5928C73.5 34.6141 73.5 34.6355 73.5 34.657C73.5 34.6784 73.5 34.7 73.5 34.7216C73.5 34.7431 73.5 34.7648 73.5 34.7865C73.5 34.8083 73.5 34.8301 73.5 34.8519C73.5 34.8738 73.5 34.8957 73.5 34.9177C73.5 34.9397 73.5 34.9618 73.5 34.9839C73.5 35.006 73.5 35.0282 73.5 35.0505C73.5 35.0728 73.5 35.0951 73.5 35.1175C73.5 35.1399 73.5 35.1624 73.5 35.1849C73.5 35.2074 73.5 35.2301 73.5 35.2527C73.5 35.2754 73.5 35.2981 73.5 35.3209C73.5 35.3437 73.5 35.3666 73.5 35.3895C73.5 35.4125 73.5 35.4355 73.5 35.4585C73.5 35.4816 73.5 35.5047 73.5 35.5279C73.5 35.5511 73.5 35.5744 73.5 35.5977C73.5 35.621 73.5 35.6444 73.5 35.6679C73.5 35.6913 73.5 35.7148 73.5 35.7384C73.5 35.762 73.5 35.7856 73.5 35.8094C73.5 35.8331 73.5 35.8568 73.5 35.8807C73.5 35.9045 73.5 35.9284 73.5 35.9524C73.5 35.9764 73.5 36.0004 73.5 36.0245C73.5 36.0486 73.5 36.0728 73.5 36.097C73.5 36.1212 73.5 36.1455 73.5 36.1698C73.5 36.1942 73.5 36.2186 73.5 36.2431C73.5 36.2676 73.5 36.2921 73.5 36.3167C73.5 36.3413 73.5 36.366 73.5 36.3907C73.5 36.4154 73.5 36.4402 73.5 36.4651C73.5 36.4899 73.5 36.5148 73.5 36.5398C73.5 36.5648 73.5 36.5898 73.5 36.6149C73.5 36.64 73.5 36.6652 73.5 36.6904C73.5 36.7156 73.5 36.7409 73.5 36.7662C73.5 36.7916 73.5 36.817 73.5 36.8425C73.5 36.8679 73.5 36.8934 73.5 36.919C73.5 36.9446 73.5 36.9703 73.5 36.996C73.5 37.0217 73.5 37.0474 73.5 37.0733C73.5 37.0991 73.5 37.125 73.5 37.1509C73.5 37.1769 73.5 37.2029 73.5 37.229C73.5 37.255 73.5 37.2812 73.5 37.3073C73.5 37.3335 73.5 37.3598 73.5 37.3861C73.5 37.4124 73.5 37.4388 73.5 37.4652C73.5 37.4916 73.5 37.5181 73.5 37.5446C73.5 37.5712 73.5 37.5978 73.5 37.6244C73.5 37.6511 73.5 37.6778 73.5 37.7046C73.5 37.7313 73.5 37.7582 73.5 37.7851C73.5 37.8119 73.5 37.8389 73.5 37.8659C73.5 37.8929 73.5 37.92 73.5 37.9471C73.5 37.9742 73.5 38.0014 73.5 38.0286C73.5 38.0559 73.5 38.0831 73.5 38.1105C73.5 38.1378 73.5 38.1652 73.5 38.1927C73.5 38.2202 73.5 38.2477 73.5 38.2753C73.5 38.3028 73.5 38.3305 73.5 38.3582C73.5 38.3858 73.5 38.4136 73.5 38.4414C73.5 38.4692 73.5 38.497 73.5 38.5249C73.5 38.5529 73.5 38.5808 73.5 38.6088C73.5 38.6369 73.5 38.6649 73.5 38.6931C73.5 38.7212 73.5 38.7494 73.5 38.7776C73.5 38.8059 73.5 38.8342 73.5 38.8625C73.5 38.8909 73.5 38.9193 73.5 38.9477C73.5 38.9762 73.5 39.0047 73.5 39.0333C73.5 39.0618 73.5 39.0905 73.5 39.1191C73.5 39.1478 73.5 39.1765 73.5 39.2053C73.5 39.2341 73.5 39.2629 73.5 39.2918C73.5 39.3207 73.5 39.3497 73.5 39.3787C73.5 39.4077 73.5 39.4367 73.5 39.4658C73.5 39.4949 73.5 39.5241 73.5 39.5533C73.5 39.5825 73.5 39.6118 73.5 39.6411C73.5 39.6704 73.5 39.6997 73.5 39.7292C73.5 39.7586 73.5 39.788 73.5 39.8176C73.5 39.8471 73.5 39.8767 73.5 39.9063C73.5 39.9359 73.5 39.9656 73.5 39.9953C73.5 40.025 73.5 40.0548 73.5 40.0847C73.5 40.1145 73.5 40.1444 73.5 40.1743C73.5 40.2042 73.5 40.2342 73.5 40.2642C73.5 40.2943 73.5 40.3244 73.5 40.3545C73.5 40.3846 73.5 40.4148 73.5 40.445C73.5 40.4753 73.5 40.5056 73.5 40.5359C73.5 40.5662 73.5 40.5966 73.5 40.6271C73.5 40.6575 73.5 40.688 73.5 40.7185C73.5 40.749 73.5 40.7796 73.5 40.8102C73.5 40.8409 73.5 40.8716 73.5 40.9023C73.5 40.933 73.5 40.9638 73.5 40.9946C73.5 41.0254 73.5 41.0563 73.5 41.0872C73.5 41.1182 73.5 41.1491 73.5 41.1802C73.5 41.2112 73.5 41.2422 73.5 41.2734C73.5 41.3045 73.5 41.3356 73.5 41.3669C73.5 41.3981 73.5 41.4293 73.5 41.4606C73.5 41.4919 73.5 41.5233 73.5 41.5547C73.5 41.5861 73.5 41.6175 73.5 41.649C73.5 41.6805 73.5 41.7121 73.5 41.7437C73.5 41.7752 73.5 41.8069 73.5 41.8386C73.5 41.8702 73.5 41.902 73.5 41.9337C73.5 41.9655 73.5 41.9973 73.5 42.0292C73.5 42.0611 73.5 42.093 73.5 42.1249C73.5 42.1569 73.5 42.1889 73.5 42.2209C73.5 42.253 73.5 42.2851 73.5 42.3172C73.5 42.3493 73.5 42.3815 73.5 42.4138C73.5 42.446 73.5 42.4783 73.5 42.5106C73.5 42.5429 73.5 42.5753 73.5 42.6077C73.5 42.6401 73.5 42.6725 73.5 42.705C73.5 42.7375 73.5 42.77 73.5 42.8026C73.5 42.8352 73.5 42.8678 73.5 42.9005C73.5 42.9332 73.5 42.9659 73.5 42.9986C73.5 43.0314 73.5 43.0642 73.5 43.097C73.5 43.1299 73.5 43.1628 73.5 43.1957C73.5 43.2286 73.5 43.2616 73.5 43.2946C73.5 43.3276 73.5 43.3607 73.5 43.3938C73.5 43.4269 73.5 43.46 73.5 43.4932C73.5 43.5264 73.5 43.5596 73.5 43.5929C73.5 43.6261 73.5 43.6595 73.5 43.6928C73.5 43.7262 73.5 43.7595 73.5 43.793C73.5 43.8264 73.5 43.8599 73.5 43.8934C73.5 43.9269 73.5 43.9605 73.5 43.9941C73.5 44.0277 73.5 44.0613 73.5 44.095C73.5 44.1287 73.5 44.1624 73.5 44.1962C73.5 44.2299 73.5 44.2637 73.5 44.2976C73.5 44.3314 73.5 44.3653 73.5 44.3992C73.5 44.4331 73.5 44.4671 73.5 44.5011C73.5 44.5351 73.5 44.5691 73.5 44.6032C73.5 44.6373 73.5 44.6714 73.5 44.7055C73.5 44.7397 73.5 44.7739 73.5 44.8081C73.5 44.8424 73.5 44.8766 73.5 44.911C73.5 44.9453 73.5 44.9796 73.5 45.014C73.5 45.0484 73.5 45.0828 73.5 45.1173C73.5 45.1518 73.5 45.1863 73.5 45.2208C73.5 45.2553 73.5 45.2899 73.5 45.3245C73.5 45.3592 73.5 45.3938 73.5 45.4285C73.5 45.4632 73.5 45.4979 73.5 45.5327C73.5 45.5675 73.5 45.6023 73.5 45.6371C73.5 45.6719 73.5 45.7068 73.5 45.7417C73.5 45.7766 73.5 45.8116 73.5 45.8466C73.5 45.8816 73.5 45.9166 73.5 45.9517C73.5 45.9867 73.5 46.0218 73.5 46.0569C73.5 46.0921 73.5 46.1272 73.5 46.1624C73.5 46.1976 73.5 46.2329 73.5 46.2681C73.5 46.3034 73.5 46.3387 73.5 46.3741C73.5 46.4094 73.5 46.4448 73.5 46.4802C73.5 46.5156 73.5 46.5511 73.5 46.5866C73.5 46.622 73.5 46.6576 73.5 46.6931C73.5 46.7287 73.5 46.7642 73.5 46.7999C73.5 46.8355 73.5 46.8711 73.5 46.9068C73.5 46.9425 73.5 46.9782 73.5 47.014C73.5 47.0497 73.5 47.0855 73.5 47.1214C73.5 47.1572 73.5 47.193 73.5 47.2289C73.5 47.2648 73.5 47.3007 73.5 47.3367C73.5 47.3726 73.5 47.4086 73.5 47.4446C73.5 47.4807 73.5 47.5167 73.5 47.5528C73.5 47.5889 73.5 47.625 73.5 47.6612C73.5 47.6973 73.5 47.7335 73.5 47.7697C73.5 47.8059 73.5 47.8422 73.5 47.8784C73.5 47.9147 73.5 47.951 73.5 47.9874C73.5 48.0237 73.5 48.0601 73.5 48.0965C73.5 48.1329 73.5 48.1693 73.5 48.2058C73.5 48.2422 73.5 48.2787 73.5 48.3153C73.5 48.3518 73.5 48.3883 73.5 48.4249C73.5 48.4615 73.5 48.4981 73.5 48.5348C73.5 48.5714 73.5 48.6081 73.5 48.6448C73.5 48.6815 73.5 48.7182 73.5 48.755C73.5 48.7918 73.5 48.8286 73.5 48.8654C73.5 48.9022 73.5 48.9391 73.5 48.976C73.5 49.0128 73.5 49.0497 73.5 49.0867C73.5 49.1236 73.5 49.1606 73.5 49.1976C73.5 49.2346 73.5 49.2716 73.5 49.3087C73.5 49.3457 73.5 49.3828 73.5 49.4199C73.5 49.457 73.5 49.4942 73.5 49.5313C73.5 49.5685 73.5 49.6057 73.5 49.6429C73.5 49.6802 73.5 49.7174 73.5 49.7547C73.5 49.792 73.5 49.8293 73.5 49.8666C73.5 49.9039 73.5 49.9413 73.5 49.9787C73.5 50.0161 73.5 50.0535 73.5 50.0909C73.5 50.1283 73.5 50.1658 73.5 50.2033C73.5 50.2408 73.5 50.2783 73.5 50.3159C73.5 50.3534 73.5 50.391 73.5 50.4286C73.5 50.4662 73.5 50.5038 73.5 50.5414C73.5 50.5791 73.5 50.6168 73.5 50.6545C73.5 50.6922 73.5 50.7299 73.5 50.7676C73.5 50.8054 73.5 50.8432 73.5 50.881C73.5 50.9188 73.5 50.9566 73.5 50.9944C73.5 51.0323 73.5 51.0701 73.5 51.108C73.5 51.1459 73.5 51.1839 73.5 51.2218C73.5 51.2598 73.5 51.2977 73.5 51.3357C73.5 51.3737 73.5 51.4117 73.5 51.4498C73.5 51.4878 73.5 51.5259 73.5 51.564C73.5 51.602 73.5 51.6402 73.5 51.6783C73.5 51.7164 73.5 51.7546 73.5 51.7928C73.5 51.8309 73.5 51.8691 73.5 51.9074C73.5 51.9456 73.5 51.9838 73.5 52.0221C73.5 52.0604 73.5 52.0987 73.5 52.137C73.5 52.1753 73.5 52.2136 73.5 52.252C73.5 52.2904 73.5 52.3287 73.5 52.3671C73.5 52.4055 73.5 52.444 73.5 52.4824C73.5 52.5209 73.5 52.5593 73.5 52.5978C73.5 52.6363 73.5 52.6748 73.5 52.7133C73.5 52.7519 73.5 52.7904 73.5 52.829C73.5 52.8676 73.5 52.9062 73.5 52.9448C73.5 52.9834 73.5 53.022 73.5 53.0607C73.5 53.0993 73.5 53.138 73.5 53.1767C73.5 53.2154 73.5 53.2541 73.5 53.2928C73.5 53.3315 73.5 53.3703 73.5 53.4091C73.5 53.4478 73.5 53.4866 73.5 53.5254C73.5 53.5642 73.5 53.6031 73.5 53.6419C73.5 53.6808 73.5 53.7196 73.5 53.7585C73.5 53.7974 73.5 53.8363 73.5 53.8752C73.5 53.9141 73.5 53.9531 73.5 53.992C73.5 54.031 73.5 54.07 73.5 54.1089C73.5 54.1479 73.5 54.187 73.5 54.226C73.5 54.265 73.5 54.3041 73.5 54.3431C73.5 54.3822 73.5 54.4213 73.5 54.4604C73.5 54.4995 73.5 54.5386 73.5 54.5777C73.5 54.6168 73.5 54.656 73.5 54.6951C73.5 54.7343 73.5 54.7735 73.5 54.8127C73.5 54.8519 73.5 54.8911 73.5 54.9303C73.5 54.9696 73.5 55.0088 73.5 55.0481C73.5 55.0873 73.5 55.1266 73.5 55.1659C73.5 55.2052 73.5 55.2445 73.5 55.2838C73.5 55.3232 73.5 55.3625 73.5 55.4018C73.5 55.4412 73.5 55.4806 73.5 55.52C73.5 55.5593 73.5 55.5987 73.5 55.6382C73.5 55.6776 73.5 55.717 73.5 55.7564C73.5 55.7959 73.5 55.8353 73.5 55.8748C73.5 55.9143 73.5 55.9538 73.5 55.9933C73.5 56.0328 73.5 56.0723 73.5 56.1118C73.5 56.1513 73.5 56.1909 73.5 56.2304C73.5 56.27 73.5 56.3095 73.5 56.3491C73.5 56.3887 73.5 56.4283 73.5 56.4679C73.5 56.5075 73.5 56.5471 73.5 56.5867C73.5 56.6264 73.5 56.666 73.5 56.7057C73.5 56.7453 73.5 56.785 73.5 56.8247C73.5 56.8644 73.5 56.9041 73.5 56.9438C73.5 56.9835 73.5 57.0232 73.5 57.0629C73.5 57.1026 73.5 57.1424 73.5 57.1821C73.5 57.2219 73.5 57.2616 73.5 57.3014C73.5 57.3412 73.5 57.381 73.5 57.4208C73.5 57.4605 73.5 57.5004 73.5 57.5402C73.5 57.58 73.5 57.6198 73.5 57.6596C73.5 57.6995 73.5 57.7393 73.5 57.7792C73.5 57.819 73.5 57.8589 73.5 57.8988C73.5 57.9387 73.5 57.9786 73.5 58.0185C73.5 58.0583 73.5 58.0983 73.5 58.1382C73.5 58.1781 73.5 58.218 73.5 58.2579C73.5 58.2979 73.5 58.3378 73.5 58.3778C73.5 58.4177 73.5 58.4577 73.5 58.4976C73.5 58.5376 73.5 58.5776 73.5 58.6176C73.5 58.6576 73.5 58.6976 73.5 58.7376C73.5 58.7776 73.5 58.8176 73.5 58.8576C73.5 58.8976 73.5 58.9376 73.5 58.9777C73.5 59.0177 73.5 59.0577 73.5 59.0978C73.5 59.1378 73.5 59.1779 73.5 59.218C73.5 59.258 73.5 59.2981 73.5 59.3382C73.5 59.3782 73.5 59.4183 73.5 59.4584C73.5 59.4985 73.5 59.5386 73.5 59.5787C73.5 59.6188 73.5 59.6589 73.5 59.699C73.5 59.7391 73.5 59.7793 73.5 59.8194C73.5 59.8595 73.5 59.8997 73.5 59.9398C73.5 59.9799 73.5 60.0201 73.5 60.0602C73.5 60.1004 73.5 60.1405 73.5 60.1807C73.5 60.2208 73.5 60.261 73.5 60.3012C73.5 60.3414 73.5 60.3815 73.5 60.4217C73.5 60.4619 73.5 60.5021 73.5 60.5423C73.5 60.5824 73.5 60.6226 73.5 60.6628C73.5 60.703 73.5 60.7432 73.5 60.7834C73.5 60.8236 73.5 60.8638 73.5 60.9041C73.5 60.9443 73.5 60.9845 73.5 61.0247C73.5 61.0649 73.5 61.1051 73.5 61.1454C73.5 61.1856 73.5 61.2258 73.5 61.266C73.5 61.3063 73.5 61.3465 73.5 61.3867C73.5 61.427 73.5 61.4672 73.5 61.5075C73.5 61.5477 73.5 61.5879 73.5 61.6282C73.5 61.6684 73.5 61.7087 73.5 61.7489C73.5 61.7892 73.5 61.8294 73.5 61.8697C73.5 61.9099 73.5 61.9502 73.5 61.9904C73.5 62.0307 73.5 62.071 73.5 62.1112C73.5 62.1515 73.5 62.1917 73.5 62.232C73.5 62.2722 73.5 62.3125 73.5 62.3528C73.5 62.393 73.5 62.4333 73.5 62.4735C73.5 62.5138 73.5 62.5541 73.5 62.5943C73.5 62.6346 73.5 62.6749 73.5 62.7151C73.5 62.7554 73.5 62.7956 73.5 62.8359C73.5 62.8762 73.5 62.9164 73.5 62.9567C73.5 62.9969 73.5 63.0372 73.5 63.0775C73.5 63.1177 73.5 63.158 73.5 63.1982C73.5 63.2385 73.5 63.2788 73.5 63.319C73.5 63.3593 73.5 63.3995 73.5 63.4398C73.5 63.48 73.5 63.5203 73.5 63.5605C73.5 63.6008 73.5 63.641 73.5 63.6812C73.5 63.7215 73.5 63.7617 73.5 63.802C73.5 63.8422 73.5 63.8824 73.5 63.9227C73.5 63.9629 73.5 64.0031 73.5 64.0434C73.5 64.0836 73.5 64.1238 73.5 64.164C73.5 64.2043 73.5 64.2445 73.5 64.2847C73.5 64.3249 73.5 64.3651 73.5 64.4053C73.5 64.4455 73.5 64.4857 73.5 64.5259C73.5 64.5661 73.5 64.6063 73.5 64.6465C73.5 64.6867 73.5 64.7269 73.5 64.7671C73.5 64.8073 73.5 64.8474 73.5 64.8876C73.5 64.9278 73.5 64.968 73.5 65.0081C73.5 65.0483 73.5 65.0885 73.5 65.1286C73.5 65.1688 73.5 65.2089 73.5 65.2491C73.5 65.2892 73.5 65.3293 73.5 65.3695C73.5 65.4096 73.5 65.4497 73.5 65.4898C73.5 65.53 73.5 65.5701 73.5 65.6102C73.5 65.6503 73.5 65.6904 73.5 65.7305C73.5 65.7706 73.5 65.8107 73.5 65.8508C73.5 65.8909 73.5 65.9309 73.5 65.971C73.5 66.0111 73.5 66.0511 73.5 66.0912C73.5 66.1312 73.5 66.1713 73.5 66.2113C73.5 66.2514 73.5 66.2914 73.5 66.3314C73.5 66.3715 73.5 66.4115 73.5 66.4515C73.5 66.4915 73.5 66.5315 73.5 66.5715C73.5 66.6115 73.5 66.6515 73.5 66.6914C73.5 66.7314 73.5 66.7714 73.5 66.8113C73.5 66.8513 73.5 66.8913 73.5 66.9312C73.5 66.9711 73.5 67.0111 73.5 67.051C73.5 67.0909 73.5 67.1308 73.5 67.1707C73.5 67.2106 73.5 67.2505 73.5 67.2904C73.5 67.3303 73.5 67.3702 73.5 67.4101C73.5 67.4499 73.5 67.4898 73.5 67.5296C73.5 67.5695 73.5 67.6093 73.5 67.6491C73.5 67.689 73.5 67.7288 73.5 67.7686C73.5 67.8084 73.5 67.8482 73.5 67.888C73.5 67.9278 73.5 67.9675 73.5 68.0073C73.5 68.047 73.5 68.0868 73.5 68.1265C73.5 68.1663 73.5 68.206 73.5 68.2457C73.5 68.2854 73.5 68.3251 73.5 68.3648C73.5 68.4045 73.5 68.4442 73.5 68.4839C73.5 68.5235 73.5 68.5632 73.5 68.6028C73.5 68.6425 73.5 68.6821 73.5 68.7217C73.5 68.7613 73.5 68.8009 73.5 68.8405C73.5 68.8801 73.5 68.9197 73.5 68.9593C73.5 68.9988 73.5 69.0384 73.5 69.0779C73.5 69.1175 73.5 69.157 73.5 69.1965C73.5 69.236 73.5 69.2755 73.5 69.315C73.5 69.3545 73.5 69.394 73.5 69.4334C73.5 69.4729 73.5 69.5123 73.5 69.5517C73.5 69.5912 73.5 69.6306 73.5 69.67C73.5 69.7094 73.5 69.7488 73.5 69.7881C73.5 69.8275 73.5 69.8669 73.5 69.9062C73.5 69.9455 73.5 69.9849 73.5 70.0242C73.5 70.0635 73.5 70.1028 73.5 70.142C73.5 70.1813 73.5 70.2206 73.5 70.2598C73.5 70.2991 73.5 70.3383 73.5 70.3775C73.5 70.4167 73.5 70.4559 73.5 70.4951C73.5 70.5343 73.5 70.5734 73.5 70.6126C73.5 70.6517 73.5 70.6909 73.5 70.73C73.5 70.7691 73.5 70.8082 73.5 70.8473C73.5 70.8864 73.5 70.9254 73.5 70.9645C73.5 71.0035 73.5 71.0425 73.5 71.0815C73.5 71.1206 73.5 71.1596 73.5 71.1985C73.5 71.2375 73.5 71.2765 73.5 71.3154C73.5 71.3543 73.5 71.3933 73.5 71.4322C73.5 71.4711 73.5 71.5099 73.5 71.5488C73.5 71.5877 73.5 71.6265 73.5 71.6653C73.5 71.7042 73.5 71.743 73.5 71.7818C73.5 71.8206 73.5 71.8593 73.5 71.8981C73.5 71.9368 73.5 71.9756 73.5 72.0143C73.5 72.053 73.5 72.0917 73.5 72.1303C73.5 72.169 73.5 72.2077 73.5 72.2463C73.5 72.2849 73.5 72.3235 73.5 72.3621C73.5 72.4007 73.5 72.4393 73.5 72.4778C73.5 72.5164 73.5 72.5549 73.5 72.5934C73.5 72.6319 73.5 72.6704 73.5 72.7089C73.5 72.7473 73.5 72.7858 73.5 72.8242C73.5 72.8626 73.5 72.901 73.5 72.9394C73.5 72.9778 73.5 73.0161 73.5 73.0545C73.5 73.0928 73.5 73.1311 73.5 73.1694C73.5 73.2077 73.5 73.246 73.5 73.2842C73.5 73.3225 73.5 73.3607 73.5 73.3989C73.5 73.4371 73.5 73.4753 73.5 73.5134C73.5 73.5516 73.5 73.5897 73.5 73.6278C73.5 73.666 73.5 73.704 73.5 73.7421C73.5 73.7802 73.5 73.8182 73.5 73.8562C73.5 73.8942 73.5 73.9322 73.5 73.9702C73.5 74.0082 73.5 74.0461 73.5 74.084C73.5 74.122 73.5 74.1599 73.5 74.1977C73.5 74.2356 73.5 74.2735 73.5 74.3113C73.5 74.3491 73.5 74.3869 73.5 74.4247C73.5 74.4624 73.5 74.5002 73.5 74.5379C73.5 74.5756 73.5 74.6133 73.5 74.651C73.5 74.6887 73.5 74.7263 73.5 74.7639C73.5 74.8016 73.5 74.8392 73.5 74.8767C73.5 74.9143 73.5 74.9518 73.5 74.9894C73.5 75.0269 73.5 75.0644 73.5 75.1018C73.5 75.1393 73.5 75.1767 73.5 75.2142C73.5 75.2516 73.5 75.2889 73.5 75.3263C73.5 75.3637 73.5 75.401 73.5 75.4383C73.5 75.4756 73.5 75.5129 73.5 75.5501C73.5 75.5874 73.5 75.6246 73.5 75.6618H80.5C80.5 75.6246 80.5 75.5874 80.5 75.5501C80.5 75.5129 80.5 75.4756 80.5 75.4383C80.5 75.401 80.5 75.3637 80.5 75.3263C80.5 75.2889 80.5 75.2516 80.5 75.2142C80.5 75.1767 80.5 75.1393 80.5 75.1018C80.5 75.0644 80.5 75.0269 80.5 74.9894C80.5 74.9518 80.5 74.9143 80.5 74.8767C80.5 74.8392 80.5 74.8016 80.5 74.7639C80.5 74.7263 80.5 74.6887 80.5 74.651C80.5 74.6133 80.5 74.5756 80.5 74.5379C80.5 74.5002 80.5 74.4624 80.5 74.4247C80.5 74.3869 80.5 74.3491 80.5 74.3113C80.5 74.2735 80.5 74.2356 80.5 74.1977C80.5 74.1599 80.5 74.122 80.5 74.084C80.5 74.0461 80.5 74.0082 80.5 73.9702C80.5 73.9322 80.5 73.8942 80.5 73.8562C80.5 73.8182 80.5 73.7802 80.5 73.7421C80.5 73.704 80.5 73.666 80.5 73.6278C80.5 73.5897 80.5 73.5516 80.5 73.5134C80.5 73.4753 80.5 73.4371 80.5 73.3989C80.5 73.3607 80.5 73.3225 80.5 73.2842C80.5 73.246 80.5 73.2077 80.5 73.1694C80.5 73.1311 80.5 73.0928 80.5 73.0545C80.5 73.0161 80.5 72.9778 80.5 72.9394C80.5 72.901 80.5 72.8626 80.5 72.8242C80.5 72.7858 80.5 72.7473 80.5 72.7089C80.5 72.6704 80.5 72.6319 80.5 72.5934C80.5 72.5549 80.5 72.5164 80.5 72.4778C80.5 72.4393 80.5 72.4007 80.5 72.3621C80.5 72.3235 80.5 72.2849 80.5 72.2463C80.5 72.2077 80.5 72.169 80.5 72.1303C80.5 72.0917 80.5 72.053 80.5 72.0143C80.5 71.9756 80.5 71.9368 80.5 71.8981C80.5 71.8593 80.5 71.8206 80.5 71.7818C80.5 71.743 80.5 71.7042 80.5 71.6653C80.5 71.6265 80.5 71.5877 80.5 71.5488C80.5 71.5099 80.5 71.4711 80.5 71.4322C80.5 71.3933 80.5 71.3543 80.5 71.3154C80.5 71.2765 80.5 71.2375 80.5 71.1985C80.5 71.1596 80.5 71.1206 80.5 71.0815C80.5 71.0425 80.5 71.0035 80.5 70.9645C80.5 70.9254 80.5 70.8864 80.5 70.8473C80.5 70.8082 80.5 70.7691 80.5 70.73C80.5 70.6909 80.5 70.6517 80.5 70.6126C80.5 70.5734 80.5 70.5343 80.5 70.4951C80.5 70.4559 80.5 70.4167 80.5 70.3775C80.5 70.3383 80.5 70.2991 80.5 70.2598C80.5 70.2206 80.5 70.1813 80.5 70.142C80.5 70.1028 80.5 70.0635 80.5 70.0242C80.5 69.9849 80.5 69.9455 80.5 69.9062C80.5 69.8669 80.5 69.8275 80.5 69.7881C80.5 69.7488 80.5 69.7094 80.5 69.67C80.5 69.6306 80.5 69.5912 80.5 69.5517C80.5 69.5123 80.5 69.4729 80.5 69.4334C80.5 69.394 80.5 69.3545 80.5 69.315C80.5 69.2755 80.5 69.236 80.5 69.1965C80.5 69.157 80.5 69.1175 80.5 69.0779C80.5 69.0384 80.5 68.9988 80.5 68.9593C80.5 68.9197 80.5 68.8801 80.5 68.8405C80.5 68.8009 80.5 68.7613 80.5 68.7217C80.5 68.6821 80.5 68.6425 80.5 68.6028C80.5 68.5632 80.5 68.5235 80.5 68.4839C80.5 68.4442 80.5 68.4045 80.5 68.3648C80.5 68.3251 80.5 68.2854 80.5 68.2457C80.5 68.206 80.5 68.1663 80.5 68.1265C80.5 68.0868 80.5 68.047 80.5 68.0073C80.5 67.9675 80.5 67.9278 80.5 67.888C80.5 67.8482 80.5 67.8084 80.5 67.7686C80.5 67.7288 80.5 67.689 80.5 67.6491C80.5 67.6093 80.5 67.5695 80.5 67.5296C80.5 67.4898 80.5 67.4499 80.5 67.4101C80.5 67.3702 80.5 67.3303 80.5 67.2904C80.5 67.2505 80.5 67.2106 80.5 67.1707C80.5 67.1308 80.5 67.0909 80.5 67.051C80.5 67.0111 80.5 66.9711 80.5 66.9312C80.5 66.8913 80.5 66.8513 80.5 66.8113C80.5 66.7714 80.5 66.7314 80.5 66.6914C80.5 66.6515 80.5 66.6115 80.5 66.5715C80.5 66.5315 80.5 66.4915 80.5 66.4515C80.5 66.4115 80.5 66.3715 80.5 66.3314C80.5 66.2914 80.5 66.2514 80.5 66.2113C80.5 66.1713 80.5 66.1312 80.5 66.0912C80.5 66.0511 80.5 66.0111 80.5 65.971C80.5 65.9309 80.5 65.8909 80.5 65.8508C80.5 65.8107 80.5 65.7706 80.5 65.7305C80.5 65.6904 80.5 65.6503 80.5 65.6102C80.5 65.5701 80.5 65.53 80.5 65.4898C80.5 65.4497 80.5 65.4096 80.5 65.3695C80.5 65.3293 80.5 65.2892 80.5 65.2491C80.5 65.2089 80.5 65.1688 80.5 65.1286C80.5 65.0885 80.5 65.0483 80.5 65.0081C80.5 64.968 80.5 64.9278 80.5 64.8876C80.5 64.8474 80.5 64.8073 80.5 64.7671C80.5 64.7269 80.5 64.6867 80.5 64.6465C80.5 64.6063 80.5 64.5661 80.5 64.5259C80.5 64.4857 80.5 64.4455 80.5 64.4053C80.5 64.3651 80.5 64.3249 80.5 64.2847C80.5 64.2445 80.5 64.2043 80.5 64.164C80.5 64.1238 80.5 64.0836 80.5 64.0434C80.5 64.0031 80.5 63.9629 80.5 63.9227C80.5 63.8824 80.5 63.8422 80.5 63.802C80.5 63.7617 80.5 63.7215 80.5 63.6812C80.5 63.641 80.5 63.6008 80.5 63.5605C80.5 63.5203 80.5 63.48 80.5 63.4398C80.5 63.3995 80.5 63.3593 80.5 63.319C80.5 63.2788 80.5 63.2385 80.5 63.1982C80.5 63.158 80.5 63.1177 80.5 63.0775C80.5 63.0372 80.5 62.9969 80.5 62.9567C80.5 62.9164 80.5 62.8762 80.5 62.8359C80.5 62.7956 80.5 62.7554 80.5 62.7151C80.5 62.6749 80.5 62.6346 80.5 62.5943C80.5 62.5541 80.5 62.5138 80.5 62.4735C80.5 62.4333 80.5 62.393 80.5 62.3528C80.5 62.3125 80.5 62.2722 80.5 62.232C80.5 62.1917 80.5 62.1515 80.5 62.1112C80.5 62.071 80.5 62.0307 80.5 61.9904C80.5 61.9502 80.5 61.9099 80.5 61.8697C80.5 61.8294 80.5 61.7892 80.5 61.7489C80.5 61.7087 80.5 61.6684 80.5 61.6282C80.5 61.5879 80.5 61.5477 80.5 61.5075C80.5 61.4672 80.5 61.427 80.5 61.3867C80.5 61.3465 80.5 61.3063 80.5 61.266C80.5 61.2258 80.5 61.1856 80.5 61.1454C80.5 61.1051 80.5 61.0649 80.5 61.0247C80.5 60.9845 80.5 60.9443 80.5 60.9041C80.5 60.8638 80.5 60.8236 80.5 60.7834C80.5 60.7432 80.5 60.703 80.5 60.6628C80.5 60.6226 80.5 60.5824 80.5 60.5423C80.5 60.5021 80.5 60.4619 80.5 60.4217C80.5 60.3815 80.5 60.3414 80.5 60.3012C80.5 60.261 80.5 60.2208 80.5 60.1807C80.5 60.1405 80.5 60.1004 80.5 60.0602C80.5 60.0201 80.5 59.9799 80.5 59.9398C80.5 59.8997 80.5 59.8595 80.5 59.8194C80.5 59.7793 80.5 59.7391 80.5 59.699C80.5 59.6589 80.5 59.6188 80.5 59.5787C80.5 59.5386 80.5 59.4985 80.5 59.4584C80.5 59.4183 80.5 59.3782 80.5 59.3382C80.5 59.2981 80.5 59.258 80.5 59.218C80.5 59.1779 80.5 59.1378 80.5 59.0978C80.5 59.0577 80.5 59.0177 80.5 58.9777C80.5 58.9376 80.5 58.8976 80.5 58.8576C80.5 58.8176 80.5 58.7776 80.5 58.7376C80.5 58.6976 80.5 58.6576 80.5 58.6176C80.5 58.5776 80.5 58.5376 80.5 58.4976C80.5 58.4577 80.5 58.4177 80.5 58.3778C80.5 58.3378 80.5 58.2979 80.5 58.2579C80.5 58.218 80.5 58.1781 80.5 58.1382C80.5 58.0983 80.5 58.0583 80.5 58.0185C80.5 57.9786 80.5 57.9387 80.5 57.8988C80.5 57.8589 80.5 57.819 80.5 57.7792C80.5 57.7393 80.5 57.6995 80.5 57.6596C80.5 57.6198 80.5 57.58 80.5 57.5402C80.5 57.5004 80.5 57.4605 80.5 57.4208C80.5 57.381 80.5 57.3412 80.5 57.3014C80.5 57.2616 80.5 57.2219 80.5 57.1821C80.5 57.1424 80.5 57.1026 80.5 57.0629C80.5 57.0232 80.5 56.9835 80.5 56.9438C80.5 56.9041 80.5 56.8644 80.5 56.8247C80.5 56.785 80.5 56.7453 80.5 56.7057C80.5 56.666 80.5 56.6264 80.5 56.5867C80.5 56.5471 80.5 56.5075 80.5 56.4679C80.5 56.4283 80.5 56.3887 80.5 56.3491C80.5 56.3095 80.5 56.27 80.5 56.2304C80.5 56.1909 80.5 56.1513 80.5 56.1118C80.5 56.0723 80.5 56.0328 80.5 55.9933C80.5 55.9538 80.5 55.9143 80.5 55.8748C80.5 55.8353 80.5 55.7959 80.5 55.7564C80.5 55.717 80.5 55.6776 80.5 55.6382C80.5 55.5987 80.5 55.5593 80.5 55.52C80.5 55.4806 80.5 55.4412 80.5 55.4018C80.5 55.3625 80.5 55.3232 80.5 55.2838C80.5 55.2445 80.5 55.2052 80.5 55.1659C80.5 55.1266 80.5 55.0873 80.5 55.0481C80.5 55.0088 80.5 54.9696 80.5 54.9303C80.5 54.8911 80.5 54.8519 80.5 54.8127C80.5 54.7735 80.5 54.7343 80.5 54.6951C80.5 54.656 80.5 54.6168 80.5 54.5777C80.5 54.5386 80.5 54.4995 80.5 54.4604C80.5 54.4213 80.5 54.3822 80.5 54.3431C80.5 54.3041 80.5 54.265 80.5 54.226C80.5 54.187 80.5 54.1479 80.5 54.1089C80.5 54.07 80.5 54.031 80.5 53.992C80.5 53.9531 80.5 53.9141 80.5 53.8752C80.5 53.8363 80.5 53.7974 80.5 53.7585C80.5 53.7196 80.5 53.6808 80.5 53.6419C80.5 53.6031 80.5 53.5642 80.5 53.5254C80.5 53.4866 80.5 53.4478 80.5 53.4091C80.5 53.3703 80.5 53.3315 80.5 53.2928C80.5 53.2541 80.5 53.2154 80.5 53.1767C80.5 53.138 80.5 53.0993 80.5 53.0607C80.5 53.022 80.5 52.9834 80.5 52.9448C80.5 52.9062 80.5 52.8676 80.5 52.829C80.5 52.7904 80.5 52.7519 80.5 52.7133C80.5 52.6748 80.5 52.6363 80.5 52.5978C80.5 52.5593 80.5 52.5209 80.5 52.4824C80.5 52.444 80.5 52.4055 80.5 52.3671C80.5 52.3287 80.5 52.2904 80.5 52.252C80.5 52.2136 80.5 52.1753 80.5 52.137C80.5 52.0987 80.5 52.0604 80.5 52.0221C80.5 51.9838 80.5 51.9456 80.5 51.9074C80.5 51.8691 80.5 51.8309 80.5 51.7928C80.5 51.7546 80.5 51.7164 80.5 51.6783C80.5 51.6402 80.5 51.602 80.5 51.564C80.5 51.5259 80.5 51.4878 80.5 51.4498C80.5 51.4117 80.5 51.3737 80.5 51.3357C80.5 51.2977 80.5 51.2598 80.5 51.2218C80.5 51.1839 80.5 51.1459 80.5 51.108C80.5 51.0701 80.5 51.0323 80.5 50.9944C80.5 50.9566 80.5 50.9188 80.5 50.881C80.5 50.8432 80.5 50.8054 80.5 50.7676C80.5 50.7299 80.5 50.6922 80.5 50.6545C80.5 50.6168 80.5 50.5791 80.5 50.5414C80.5 50.5038 80.5 50.4662 80.5 50.4286C80.5 50.391 80.5 50.3534 80.5 50.3159C80.5 50.2783 80.5 50.2408 80.5 50.2033C80.5 50.1658 80.5 50.1283 80.5 50.0909C80.5 50.0535 80.5 50.0161 80.5 49.9787C80.5 49.9413 80.5 49.9039 80.5 49.8666C80.5 49.8293 80.5 49.792 80.5 49.7547C80.5 49.7174 80.5 49.6802 80.5 49.6429C80.5 49.6057 80.5 49.5685 80.5 49.5313C80.5 49.4942 80.5 49.457 80.5 49.4199C80.5 49.3828 80.5 49.3457 80.5 49.3087C80.5 49.2716 80.5 49.2346 80.5 49.1976C80.5 49.1606 80.5 49.1236 80.5 49.0867C80.5 49.0497 80.5 49.0128 80.5 48.976C80.5 48.9391 80.5 48.9022 80.5 48.8654C80.5 48.8286 80.5 48.7918 80.5 48.755C80.5 48.7182 80.5 48.6815 80.5 48.6448C80.5 48.6081 80.5 48.5714 80.5 48.5348C80.5 48.4981 80.5 48.4615 80.5 48.4249C80.5 48.3883 80.5 48.3518 80.5 48.3153C80.5 48.2787 80.5 48.2422 80.5 48.2058C80.5 48.1693 80.5 48.1329 80.5 48.0965C80.5 48.0601 80.5 48.0237 80.5 47.9874C80.5 47.951 80.5 47.9147 80.5 47.8784C80.5 47.8422 80.5 47.8059 80.5 47.7697C80.5 47.7335 80.5 47.6973 80.5 47.6612C80.5 47.625 80.5 47.5889 80.5 47.5528C80.5 47.5167 80.5 47.4807 80.5 47.4446C80.5 47.4086 80.5 47.3726 80.5 47.3367C80.5 47.3007 80.5 47.2648 80.5 47.2289C80.5 47.193 80.5 47.1572 80.5 47.1214C80.5 47.0855 80.5 47.0497 80.5 47.014C80.5 46.9782 80.5 46.9425 80.5 46.9068C80.5 46.8711 80.5 46.8355 80.5 46.7999C80.5 46.7642 80.5 46.7287 80.5 46.6931C80.5 46.6576 80.5 46.622 80.5 46.5866C80.5 46.5511 80.5 46.5156 80.5 46.4802C80.5 46.4448 80.5 46.4094 80.5 46.3741C80.5 46.3387 80.5 46.3034 80.5 46.2681C80.5 46.2329 80.5 46.1976 80.5 46.1624C80.5 46.1272 80.5 46.0921 80.5 46.0569C80.5 46.0218 80.5 45.9867 80.5 45.9517C80.5 45.9166 80.5 45.8816 80.5 45.8466C80.5 45.8116 80.5 45.7766 80.5 45.7417C80.5 45.7068 80.5 45.6719 80.5 45.6371C80.5 45.6023 80.5 45.5675 80.5 45.5327C80.5 45.4979 80.5 45.4632 80.5 45.4285C80.5 45.3938 80.5 45.3592 80.5 45.3245C80.5 45.2899 80.5 45.2553 80.5 45.2208C80.5 45.1863 80.5 45.1518 80.5 45.1173C80.5 45.0828 80.5 45.0484 80.5 45.014C80.5 44.9796 80.5 44.9453 80.5 44.911C80.5 44.8766 80.5 44.8424 80.5 44.8081C80.5 44.7739 80.5 44.7397 80.5 44.7055C80.5 44.6714 80.5 44.6373 80.5 44.6032C80.5 44.5691 80.5 44.5351 80.5 44.5011C80.5 44.4671 80.5 44.4331 80.5 44.3992C80.5 44.3653 80.5 44.3314 80.5 44.2976C80.5 44.2637 80.5 44.2299 80.5 44.1962C80.5 44.1624 80.5 44.1287 80.5 44.095C80.5 44.0613 80.5 44.0277 80.5 43.9941C80.5 43.9605 80.5 43.9269 80.5 43.8934C80.5 43.8599 80.5 43.8264 80.5 43.793C80.5 43.7595 80.5 43.7262 80.5 43.6928C80.5 43.6595 80.5 43.6261 80.5 43.5929C80.5 43.5596 80.5 43.5264 80.5 43.4932C80.5 43.46 80.5 43.4269 80.5 43.3938C80.5 43.3607 80.5 43.3276 80.5 43.2946C80.5 43.2616 80.5 43.2286 80.5 43.1957C80.5 43.1628 80.5 43.1299 80.5 43.097C80.5 43.0642 80.5 43.0314 80.5 42.9986C80.5 42.9659 80.5 42.9332 80.5 42.9005C80.5 42.8678 80.5 42.8352 80.5 42.8026C80.5 42.77 80.5 42.7375 80.5 42.705C80.5 42.6725 80.5 42.6401 80.5 42.6077C80.5 42.5753 80.5 42.5429 80.5 42.5106C80.5 42.4783 80.5 42.446 80.5 42.4138C80.5 42.3815 80.5 42.3493 80.5 42.3172C80.5 42.2851 80.5 42.253 80.5 42.2209C80.5 42.1889 80.5 42.1569 80.5 42.1249C80.5 42.093 80.5 42.0611 80.5 42.0292C80.5 41.9973 80.5 41.9655 80.5 41.9337C80.5 41.902 80.5 41.8702 80.5 41.8386C80.5 41.8069 80.5 41.7752 80.5 41.7437C80.5 41.7121 80.5 41.6805 80.5 41.649C80.5 41.6175 80.5 41.5861 80.5 41.5547C80.5 41.5233 80.5 41.4919 80.5 41.4606C80.5 41.4293 80.5 41.3981 80.5 41.3669C80.5 41.3356 80.5 41.3045 80.5 41.2734C80.5 41.2422 80.5 41.2112 80.5 41.1802C80.5 41.1491 80.5 41.1182 80.5 41.0872C80.5 41.0563 80.5 41.0254 80.5 40.9946C80.5 40.9638 80.5 40.933 80.5 40.9023C80.5 40.8716 80.5 40.8409 80.5 40.8102C80.5 40.7796 80.5 40.749 80.5 40.7185C80.5 40.688 80.5 40.6575 80.5 40.6271C80.5 40.5966 80.5 40.5662 80.5 40.5359C80.5 40.5056 80.5 40.4753 80.5 40.445C80.5 40.4148 80.5 40.3846 80.5 40.3545C80.5 40.3244 80.5 40.2943 80.5 40.2642C80.5 40.2342 80.5 40.2042 80.5 40.1743C80.5 40.1444 80.5 40.1145 80.5 40.0847C80.5 40.0548 80.5 40.025 80.5 39.9953C80.5 39.9656 80.5 39.9359 80.5 39.9063C80.5 39.8767 80.5 39.8471 80.5 39.8176C80.5 39.788 80.5 39.7586 80.5 39.7292C80.5 39.6997 80.5 39.6704 80.5 39.6411C80.5 39.6118 80.5 39.5825 80.5 39.5533C80.5 39.5241 80.5 39.4949 80.5 39.4658C80.5 39.4367 80.5 39.4077 80.5 39.3787C80.5 39.3497 80.5 39.3207 80.5 39.2918C80.5 39.2629 80.5 39.2341 80.5 39.2053C80.5 39.1765 80.5 39.1478 80.5 39.1191C80.5 39.0905 80.5 39.0618 80.5 39.0333C80.5 39.0047 80.5 38.9762 80.5 38.9477C80.5 38.9193 80.5 38.8909 80.5 38.8625C80.5 38.8342 80.5 38.8059 80.5 38.7776C80.5 38.7494 80.5 38.7212 80.5 38.6931C80.5 38.6649 80.5 38.6369 80.5 38.6088C80.5 38.5808 80.5 38.5529 80.5 38.5249C80.5 38.497 80.5 38.4692 80.5 38.4414C80.5 38.4136 80.5 38.3858 80.5 38.3582C80.5 38.3305 80.5 38.3028 80.5 38.2753C80.5 38.2477 80.5 38.2202 80.5 38.1927C80.5 38.1652 80.5 38.1378 80.5 38.1105C80.5 38.0831 80.5 38.0559 80.5 38.0286C80.5 38.0014 80.5 37.9742 80.5 37.9471C80.5 37.92 80.5 37.8929 80.5 37.8659C80.5 37.8389 80.5 37.8119 80.5 37.7851C80.5 37.7582 80.5 37.7313 80.5 37.7046C80.5 37.6778 80.5 37.6511 80.5 37.6244C80.5 37.5978 80.5 37.5712 80.5 37.5446C80.5 37.5181 80.5 37.4916 80.5 37.4652C80.5 37.4388 80.5 37.4124 80.5 37.3861C80.5 37.3598 80.5 37.3335 80.5 37.3073C80.5 37.2812 80.5 37.255 80.5 37.229C80.5 37.2029 80.5 37.1769 80.5 37.1509C80.5 37.125 80.5 37.0991 80.5 37.0733C80.5 37.0474 80.5 37.0217 80.5 36.996C80.5 36.9703 80.5 36.9446 80.5 36.919C80.5 36.8934 80.5 36.8679 80.5 36.8425C80.5 36.817 80.5 36.7916 80.5 36.7662C80.5 36.7409 80.5 36.7156 80.5 36.6904C80.5 36.6652 80.5 36.64 80.5 36.6149C80.5 36.5898 80.5 36.5648 80.5 36.5398C80.5 36.5148 80.5 36.4899 80.5 36.4651C80.5 36.4402 80.5 36.4154 80.5 36.3907C80.5 36.366 80.5 36.3413 80.5 36.3167C80.5 36.2921 80.5 36.2676 80.5 36.2431C80.5 36.2186 80.5 36.1942 80.5 36.1698C80.5 36.1455 80.5 36.1212 80.5 36.097C80.5 36.0728 80.5 36.0486 80.5 36.0245C80.5 36.0004 80.5 35.9764 80.5 35.9524C80.5 35.9284 80.5 35.9045 80.5 35.8807C80.5 35.8568 80.5 35.8331 80.5 35.8094C80.5 35.7856 80.5 35.762 80.5 35.7384C80.5 35.7148 80.5 35.6913 80.5 35.6679C80.5 35.6444 80.5 35.621 80.5 35.5977C80.5 35.5744 80.5 35.5511 80.5 35.5279C80.5 35.5047 80.5 35.4816 80.5 35.4585C80.5 35.4355 80.5 35.4125 80.5 35.3895C80.5 35.3666 80.5 35.3437 80.5 35.3209C80.5 35.2981 80.5 35.2754 80.5 35.2527C80.5 35.2301 80.5 35.2074 80.5 35.1849C80.5 35.1624 80.5 35.1399 80.5 35.1175C80.5 35.0951 80.5 35.0728 80.5 35.0505C80.5 35.0282 80.5 35.006 80.5 34.9839C80.5 34.9618 80.5 34.9397 80.5 34.9177C80.5 34.8957 80.5 34.8738 80.5 34.8519C80.5 34.8301 80.5 34.8083 80.5 34.7865C80.5 34.7648 80.5 34.7431 80.5 34.7216C80.5 34.7 80.5 34.6784 80.5 34.657C80.5 34.6355 80.5 34.6141 80.5 34.5928C80.5 34.5715 80.5 34.5503 80.5 34.5291C80.5 34.5079 80.5 34.4868 80.5 34.4658C80.5 34.4447 80.5 34.4238 80.5 34.4028C80.5 34.3819 80.5 34.3611 80.5 34.3404C80.5 34.3196 80.5 34.2989 80.5 34.2783C80.5 34.2577 80.5 34.2371 80.5 34.2166C80.5 34.1961 80.5 34.1757 80.5 34.1554C80.5 34.1351 80.5 34.1148 80.5 34.0946C80.5 34.0744 80.5 34.0543 80.5 34.0342C80.5 34.0141 80.5 33.9942 80.5 33.9742C80.5 33.9543 80.5 33.9345 80.5 33.9147C80.5 33.8949 80.5 33.8752 80.5 33.8556C80.5 33.836 80.5 33.8164 80.5 33.7969C80.5 33.7775 80.5 33.758 80.5 33.7387C80.5 33.7194 80.5 33.7001 80.5 33.6809C80.5 33.6617 80.5 33.6426 80.5 33.6235C80.5 33.6045 80.5 33.5855 80.5 33.5666C80.5 33.5477 80.5 33.5289 80.5 33.5101C80.5 33.4914 80.5 33.4727 80.5 33.4541C80.5 33.4355 80.5 33.4169 80.5 33.3985C80.5 33.38 80.5 33.3616 80.5 33.3433C80.5 33.325 80.5 33.3067 80.5 33.2886C80.5 33.2704 80.5 33.2523 80.5 33.2343C80.5 33.2163 80.5 33.1983 80.5 33.1805C80.5 33.1626 80.5 33.1448 80.5 33.1271C80.5 33.1094 80.5 33.0917 80.5 33.0742C80.5 33.0566 80.5 33.0391 80.5 33.0217C80.5 33.0043 80.5 32.9869 80.5 32.9696C80.5 32.9524 80.5 32.9352 80.5 32.9181C80.5 32.901 80.5 32.8839 80.5 32.867C80.5 32.85 80.5 32.8331 80.5 32.8163C80.5 32.7995 80.5 32.7828 80.5 32.7661C80.5 32.7495 80.5 32.7329 80.5 32.7164C80.5 32.6999 80.5 32.6835 80.5 32.6671C80.5 32.6508 80.5 32.6345 80.5 32.6183C80.5 32.6021 80.5 32.586 80.5 32.57C80.5 32.5539 80.5 32.538 80.5 32.5221C80.5 32.5062 80.5 32.4904 80.5 32.4747C80.5 32.459 80.5 32.4433 80.5 32.4277C80.5 32.4122 80.5 32.3967 80.5 32.3813C80.5 32.3659 80.5 32.3505 80.5 32.3353C80.5 32.32 80.5 32.3049 80.5 32.2898C80.5 32.2747 80.5 32.2597 80.5 32.2447C80.5 32.2298 80.5 32.2149 80.5 32.2002C80.5 32.1854 80.5 32.1707 80.5 32.1561C80.5 32.1415 80.5 32.1269 80.5 32.1125C80.5 32.098 80.5 32.0837 80.5 32.0694C80.5 32.0551 80.5 32.0409 80.5 32.0267C80.5 32.0126 80.5 31.9985 80.5 31.9846C80.5 31.9706 80.5 31.9567 80.5 31.9429C80.5 31.9291 80.5 31.9154 80.5 31.9017C80.5 31.8881 80.5 31.8745 80.5 31.861C80.5 31.8475 80.5 31.8342 80.5 31.8208C80.5 31.8075 80.5 31.7943 80.5 31.7811C80.5 31.768 80.5 31.7549 80.5 31.7419C80.5 31.7289 80.5 31.716 80.5 31.7032C80.5 31.6904 80.5 31.6776 80.5 31.665C80.5 31.6523 80.5 31.6397 80.5 31.6273C80.5 31.6148 80.5 31.6024 80.5 31.59C80.5 31.5777 80.5 31.5655 80.5 31.5533C80.5 31.5412 80.5 31.5291 80.5 31.5171C80.5 31.5051 80.5 31.4932 80.5 31.4814C80.5 31.4696 80.5 31.4578 80.5 31.4462C80.5 31.4345 80.5 31.423 80.5 31.4115C80.5 31.4 80.5 31.3886 80.5 31.3773C80.5 31.366 80.5 31.3548 80.5 31.3436C80.5 31.3325 80.5 31.3214 80.5 31.3105C80.5 31.2995 80.5 31.2886 80.5 31.2778C80.5 31.267 80.5 31.2563 80.5 31.2457C80.5 31.235 80.5 31.2245 80.5 31.214C80.5 31.2036 80.5 31.1932 80.5 31.1829C80.5 31.1727 80.5 31.1625 80.5 31.1524C80.5 31.1422 80.5 31.1322 80.5 31.1223C80.5 31.1124 80.5 31.1025 80.5 31.0928C80.5 31.083 80.5 31.0733 80.5 31.0637C80.5 31.0541 80.5 31.0447 80.5 31.0352C80.5 31.0258 80.5 31.0165 80.5 31.0073C80.5 30.998 80.5 30.9889 80.5 30.9798C80.5 30.9708 80.5 30.9618 80.5 30.9529C80.5 30.9441 80.5 30.9353 80.5 30.9266C80.5 30.9179 80.5 30.9092 80.5 30.9007C80.5 30.8922 80.5 30.8838 80.5 30.8754C80.5 30.8671 80.5 30.8588 80.5 30.8506C80.5 30.8425 80.5 30.8344 80.5 30.8264C80.5 30.8184 80.5 30.8105 80.5 30.8027C80.5 30.7949 80.5 30.7872 80.5 30.7796C80.5 30.7719 80.5 30.7644 80.5 30.757C80.5 30.7495 80.5 30.7422 80.5 30.7349C80.5 30.7276 80.5 30.7205 80.5 30.7134C80.5 30.7063 80.5 30.6993 80.5 30.6924C80.5 30.6855 80.5 30.6787 80.5 30.672C80.5 30.6652 80.5 30.6586 80.5 30.6521C80.5 30.6456 80.5 30.6391 80.5 30.6328C80.5 30.6264 80.5 30.6202 80.5 30.614C80.5 30.6078 80.5 30.6017 80.5 30.5958C80.5 30.5898 80.5 30.5839 80.5 30.5781C80.5 30.5723 80.5 30.5666 80.5 30.561C80.5 30.5554 80.5 30.5499 80.5 30.5444C80.5 30.539 80.5 30.5337 80.5 30.5285C80.5 30.5232 80.5 30.5181 80.5 30.513C80.5 30.508 80.5 30.503 80.5 30.4982C80.5 30.4933 80.5 30.4885 80.5 30.4839C80.5 30.4792 80.5 30.4746 80.5 30.4701C80.5 30.4656 80.5 30.4613 80.5 30.457C80.5 30.4527 80.5 30.4485 80.5 30.4444C80.5 30.4403 80.5 30.4363 80.5 30.4323C80.5 30.4284 80.5 30.4246 80.5 30.4209C80.5 30.4172 80.5 30.4135 80.5 30.41C80.5 30.4065 80.5 30.403 80.5 30.3997C80.5 30.3964 80.5 30.3931 80.5 30.39C80.5 30.3868 80.5 30.3838 80.5 30.3808C80.5 30.3779 80.5 30.375 80.5 30.3722C80.5 30.3695 80.5 30.3668 80.5 30.3643C80.5 30.3617 80.5 30.3592 80.5 30.3568C80.5 30.3545 80.5 30.3522 80.5 30.35C80.5 30.3478 80.5 30.3458 80.5 30.3438C80.5 30.3418 80.5 30.3399 80.5 30.3381C80.5 30.3363 80.5 30.3347 80.5 30.3331C80.5 30.3315 80.5 30.33 80.5 30.3286C80.5 30.3272 80.5 30.3259 80.5 30.3247C80.5 30.3235 80.5 30.3224 80.5 30.3214C80.5 30.3204 80.5 30.3195 80.5 30.3187C80.5 30.3179 80.5 30.3172 80.5 30.3166C80.5 30.316 80.5 30.3155 80.5 30.3151C80.5 30.3147 80.5 30.3144 80.5 30.3142C80.5 30.314 80.5 30.3139 77 30.3139Z" fill="#77C5EE"/>
<line x1="60.5" y1="80.5" x2="83.5" y2="80.5" stroke="#1F2182" stroke-width="7" stroke-linecap="round"/>
<line x1="65.5" y1="76.5" x2="88.5" y2="76.5" stroke="#77C5EE" stroke-width="7" stroke-linecap="round"/>
<circle cx="19" cy="91" r="12" fill="white"/>
<mask id="mask0_38_32" style="mask-type:luminance" maskUnits="userSpaceOnUse" x="128" y="29" width="90" height="90">
<path d="M128 29H218V119H128V29Z" fill="white"/>
</mask>
<g mask="url(#mask0_38_32)">
<path d="M198.312 99.3125V34.6391C198.312 34.6391 198.312 31.8125 195.5 31.8125H133.625C133.625 31.8125 130.812 31.8125 130.812 34.6391V107.764C130.812 107.764 130.812 116.188 139.25 116.188H206.75C206.75 116.188 215.188 116.202 215.188 104.952V62.7641C215.188 62.7641 215.188 59.9375 212.375 59.9375H206.75M181.438 48.6875H167.375M181.438 59.9375H147.688M181.438 71.1875H147.688M181.438 82.4375H147.688M181.438 93.6875H147.688" stroke="#1F2182" stroke-width="6" stroke-linecap="round" stroke-linejoin="round"/>
</g>
</svg>
